<svg id="Layer_1" data-name="Layer 1" xmlns="http://www.w3.org/2000/svg" viewBox="0 0 1593 564"><defs><style>.cls-1{fill:#fff;}.cls-2{fill:none;stroke:#fff;stroke-miterlimit:10;stroke-width:4px;}</style></defs><title>FreshersWeekPlaceholder</title><path class="cls-1" d="M343.49,416.27H294.87v22.08H336V471H294.87v54.49h-35V383.65h83.66Z" transform="translate(-163 -299)"/><path class="cls-1" d="M420.86,454.35c-8.3,0-14.18.81-20.25,5.06-4.46,2.84-7.3,7.29-7.7,15v51.05h-33V422.14h27.95l3.24,15.6c3.65-8.91,12.36-16.61,29.78-16.61Z" transform="translate(-163 -299)"/><path class="cls-1" d="M531.66,474.6v8.11H464.81c.41,9.52,7.09,17.62,19.25,17.62,7.69,0,13.77-2.84,15.59-8.31h31.81C525,514.91,509,527.67,483.25,527.67c-31.6,0-52.67-21.06-52.67-53.67,0-31.4,21.27-54.09,52.46-54.09C510.59,419.91,531.66,436.93,531.66,474.6Zm-66.85-12h33.63C498,452.73,492,446,482,446S465.42,452.73,464.81,462.65Z" transform="translate(-163 -299)"/><path class="cls-1" d="M627.26,452.73H595.05c-.2-5.07-3-8.51-8.5-8.51-5.07,0-8.11,2.63-8.11,7.09,0,5.06,3.25,8.1,17,9.72,25.32,3,33.62,14.59,33.62,31.6,0,25.73-20.86,35-42.74,35-26.53,0-41.32-13-42.33-33.42h32.21c.2,6.28,4.86,9.12,10.93,9.12,5.27,0,9.12-2,9.12-6.69s-2.43-7.9-16.61-9.92c-23.5-3.24-33.83-14.59-33.83-31.6,0-18.84,13-35.25,40.92-35.25C609.64,419.91,626.25,432.88,627.26,452.73Z" transform="translate(-163 -299)"/><path class="cls-1" d="M680.33,431.66c4.86-6.08,12.15-11.75,24.51-11.75,21.87,0,33.22,14.59,33.22,38.29v67.25H705V466.3c0-9.12-3.24-14.18-10.94-14.18-7.49,0-13.77,5.06-13.77,19.24v54.09h-33V377.58h33Z" transform="translate(-163 -299)"/><path class="cls-1" d="M856.75,474.6v8.11H789.91c.4,9.52,7.09,17.62,19.24,17.62,7.7,0,13.77-2.84,15.6-8.31h31.8c-6.48,22.89-22.48,35.65-48.21,35.65-31.6,0-52.67-21.06-52.67-53.67,0-31.4,21.27-54.09,52.47-54.09C835.69,419.91,856.75,436.93,856.75,474.6Zm-66.84-12h33.62c-.4-9.92-6.48-16.61-16.41-16.61S790.51,452.73,789.91,462.65Z" transform="translate(-163 -299)"/><path class="cls-1" d="M937.16,454.35c-8.3,0-14.18.81-20.25,5.06-4.46,2.84-7.3,7.29-7.7,15v51.05h-33V422.14h28l3.24,15.6c3.64-8.91,12.35-16.61,29.77-16.61Z" transform="translate(-163 -299)"/><path class="cls-1" d="M1031.55,452.73H999.34c-.2-5.07-3-8.51-8.5-8.51-5.07,0-8.11,2.63-8.11,7.09,0,5.06,3.25,8.1,17,9.72,25.32,3,33.63,14.59,33.63,31.6,0,25.73-20.87,35-42.75,35-26.53,0-41.32-13-42.33-33.42h32.21c.2,6.28,4.86,9.12,10.94,9.12,5.26,0,9.11-2,9.11-6.69s-2.43-7.9-16.61-9.92c-23.5-3.24-33.83-14.59-33.83-31.6,0-18.84,13-35.25,40.92-35.25C1013.93,419.91,1030.54,432.88,1031.55,452.73Z" transform="translate(-163 -299)"/><path class="cls-1" d="M1081.38,394.39c0,14.38-8.51,30.18-18.44,41.32l-8.91-3c3-7.09,4.66-14.17,5.47-23.29-8.71-1.22-15.19-7.9-15.19-17,0-10.12,8.1-18,18.43-18S1081.38,381.83,1081.38,394.39Z" transform="translate(-163 -299)"/><path class="cls-1" d="M1286.57,525.45h-37.88l-19-68.67-1.83-9.93-1.62,9.93-19,68.67h-37.88l-41.52-141.8h36.86l22.29,80.83,1.82,10.33,1.62-10.33,21.27-80.83h32.61l21.27,80.83,1.42,10.33,2-10.33,22.28-80.83h36.87Z" transform="translate(-163 -299)"/><path class="cls-1" d="M1423.69,474.6v8.11h-66.84c.4,9.52,7.09,17.62,19.24,17.62,7.7,0,13.78-2.84,15.6-8.31h31.8c-6.48,22.89-22.48,35.65-48.21,35.65-31.6,0-52.66-21.06-52.66-53.67,0-31.4,21.26-54.09,52.46-54.09C1402.63,419.91,1423.69,436.93,1423.69,474.6Zm-66.84-12h33.62c-.4-9.92-6.48-16.61-16.41-16.61S1357.46,452.73,1356.85,462.65Z" transform="translate(-163 -299)"/><path class="cls-1" d="M1538.74,474.6v8.11h-66.85c.41,9.52,7.09,17.62,19.25,17.62,7.69,0,13.77-2.84,15.59-8.31h31.81c-6.49,22.89-22.49,35.65-48.21,35.65-31.6,0-52.67-21.06-52.67-53.67,0-31.4,21.27-54.09,52.46-54.09C1517.67,419.91,1538.74,436.93,1538.74,474.6Zm-66.85-12h33.63c-.41-9.92-6.48-16.61-16.41-16.61S1472.5,452.73,1471.89,462.65Z" transform="translate(-163 -299)"/><path class="cls-1" d="M1591.2,459.21l23.7-37.07h38.89L1626,465.89l33.22,59.56h-37.68l-18.84-34-11.54,15.39v18.64h-33V377.58h33Z" transform="translate(-163 -299)"/><path class="cls-2" d="M848.19,672.62c0,17.63-8.51,29.78-18,40.92L805.65,741.9h41.53v32.61H757V749.19l41.73-47.4c8.71-9.72,14.18-16.61,14.18-27.34,0-6.89-3.25-11.75-9.73-11.75-7.7,0-12,4.46-11.54,14.79h-35c-.81-28.77,18.84-47.4,47-47.4C833.2,630.09,848.19,647.51,848.19,672.62Z" transform="translate(-163 -299)"/><path class="cls-2" d="M964.46,703.41c0,46-18.64,73.74-52.27,73.74s-52.26-27.75-52.26-73.74c0-45.77,18.64-73.32,52.26-73.32S964.46,657.64,964.46,703.41Zm-69.28,0c0,26.54,5.47,41.12,17,41.12s17-14.58,17-41.12c0-26.33-5.47-40.71-17-40.71S895.18,677.08,895.18,703.41Z" transform="translate(-163 -299)"/><path class="cls-2" d="M1043,774.51h-35V684H978V654.6c22.89,0,35.86-5.88,39.7-21.88H1043Z" transform="translate(-163 -299)"/><path class="cls-2" d="M1064.71,731.37h35.45c.41,9.32,5.07,13.16,12.76,13.16,10.13,0,16.21-7.69,16.62-28.56-4.87,4-13.37,7.29-23.5,7.29-25.93,0-43.35-17.62-43.35-44.56,0-31.19,21.47-48.61,49-48.61,16.41,0,28.76,4.86,37.47,15,10.74,12.76,15.6,33,15.6,56.31,0,51.25-17.22,75.76-53.48,75.76C1084.77,777.15,1065.32,758.92,1064.71,731.37Zm63.81-52.87c0-9.32-6.28-16.41-15.39-16.41-8.71,0-15,7.09-15,16.41,0,8.91,6.28,16.2,15,16.2S1128.52,687.41,1128.52,678.5Z" transform="translate(-163 -299)"/><rect class="cls-2" x="2" y="2" width="1589" height="560"/></svg>