<?xml version="1.0" encoding="UTF-8"?>
<svg width="78px" height="70px" viewBox="0 0 78 70" version="1.1" xmlns="http://www.w3.org/2000/svg" xmlns:xlink="http://www.w3.org/1999/xlink">
    <!-- Generator: Sketch 56.3 (81716) - https://sketch.com -->
    <title>Love heart Copy</title>
    <desc>Created with Sketch.</desc>
    <g id="Love-heart-Copy" stroke="none" stroke-width="1" fill="none" fill-rule="evenodd">
        <path d="M20.75,0.0347 C15.4062,0.0347 10.062,2.1288 6.031,6.3475 C-2.0315,14.785 -2.0237,28.3085 6.031,36.7535 L36.812,69.0345 C37.3745,69.62825 38.1597,69.96419 38.9839,69.96419 C39.80421,69.96419 40.5894,69.62825 41.1558,69.0345 C51.4258,58.2885 61.6988,47.5305 71.9678,36.7845 C80.0303,28.347 80.0303,14.8155 71.9678,6.3785 C63.9053,-2.0585 50.5928,-2.059 42.5298,6.3785 L38.9986,10.0347 L35.4674,6.3472 C31.4362,2.1284 26.0924,0.0347 20.7484,0.0347 L20.75,0.0347 Z" id="Shape" fill="currentcolor" fill-rule="nonzero"></path>
    </g>
</svg>
