<?xml version="1.0" encoding="UTF-8"?>
<svg width="78px" height="70px" viewBox="0 0 78 70" version="1.1" xmlns="http://www.w3.org/2000/svg" xmlns:xlink="http://www.w3.org/1999/xlink">
    <!-- Generator: Sketch 56.3 (81716) - https://sketch.com -->
    <title>Love heart</title>
    <desc>Created with Sketch.</desc>
    <g id="Love-heart" stroke="none" stroke-width="1" fill="none" fill-rule="evenodd">
        <path d="M20.75,0.0347 C15.4062,0.0347 10.062,2.1288 6.031,6.3475 C-2.0315,14.785 -2.0237,28.3085 6.031,36.7535 L36.812,69.0345 C37.3745,69.62825 38.1597,69.96419 38.9839,69.96419 C39.80421,69.96419 40.5894,69.62825 41.1558,69.0345 C51.4258,58.2885 61.6988,47.5305 71.9678,36.7845 C80.0303,28.347 80.0303,14.8155 71.9678,6.3785 C63.9053,-2.0585 50.5928,-2.059 42.5298,6.3785 L38.9986,10.0347 L35.4674,6.3472 C31.4362,2.1284 26.0924,0.0347 20.7484,0.0347 L20.75,0.0347 Z M20.75,5.91 C24.4805,5.91 28.2344,7.4452 31.156,10.5038 L36.8435,16.4726 C37.406,17.06635 38.1912,17.40229 39.0154,17.40229 C39.83571,17.40229 40.6209,17.06635 41.1873,16.4726 L46.8435,10.5351 C52.6833,4.4218 61.7845,4.4218 67.6245,10.5351 C73.4643,16.6484 73.4643,26.5471 67.6245,32.6601 C58.0854,42.6445 48.5385,52.6131 38.9995,62.5981 L10.3745,32.6291 C4.5347,26.508 4.5347,16.6171 10.3745,10.5041 C13.2964,7.4455 17.019,5.91 20.7495,5.91 L20.75,5.91 Z" id="Shape" fill="currentcolor" fill-rule="nonzero"></path>
    </g>
</svg>
