<?xml version="1.0" encoding="UTF-8"?>
<svg width="100pt" height="100pt" version="1.1" viewBox="0 0 100 100" xmlns="http://www.w3.org/2000/svg">
 <g>
  <path d="m87.09 6.8086h-82.82c-0.55078 0-1 0.44922-1 1v64.543c0 0.26172 0.10547 0.51953 0.29297 0.70703s0.44141 0.29297 0.70703 0.29297h49.609c0.55469 7.2383 4.7305 13.707 11.102 17.188 6.3711 3.4844 14.074 3.5039 20.465 0.0625 6.3906-3.4453 10.605-9.8906 11.199-17.129 0.59766-7.2344-2.5117-14.281-8.2539-18.723l-0.28906-0.21094v-46.73c0-0.26562-0.10937-0.51953-0.29687-0.71094-0.19141-0.1875-0.44922-0.28906-0.71484-0.28906zm-81.82 2h80.82v44.422c-3.2773-1.9336-7.0156-2.9492-10.82-2.9414-0.67969 0-1.3594 0-2 0.10156l-12.078-11.621c-0.36328-0.34766-0.92969-0.375-1.3203-0.058593l-9.6094 7.6875-13.523-14.859c-0.18359-0.20703-0.44922-0.32422-0.72656-0.32812-0.27734 0.003906-0.54297 0.11328-0.74219 0.30859l-23.488 24.73c-0.27734 0.28906-0.35547 0.71484-0.19922 1.082 0.16016 0.36719 0.51953 0.60547 0.91797 0.60938h46c0.17188-0.003906 0.33984-0.054687 0.48828-0.14062-3.2422 3.7734-5.0625 8.5625-5.1484 13.539h-48.57zm54 47.461l-7.6289-8.3906 8.8281-7.0703 10.32 10c-4.3711 0.94922-8.3359 3.2461-11.34 6.5625 0.16016-0.375 0.078125-0.8125-0.21094-1.1016zm-3-0.32812h-41.441l21.172-22.262zm38.488 15.801l0.003907-0.003907c-0.046875 6.832-3.6719 13.137-9.5508 16.613-5.8789 3.4727-13.148 3.6133-19.156 0.36328-6.0078-3.25-9.8672-9.4141-10.176-16.234 0.003906-0.042969 0.003906-0.085938 0-0.12891 0.007813-0.066406 0.007813-0.12891 0-0.19141v-0.42188c0.007813-5.1445 2.0469-10.082 5.6836-13.727 3.6328-3.6484 8.5586-5.707 13.707-5.7305 5.1641-0.003906 10.113 2.0469 13.766 5.6953 3.6484 3.6484 5.6992 8.6016 5.6953 13.762z"/>
  <path d="m50.93 33.109c3.4961 0 6.6445-2.1055 7.9844-5.332 1.3359-3.2305 0.59766-6.9453-1.875-9.418-2.4688-2.4688-6.1875-3.2109-9.4141-1.8711-3.2305 1.3359-5.3359 4.4883-5.3359 7.9805 0.007813 4.7695 3.8711 8.6367 8.6406 8.6406zm0-15.281c2.6875 0 5.1055 1.6211 6.1367 4.1016 1.0273 2.4805 0.45703 5.3359-1.4414 7.2344-1.8984 1.8984-4.7539 2.4688-7.2344 1.4414-2.4844-1.0273-4.1016-3.4492-4.1016-6.1367 0-3.668 2.9727-6.6445 6.6406-6.6484z"/>
  <path d="m76.27 59.469h-2v11.27h-11.27v2h11.27v11.273h2v-11.273h11.281v-2h-11.281z"/>
 </g>
</svg>
