<?xml version="1.0" encoding="UTF-8"?>
<svg width="100pt" height="100pt" version="1.1" viewBox="0 0 100 100" xmlns="http://www.w3.org/2000/svg">
 <path d="m66.699 32.5c0-0.80078-0.69922-1.5-1.5-1.5h-30.398c-0.80078 0-1.5 0.69922-1.5 1.5v16.699c0 6.1016 3.1016 11.602 8.1992 14.801l7.6992 4.8008c0.19922 0.19922 0.5 0.19922 0.80078 0.19922s0.5-0.10156 0.80078-0.19922l7.6992-4.8008c5.1992-3.1992 8.1992-8.8008 8.1992-14.801zm-3 16.699c0 5-2.5 9.6016-6.8008 12.301l-6.8984 4.1992-6.8984-4.3008c-4.3008-2.6992-6.8008-7.1992-6.8008-12.301v-15.098h27.5v15.199zm-19.199-0.30078l-0.80078 4.6016c-0.10156 0.60156 0.10156 1.1016 0.60156 1.5 0.30078 0.19922 0.60156 0.30078 0.89844 0.30078 0.19922 0 0.5-0.10156 0.69922-0.19922l4.1016-2.1992 4.1016 2.1992c0.5 0.30078 1.1016 0.19922 1.6016-0.10156s0.69922-0.89844 0.60156-1.5l-0.80078-4.6016 3.3984-3.3008c0.39844-0.39844 0.60156-1 0.39844-1.5-0.19922-0.5-0.60156-0.89844-1.1992-1l-4.6016-0.69922-2.1016-4.1992c-0.30078-0.5-0.80078-0.80078-1.3008-0.80078s-1.1016 0.30078-1.3008 0.80078l-2.1016 4.1992-4.6953 0.70312c-0.60156 0.10156-1 0.5-1.1992 1s0 1.1016 0.39844 1.5zm3.3008-3.6992c0.5-0.10156 0.89844-0.39844 1.1016-0.80078l1.1016-2.1992 1.1016 2.1992c0.19922 0.39844 0.60156 0.69922 1.1016 0.80078l2.3984 0.30078-1.6992 1.6992c-0.39844 0.30078-0.5 0.80078-0.39844 1.3008l0.39844 2.3984-2.1016-1.1016c-0.19922-0.10156-0.5-0.19922-0.69922-0.19922s-0.5 0.10156-0.69922 0.19922l-2.207 1.2031 0.39844-2.3984c0.10156-0.5-0.10156-1-0.39844-1.3008l-1.6992-1.6992zm-15.199 11c0.39844 1 0.89844 2 1.5 3h-12.602c-0.60156 0-1.1016-0.30078-1.3984-0.89844-0.19922-0.5-0.10156-1.1992 0.30078-1.6016l5.5-6.1016-5.5-6.1016c-0.39844-0.39844-0.5-1.1016-0.30078-1.6016 0.19922-0.5 0.80078-0.89844 1.3984-0.89844h9.8008v3h-6.3984l4.1016 4.6016c0.5 0.60156 0.5 1.3984 0 2l-4.1016 4.6016zm47 0.40234c0.39844 0.39844 0.5 1.1016 0.30078 1.6016-0.19922 0.5-0.80078 0.89844-1.3984 0.89844h-12.504c0.60156-1 1.1016-2 1.5-3h7.6992l-4.1992-4.5c-0.5-0.60156-0.5-1.3984 0-2l4.1016-4.6016h-6.3984v-3h9.8008c0.60156 0 1.1016 0.30078 1.3984 0.89844 0.19922 0.5 0.10156 1.1992-0.30078 1.6016l-5.5 6.1016z"/>
</svg>
