<?xml version="1.0" encoding="UTF-8"?>
<svg width="100pt" height="100pt" version="1.1" viewBox="0 0 100 100" xmlns="http://www.w3.org/2000/svg">
 <path d="m7.8008 80h84.5c0.5 0 1-0.39844 1-1v-52.102c0-0.5-0.39844-1-1-1h-4.6992v-1.8984c0-0.5-0.30078-0.80078-0.80078-0.89844-0.10156 0-7.5-1.6992-15.602-2.5-11.102-1.1016-18.199-0.19922-21.102 2.8008 0 0 0 0.10156-0.10156 0.10156 0 0 0-0.10156-0.10156-0.10156-2.8008-3-9.8984-4-21.102-2.8008-8.0938 0.69922-15.492 2.3984-15.594 2.3984-0.39844 0.10156-0.80078 0.5-0.80078 0.89844v1.8984l-4.5977 0.003906c-0.5 0-1 0.39844-1 1v52.199c0 0.5 0.39844 1 1 1zm43.199-54.699c0.19922-0.19922 0.30078-0.39844 0.5-0.60156 4.6992-5 25.5-1.8008 34.102 0.10156v46.898c-2.3984-0.5-8.1992-1.6016-14.398-2.3008-3.1016-0.30078-5.8008-0.5-8.1992-0.5-5.6016 0-9.6016 0.80078-11.898 2.5l-0.003907-46.098zm-36.602-0.5c8.6016-1.8984 29.398-5.1016 34.102-0.10156 0.19922 0.19922 0.30078 0.39844 0.5 0.60156v46.199c-3.3008-2.3984-10.102-3.1016-20.199-2-6.1992 0.60156-12 1.8008-14.398 2.3008zm-5.6992 3h3.6992v45.102c0 0.30078 0.10156 0.60156 0.39844 0.80078 0.19922 0.19922 0.5 0.30078 0.80078 0.19922 8-1.8008 30-5.3984 34.898-0.30078 0.30078 0.30078 0.60156 0.60156 1 0.80078h0.10156 0.10156 0.30078 0.30078 0.10156 0.10156c0.30078-0.19922 0.60156-0.5 1-0.80078 4.8984-5.1992 26.801-1.5 34.898 0.30078 0.30078 0.10156 0.60156 0 0.80078-0.19922s0.39844-0.5 0.39844-0.80078v-45.102h3.6992v50.199h-82.602z"/>
</svg>
