<svg xmlns="http://www.w3.org/2000/svg" viewBox="0 0 907.1 130.4"><path fill="#A22A2C" d="M0 0h907.1v130.4H0z"/><path fill="#CCC" d="M484.1 42.2a.4.4 0 0 0-.5.3c-.3 1.3-1.9 3-4.4 3.6-2.5.7-4.7 0-5.5-1-.2-.2-.5-.2-.7 0-.6.7-2.3 1.2-4.2.9-1.2-.2-3.4-3.5-3.6-3.4 0 0-2 .4-2.7.2-1-.5-1.2-.7-1.8-1.3-.7-.8-.7-2.4-1-2.4-1 .2-3.2-.6-4.5-2.1-1.3-1.5-.3-4 0-5 .1-.4-2.4-.5-2.7-.6a4 4 0 0 1-2-2.3c-.2-.6-.6-3.4-.8-6-.8 2.3-.5 7.9 1 9 0 .2.4.4.4.8 0 1 .3 1.9.7 2.6.7 1.6 1.8 3 3.4 3.8 1 .6 2 1.3 2.7 2a9.3 9.3 0 0 0 4.7 3.2c.5.3 1 .5 1.3.5.2 0 .2 0 .4.4.6.7 1.3 1.3 2 1.7 1.5.7 3.3 1.1 5 .8 1.2-.2 2.3-.2 3.4 0a9.1 9.1 0 0 0 9-3l.8-.9.2-.1c1.1-.8 2.6-1.3 3.4-2l.2-.2c.7-.6 1-1.1 1.1-1.2-1.9 1.7-4.1 2.2-5.3 1.7z"/><path fill="#FFF" d="M315.1 32h-9.3v80.6h-30.4l-36-53.9v35.7h10.8v18.2h-43.4V94.4h8.3V32h-9.5v34.4c0 33.5-14 48.6-40.6 48.6-28.6-.8-43.9-15.8-43.9-48V32.2h-1.5v.3h-8.2v61.5h8.2v18.7h-46V94H82V72.6H55.1v21.3H64v18.7H18.1V94h7.7V32.4h-7.7V13.7h45.8v18.7h-8.8v21.4h27V32.4h-8.4V13.7h84.5V32h-7.7v30.5c0 22.8 5.1 27.6 14.2 27.6 8.6 0 14.3-3.4 14.3-27.7v-30h-7.7V13.7H247.5l34.7 52V32h-9.6V13.7H315V32zm298.2 51.2c-10.2 0-16.1 8-16.1 15 0 7.3 7 14.6 16.1 14.6 10.3 0 16.8-6.7 16.8-14.6 0-8-6.8-15-16.8-15zm-115.7 5.4c0 2.8-1.1 4.5-3.2 4.5-2.6 0-3.4-3.5-3.4-9.6 0-10.2-8.8-18.7-18.6-20.1 11.8-1.7 20.5-9.5 20.5-20.5 0-2.8-.1-5.5-.6-8a2 2 0 0 1-.4 0c-.3.1-.4.4-.3.7.4 1.2-.2 3.4-2.2 5.2-1.9 1.8-4.1 2.3-5.3 1.8a.4.4 0 0 0-.5.3c-.3 1.3-1.9 3-4.4 3.6-2.5.7-4.7 0-5.5-1-.2-.2-.5-.3-.7 0-.6.7-2.3 1.2-4.2.9-1.9-.4-3.2-1.5-3.6-2.4 0-.2-.1-.2-.2-.3-.7.3-2 .2-3-.4a5 5 0 0 1-.6-.4 4.2 4.2 0 0 1-1.7-1.7c0-.3-.2-.5-.4-.6-1 .2-2.7-.4-4-1.8-1.3-1.5-1.7-3.2-1.4-4.2 0-.2-.2-.5-.5-.5-1.2-.2-3-1.7-3.7-4.3-.8-2.5-.2-4.7.7-5.6.2-.2.2-.5 0-.7-1-.7-1.8-2.9-1.3-5.5.3-2 1.4-3.6 2.4-4.3h-43.7v18.6h7.9v61.6h-7.1V77.2h5.6v-15h-47v15h8.7v6c-2.1 3.7-5.5 7-13.6 7-12.3 0-19.4-11.7-19.4-26.1 0-14.2 8-26.6 19.4-26.6 8.3 0 15.7 6.5 16.1 18h25.4V13.7h-21.1l-3 10.2c-2.3-2.3-7-11.9-27.6-11.9-22 0-43.4 21.2-43.4 52 0 30.6 19.6 49.9 44.4 49.9 10.9 0 19.7-5 22.8-10.2l4.4 9h73.2V93.8h-8.7V72c12.6 0 14.2 3.1 14.2 16 0 16.5 8.9 26.3 27.4 26.3 15.7 0 20.7-10.9 20.7-22.6v-7.8h-9.5v4.7zM616 11.5c-8.5 0-16.4 2.4-23.5 6.8v-4.6h-38.1v18.1h7.8l-7.8 14.3c-1.6 3.4-4.7 9.4-5.2 12.2h-.6c-.6-2.4-3.5-8.8-4.4-11.5l-8.2-15h7.4v-18H495v18h7l27.4 45.7v16.7h-8.1v18.4h45.3V94.2h-8V77.8l25-43.7 10.9 11c4.8-5.6 12.3-11.6 18.4-11.6 5 0 10.4 1.3 10.4 6.7 0 7.8-22.4 15.1-22.4 28.1v11.3h26.3V72c0-8.5 22.5-13 22.5-31.4 0-19.1-14.9-29-33.7-29zM695 74.1h1.9c1.7 0 2.8-1 2.8-2.5 0-1.7-1-2.6-3.1-2.6h-2.4v9.6h.8V74zm0-4.4h1.6c1.5 0 2.3.6 2.3 1.8 0 1.4-.8 2-2.4 2H695v-3.8zm9 8.9h-.8V69h.8v9.6zm11.6 0h-8.4v-.4l7.2-8.5h-6.8V69h8v.3l-7.1 8.6h7.1v.7zm10.7 0h-8.5v-.4l7.2-8.5h-6.8V69h8v.3l-7 8.6h7v.7zm8.4 0h-5.2V69h5.1v.6h-4.4v3.8h4.3v.6h-4.3v4h4.5v.6zM739 74h.8c1 0 1.5 0 1.9.4l1.3 1.8 1.5 2.4h.9l-2.7-4c-.2-.4-.5-.7-.8-.8 1.2-.4 1.8-1.2 1.8-2.4 0-1.5-1-2.4-3.1-2.4h-2.4v9.6h.8V74zm0-4.3h1.6c1.5 0 2.3.6 2.3 1.7 0 .8-.4 1.4-1 1.7-.6.2-1.3.2-2.3.2h-.6v-3.6zm9-.7h.8v9.6h-.8V69zm5.8 6.2h4.2l1.4 3.4h.8l-4.2-9.7h-.3l-4.2 9.7h.9l1.4-3.4zm2-5l1.9 4.4H754l1.9-4.3zm13.6 3.8h.7c1 0 1.6 0 2 .4l1.2 1.8 1.6 2.4h.8l-2.6-4c-.2-.4-.5-.7-.9-.8 1.3-.4 1.9-1.2 1.9-2.4 0-1.5-1.1-2.4-3.2-2.4h-2.3v9.6h.8V74zm0-4.3h1.6c1.4 0 2.2.6 2.2 1.7 0 .8-.3 1.4-1 1.7-.6.2-1.3.2-2.3.2h-.5v-3.6zm9.7 8.9h-.7V69h.7v9.6zm8.5-4.2c.4.5.6 1 .6 1.7 0 1.5-1.2 2.6-2.8 2.6-.9 0-1.7-.3-2.5-.8v-1c.9.7 1.7 1 2.5 1 1.2 0 2-.7 2-1.8s-.8-1.5-2-2c-1.6-.7-2.5-1.3-2.5-2.7 0-1.4 1.1-2.5 2.8-2.5.8 0 1.5.2 2.2.6v.9c-.8-.5-1.5-.8-2.2-.8-1.2 0-2 .8-2 1.8s.7 1.4 1.9 2c.8.2 1.5.5 2 1zm6.6-4.7h-3.6V69h8v.7H795v8.9h-.8v-8.9zm15.5.6A5 5 0 0 0 806 69a5 5 0 0 0-3.5 1.4 4.9 4.9 0 0 0 0 7 5 5 0 0 0 3.5 1.4 5 5 0 0 0 5-5c0-1.2-.5-2.4-1.4-3.4zm-.6 6.5a4 4 0 0 1-3 1.3 4.2 4.2 0 0 1-4.1-4.3 4.2 4.2 0 0 1 4.2-4.2c1 0 2.1.4 2.9 1.2.8.8 1.2 1.8 1.2 3s-.4 2.2-1.2 3zm10.3-.6l1.6 2.4h.8l-2.6-4c-.2-.4-.5-.7-.8-.8 1.2-.4 1.8-1.2 1.8-2.4 0-1.5-1.1-2.4-3.2-2.4h-2.3v9.6h.8V74h.8c.9 0 1.5 0 1.8.5.3.2.7.8 1.3 1.7zm-3.3-2.9h-.6v-3.6h1.6c1.4 0 2.2.6 2.2 1.7 0 .8-.3 1.4-1 1.7-.5.2-1.3.2-2.2.2zm11-4.4l-4.1 9.7h.8l1.4-3.4h4.2l1.4 3.4h.8l-4.2-9.7h-.3zm-1.7 5.7l1.9-4.3 1.8 4.3h-3.7zm9.6 4h-.8V69h.8l7 8.4V69h.8v9.6h-.7L835 70v8.5zm18.8-8.9h-3.5v8.9h-.9v-8.9H846V69h8v.7zm8.4 8.9H857V69h5.2v.6h-4.4v3.8h4.3v.6h-4.3v4h4.5v.6z"/><path fill="#FFF" d="M735.7 56.2c-.4-.5-.7-1.3-.7-2.9V44c0-1.5.3-2.4.7-2.9.5-.4 1-.6 1.8-.6.7 0 1.4.2 1.8.6.4.5.8 1.4.8 2.9v9.3c0 1.6-.4 2.4-.8 2.9s-1 .7-1.8.7c-.7 0-1.3-.2-1.8-.7m-6.3-14.8a9.3 9.3 0 0 0 0 14.6 13 13 0 0 0 8 2.7c3.2 0 6-1 8.2-2.7a9.2 9.2 0 0 0 0-14.6 13 13 0 0 0-8.1-2.8c-3 0-6 1-8.1 2.8m55.8 14.2c-.3-.7-.4-1.9-.4-3.6 0-1.5.2-2.3.7-2.8.5-.4 1.3-.6 2.6-.7v5.7a3 3 0 0 1-.4 1.6c-.3.4-.6.6-1.2.6-.8 0-1-.2-1.3-.8m-4-15.7c-1.7.8-3 2.1-3 4 0 .8.4 1.6 1 2.1.5.6 1.3.9 2.3.9.7 0 1.6-.2 2.3-.6.8-.4 1.4-1.2 1.4-2.2 0-1-.5-1.7-1-2.1l-.4-.5v-.1-.3c.4-.4 1.6-.6 2.1-.6.9 0 1.4.2 1.7.5.3.3.5.7.5 1.5v4.2c-2 0-4.7.2-6.8 1a7 7 0 0 0-3.1 1.9c-.8 1-1.3 2.2-1.3 3.7a5 5 0 0 0 2.1 4c1.3 1 2.9 1.4 4.4 1.4 2 0 4.1-.2 5.6-1.8a5 5 0 0 0 4 1.8h.1c2.4 0 4.2-.7 5.5-3 .2-.3.1-.6-.1-.8l-.6-.3a.5.5 0 0 0-.6 0l-.6.8-.6.3-.1-.2V44.7c0-2.5-1.6-4.1-3.5-5-2-.8-4.2-1-5.9-1-1.8 0-3.8.3-5.5 1.2m53.9 7.7v.5-.5zM823.5 44c0-1.5.2-2.5.5-3 .2-.4.5-.6 1.3-.6s1.1.2 1.4.7c.3.4.4 1.1.4 2v3.6h-3.6v-2.7zm-5.9-2.7a9.7 9.7 0 0 0-3.2 7.4c0 2.9 1.2 5.4 3.2 7.2 2 1.7 4.9 2.7 8 2.7h.2c4.8 0 7.9-2.3 9.5-6.6v-.4c0-.2-.2-.3-.3-.3l-.8-.3c-.3 0-.5.1-.6.4-1 2.6-3.6 5.1-6.6 5.1-1.2 0-2-.2-2.6-.9-.5-.6-.9-1.7-.9-3.6v-3.4H835l.4-.2.1-.4c0-2.6-1-5-2.9-6.7a10.4 10.4 0 0 0-7.2-2.8c-3 0-5.8 1-7.8 2.8m55 14.8c-.4-.5-.7-1.3-.7-2.9V44c0-1.5.3-2.4.8-2.9.4-.4 1-.6 1.7-.6.8 0 1.4.2 1.8.6.5.5.8 1.4.8 2.9v9.3c0 1.6-.3 2.4-.8 2.9-.4.5-1 .7-1.8.7-.7 0-1.3-.2-1.7-.7m-6.4-14.8a9.3 9.3 0 0 0 0 14.6 13 13 0 0 0 8.1 2.7c3.1 0 6-1 8.2-2.7a9.3 9.3 0 0 0 0-14.6 13 13 0 0 0-8.2-2.8c-3 0-6 1-8 2.8m-106.6-2.7a23 23 0 0 1-6.9.6h-2.4l-.4.2-.2.4v.7c0 .2 0 .3.2.4l.4.2h1.7v15h-1.7l-.4.1-.2.4v.7c0 .2 0 .3.2.4l.4.2h11.8c.1 0 .3 0 .4-.2l.1-.4v-.7l-.1-.4a.5.5 0 0 0-.4-.1h-1.7V45.4c0-.9.4-2 1.1-2.8.7-.9 1.7-1.4 2.3-1.4.7 0 1 .2 1.2.5.2.2.3.7.3 1.4v13h-1.7l-.4.2-.1.4v.7l.1.4.4.2h11.8c.1 0 .3 0 .4-.2l.1-.4v-.7l-.1-.4a.5.5 0 0 0-.4-.1H774V45.4c0-2.3-.7-4-2-5.2a7.8 7.8 0 0 0-5.3-1.6c-2.4 0-4.5.8-6 2.5v-2l-.3-.4a.5.5 0 0 0-.5 0m48.3-7.4c-.1 0-.3 0-.4.2l-.1.4c0 .4-.2 1.1-.7 2-1.3 2.4-4.4 5.5-7 5.4l-.4.2-.2.4v.7c0 .2 0 .3.2.4l.3.2h1v12c0 1.5.5 2.9 1.5 3.9s2.4 1.6 4.3 1.6c3 0 5.4-1.1 6.8-3.8.1-.3 0-.6-.2-.7l-.5-.4a.5.5 0 0 0-.7.2c-.5.7-1 1.3-1.7 1.3-.5 0-.6-.2-.8-.5-.2-.4-.2-1-.2-1.7v-12h3.5l.2-.5V40c0-.2 0-.3-.2-.4a.5.5 0 0 0-.3-.2h-3.2V32c0-.2 0-.3-.2-.4a.5.5 0 0 0-.3-.2h-.7zm37.8-2.5l-.6.2c-1.2.4-3.4.6-5.6.6h-3c-.2 0-.3 0-.4.2l-.1.4v.7l.1.4.4.2h1.7v24.7h-1.7l-.4.1-.1.4v.7l.1.4.4.2h11.8c.1 0 .3 0 .4-.2l.1-.4v-.7l-.1-.4a.5.5 0 0 0-.4-.1h-1.7v-27c0-.2-.1-.4-.3-.5H845.9m13.1 0l-.6.3c-1.2.4-3.4.6-5.6.6h-3c-.2 0-.3 0-.4.2l-.1.4v.7l.1.4.4.2h1.7v24.7h-1.7l-.4.1-.1.4v.7l.1.4.4.2h11.8c.1 0 .3 0 .4-.2l.1-.4v-.7l-.1-.4a.5.5 0 0 0-.4-.1H860v-27c0-.2-.1-.4-.3-.5H859M690.4 57l1.7-1.7c1 .3 8 2.6 14.2 2.4-.9.6-2.7.9-4.7.9-4 0-9.2-.9-11.2-1.6M679 54.6c2.5-1 7.1-.8 7.9-.5l-.6 1.6c-1.7-.5-5.5-1-7.3-1.1M692 41.7c1.8-7.9 4.3-22.5 4.8-25.8.5-.3 1.5-.6 2.3-.8-.6 6.5-4.7 24.5-5.1 26.3-.3 1-.6 2.3-1.7 2.3-.8 0-.4-1.6-.3-2m2.4 11.4l1.3-.9c5.3-3.1 5.2-7.7 6-11.2 1-3.2 3.2-18.4 3.7-26.4 9.5 2 17.1 9.8 16.4 22.6-.5 10.4-4.6 18.3-15.4 18.3-3.3 0-7.3-.8-12-2.4m.2-38.6c-6.9 1.3-18.6 10-23.6 11.2 3.4-3 11.9-10.7 23.6-11.2m1.7 30.2c0-1.4 4-21 4.9-30 .3-.2 1-.2 1.5-.2h.6c0 5-4.3 28-5.8 30.2-.1.2-.5.6-.8.6-.2 0-.4-.1-.4-.6m13.6-30.5c7.6 0 18.5 9.8 14 25.9 2-11.7-2.9-22-14-25.9m-5.5-6.6c-1 .7-.7 3.2-1 4.5h-2.1c.2-1.2.3-5-.8-4.3-1.1.6-.9 3-1.1 4.4l-2.2.1c.1-1.2.6-5-.5-4.3-1.1.6-1.2 3-1.4 4.4a39 39 0 0 0-29.4 15.9c-2 1-11.5 5.4-19.6 4.5-2.2-.2-4.6-1.7-5.2-3.3-1.1-2.9 1-5 3-6.2 2.1-1.2 5.3-.8 7.6-.1.6.1.7-.4.4-.9-.1-.4-.8-.7-1.4-1a8.8 8.8 0 0 0-5.7-.2c-2.4.6-7 3.2-5.7 8.5.4 2 2.9 4.7 8.5 5.2 3.8.3 11-.8 15.8-2.8-.5 1.1-3.8 10.5 3.2 15 6 3.7 16-3.5 18.3-9.3 1.7-4.5-1.6-5.8-3-6-.9 0-3.1 0-3 1 .1.6.8.5 1.5.4h1c3.4.5 1.8 4.5.1 6.6a18.4 18.4 0 0 1-8 5.9c-1.7.6-5 .9-6.7-1-5.4-5.7.4-14 1.2-14.9 5.8-2 20.8-11.6 26.2-13-.3 2.5-2.2 12.7-4.3 19.4-.4 1.4-4 10.8-3.1 15.4-4.1-.4-9 1-11.9 3-4.8-.2-7.5.6-9.5 1.7-1 .4-2.8 1-2.5 2.1.3.8 1.9-.3 2.6-.5a14 14 0 0 1 6.8-1.3c-1.3 1.3-3.8 5-3 5.4 1 .2 1.3-.7 1.6-1 .8-1.2 1.5-2.2 2.6-3.2.5-.5 1-.9 1.6-1.2.7 0 8.3.5 10.1 1.5-.1.4-.2.9-.4 1.1-.4 1-1.9 4.3-2 5.1.9.5 1.3 0 2.1-.6.5-.4 2.3-2 2.7-2.6.4-.7.6-1.3 1.1-2 4 2 14.3 1.3 14.8 1.2C722 56.8 728 40 727.3 29.8c-.4-6.4-5.8-18.4-22-17.7.1-1 .1-4.5-.7-4.5h-.3"/><path fill="#A22A2C" d="M649.2 34.9l-.4-2h-2.6c-2.2-.3-4.6-1.8-5.2-3.4-1.1-2.9 1-5 3-6.2l.2-.1-1.2-1.4c-2.3 1.2-4.8 3.6-3.8 7.8.4 2 2.9 4.7 8.5 5.2h1.5z"/><g fill="#FFF"><path d="M681.5 94.1c1.2 0 2.1.3 2.9 1s1 1.3 1 2.2c0 .6 0 1.1-.4 1.6-.3.4-.7.8-1.3 1v.2c.9.2 1.6.6 2 1.2.6.5.8 1.2.8 2s-.2 1.4-.5 2c-.4.5-.9 1-1.5 1.2-.7.3-1.4.4-2.3.4h-5.4V94.1h4.7zm-.6 5.3c.6 0 1.1-.1 1.5-.4.4-.3.6-.8.6-1.3s-.2-1-.5-1.2a2 2 0 0 0-1.4-.4h-1.8v3.3h1.6zm.5 5.6c.9 0 1.5-.2 2-.5.4-.3.6-.8.6-1.4 0-.5-.2-1-.7-1.3s-1-.4-1.7-.4h-2.3v3.6h2.1zM692.4 98.2c.9 0 1.7.2 2.4.6a4 4 0 0 1 1.7 1.5c.4.7.6 1.5.6 2.3 0 .9-.2 1.7-.6 2.3a4 4 0 0 1-1.7 1.6c-.7.4-1.5.6-2.4.6-1 0-1.7-.2-2.5-.6a4 4 0 0 1-1.6-1.6c-.4-.6-.6-1.4-.6-2.3a4.1 4.1 0 0 1 2.3-3.8c.7-.4 1.5-.6 2.4-.6zm-2.4 4.4c0 .9.3 1.5.7 2s1 .8 1.7.8 1.3-.2 1.7-.7c.4-.5.6-1.2.6-2.1a3 3 0 0 0-.6-2c-.4-.5-1-.7-1.7-.7a2 2 0 0 0-1.7.7 3 3 0 0 0-.7 2zM703 98.2c.8 0 1.6.2 2.4.6a4 4 0 0 1 1.6 1.5c.4.7.6 1.5.6 2.3 0 .9-.2 1.7-.5 2.3a4 4 0 0 1-1.7 1.6c-.8.4-1.6.6-2.5.6-.9 0-1.7-.2-2.4-.6a4 4 0 0 1-1.7-1.6c-.4-.6-.6-1.4-.6-2.3 0-.9.2-1.6.7-2.3.4-.7 1-1.2 1.6-1.5.8-.4 1.6-.6 2.4-.6zm-2.4 4.4c0 .9.2 1.5.6 2s1 .8 1.7.8 1.3-.2 1.7-.7c.5-.5.7-1.2.7-2.1a3 3 0 0 0-.7-2c-.4-.5-1-.7-1.7-.7a2 2 0 0 0-1.7.7 3 3 0 0 0-.6 2zM711.5 94.1V107h-2.2V94.1h2.2zm6.2 4.3l-3.5 4.2 4 4.3h-3l-3.7-4.3 3.6-4.2h2.6zM720 94.4c.3 0 .6.1.9.4s.3.5.3.9c0 .3 0 .6-.3.9-.3.2-.6.4-1 .4-.3 0-.6-.2-.8-.4a1.2 1.2 0 0 1 0-1.8c.2-.3.5-.4.9-.4zm1.1 4v8.5h-2.2v-8.5h2.2zM728.2 98.2c1 0 1.6.3 2.2 1 .5.5.8 1.3.8 2.3v5.4H729v-5.2c0-.5-.2-1-.4-1.3-.3-.3-.7-.5-1.1-.5-.4 0-.7.1-1 .3l-1 1v5.7h-2.3v-8.5h2.3v1.2a4 4 0 0 1 1.3-1c.4-.3.9-.4 1.4-.4zM741 98.4v1.6h-1.4l.5.8.2.8c0 .7-.3 1.3-.8 1.9-.5.4-1.2.8-2.3 1-.6 0-1 0-1.2.2-.2 0-.3.2-.3.4s.1.3.4.4l1 .3c1.4.2 2.3.5 3 1s.8 1 .8 1.6c0 1-.3 1.6-1 2.1-.8.5-1.9.7-3.3.7-1.3 0-2.3-.2-3-.7-.9-.4-1.2-1-1.2-1.8 0-1 .7-1.8 2.2-2.2-.7-.3-1-.7-1-1.2s.5-1 1.5-1.2c-.7-.2-1.2-.5-1.6-1s-.6-1-.6-1.6c0-1 .4-1.7 1-2.3s1.7-.8 2.8-.8h4.4zm-6.6 10.2c0 .8.8 1.2 2.3 1.2.7 0 1.2-.2 1.6-.4.4-.2.6-.5.6-.8 0-.4-.3-.7-.7-.8s-1-.3-1.8-.3c-.6 0-1 0-1.4.3-.4.2-.6.5-.6.8zm.6-7.1c0 .4.1.8.5 1 .3.4.7.5 1.1.5.5 0 .9-.1 1.2-.4.3-.3.4-.7.4-1.2 0-.4-.2-.8-.5-1s-.7-.5-1-.5c-.5 0-1 .2-1.2.5-.4.3-.5.6-.5 1zM745 98.2a5.3 5.3 0 0 1 2.6.7v1.8l-1.4-.7c-.5-.2-.9-.2-1.3-.2l-.7.1c-.2.2-.3.3-.3.6l.2.4 1.3.7c1 .5 1.6 1 2 1.3s.6 1 .6 1.5c0 .9-.3 1.5-.8 2-.6.5-1.4.7-2.4.7a7 7 0 0 1-3-.7v-1.9c1.1.6 2 1 2.8 1 .4 0 .7-.1 1-.3.2-.1.3-.3.3-.5l-.1-.4-.4-.3-1.6-.8c-.7-.4-1.2-.7-1.6-1.1a2 2 0 0 1-.5-1.4c0-.8.3-1.4 1-1.8.5-.5 1.3-.7 2.3-.7zM750.8 98.4c.3 0 .7.1 1 .4s.4.6.4 1-.2.7-.5 1c-.2.2-.6.4-1 .4-.3 0-.7-.2-1-.4-.2-.3-.3-.6-.3-1s0-.7.4-1 .6-.4 1-.4zm0 5.9c.3 0 .7.1 1 .4.2.3.4.6.4 1s-.2.7-.5 1c-.2.2-.6.4-1 .4-.3 0-.7-.2-1-.4-.2-.3-.3-.6-.3-1s0-.7.4-1c.2-.3.6-.4 1-.4zM763.5 92.3a4 4 0 0 1 3.5 2 9.8 9.8 0 0 1 1.3 5.4 10 10 0 0 1-1.3 5.4 4 4 0 0 1-3.5 2c-1.5 0-2.6-.6-3.5-2s-1.3-3-1.3-5.4c0-2.3.4-4 1.3-5.4a4 4 0 0 1 3.5-2zm-2.1 7.5c0 3.3.7 5 2.1 5 1.4 0 2-1.8 2-5.3 0-3.2-.6-4.8-2-4.8s-2.1 1.7-2.1 5.1zM775.7 92.5V107h-2.6V92.5h2.6zM784.6 92.3c1.4 0 2.5.4 3.3 1.2.8.8 1.2 1.8 1.2 3.1 0 1-.3 2-.9 3.2-.6 1.2-1.6 2.7-3.2 4.6h5v2.5h-9.3v-.3a92.1 92.1 0 0 0 4.6-6.3l.9-1.8c.2-.5.2-1 .2-1.5 0-.7-.2-1.2-.6-1.7a2 2 0 0 0-1.5-.6c-1.1 0-2.3.6-3.4 1.8v-2.8c1.2-1 2.5-1.4 3.7-1.4zM801.4 92.5l-5.8 14.6-2.5-.9 4.6-11.2h-5.8v-2.5h9.5zM806.4 92.3a5 5 0 0 1 3.2 1c.8.7 1.2 1.6 1.2 2.7 0 1.4-.6 2.5-2 3.3.8.2 1.4.7 1.8 1.3.3.6.5 1.4.5 2.2a4 4 0 0 1-1.3 3.1c-.9.8-2 1.2-3.5 1.2-1.2 0-2.3-.3-3.3-.8v-2.5l1.6.8 1.5.3c.6 0 1.2-.2 1.6-.6s.7-.9.7-1.5a2 2 0 0 0-.7-1.6 3 3 0 0 0-2-.6h-.2v-2.2h.2c.7 0 1.3-.2 1.8-.6.4-.3.6-.8.6-1.3 0-.6-.2-1-.6-1.4-.4-.4-1-.5-1.6-.5-.8 0-1.7.2-2.6.6V93a7 7 0 0 1 3-.7zM829 92.5l-5.9 14.6-2.4-.9 4.5-11.2h-5.7v-2.5h9.4zM839.9 92.5l-5.8 14.6-2.5-.9 4.6-11.2h-5.8v-2.5h9.5zM849.3 92.5V95h-4.6V98h.5a5 5 0 0 1 2.4.6c.7.4 1.3 1 1.7 1.6.4.7.6 1.5.6 2.3 0 1.4-.5 2.5-1.4 3.3s-2.1 1.3-3.6 1.3c-1.3 0-2.5-.3-3.5-.8v-2.4a6 6 0 0 0 3 1 3 3 0 0 0 2-.7c.5-.4.8-1 .8-1.6 0-.8-.3-1.3-1-1.8s-1.3-.6-2.3-.6c-.5 0-1 0-1.6.2v-7.9h7zM860 92.3v8.4h1.2v2.1H860v4.1h-2.6v-4h-6v-1.7l7-8.9h1.6zm-2.7 4.4l-3.2 4h3.3v-4h-.1zM872.7 92.5l-5.8 14.6-2.5-.9L869 95h-5.7v-2.5h9.4zM883.6 92.5l-5.8 14.6-2.4-.9 4.5-11.2h-5.7v-2.5h9.4z"/></g></svg>
