<?xml version="1.0" encoding="UTF-8"?>
<svg width="74px" height="74px" viewBox="0 0 74 74" version="1.1" xmlns="http://www.w3.org/2000/svg" xmlns:xlink="http://www.w3.org/1999/xlink">
    <!-- Generator: Sketch 47.1 (45422) - http://www.bohemiancoding.com/sketch -->
    <title>events-society</title>
    <desc>Created with Sketch.</desc>
    <defs></defs>
    <g id="Page-1" stroke="none" stroke-width="1" fill="none" fill-rule="evenodd">
        <g id="events-society" fill-rule="nonzero" fill="currentcolor">
            <path d="M73.191,36.918 C73.194906,32.1914 71.4605,27.6289 68.3238,24.098 C65.1871,20.5628 60.8629,18.305 56.1678,17.7464 C55.42171,11.4339 51.6131,5.8984 45.9838,2.9374 C40.3588,-0.0196 33.6398,-0.0196 28.0148,2.9374 C22.3859,5.8983 18.5773,11.4335 17.8308,17.7464 C11.5183,18.4964 5.9788,22.305 3.0218,27.9304 C0.0609,33.5554 0.0609,40.2784 3.0218,45.9034 C5.9788,51.5284 11.5179,55.337 17.8308,56.0874 C18.57689,62.3999 22.3855,67.9394 28.0148,70.8964 C33.6398,73.8573 40.3588,73.8573 45.9838,70.8964 C51.6127,67.9394 55.4213,62.4003 56.1678,56.0874 C60.8631,55.53271 65.1873,53.271 68.3238,49.7397 C71.4605,46.2045 73.1949,41.642 73.191,36.9197 L73.191,36.918 Z M34.703,34.6211 C34.32019,34.667975 33.94128,34.72266 33.5624,34.78907 L33.566306,34.78907 C30.542906,34.09376 27.804606,32.48047 25.730406,30.17187 C23.656206,27.86327 22.343706,24.96877 21.972606,21.88667 C25.054606,22.26167 27.945306,23.57417 30.253806,25.64837 C32.562406,27.72257 34.175706,30.45697 34.871006,33.48037 C34.8046,33.85928 34.749916,34.23818 34.703036,34.62097 L34.703,34.6211 Z M34.703,39.2109 C34.749875,39.59371 34.80456,39.97262 34.87097,40.3515 C34.17566,43.3749 32.56237,46.1093 30.25377,48.1874 C27.94517,50.2616 25.05457,51.5741 21.97257,51.9452 C22.34366,48.8632 23.65617,45.9725 25.73037,43.664 C27.80457,41.3554 30.54287,39.7421 33.56627,39.0429 C33.94127,39.109306 34.32018,39.1679 34.70297,39.21087 L34.703,39.2109 Z M39.2928,39.2109 C39.67561,39.164024 40.05452,39.10934 40.4334,39.04293 C43.4607,39.74215 46.1951,41.35543 48.2693,43.66403 C50.3435,45.97263 51.656,48.86323 52.0271,51.94523 C48.9451,51.57414 46.0544,50.26163 43.7459,48.18743 C41.4374,46.11323 39.824,43.37493 39.1287,40.35153 C39.195106,39.97262 39.24979,39.59372 39.29667,39.21093 L39.2928,39.2109 Z M39.2928,34.6211 C39.245925,34.23829 39.19124,33.85938 39.12483,33.4805 L39.128736,33.4805 C39.824046,30.4571 41.437336,27.7227 43.745936,25.6485 C46.054536,23.5743 48.945136,22.2618 52.027136,21.8868 C51.656046,24.9688 50.343536,27.8634 48.269336,30.172 C46.195136,32.4806 43.460736,34.09 40.433436,34.7892 C40.058436,34.722794 39.679526,34.66811 39.296736,34.62123 L39.2928,34.6211 Z M26.2848,9.3281 C28.9332,6.6758 32.4684,5.1015 36.2106,4.9023 C39.9528,4.70699 43.6325,5.9062 46.5426,8.2695 C49.4488,10.6328 51.3785,13.9883 51.9528,17.6914 C47.5114,18.12499 43.359,20.0937 40.2148,23.2578 C38.9531,24.5234 37.871,25.9609 37,27.5234 C36.12891,25.9609 35.0469,24.5234 33.7852,23.2578 C30.6407,20.0937 26.4883,18.125 22.0472,17.6914 C22.53158,14.5234 24.016,11.5937 26.2855,9.3281 L26.2848,9.3281 Z M4.9728,36.9181 C4.9728,33.3048 6.2619,29.8126 8.6095,27.0704 C10.9572,24.3282 14.2072,22.5157 17.7736,21.9649 C18.20719,26.4063 20.1759,30.5547 23.34,33.7029 C24.6056,34.9646 26.0431,36.0467 27.6056,36.9177 C26.0431,37.78489 24.6056,38.8669 23.34,40.1325 C20.1759,43.277 18.2072,47.4294 17.7736,51.8705 C14.2072,51.31581 10.9572,49.5033 8.6095,46.7611 C6.2618,44.0189 4.9728,40.5267 4.9728,36.9173 L4.9728,36.9181 Z M47.7148,64.5041 C45.0664,67.1564 41.5312,68.7346 37.789,68.9299 C34.0468,69.12521 30.3671,67.926 27.457,65.5627 C24.5508,63.1994 22.6211,59.8439 22.0468,56.1408 C26.4882,55.71111 30.6406,53.7424 33.7848,50.5783 C35.0465,49.3088 36.1286,47.8752 36.9996,46.3127 C37.87069,47.8752 38.9527,49.3088 40.2144,50.5783 C43.3589,53.7424 47.5113,55.7111 51.9524,56.1408 C51.46802,59.3088 49.9836,62.2424 47.7141,64.5041 L47.7148,64.5041 Z M56.2265,51.8711 C55.79291,47.4297 53.8242,43.2773 50.6601,40.1331 C49.3945,38.8675 47.957,37.7854 46.3945,36.9183 C47.957,36.04721 49.3945,34.9652 50.6601,33.7035 C53.8242,30.5551 55.7929,26.4066 56.2265,21.9655 C61.0234,22.70769 65.1679,25.7116 67.3785,30.0358 C69.5855,34.3561 69.5855,39.4772 67.3785,43.8018 C65.1676,48.1221 61.023,51.126 56.2265,51.8721 L56.2265,51.8711 Z" id="Shape"></path>
        </g>
    </g>
</svg>
