<svg xmlns="http://www.w3.org/2000/svg" width="18" height="18" viewBox="0 0 18 18">
  <g fill="#27428C" fill-rule="evenodd" stroke="#27428C" stroke-width=".2">
    <path d="M16.4466405,1.21353285 L14.3534954,1.21353285 L14.3534954,0.316554745 C14.3534954,0.151138686 14.2198513,0.0175182482 14.0544058,0.0175182482 L11.961217,0.0175182482 C11.7959468,0.0175182482 11.6621274,0.151138686 11.6621274,0.316554745 L11.6621274,1.21353285 L5.08360263,1.21353285 L5.08360263,0.316554745 C5.08360263,0.151138686 4.94978326,0.0175182482 4.78451307,0.0175182482 L2.69132419,0.0175182482 C2.52587878,0.0175182482 2.39223463,0.151138686 2.39223463,0.316554745 L2.39223463,1.21353285 L0.299089559,1.21353285 C0.133644148,1.21353285 0,1.34710949 0,1.51239416 L0,17.6572117 C0,17.8224964 0.133644148,17.956292 0.299089559,17.956292 L16.4466405,17.956292 C16.6120859,17.956292 16.74573,17.8224964 16.74573,17.6572117 L16.74573,1.51239416 C16.74573,1.34710949 16.6120859,1.21353285 16.4466405,1.21353285 Z M12.2603503,2.40932847 L13.7554477,2.40932847 L13.7554477,0.615416058 L12.2603503,0.615416058 L12.2603503,2.40932847 Z M2.99028234,2.40932847 L4.48537971,2.40932847 L4.48537971,0.615416058 L2.99028234,0.615416058 L2.99028234,2.40932847 Z M0.598003904,1.81143066 L2.39223463,1.81143066 L2.39223463,2.70836496 C2.39223463,2.87364964 2.52587878,3.00727007 2.69132419,3.00727007 L4.78451307,3.00727007 C4.94978326,3.00727007 5.08360263,2.87364964 5.08360263,2.70836496 L5.08360263,1.81143066 L11.6621274,1.81143066 L11.6621274,2.70836496 C11.6621274,2.87364964 11.7959468,3.00727007 11.961217,3.00727007 L14.0544058,3.00727007 C14.2198513,3.00727007 14.3534954,2.87364964 14.3534954,2.70836496 L14.3534954,1.81143066 L16.1477261,1.81143066 L16.1477261,4.50210219 L0.598003904,4.50210219 L0.598003904,1.81143066 Z M0.598003904,17.3581752 L16.1477261,17.3581752 L16.1477261,5.10021898 L0.598003904,5.10021898 L0.598003904,17.3581752 Z"/>
    <path d="M10.7652092,6.8939562 L2.69132419,6.8939562 L2.69132419,15.564438 L14.0544058,15.564438 L14.0544058,6.8939562 L10.7652092,6.8939562 Z M8.67188887,9.58480292 L10.7652092,9.58480292 L10.7652092,7.4920292 L8.67188887,7.4920292 L8.67188887,9.58480292 Z M8.67188887,12.2756934 L10.7652092,12.2756934 L10.7652092,10.1827007 L8.67188887,10.1827007 L8.67188887,12.2756934 Z M5.98069609,12.2756934 L8.07384116,12.2756934 L8.07384116,10.1827007 L5.98069609,10.1827007 L5.98069609,12.2756934 Z M5.98069609,9.58480292 L8.07384116,9.58480292 L8.07384116,7.4920292 L5.98069609,7.4920292 L5.98069609,9.58480292 Z M3.2893719,9.58480292 L5.38251697,9.58480292 L5.38251697,7.4920292 L3.2893719,7.4920292 L3.2893719,9.58480292 Z M3.2893719,12.2756934 L5.38251697,12.2756934 L5.38251697,10.1827007 L3.2893719,10.1827007 L3.2893719,12.2756934 Z M3.2893719,14.966365 L5.38251697,14.966365 L5.38251697,12.8735912 L3.2893719,12.8735912 L3.2893719,14.966365 Z M5.98069609,14.966365 L8.07384116,14.966365 L8.07384116,12.8735912 L5.98069609,12.8735912 L5.98069609,14.966365 Z M8.67188887,14.966365 L10.7652092,14.966365 L10.7652092,12.8735912 L8.67188887,12.8735912 L8.67188887,14.966365 Z M11.3632131,14.966365 L13.4563581,14.966365 L13.4563581,12.8735912 L11.3632131,12.8735912 L11.3632131,14.966365 Z M11.3632131,12.2756934 L13.4563581,12.2756934 L13.4563581,10.1827007 L11.3632131,10.1827007 L11.3632131,12.2756934 Z M11.3632131,9.58480292 L13.4563581,9.58480292 L13.4563581,7.4920292 L11.3632131,7.4920292 L11.3632131,9.58480292 Z"/>
  </g>
</svg>
