<svg xmlns="http://www.w3.org/2000/svg" width="18" height="18" viewBox="0 0 18 18">
  <g fill="currentcolor">
    <path d="M8.979,11.1352 C8.876656,11.1352 8.77432,11.109418 8.68212,11.057076 L0.30472,6.296876 C0.118002,6.191408 0.00238,5.994536 0.00082,5.780476 C-0.0015236,5.566416 0.110976,5.367196 0.29458,5.257816 L8.71498,0.250016 C8.903262,0.137516 9.13764,0.137516 9.32748,0.2484536 L17.70568,5.1836536 C17.890056,5.2922476 18.00256,5.4906936 18.00178,5.7047536 C18.0002176,5.9188136 17.886156,6.1156936 17.69944,6.2227136 L9.27904,11.0555136 C9.186072,11.1086376 9.082946,11.1352016 8.97904,11.1352016 L8.979,11.1352 Z M1.797,5.7626 L8.9782,9.8422 L16.204,5.6954 L9.0236,1.4658 L1.797,5.7626 Z"/>
    <path d="M8.979,14.486 C8.876656,14.486 8.77432,14.460218 8.68212,14.407874 L0.30472,9.648474 C0.01566,9.484412 -0.08512,9.118014 0.07894,8.828934 C0.243002,8.539874 0.61098,8.439094 0.89848,8.603154 L8.97808,13.192954 L17.09988,8.531954 C17.38738,8.36711 17.75534,8.46633 17.9202,8.753834 C18.085044,9.041334 17.985826,9.409294 17.69832,9.574154 L9.27872,14.406154 C9.185752,14.46006 9.082626,14.485842 8.97872,14.485842 L8.979,14.486 Z"/>
    <path d="M8.979,17.8336 C8.876656,17.8336 8.77432,17.807818 8.68212,17.755476 L0.30472,12.996076 C0.01566,12.832014 -0.08512,12.465616 0.07894,12.176536 C0.243002,11.888256 0.61098,11.786696 0.89848,11.950756 L8.97808,16.540556 L17.09988,11.879556 C17.38738,11.71393 17.75534,11.81393 17.9202,12.101436 C18.085044,12.388936 17.985826,12.756896 17.69832,12.921756 L9.27872,17.753756 C9.185752,17.80688 9.082626,17.833444 8.97872,17.833444 L8.979,17.8336 Z"/>
  </g>
</svg>
