<svg xmlns="http://www.w3.org/2000/svg" xmlns:xlink="http://www.w3.org/1999/xlink" width="18" height="19" viewBox="0 0 18 19">
  <defs>
    <polygon id="events-clock-a" points="0 .008 0 18.064 18 18.064 18 .008 0 .008"/>
  </defs>
  <g fill="none" fill-rule="evenodd">
    <path fill="#27428C" stroke="#27428C" stroke-width=".3" d="M8.94447642,0.920611748 C4.45891405,0.920611748 0.80952381,4.5611227 0.80952381,9.03577129 C0.80952381,13.5104199 4.45891405,17.1509308 8.94447642,17.1509308 C13.4300388,17.1509308 17.079429,13.5104199 17.079429,9.03577129 C17.079429,4.5611227 13.4300388,0.920611748 8.94447642,0.920611748 Z M8.94447642,16.6097775 C4.75789593,16.6097775 1.35179837,13.2119673 1.35179837,9.03577129 C1.35179837,4.85937713 4.75789593,1.46156691 8.94447642,1.46156691 C13.1308583,1.46156691 16.5369559,4.85937713 16.5369559,9.03577129 C16.5369559,13.2119673 13.1308583,16.6097775 8.94447642,16.6097775 Z" mask="url(#events-clock-b)"/>
    <path fill="#27428C" stroke="#27428C" stroke-width=".3" d="M8.94447642,2.54367536 C8.79472729,2.54367536 8.6732597,2.66457004 8.6732597,2.81407369 L8.6732597,9.03577129 L4.60584297,9.03577129 C4.45613357,9.03577129 4.33462625,9.15666597 4.33462625,9.30616962 C4.33462625,9.45583177 4.45613357,9.57672645 4.60584297,9.57672645 L8.94447642,9.57672645 C9.09402695,9.57672645 9.21553426,9.45583177 9.21553426,9.30616962 L9.21553426,2.81407369 C9.21553426,2.66457004 9.09402695,2.54367536 8.94447642,2.54367536 Z"/>
  </g>
</svg>
