<?xml version="1.0" encoding="UTF-8"?>
<svg width="48px" height="48px" viewBox="0 0 48 48" version="1.1" xmlns="http://www.w3.org/2000/svg" xmlns:xlink="http://www.w3.org/1999/xlink">
    <!-- Generator: Sketch 50.2 (55047) - http://www.bohemiancoding.com/sketch -->
    <title>Student Voice</title>
    <desc>Created with Sketch.</desc>
    <defs></defs>
    <g id="Student-Voice" stroke="none" stroke-width="1" fill="none" fill-rule="evenodd">
        <g id="np_megaphone_1008071_000000-copy" fill="currentcolor" fill-rule="nonzero">
            <path d="M4.584,34.9670204 C5.2651102,36.1723592 6.40158367,37.0543837 7.73897143,37.416 C8.18284898,37.5365339 8.64009796,37.5958482 9.09928163,37.5977584 C10.008098,37.5958447 10.8996735,37.3566857 11.6859918,36.9013176 L14.2134367,35.4319298 L17.2402286,44.3648278 C17.6936718,45.7041257 18.6866449,46.7908359 19.9761796,47.366738 C21.2676245,47.94264 22.7389224,47.952191 24.0361469,47.3935239 C25.3352327,46.8348627 26.3416163,45.7615239 26.8123102,44.4279566 C27.2829747,43.0962994 27.1758318,41.6288709 26.5176686,40.3794994 L21.6484114,31.1517443 L23.6075951,30.0210015 L38.2040033,30.7729362 C38.5713502,30.7978085 38.9291461,30.6562276 39.1797747,30.3864578 C39.4304131,30.1186031 39.5471216,29.7512415 39.497378,29.3877149 C37.9093616,18.265919 32.1063576,8.18102106 23.290031,1.21857208 C23.00304,0.990895347 22.6280229,0.90479902 22.2683657,0.981324735 C21.9105845,1.05977045 21.6044473,1.2950978 21.4380147,1.62036147 L14.7567086,14.6303207 L2.83507592,21.4874635 C0.344022857,22.9224186 -0.51312,26.1060921 0.919875918,28.5993002 L4.584,34.9670204 Z M15.2331429,17.181551 L21.6484898,28.3244082 L17.7014204,30.5973551 L11.2650122,19.454498 L15.2331429,17.181551 Z M24.357551,41.5165714 C24.6713241,42.1575184 24.7076767,42.8998531 24.4608686,43.569502 C24.2140555,44.2410612 23.7032033,44.7806204 23.0469747,45.0637714 C22.3907461,45.3488473 21.6483624,45.3526727 20.9902237,45.0733381 C20.3320359,44.7959128 19.8154971,44.2601789 19.5629094,43.5924891 L16.3830563,34.1830198 L19.5284767,32.3711667 L24.357551,41.5165714 Z M22.9264163,4.09126531 C30.2233959,10.2881633 35.1389878,18.8292245 36.8322122,28.2519184 L24.0495184,27.5899102 L17.0797224,15.4787265 L22.9264163,4.09126531 Z M4.05604898,23.6179592 L9.16070204,20.6791837 L15.576049,31.8372245 L10.4713959,34.776 C9.83617959,35.1395216 9.08429388,35.2351837 8.37830204,35.0419445 C7.6723102,34.8506204 7.07152653,34.3837567 6.70995918,33.7466792 L3.04604082,27.3793322 C2.28837551,26.0630057 2.73991837,24.3793322 4.0562449,23.6178465 L4.05604898,23.6179592 Z M36.8380898,10.776 L42.6867429,7.41056327 L42.6848297,7.41056327 C43.2664624,7.11018122 43.9820052,7.32064163 44.3091889,7.88887837 C44.6344428,8.45713959 44.4565097,9.18032327 43.9054893,9.53238857 L38.0568362,12.8767641 C37.488575,13.1178367 36.8304362,12.8978101 36.5224036,12.3639967 C36.2124558,11.8302171 36.3482958,11.1509682 36.8380918,10.7759804 L36.8380898,10.776 Z M32.8508571,6.31807347 L36.6563265,0.725583673 C36.84,0.455813878 37.1231608,0.268315102 37.4446041,0.207085714 C37.7660327,0.147776327 38.0989224,0.216651918 38.368702,0.400324898 C38.9311837,0.782977959 39.0766041,1.54830857 38.6939559,2.1107902 L34.8693355,7.68025959 C34.4866824,8.23892082 33.7252212,8.38243102 33.166511,8.00168816 C32.6078498,7.6190351 32.4643396,6.85757388 32.8450824,6.29886367 L32.8508571,6.31807347 Z M39.708,16.1428898 L46.4368163,15.6530939 L46.4368163,15.6550075 C47.1141061,15.6052638 47.7033796,16.1122761 47.7531429,16.7876606 C47.8028865,17.4649504 47.2958743,18.0542238 46.6185796,18.1039871 L39.8897633,18.593783 L39.7960114,18.593783 C39.1206318,18.6167417 38.5523706,18.0887055 38.527538,17.4132769 C38.5026656,16.7359871 39.0307053,16.1677259 39.7080441,16.1448034 L39.708,16.1428898 Z" id="Shape"></path>
        </g>
    </g>
</svg>
