<?xml version="1.0" encoding="UTF-8"?>
<svg width="48px" height="48px" viewBox="0 0 48 48" version="1.1" xmlns="http://www.w3.org/2000/svg" xmlns:xlink="http://www.w3.org/1999/xlink">
    <!-- Generator: Sketch 50.2 (55047) - http://www.bohemiancoding.com/sketch -->
    <title>Team Sussex</title>
    <desc>Created with Sketch.</desc>
    <defs></defs>
    <g id="Team-Sussex" stroke="none" stroke-width="1" fill="none" fill-rule="evenodd">
        <g id="np_trophy_925639_000000-copy" transform="translate(2.000000, 0.000000)" fill="#000000" fill-rule="nonzero">
            <path d="M42.8510267,4.89290361 L37.379239,4.89290361 L37.379239,1.14286355 C37.379239,0.51191144 36.866908,0 36.2354387,0 L7.75938824,0 C7.12791901,0 6.61558801,0.51191144 6.61558801,1.14286355 L6.61558801,4.89290361 L1.14380023,4.89290361 C0.512330998,4.89290361 0,5.40481505 0,6.03576715 L0,16.0030611 C0,17.5120219 0.271057778,18.9614015 0.801270187,20.312571 C2.58849617,24.8751108 5.94242345,27.845337 9.65657156,28.2234724 C12.176516,32.3693242 15.7181027,35.1848067 19.5992457,35.9880874 C19.6022241,35.9880874 19.6052026,35.9910634 19.6081818,35.9910634 C20.0192331,36.0773724 20.4362169,36.1369004 20.8532465,36.1785616 L20.8532465,40.0059354 C20.4481506,40.0356979 20.0460285,40.0833149 19.658814,40.1458143 C15.1491147,40.872005 11.99459,43.6131099 11.9679013,46.8214326 C11.9679013,46.8333375 11.9649228,46.8452423 11.9649228,46.8601231 C11.9649228,47.3333372 12.2538544,47.7380709 12.6649057,47.9136909 C12.8019253,47.9672623 12.9538373,48 13.1117046,48 L13.1206407,48 L30.8762329,48 L30.885169,48 C31.0430364,48 31.1949483,47.9672615 31.3319679,47.9107119 C31.7430192,47.7380938 32.0319508,47.3303505 32.0319508,46.8571441 C32.0319508,46.8452392 32.0289723,46.8303584 32.0289723,46.8184536 C32.0021647,43.6101308 28.8507328,40.8660393 24.3441599,40.1428352 C23.9539562,40.0773583 23.5518113,40.0327165 23.1467535,39.9999773 L23.1467535,36.1726034 C23.5667417,36.1309369 23.9837865,36.0714143 24.3918182,35.9851052 C24.3947967,35.9851052 24.3977759,35.9821285 24.4007543,35.9821285 C28.2818973,35.178543 31.8235603,32.366032 34.3434284,28.2175135 C38.0578053,27.8425095 41.4117326,24.8722757 43.1987298,20.3066121 C43.728927,18.9524711 44,17.5030154 44,15.9940546 L43.9940423,6.03590353 C43.9940423,5.40495143 43.4817113,4.89303999 42.8502421,4.89303999 L42.8510267,4.89290361 Z M2.93087371,19.4766044 C2.50493013,18.3902745 2.28748608,17.2206679 2.28748608,16.0003944 L2.28748608,7.17901165 L6.61547363,7.17901165 L6.61547363,18.1078348 C6.61547363,20.3251425 7.01163266,22.4650402 7.79801056,24.4650514 C7.94098559,24.8311258 8.09289751,25.1882707 8.24778332,25.5394955 C6.04955178,24.6555286 4.11340301,22.4948308 2.93086608,19.4769853 L2.93087371,19.4766044 Z M29.4822897,45.7152276 L14.5114698,45.7152276 C15.217408,44.1467616 17.3203381,42.8342972 20.027942,42.3967328 C21.2878761,42.1913755 22.7057308,42.1883964 23.9746628,42.3967328 C26.676319,42.8342362 28.7792338,44.1467616 29.4822897,45.7152276 Z M23.9241068,33.7509701 L23.9211284,33.7509701 C22.6641682,34.0128763 21.3327085,34.0128763 20.0726981,33.7509701 L20.0697197,33.7509701 C15.86389,32.8849081 12.0722685,29.1021059 9.92421166,23.6320562 C9.24508409,21.8999322 8.89951916,20.0398075 8.89951916,18.1082157 L8.90249762,2.28641281 L35.0909476,2.28641281 L35.0909476,18.1082157 C35.0909476,20.0398075 34.7484024,21.8999322 34.0662551,23.6320562 C31.9216297,29.1023345 28.1297795,32.8854414 23.9237973,33.7509701 L23.9241068,33.7509701 Z M41.7063877,16.0007754 C41.7063877,17.2210489 41.4889437,18.3906554 41.0630001,19.4769853 C39.8804632,22.4948308 37.9443907,24.6556048 35.7460829,25.536524 C35.9009687,25.1853297 36.0528806,24.8281848 36.1958556,24.4620799 C36.9792063,22.4620687 37.3783925,20.322171 37.3783925,18.1048633 L37.3783925,7.17908784 L41.7063877,7.17908784 L41.7063877,16.0007754 Z" id="Shape"></path>
        </g>
    </g>
</svg>