<?xml version="1.0" encoding="UTF-8"?>
<svg width="100pt" height="100pt" version="1.1" viewBox="0 0 100 100" xmlns="http://www.w3.org/2000/svg">
 <g fill="currentcolor">
  <path d="m36.395 33.918c0 4.8281-3.9141 8.7461-8.7461 8.7461-4.8281 0-8.7461-3.918-8.7461-8.7461 0-4.832 3.918-8.7461 8.7461-8.7461 4.832 0 8.7461 3.9141 8.7461 8.7461"/>
  <path d="m81.5 33.918c0 4.8281-3.9141 8.7461-8.7461 8.7461-4.8281 0-8.7461-3.918-8.7461-8.7461 0-4.832 3.918-8.7461 8.7461-8.7461 4.832 0 8.7461 3.9141 8.7461 8.7461"/>
  <path d="m17.336 79.219c-0.46875 0-0.94141-0.10547-1.3867-0.33203-1.5078-0.76562-2.1094-2.6133-1.3398-4.1211 2.625-5.1641 7.5-9.5586 14.098-12.707 6.5117-3.1094 14.211-4.7539 22.262-4.7539 8.0117 0 15.68 1.6289 22.176 4.7109 6.5742 3.1211 11.453 7.4766 14.109 12.602 0.77734 1.5039 0.19141 3.3516-1.3086 4.1289-1.5039 0.77734-3.3516 0.19141-4.1289-1.3086-2.0078-3.8711-6.0195-7.3828-11.297-9.8867-5.6797-2.6953-12.438-4.1211-19.547-4.1211-7.1406 0-13.926 1.4375-19.621 4.1562-5.2891 2.5273-9.2969 6.0625-11.277 9.957-0.54688 1.0664-1.625 1.6758-2.7383 1.6758z"/>
 </g>
</svg>
