<?xml version="1.0" encoding="UTF-8"?>
<svg width="770px" height="511px" viewBox="0 0 770 511" version="1.1" xmlns="http://www.w3.org/2000/svg" xmlns:xlink="http://www.w3.org/1999/xlink">
    <!-- Generator: Sketch 52.6 (67491) - http://www.bohemiancoding.com/sketch -->
    <title>Front</title>
    <desc>Created with Sketch.</desc>
    <g id="Page-1" stroke="none" stroke-width="1" fill="none" fill-rule="evenodd">
        <g id="Artboard" transform="translate(-201.000000, -13.000000)">
            <g id="Front" transform="translate(201.000000, 12.000000)">
                <g id="Hero">
                    <g id="Right-plode" transform="translate(631.000000, 0.000000)" fill="#87CCEE">
                        <path d="M-13.2296104,35.6351361 L64.9898191,35.5214545 C67.5171467,35.5177814 69.5689282,37.5636076 69.5726013,40.0909352 C69.5726078,40.0953741 69.5726078,40.099813 69.5726013,40.1042519 L69.5726013,40.1042519 C69.5689059,42.6411024 67.5132988,44.6967027 64.9764484,44.7003897 L-13.2429812,44.8140713 C-15.7703088,44.8177444 -17.8220903,42.7719182 -17.8257634,40.2445906 C-17.8257699,40.2401517 -17.8257698,40.2357128 -17.8257634,40.2312739 L-17.8257634,40.2312739 C-17.822068,37.6944234 -15.7664609,35.6388231 -13.2296104,35.6351361 Z" id="Top" transform="translate(25.873419, 40.167763) rotate(120.000000) translate(-25.873419, -40.167763) "></path>
                        <path d="M46.5706712,103.768285 L124.607949,103.636552 C127.13888,103.63228 129.194068,105.680541 129.19834,108.211471 C129.198349,108.216625 129.198349,108.221778 129.19834,108.226931 L129.19834,108.226931 C129.194056,110.76892 127.134437,112.828544 124.592449,112.832835 L46.5551704,112.964568 C44.0242399,112.96884 41.9690518,110.920579 41.9647794,108.389649 C41.9647707,108.384495 41.9647707,108.379342 41.9647794,108.374189 L41.9647794,108.374189 C41.969064,105.8322 44.0286824,103.772576 46.5706712,103.768285 Z" id="Middle" transform="translate(85.581560, 108.300560) rotate(160.000000) translate(-85.581560, -108.300560) "></path>
                        <path d="M56.7440741,188.520797 L134.678363,188.495764 C137.218925,188.494948 139.279119,190.553819 139.279935,193.094381 C139.279935,193.095364 139.279935,193.096347 139.279935,193.097331 L139.279935,193.097331 C139.279121,195.64 137.218086,197.701038 134.675416,197.701855 L56.7411277,197.726889 C54.2005655,197.727705 52.1403713,195.668834 52.1395552,193.128272 C52.1395549,193.127288 52.1395549,193.126305 52.1395552,193.125322 L52.1395552,193.125322 C52.140369,190.582652 54.2014048,188.521614 56.7440741,188.520797 Z" id="Bottom" transform="translate(95.709745, 193.111326) rotate(190.000000) translate(-95.709745, -193.111326) "></path>
                    </g>
                    <g id="Left-plode" transform="translate(82.941357, 316.520783) rotate(170.000000) translate(-82.941357, -316.520783) translate(16.441357, 216.020783)" fill="#87CCEE">
                        <path d="M-19.3019487,38.4454591 L58.9174808,38.3317774 C61.4448084,38.3281043 63.4965899,40.3739305 63.5002631,42.9012581 C63.5002695,42.905697 63.5002695,42.9101359 63.500263,42.9145748 L63.500263,42.9145748 C63.4965677,45.4514253 61.4409606,47.5070256 58.9041101,47.5107126 L-19.3153194,47.6243942 C-21.842647,47.6280673 -23.8944285,45.5822412 -23.8981017,43.0549135 C-23.8981081,43.0504746 -23.8981081,43.0460357 -23.8981017,43.0415968 L-23.8981017,43.0415968 C-23.8944063,40.5047463 -21.8387992,38.449146 -19.3019487,38.4454591 Z" id="Bottom" transform="translate(19.801081, 42.978086) rotate(290.000000) translate(-19.801081, -42.978086) "></path>
                        <path d="M40.3317106,106.599433 L118.368989,106.4677 C120.899919,106.463428 122.955107,108.511689 122.95938,111.042619 C122.959389,111.047773 122.959389,111.052926 122.95938,111.05808 L122.95938,111.05808 C122.955095,113.600068 120.895477,115.659692 118.353488,115.663983 L40.3162098,115.795716 C37.7852793,115.799989 35.7300912,113.751728 35.7258188,111.220797 C35.7258101,111.215644 35.7258101,111.21049 35.7258188,111.205337 L35.7258188,111.205337 C35.7301034,108.663348 37.7897218,106.603724 40.3317106,106.599433 Z" id="Middle" transform="translate(79.342599, 111.131708) rotate(330.000000) translate(-79.342599, -111.131708) "></path>
                        <path d="M50.4210414,191.247686 L128.35533,191.222653 C130.895892,191.221837 132.956086,193.280708 132.956902,195.82127 C132.956903,195.822253 132.956903,195.823236 132.956902,195.82422 L132.956902,195.82422 C132.956089,198.366889 130.895053,200.427927 128.352383,200.428744 L50.418095,200.453778 C47.8775327,200.454594 45.8173385,198.395723 45.8165224,195.855161 C45.8165221,195.854177 45.8165221,195.853194 45.8165224,195.852211 L45.8165224,195.852211 C45.8173362,193.309541 47.8783721,191.248503 50.4210414,191.247686 Z" id="Top" transform="translate(89.386712, 195.838215) rotate(360.000000) translate(-89.386712, -195.838215) "></path>
                    </g>
                    <path d="M173.275,128.5 L154.075,161.8 L154.075,181 L141.1,181 L141.1,161.8 L121.9,128.5 L136.825,128.5 L145.825,144.025 L147.55,147.55 L149.275,144.025 L158.35,128.5 L173.275,128.5 Z M188.65,141.925 C200.2,141.925 209.275,149.875 209.275,161.875 C209.275,173.875 200.2,181.825 188.65,181.825 C177.1,181.825 168.175,173.875 168.175,161.875 C168.175,149.875 177.1,141.925 188.65,141.925 Z M188.725,153.025 C184.075,153.025 180.85,156.7 180.85,161.8 C180.85,166.9 184.075,170.725 188.725,170.725 C193.375,170.725 196.6,166.9 196.6,161.8 C196.6,156.7 193.375,153.025 188.725,153.025 Z M249.25,142.75 L249.25,181 L238.9,181 L237.925,176.2 C236.2,179.275 232.9,181.825 228.1,181.825 C220,181.825 215.875,176.425 215.875,167.65 L215.875,142.75 L228.1,142.75 L228.1,164.65 C228.1,168.025 229.225,169.9 232.075,169.9 C234.7,169.9 237.025,168.025 237.025,162.775 L237.025,142.75 L249.25,142.75 Z M290.2,141.925 C299.5,141.925 307.075,146.875 308.2,157.45 L296.575,157.45 C295.675,154.6 293.575,153.025 290.425,153.025 C286.375,153.025 283.225,156.625 283.225,161.95 C283.225,167.05 286.3,170.725 290.725,170.725 C293.95,170.725 296.125,168.7 296.65,166.3 L308.425,166.3 C306.775,176.725 299.35,181.825 290.2,181.825 C278.725,181.825 270.55,174.025 270.55,161.95 C270.55,150.325 278.65,141.925 290.2,141.925 Z M333.55,141.925 C345.1,141.925 354.175,149.875 354.175,161.875 C354.175,173.875 345.1,181.825 333.55,181.825 C322,181.825 313.075,173.875 313.075,161.875 C313.075,149.875 322,141.925 333.55,141.925 Z M333.625,153.025 C328.975,153.025 325.75,156.7 325.75,161.8 C325.75,166.9 328.975,170.725 333.625,170.725 C338.275,170.725 341.5,166.9 341.5,161.8 C341.5,156.7 338.275,153.025 333.625,153.025 Z M394.15,142.75 L394.15,181 L383.8,181 L382.825,176.2 C381.1,179.275 377.8,181.825 373,181.825 C364.9,181.825 360.775,176.425 360.775,167.65 L360.775,142.75 L373,142.75 L373,164.65 C373,168.025 374.125,169.9 376.975,169.9 C379.6,169.9 381.925,168.025 381.925,162.775 L381.925,142.75 L394.15,142.75 Z M415.825,126.25 L415.825,181 L403.6,181 L403.6,126.25 L415.825,126.25 Z M463.3,126.25 L463.3,181 L452.95,181 L451.975,176.2 C450.025,179.05 446.8,181.825 440.575,181.825 C430.675,181.825 422.875,173.05 422.875,161.875 C422.875,150.7 430.675,141.925 440.575,141.925 C445.375,141.925 449.2,143.8 451.075,146.2 L451.075,126.25 L463.3,126.25 Z M443.35,153.4 C439.3,153.4 435.55,156.475 435.55,161.875 C435.55,167.275 439.3,170.35 443.35,170.35 C447.175,170.35 451.375,167.725 451.375,161.95 L451.375,161.425 C451.225,155.95 447.1,153.4 443.35,153.4 Z M499.225,126.25 L499.225,181 L487,181 L487,126.25 L499.225,126.25 Z M525.7,141.925 C535.9,141.925 543.7,148.225 543.7,162.175 L543.7,165.175 L518.95,165.175 C519.1,168.7 521.575,171.7 526.075,171.7 C528.925,171.7 531.175,170.65 531.85,168.625 L543.625,168.625 C541.225,177.1 535.3,181.825 525.775,181.825 C514.075,181.825 506.275,174.025 506.275,161.95 C506.275,150.325 514.15,141.925 525.7,141.925 Z M525.325,151.6 C521.65,151.6 519.175,154.075 518.95,157.75 L531.4,157.75 C531.25,154.075 529,151.6 525.325,151.6 Z M565.975,141.925 C575.35,141.925 582.25,146.425 582.25,156.1 L582.25,181 L571.975,181 L571.15,176.725 C569.05,179.65 566.05,181.825 560.8,181.825 C553.975,181.825 548.875,177.7 548.875,170.65 C548.875,162.625 554.125,160.075 561.475,158.875 L570.025,157.45 L570.025,156.25 C570.025,153.775 568.675,152.125 565.975,152.125 C563.425,152.125 561.775,153.775 561.775,155.65 L550,155.65 C550.675,147.55 556.45,141.925 565.975,141.925 Z M570.025,164.65 L564.55,165.7 C562.3,166.15 561.025,167.275 561.025,169.225 C561.025,170.95 562.15,172.225 564.4,172.225 C566.275,172.225 568.3,171.175 569.35,169 C569.8,168.1 570.025,166.825 570.025,165.55 L570.025,164.65 Z M628.825,126.25 L628.825,181 L618.475,181 L617.5,176.2 C615.55,179.05 612.325,181.825 606.1,181.825 C596.2,181.825 588.4,173.05 588.4,161.875 C588.4,150.7 596.2,141.925 606.1,141.925 C610.9,141.925 614.725,143.8 616.6,146.2 L616.6,126.25 L628.825,126.25 Z M608.875,153.4 C604.825,153.4 601.075,156.475 601.075,161.875 C601.075,167.275 604.825,170.35 608.875,170.35 C612.7,170.35 616.9,167.725 616.9,161.95 L616.9,161.425 C616.75,155.95 612.625,153.4 608.875,153.4 Z M167.2,208.75 L167.05,217.75 L175,217.75 L175,228.85 L166.975,228.85 L166.825,240.55 C166.825,244.225 168.175,245.5 171.475,245.5 C173.125,245.5 174.1,245.35 175,245.05 L175,255.7 C173.725,256.15 171.7,256.525 168.475,256.525 C159.325,256.525 154.525,252.925 154.6,243.7 L154.75,228.85 L149.125,228.85 L149.125,217.75 L154.825,217.75 L154.9,208.75 L167.2,208.75 Z M194.725,201.25 L194.725,221.275 C196.525,219.025 199.225,216.925 203.8,216.925 C211.9,216.925 216.1,222.325 216.1,231.1 L216.1,256 L203.875,256 L203.875,234.1 C203.875,230.725 202.675,228.85 199.825,228.85 C197.05,228.85 194.725,230.725 194.725,235.975 L194.725,256 L182.5,256 L182.5,201.25 L194.725,201.25 Z M242.05,216.925 C252.25,216.925 260.05,223.225 260.05,237.175 L260.05,240.175 L235.3,240.175 C235.45,243.7 237.925,246.7 242.425,246.7 C245.275,246.7 247.525,245.65 248.2,243.625 L259.975,243.625 C257.575,252.1 251.65,256.825 242.125,256.825 C230.425,256.825 222.625,249.025 222.625,236.95 C222.625,225.325 230.5,216.925 242.05,216.925 Z M241.675,226.6 C238,226.6 235.525,229.075 235.3,232.75 L247.75,232.75 C247.6,229.075 245.35,226.6 241.675,226.6 Z M297.925,202.525 C308.2,202.525 314.8,207.925 315.4,218.8 L302.35,218.8 C302.125,215.65 300.175,213.925 297.55,213.925 C294.925,213.925 293.275,215.275 293.275,217.75 C293.275,220.825 295.825,221.875 301.6,223.675 C313.15,227.35 316.825,232.6 316.825,240.55 C316.825,251.125 308.8,256.975 298.6,256.975 C285.85,256.975 279.55,249.625 279.25,239.5 L292.3,239.5 C292.6,243.475 294.625,245.65 298.75,245.65 C301.825,245.65 303.775,244.15 303.775,241.75 C303.775,238.975 301.375,237.325 295.825,235.6 C285.925,232.6 280.225,227.95 280.225,218.95 C280.225,209.125 287.125,202.525 297.925,202.525 Z M338.65,208.75 L338.5,217.75 L346.45,217.75 L346.45,228.85 L338.425,228.85 L338.275,240.55 C338.275,244.225 339.625,245.5 342.925,245.5 C344.575,245.5 345.55,245.35 346.45,245.05 L346.45,255.7 C345.175,256.15 343.15,256.525 339.925,256.525 C330.775,256.525 325.975,252.925 326.05,243.7 L326.2,228.85 L320.575,228.85 L320.575,217.75 L326.275,217.75 L326.35,208.75 L338.65,208.75 Z M386.875,217.75 L386.875,256 L376.525,256 L375.55,251.2 C373.825,254.275 370.525,256.825 365.725,256.825 C357.625,256.825 353.5,251.425 353.5,242.65 L353.5,217.75 L365.725,217.75 L365.725,239.65 C365.725,243.025 366.85,244.9 369.7,244.9 C372.325,244.9 374.65,243.025 374.65,237.775 L374.65,217.75 L386.875,217.75 Z M434.35,201.25 L434.35,256 L424,256 L423.025,251.2 C421.075,254.05 417.85,256.825 411.625,256.825 C401.725,256.825 393.925,248.05 393.925,236.875 C393.925,225.7 401.725,216.925 411.625,216.925 C416.425,216.925 420.25,218.8 422.125,221.2 L422.125,201.25 L434.35,201.25 Z M414.4,228.4 C410.35,228.4 406.6,231.475 406.6,236.875 C406.6,242.275 410.35,245.35 414.4,245.35 C418.225,245.35 422.425,242.725 422.425,236.95 L422.425,236.425 C422.275,230.95 418.15,228.4 414.4,228.4 Z M460.825,216.925 C471.025,216.925 478.825,223.225 478.825,237.175 L478.825,240.175 L454.075,240.175 C454.225,243.7 456.7,246.7 461.2,246.7 C464.05,246.7 466.3,245.65 466.975,243.625 L478.75,243.625 C476.35,252.1 470.425,256.825 460.9,256.825 C449.2,256.825 441.4,249.025 441.4,236.95 C441.4,225.325 449.275,216.925 460.825,216.925 Z M460.45,226.6 C456.775,226.6 454.3,229.075 454.075,232.75 L466.525,232.75 C466.375,229.075 464.125,226.6 460.45,226.6 Z M507.325,216.925 C515.425,216.925 519.625,222.325 519.625,231.1 L519.625,256 L507.4,256 L507.4,234.1 C507.4,230.725 506.2,228.85 503.35,228.85 C500.575,228.85 498.25,230.725 498.25,235.975 L498.25,256 L486.025,256 L486.025,217.75 L496.375,217.75 L497.35,222.55 C499.075,219.475 502.45,216.925 507.325,216.925 Z M543.325,208.75 L543.175,217.75 L551.125,217.75 L551.125,228.85 L543.1,228.85 L542.95,240.55 C542.95,244.225 544.3,245.5 547.6,245.5 C549.25,245.5 550.225,245.35 551.125,245.05 L551.125,255.7 C549.85,256.15 547.825,256.525 544.6,256.525 C535.45,256.525 530.65,252.925 530.725,243.7 L530.875,228.85 L525.25,228.85 L525.25,217.75 L530.95,217.75 L531.025,208.75 L543.325,208.75 Z M571.825,216.925 C580.3,216.925 586.45,221.725 586.825,229.075 L574.9,229.075 C574.825,227.2 573.775,225.925 571.75,225.925 C569.875,225.925 568.75,226.9 568.75,228.55 C568.75,230.425 569.95,231.55 575.05,232.15 C584.425,233.275 587.5,237.55 587.5,243.85 C587.5,253.375 579.775,256.825 571.675,256.825 C561.85,256.825 556.375,252.025 556,244.45 L567.925,244.45 C568,246.775 569.725,247.825 571.975,247.825 C573.925,247.825 575.35,247.075 575.35,245.35 C575.35,243.625 574.45,242.425 569.2,241.675 C560.5,240.475 556.675,236.275 556.675,229.975 C556.675,223 561.475,216.925 571.825,216.925 Z M598.375,200.05 C602.2,200.05 605.275,202.825 605.275,207.475 C605.275,212.8 602.125,218.65 598.45,222.775 L595.15,221.65 C596.275,219.025 596.875,216.4 597.175,213.025 C593.95,212.575 591.55,210.1 591.55,206.725 C591.55,202.975 594.55,200.05 598.375,200.05 Z M312.2875,278.5 L312.2875,309.625 C312.2875,323.5 304.5625,331.975 290.4625,331.975 C276.3625,331.975 268.5625,323.5 268.5625,309.625 L268.5625,278.5 L281.5375,278.5 L281.5375,309.625 C281.5375,315.85 284.1625,319.9 290.4625,319.9 C296.7625,319.9 299.3125,315.85 299.3125,309.625 L299.3125,278.5 L312.2875,278.5 Z M342.5875,291.925 C350.6875,291.925 354.8875,297.325 354.8875,306.1 L354.8875,331 L342.6625,331 L342.6625,309.1 C342.6625,305.725 341.4625,303.85 338.6125,303.85 C335.8375,303.85 333.5125,305.725 333.5125,310.975 L333.5125,331 L321.2875,331 L321.2875,292.75 L331.6375,292.75 L332.6125,297.55 C334.3375,294.475 337.7125,291.925 342.5875,291.925 Z M376.0375,292.75 L376.0375,331 L363.8125,331 L363.8125,292.75 L376.0375,292.75 Z M369.8875,275.2 C373.7875,275.2 376.9375,278.125 376.9375,282.025 C376.9375,285.925 373.7875,288.85 369.8875,288.85 C365.9875,288.85 362.9125,285.925 362.9125,282.025 C362.9125,278.125 365.9875,275.2 369.8875,275.2 Z M403.5625,291.925 C415.1125,291.925 424.1875,299.875 424.1875,311.875 C424.1875,323.875 415.1125,331.825 403.5625,331.825 C392.0125,331.825 383.0875,323.875 383.0875,311.875 C383.0875,299.875 392.0125,291.925 403.5625,291.925 Z M403.6375,303.025 C398.9875,303.025 395.7625,306.7 395.7625,311.8 C395.7625,316.9 398.9875,320.725 403.6375,320.725 C408.2875,320.725 411.5125,316.9 411.5125,311.8 C411.5125,306.7 408.2875,303.025 403.6375,303.025 Z M452.5375,291.925 C460.6375,291.925 464.8375,297.325 464.8375,306.1 L464.8375,331 L452.6125,331 L452.6125,309.1 C452.6125,305.725 451.4125,303.85 448.5625,303.85 C445.7875,303.85 443.4625,305.725 443.4625,310.975 L443.4625,331 L431.2375,331 L431.2375,292.75 L441.5875,292.75 L442.5625,297.55 C444.2875,294.475 447.6625,291.925 452.5375,291.925 Z M485.9875,278.5 L485.9875,314.275 L473.7625,314.275 L473.7625,278.5 L485.9875,278.5 Z M479.8375,318.175 C483.7375,318.175 486.8875,321.1 486.8875,325 C486.8875,328.9 483.7375,331.825 479.8375,331.825 C475.9375,331.825 472.8625,328.9 472.8625,325 C472.8625,321.1 475.9375,318.175 479.8375,318.175 Z" id="Hero-Text" fill="#27428C"></path>
                </g>
                <path d="M85.6885,447.9 L90.2425,447.9 L90.2425,471 L85.6885,471 L76.1845,457.041 L75.2935,455.523 L75.2935,471 L70.7725,471 L70.7725,447.9 L75.2605,447.9 L84.7315,461.892 L85.6885,463.476 L85.6885,447.9 Z M102.3865,453.906 C104.916513,453.906 107.017492,454.719992 108.6895,456.348 C110.361508,457.954008 111.1975,460.043987 111.1975,462.618 C111.1975,465.214013 110.361508,467.314992 108.6895,468.921 C107.017492,470.549008 104.916513,471.363 102.3865,471.363 C99.8784875,471.363 97.7885084,470.549008 96.1165,468.921 C94.4664918,467.314992 93.6415,465.214013 93.6415,462.618 C93.6415,460.065987 94.4664918,457.976008 96.1165,456.348 C97.7885084,454.719992 99.8784875,453.906 102.3865,453.906 Z M102.4195,457.8 C101.165494,457.8 100.120504,458.261995 99.2845,459.186 C98.4704959,460.066004 98.0635,461.209993 98.0635,462.618 C98.0635,464.026007 98.4704959,465.180995 99.2845,466.083 C100.120504,466.985005 101.165494,467.436 102.4195,467.436 C103.673506,467.436 104.707496,466.979505 105.5215,466.0665 C106.335504,465.153495 106.7425,464.004007 106.7425,462.618 C106.7425,461.209993 106.346504,460.055005 105.5545,459.153 C104.762496,458.250995 103.717506,457.8 102.4195,457.8 Z M132.6145,453.906 C134.330509,453.906 135.650495,454.455994 136.5745,455.556 C137.498505,456.656005 137.9605,458.18499 137.9605,460.143 L137.9605,471 L133.6705,471 L133.6705,461.067 C133.6705,459.06499 132.889508,458.064 131.3275,458.064 C130.469496,458.064 129.771003,458.404997 129.232,459.087 C128.692997,459.769003 128.4125,460.725994 128.3905,461.958 L128.3905,471 L124.1005,471 L124.1005,461.067 C124.1005,459.06499 123.319508,458.064 121.7575,458.064 C120.877496,458.064 120.168003,458.421496 119.629,459.1365 C119.089997,459.851504 118.8205,460.857994 118.8205,462.156 L118.8205,471 L114.5635,471 L114.5635,454.269 L118.2265,454.269 L118.5565,456.447 C119.458505,454.752992 120.94349,453.906 123.0115,453.906 C125.365512,453.906 126.960496,454.88499 127.7965,456.843 C128.214502,455.962996 128.846996,455.253503 129.694,454.7145 C130.541004,454.175497 131.514495,453.906 132.6145,453.906 Z M142.2835,454.269 L146.5735,454.269 L146.5735,471 L142.2835,471 L142.2835,454.269 Z M144.4285,446.811 C145.132504,446.811 145.742997,447.058498 146.26,447.5535 C146.777003,448.048502 147.0355,448.647996 147.0355,449.352 C147.0355,450.078004 146.782503,450.682998 146.2765,451.167 C145.770497,451.651002 145.154504,451.893 144.4285,451.893 C143.702496,451.893 143.086503,451.651002 142.5805,451.167 C142.074497,450.682998 141.8215,450.078004 141.8215,449.352 C141.8215,448.647996 142.074497,448.048502 142.5805,447.5535 C143.086503,447.058498 143.702496,446.811 144.4285,446.811 Z M159.6745,453.906 C161.412509,453.906 162.748995,454.455994 163.684,455.556 C164.619005,456.656005 165.0865,458.18499 165.0865,460.143 L165.0865,471 L160.7635,471 L160.7635,461.067 C160.7635,459.06499 159.971508,458.064 158.3875,458.064 C157.485495,458.064 156.765003,458.421496 156.226,459.1365 C155.686997,459.851504 155.4175,460.857994 155.4175,462.156 L155.4175,471 L151.1605,471 L151.1605,454.269 L154.8235,454.269 L155.1535,456.447 C156.055505,454.752992 157.562489,453.906 159.6745,453.906 Z M175.5805,453.906 C177.64851,453.906 179.270994,454.428495 180.448,455.4735 C181.625006,456.518505 182.2135,458.03099 182.2135,460.011 L182.2135,471 L178.5505,471 L178.2865,468.954 C177.230495,470.560008 175.635511,471.363 173.5015,471.363 C171.983492,471.363 170.757005,470.923004 169.822,470.043 C168.886995,469.162996 168.4195,467.997007 168.4195,466.545 C168.4195,465.070993 168.859496,463.938004 169.7395,463.146 C170.619504,462.353996 171.906492,461.815001 173.6005,461.529 L177.9235,460.737 L177.9235,460.11 C177.9235,458.415992 177.142508,457.569 175.5805,457.569 C174.854496,457.569 174.255002,457.772498 173.782,458.1795 C173.308998,458.586502 173.0725,459.119997 173.0725,459.78 L168.9145,459.78 C169.024501,458.019991 169.684494,456.601005 170.8945,455.523 C172.104506,454.444995 173.66649,453.906 175.5805,453.906 Z M177.9235,464.103 L177.9235,463.608 L174.5905,464.301 C173.336494,464.587001 172.7095,465.213995 172.7095,466.182 C172.7095,466.688003 172.879998,467.089499 173.221,467.3865 C173.562002,467.683501 174.040497,467.832 174.6565,467.832 C175.822506,467.832 176.713497,467.326005 177.3295,466.314 C177.725502,465.697997 177.9235,464.961004 177.9235,464.103 Z M187.3945,450.21 L191.7175,450.21 L191.6845,454.269 L195.5125,454.269 L195.5125,458.163 L191.6515,458.163 L191.5855,464.928 C191.5855,465.808004 191.744998,466.429498 192.064,466.7925 C192.383002,467.155502 192.949496,467.337 193.7635,467.337 C194.401503,467.337 194.984497,467.260001 195.5125,467.106 L195.5125,470.868 C194.852497,471.110001 193.950506,471.231 192.8065,471.231 C190.914491,471.231 189.517505,470.807504 188.6155,469.9605 C187.713495,469.113496 187.2735,467.777009 187.2955,465.951 L187.3615,458.163 L184.6225,458.163 L184.6225,454.269 L187.3615,454.269 L187.3945,450.21 Z M198.9445,454.269 L203.2345,454.269 L203.2345,471 L198.9445,471 L198.9445,454.269 Z M201.0895,446.811 C201.793504,446.811 202.403997,447.058498 202.921,447.5535 C203.438003,448.048502 203.6965,448.647996 203.6965,449.352 C203.6965,450.078004 203.443503,450.682998 202.9375,451.167 C202.431497,451.651002 201.815504,451.893 201.0895,451.893 C200.363496,451.893 199.747503,451.651002 199.2415,451.167 C198.735497,450.682998 198.4825,450.078004 198.4825,449.352 C198.4825,448.647996 198.735497,448.048502 199.2415,447.5535 C199.747503,447.058498 200.363496,446.811 201.0895,446.811 Z M215.3785,453.906 C217.908513,453.906 220.009492,454.719992 221.6815,456.348 C223.353508,457.954008 224.1895,460.043987 224.1895,462.618 C224.1895,465.214013 223.353508,467.314992 221.6815,468.921 C220.009492,470.549008 217.908513,471.363 215.3785,471.363 C212.870487,471.363 210.780508,470.549008 209.1085,468.921 C207.458492,467.314992 206.6335,465.214013 206.6335,462.618 C206.6335,460.065987 207.458492,457.976008 209.1085,456.348 C210.780508,454.719992 212.870487,453.906 215.3785,453.906 Z M215.4115,457.8 C214.157494,457.8 213.112504,458.261995 212.2765,459.186 C211.462496,460.066004 211.0555,461.209993 211.0555,462.618 C211.0555,464.026007 211.462496,465.180995 212.2765,466.083 C213.112504,466.985005 214.157494,467.436 215.4115,467.436 C216.665506,467.436 217.699496,466.979505 218.5135,466.0665 C219.327504,465.153495 219.7345,464.004007 219.7345,462.618 C219.7345,461.209993 219.338504,460.055005 218.5465,459.153 C217.754496,458.250995 216.709506,457.8 215.4115,457.8 Z M236.0695,453.906 C237.807509,453.906 239.143995,454.455994 240.079,455.556 C241.014005,456.656005 241.4815,458.18499 241.4815,460.143 L241.4815,471 L237.1585,471 L237.1585,461.067 C237.1585,459.06499 236.366508,458.064 234.7825,458.064 C233.880495,458.064 233.160003,458.421496 232.621,459.1365 C232.081997,459.851504 231.8125,460.857994 231.8125,462.156 L231.8125,471 L227.5555,471 L227.5555,454.269 L231.2185,454.269 L231.5485,456.447 C232.450505,454.752992 233.957489,453.906 236.0695,453.906 Z M251.0845,453.906 C252.844509,453.906 254.290994,454.389995 255.424,455.358 C256.557006,456.326005 257.1565,457.601992 257.2225,459.186 L252.9655,459.186 C252.9435,457.909994 252.305506,457.272 251.0515,457.272 C250.457497,457.272 250.001002,457.420499 249.682,457.7175 C249.362998,458.014501 249.2035,458.415997 249.2035,458.922 C249.2035,459.450003 249.412498,459.851499 249.8305,460.1265 C250.248502,460.401501 251.018494,460.637999 252.1405,460.836 C254.07651,461.166002 255.467996,461.737996 256.315,462.552 C257.162004,463.366004 257.5855,464.487993 257.5855,465.918 C257.5855,467.656009 256.991506,468.997995 255.8035,469.944 C254.615494,470.890005 253.05351,471.363 251.1175,471.363 C249.11549,471.363 247.537006,470.879005 246.382,469.911 C245.226994,468.942995 244.6275,467.612008 244.5835,465.918 L248.8075,465.918 C248.8515,467.282007 249.654492,467.964 251.2165,467.964 C252.602507,467.964 253.2955,467.436005 253.2955,466.38 C253.2955,465.829997 253.081002,465.401002 252.652,465.093 C252.222998,464.784998 251.425506,464.521001 250.2595,464.301 C248.433491,463.992998 247.086004,463.432004 246.217,462.618 C245.347996,461.803996 244.9135,460.715007 244.9135,459.351 C244.9135,457.788992 245.452495,456.502005 246.5305,455.49 C247.630506,454.433995 249.14849,453.906 251.0845,453.906 Z M274.3825,446.547 C275.152504,446.547 275.889496,446.645999 276.5935,446.844 L276.5935,450.672 C275.999497,450.429999 275.427503,450.309 274.8775,450.309 C273.403493,450.309 272.6665,451.078992 272.6665,452.619 L272.6665,454.269 L276.4945,454.269 L276.4945,458.163 L272.6665,458.163 L272.6665,471 L268.3435,471 L268.3435,458.163 L265.7035,458.163 L265.7035,454.269 L268.3435,454.269 L268.3435,452.52 C268.3435,450.56199 268.860495,449.077005 269.8945,448.065 C270.928505,447.052995 272.42449,446.547 274.3825,446.547 Z M286.8235,453.906 C289.353513,453.906 291.454492,454.719992 293.1265,456.348 C294.798508,457.954008 295.6345,460.043987 295.6345,462.618 C295.6345,465.214013 294.798508,467.314992 293.1265,468.921 C291.454492,470.549008 289.353513,471.363 286.8235,471.363 C284.315487,471.363 282.225508,470.549008 280.5535,468.921 C278.903492,467.314992 278.0785,465.214013 278.0785,462.618 C278.0785,460.065987 278.903492,457.976008 280.5535,456.348 C282.225508,454.719992 284.315487,453.906 286.8235,453.906 Z M286.8565,457.8 C285.602494,457.8 284.557504,458.261995 283.7215,459.186 C282.907496,460.066004 282.5005,461.209993 282.5005,462.618 C282.5005,464.026007 282.907496,465.180995 283.7215,466.083 C284.557504,466.985005 285.602494,467.436 286.8565,467.436 C288.110506,467.436 289.144496,466.979505 289.9585,466.0665 C290.772504,465.153495 291.1795,464.004007 291.1795,462.618 C291.1795,461.209993 290.783504,460.055005 289.9915,459.153 C289.199496,458.250995 288.154506,457.8 286.8565,457.8 Z M308.0425,454.104 L308.0425,458.394 C306.678493,458.394 305.567504,458.723997 304.7095,459.384 C303.873496,460.044003 303.4225,461.077993 303.3565,462.486 L303.3565,471 L299.0665,471 L299.0665,454.269 L302.7625,454.269 L303.1585,456.942 C303.862504,455.049991 305.490487,454.104 308.0425,454.104 Z M328.6015,447.471 C332.077517,447.471 334.937489,448.603989 337.1815,450.87 C339.425511,453.114011 340.5475,455.962983 340.5475,459.417 C340.5475,462.871017 339.425511,465.741989 337.1815,468.03 C334.937489,470.296011 332.077517,471.429 328.6015,471.429 C325.103483,471.429 322.232511,470.296011 319.9885,468.03 C317.744489,465.741989 316.6225,462.871017 316.6225,459.417 C316.6225,455.962983 317.744489,453.114011 319.9885,450.87 C322.232511,448.603989 325.103483,447.471 328.6015,447.471 Z M333.8155,453.873 C332.495493,452.420993 330.757511,451.695 328.6015,451.695 C326.445489,451.695 324.685507,452.420993 323.3215,453.873 C322.001493,455.325007 321.3415,457.172989 321.3415,459.417 C321.3415,461.683011 322.001493,463.552993 323.3215,465.027 C324.685507,466.479007 326.445489,467.205 328.6015,467.205 C330.757511,467.205 332.495493,466.479007 333.8155,465.027 C335.157507,463.552993 335.8285,461.683011 335.8285,459.417 C335.8285,457.150989 335.157507,455.303007 333.8155,453.873 Z M350.9755,446.547 C351.745504,446.547 352.482496,446.645999 353.1865,446.844 L353.1865,450.672 C352.592497,450.429999 352.020503,450.309 351.4705,450.309 C349.996493,450.309 349.2595,451.078992 349.2595,452.619 L349.2595,454.269 L353.0875,454.269 L353.0875,458.163 L349.2595,458.163 L349.2595,471 L344.9365,471 L344.9365,458.163 L342.2965,458.163 L342.2965,454.269 L344.9365,454.269 L344.9365,452.52 C344.9365,450.56199 345.453495,449.077005 346.4875,448.065 C347.521505,447.052995 349.01749,446.547 350.9755,446.547 Z M362.8555,446.547 C363.537503,446.547 364.186497,446.645999 364.8025,446.844 L364.8025,450.672 C364.208497,450.429999 363.636503,450.309 363.0865,450.309 C361.832494,450.309 361.2055,451.078992 361.2055,452.619 L361.2055,454.269 L364.8025,454.269 L364.8025,458.163 L361.2055,458.163 L361.2055,471 L356.8825,471 L356.8825,458.163 L354.1765,458.163 L354.1765,454.269 L356.8825,454.269 L356.8825,452.52 C356.8825,448.53798 358.87348,446.547 362.8555,446.547 Z M367.5745,454.269 L371.8645,454.269 L371.8645,471 L367.5745,471 L367.5745,454.269 Z M369.7195,446.811 C370.423504,446.811 371.033997,447.058498 371.551,447.5535 C372.068003,448.048502 372.3265,448.647996 372.3265,449.352 C372.3265,450.078004 372.073503,450.682998 371.5675,451.167 C371.061497,451.651002 370.445504,451.893 369.7195,451.893 C368.993496,451.893 368.377503,451.651002 367.8715,451.167 C367.365497,450.682998 367.1125,450.078004 367.1125,449.352 C367.1125,448.647996 367.365497,448.048502 367.8715,447.5535 C368.377503,447.058498 368.993496,446.811 369.7195,446.811 Z M383.6455,453.906 C385.73551,453.906 387.467993,454.450495 388.843,455.5395 C390.218007,456.628505 391.059498,458.17399 391.3675,460.176 L387.2095,460.176 C386.967499,459.427996 386.538503,458.845002 385.9225,458.427 C385.306497,458.008998 384.580504,457.8 383.7445,457.8 C382.556494,457.8 381.588504,458.261995 380.8405,459.186 C380.070496,460.088005 379.6855,461.242993 379.6855,462.651 C379.6855,464.037007 380.075996,465.180995 380.857,466.083 C381.638004,466.985005 382.633494,467.436 383.8435,467.436 C384.679504,467.436 385.405497,467.216002 386.0215,466.776 C386.637503,466.335998 387.044499,465.775003 387.2425,465.093 L391.4335,465.093 C391.037498,467.09501 390.146507,468.640495 388.7605,469.7295 C387.374493,470.818505 385.66951,471.363 383.6455,471.363 C381.159488,471.363 379.146508,470.560008 377.6065,468.954 C376.044492,467.325992 375.2635,465.225013 375.2635,462.651 C375.2635,460.142987 376.044492,458.053008 377.6065,456.381 C379.190508,454.730992 381.203488,453.906 383.6455,453.906 Z M401.9605,453.906 C404.336512,453.906 406.222993,454.659492 407.62,456.1665 C409.017007,457.673508 409.7155,459.823986 409.7155,462.618 L409.7155,463.938 L398.0665,463.938 C398.1325,465.060006 398.528496,465.967497 399.2545,466.6605 C399.980504,467.353503 400.926494,467.7 402.0925,467.7 C403.830509,467.7 404.952497,467.051006 405.4585,465.753 L409.6165,465.753 C408.516495,469.493019 405.96452,471.363 401.9605,471.363 C399.474488,471.363 397.461508,470.571008 395.9215,468.987 C394.403492,467.380992 393.6445,465.269013 393.6445,462.651 C393.6445,460.076987 394.414492,457.987008 395.9545,456.381 C397.516508,454.730992 399.518488,453.906 401.9605,453.906 Z M398.0995,460.968 L405.3925,460.968 C405.3705,459.911995 405.040503,459.065003 404.4025,458.427 C403.764497,457.788997 402.917505,457.47 401.8615,457.47 C400.827495,457.47 399.969503,457.788997 399.2875,458.427 C398.605497,459.065003 398.209501,459.911995 398.0995,460.968 Z M422.3215,454.104 L422.3215,458.394 C420.957493,458.394 419.846504,458.723997 418.9885,459.384 C418.152496,460.044003 417.7015,461.077993 417.6355,462.486 L417.6355,471 L413.3455,471 L413.3455,454.269 L417.0415,454.269 L417.4375,456.942 C418.141504,455.049991 419.769487,454.104 422.3215,454.104 Z M430.7695,453.906 C432.529509,453.906 433.975994,454.389995 435.109,455.358 C436.242006,456.326005 436.8415,457.601992 436.9075,459.186 L432.6505,459.186 C432.6285,457.909994 431.990506,457.272 430.7365,457.272 C430.142497,457.272 429.686002,457.420499 429.367,457.7175 C429.047998,458.014501 428.8885,458.415997 428.8885,458.922 C428.8885,459.450003 429.097498,459.851499 429.5155,460.1265 C429.933502,460.401501 430.703494,460.637999 431.8255,460.836 C433.76151,461.166002 435.152996,461.737996 436,462.552 C436.847004,463.366004 437.2705,464.487993 437.2705,465.918 C437.2705,467.656009 436.676506,468.997995 435.4885,469.944 C434.300494,470.890005 432.73851,471.363 430.8025,471.363 C428.80049,471.363 427.222006,470.879005 426.067,469.911 C424.911994,468.942995 424.3125,467.612008 424.2685,465.918 L428.4925,465.918 C428.5365,467.282007 429.339492,467.964 430.9015,467.964 C432.287507,467.964 432.9805,467.436005 432.9805,466.38 C432.9805,465.829997 432.766002,465.401002 432.337,465.093 C431.907998,464.784998 431.110506,464.521001 429.9445,464.301 C428.118491,463.992998 426.771004,463.432004 425.902,462.618 C425.032996,461.803996 424.5985,460.715007 424.5985,459.351 C424.5985,457.788992 425.137495,456.502005 426.2155,455.49 C427.315506,454.433995 428.83349,453.906 430.7695,453.906 Z M441.8905,466.248 C442.638504,466.248 443.254498,466.506497 443.7385,467.0235 C444.222502,467.540503 444.4645,468.216996 444.4645,469.053 C444.4645,471.187011 443.551509,473.29899 441.7255,475.389 L440.5045,474.927 C441.032503,473.848995 441.362499,472.595007 441.4945,471.165 C440.856497,471.099 440.334002,470.846002 439.927,470.406 C439.519998,469.965998 439.3165,469.416003 439.3165,468.756 C439.3165,468.051996 439.563998,467.458002 440.059,466.974 C440.554002,466.489998 441.164496,466.248 441.8905,466.248 Z M461.0305,447.471 C463.252511,447.471 465.001494,448.064994 466.2775,449.253 C467.553506,450.441006 468.2355,452.145989 468.3235,454.368 L463.7365,454.368 C463.7145,453.465995 463.445003,452.762003 462.928,452.256 C462.410997,451.749997 461.745504,451.497 460.9315,451.497 C460.117496,451.497 459.479502,451.711498 459.0175,452.1405 C458.555498,452.569502 458.3245,453.179996 458.3245,453.972 C458.3245,454.764004 458.610497,455.379998 459.1825,455.82 C459.666502,456.194002 460.733492,456.677997 462.3835,457.272 C464.803512,458.086004 466.519495,459.037495 467.5315,460.1265 C468.543505,461.215505 469.0495,462.650991 469.0495,464.433 C469.0495,466.611011 468.323507,468.326994 466.8715,469.581 C465.441493,470.813006 463.604511,471.429 461.3605,471.429 C458.830487,471.429 456.856007,470.758007 455.437,469.416 C454.017993,468.073993 453.2755,466.248012 453.2095,463.938 L457.7965,463.938 C457.8845,466.270012 459.094488,467.436 461.4265,467.436 C462.350505,467.436 463.087497,467.199502 463.6375,466.7265 C464.187503,466.253498 464.4625,465.621004 464.4625,464.829 C464.4625,464.058996 464.154503,463.421003 463.5385,462.915 C462.922497,462.408997 461.866507,461.914002 460.3705,461.43 C458.060488,460.681996 456.377505,459.769005 455.3215,458.691 C454.265495,457.612995 453.7375,456.172009 453.7375,454.368 C453.7375,452.34399 454.386494,450.683006 455.6845,449.385 C456.982506,448.108994 458.764489,447.471 461.0305,447.471 Z M473.4055,450.21 L477.7285,450.21 L477.6955,454.269 L481.5235,454.269 L481.5235,458.163 L477.6625,458.163 L477.5965,464.928 C477.5965,465.808004 477.755998,466.429498 478.075,466.7925 C478.394002,467.155502 478.960496,467.337 479.7745,467.337 C480.412503,467.337 480.995497,467.260001 481.5235,467.106 L481.5235,470.868 C480.863497,471.110001 479.961506,471.231 478.8175,471.231 C476.925491,471.231 475.528505,470.807504 474.6265,469.9605 C473.724495,469.113496 473.2845,467.777009 473.3065,465.951 L473.3725,458.163 L470.6335,458.163 L470.6335,454.269 L473.3725,454.269 L473.4055,450.21 Z M494.2285,454.269 L498.4855,454.269 L498.4855,471 L494.8225,471 L494.4925,468.822 C493.590495,470.516008 492.11651,471.363 490.0705,471.363 C488.332491,471.363 487.001505,470.813006 486.0775,469.713 C485.153495,468.612995 484.6915,467.08401 484.6915,465.126 L484.6915,454.269 L488.9815,454.269 L488.9815,464.169 C488.9815,466.19301 489.773492,467.205 491.3575,467.205 C492.215504,467.205 492.908497,466.864003 493.4365,466.182 C493.964503,465.499997 494.2285,464.521006 494.2285,463.245 L494.2285,454.269 Z M514.6555,446.91 L518.9455,446.91 L518.9455,471 L515.2495,471 L514.9195,468.756 C513.731494,470.494009 511.960512,471.363 509.6065,471.363 C507.384489,471.363 505.536507,470.527008 504.0625,468.855 C502.588493,467.182992 501.8515,465.104012 501.8515,462.618 C501.8515,460.153988 502.588493,458.086008 504.0625,456.414 C505.536507,454.741992 507.395489,453.906 509.6395,453.906 C511.883511,453.906 513.555495,454.631993 514.6555,456.084 L514.6555,446.91 Z M510.4975,457.932 C509.287494,457.932 508.281004,458.371996 507.478,459.252 C506.674996,460.132004 506.2735,461.253993 506.2735,462.618 C506.2735,464.004007 506.674996,465.136996 507.478,466.017 C508.281004,466.897004 509.287494,467.337 510.4975,467.337 C511.663506,467.337 512.653496,466.930004 513.4675,466.116 C514.303504,465.279996 514.7215,464.147007 514.7215,462.717 L514.7215,462.519 C514.6995,461.132993 514.270504,460.022004 513.4345,459.186 C512.598496,458.349996 511.619506,457.932 510.4975,457.932 Z M530.5945,453.906 C532.970512,453.906 534.856993,454.659492 536.254,456.1665 C537.651007,457.673508 538.3495,459.823986 538.3495,462.618 L538.3495,463.938 L526.7005,463.938 C526.7665,465.060006 527.162496,465.967497 527.8885,466.6605 C528.614504,467.353503 529.560494,467.7 530.7265,467.7 C532.464509,467.7 533.586497,467.051006 534.0925,465.753 L538.2505,465.753 C537.150495,469.493019 534.59852,471.363 530.5945,471.363 C528.108488,471.363 526.095508,470.571008 524.5555,468.987 C523.037492,467.380992 522.2785,465.269013 522.2785,462.651 C522.2785,460.076987 523.048492,457.987008 524.5885,456.381 C526.150508,454.730992 528.152488,453.906 530.5945,453.906 Z M526.7335,460.968 L534.0265,460.968 C534.0045,459.911995 533.674503,459.065003 533.0365,458.427 C532.398497,457.788997 531.551505,457.47 530.4955,457.47 C529.461495,457.47 528.603503,457.788997 527.9215,458.427 C527.239497,459.065003 526.843501,459.911995 526.7335,460.968 Z M550.4275,453.906 C552.165509,453.906 553.501995,454.455994 554.437,455.556 C555.372005,456.656005 555.8395,458.18499 555.8395,460.143 L555.8395,471 L551.5165,471 L551.5165,461.067 C551.5165,459.06499 550.724508,458.064 549.1405,458.064 C548.238495,458.064 547.518003,458.421496 546.979,459.1365 C546.439997,459.851504 546.1705,460.857994 546.1705,462.156 L546.1705,471 L541.9135,471 L541.9135,454.269 L545.5765,454.269 L545.9065,456.447 C546.808505,454.752992 548.315489,453.906 550.4275,453.906 Z M561.1195,450.21 L565.4425,450.21 L565.4095,454.269 L569.2375,454.269 L569.2375,458.163 L565.3765,458.163 L565.3105,464.928 C565.3105,465.808004 565.469998,466.429498 565.789,466.7925 C566.108002,467.155502 566.674496,467.337 567.4885,467.337 C568.126503,467.337 568.709497,467.260001 569.2375,467.106 L569.2375,470.868 C568.577497,471.110001 567.675506,471.231 566.5315,471.231 C564.639491,471.231 563.242505,470.807504 562.3405,469.9605 C561.438495,469.113496 560.9985,467.777009 561.0205,465.951 L561.0865,458.163 L558.3475,458.163 L558.3475,454.269 L561.0865,454.269 L561.1195,450.21 Z M577.2235,447.9 L596.7925,447.9 L596.7925,452.124 L589.2685,452.124 L589.2685,471 L584.7475,471 L584.7475,452.124 L577.2235,452.124 L577.2235,447.9 Z M605.6365,454.104 L605.6365,458.394 C604.272493,458.394 603.161504,458.723997 602.3035,459.384 C601.467496,460.044003 601.0165,461.077993 600.9505,462.486 L600.9505,471 L596.6605,471 L596.6605,454.269 L600.3565,454.269 L600.7525,456.942 C601.456504,455.049991 603.084487,454.104 605.6365,454.104 Z M618.0775,454.269 L622.3345,454.269 L622.3345,471 L618.6715,471 L618.3415,468.822 C617.439495,470.516008 615.96551,471.363 613.9195,471.363 C612.181491,471.363 610.850505,470.813006 609.9265,469.713 C609.002495,468.612995 608.5405,467.08401 608.5405,465.126 L608.5405,454.269 L612.8305,454.269 L612.8305,464.169 C612.8305,466.19301 613.622492,467.205 615.2065,467.205 C616.064504,467.205 616.757497,466.864003 617.2855,466.182 C617.813503,465.499997 618.0775,464.521006 618.0775,463.245 L618.0775,454.269 Z M632.2015,453.906 C633.961509,453.906 635.407994,454.389995 636.541,455.358 C637.674006,456.326005 638.2735,457.601992 638.3395,459.186 L634.0825,459.186 C634.0605,457.909994 633.422506,457.272 632.1685,457.272 C631.574497,457.272 631.118002,457.420499 630.799,457.7175 C630.479998,458.014501 630.3205,458.415997 630.3205,458.922 C630.3205,459.450003 630.529498,459.851499 630.9475,460.1265 C631.365502,460.401501 632.135494,460.637999 633.2575,460.836 C635.19351,461.166002 636.584996,461.737996 637.432,462.552 C638.279004,463.366004 638.7025,464.487993 638.7025,465.918 C638.7025,467.656009 638.108506,468.997995 636.9205,469.944 C635.732494,470.890005 634.17051,471.363 632.2345,471.363 C630.23249,471.363 628.654006,470.879005 627.499,469.911 C626.343994,468.942995 625.7445,467.612008 625.7005,465.918 L629.9245,465.918 C629.9685,467.282007 630.771492,467.964 632.3335,467.964 C633.719507,467.964 634.4125,467.436005 634.4125,466.38 C634.4125,465.829997 634.198002,465.401002 633.769,465.093 C633.339998,464.784998 632.542506,464.521001 631.3765,464.301 C629.550491,463.992998 628.203004,463.432004 627.334,462.618 C626.464996,461.803996 626.0305,460.715007 626.0305,459.351 C626.0305,457.788992 626.569495,456.502005 627.6475,455.49 C628.747505,454.433995 630.26549,453.906 632.2015,453.906 Z M643.0585,450.21 L647.3815,450.21 L647.3485,454.269 L651.1765,454.269 L651.1765,458.163 L647.3155,458.163 L647.2495,464.928 C647.2495,465.808004 647.408998,466.429498 647.728,466.7925 C648.047002,467.155502 648.613496,467.337 649.4275,467.337 C650.065503,467.337 650.648497,467.260001 651.1765,467.106 L651.1765,470.868 C650.516497,471.110001 649.614506,471.231 648.4705,471.231 C646.578491,471.231 645.181505,470.807504 644.2795,469.9605 C643.377495,469.113496 642.9375,467.777009 642.9595,465.951 L643.0255,458.163 L640.2865,458.163 L640.2865,454.269 L643.0255,454.269 L643.0585,450.21 Z M661.7035,453.906 C664.079512,453.906 665.965993,454.659492 667.363,456.1665 C668.760007,457.673508 669.4585,459.823986 669.4585,462.618 L669.4585,463.938 L657.8095,463.938 C657.8755,465.060006 658.271496,465.967497 658.9975,466.6605 C659.723504,467.353503 660.669494,467.7 661.8355,467.7 C663.573509,467.7 664.695497,467.051006 665.2015,465.753 L669.3595,465.753 C668.259494,469.493019 665.70752,471.363 661.7035,471.363 C659.217488,471.363 657.204508,470.571008 655.6645,468.987 C654.146492,467.380992 653.3875,465.269013 653.3875,462.651 C653.3875,460.076987 654.157492,457.987008 655.6975,456.381 C657.259508,454.730992 659.261488,453.906 661.7035,453.906 Z M657.8425,460.968 L665.1355,460.968 C665.1135,459.911995 664.783503,459.065003 664.1455,458.427 C663.507497,457.788997 662.660505,457.47 661.6045,457.47 C660.570495,457.47 659.712503,457.788997 659.0305,458.427 C658.348497,459.065003 657.952501,459.911995 657.8425,460.968 Z M680.3485,453.906 C682.724512,453.906 684.610993,454.659492 686.008,456.1665 C687.405007,457.673508 688.1035,459.823986 688.1035,462.618 L688.1035,463.938 L676.4545,463.938 C676.5205,465.060006 676.916496,465.967497 677.6425,466.6605 C678.368504,467.353503 679.314494,467.7 680.4805,467.7 C682.218509,467.7 683.340497,467.051006 683.8465,465.753 L688.0045,465.753 C686.904494,469.493019 684.35252,471.363 680.3485,471.363 C677.862488,471.363 675.849508,470.571008 674.3095,468.987 C672.791492,467.380992 672.0325,465.269013 672.0325,462.651 C672.0325,460.076987 672.802492,457.987008 674.3425,456.381 C675.904508,454.730992 677.906488,453.906 680.3485,453.906 Z M676.4875,460.968 L683.7805,460.968 C683.7585,459.911995 683.428503,459.065003 682.7905,458.427 C682.152497,457.788997 681.305505,457.47 680.2495,457.47 C679.215495,457.47 678.357503,457.788997 677.6755,458.427 C676.993497,459.065003 676.597501,459.911995 676.4875,460.968 Z M696.9805,453.906 C698.740509,453.906 700.186994,454.389995 701.32,455.358 C702.453006,456.326005 703.0525,457.601992 703.1185,459.186 L698.8615,459.186 C698.8395,457.909994 698.201506,457.272 696.9475,457.272 C696.353497,457.272 695.897002,457.420499 695.578,457.7175 C695.258998,458.014501 695.0995,458.415997 695.0995,458.922 C695.0995,459.450003 695.308498,459.851499 695.7265,460.1265 C696.144502,460.401501 696.914494,460.637999 698.0365,460.836 C699.97251,461.166002 701.363996,461.737996 702.211,462.552 C703.058004,463.366004 703.4815,464.487993 703.4815,465.918 C703.4815,467.656009 702.887506,468.997995 701.6995,469.944 C700.511494,470.890005 698.94951,471.363 697.0135,471.363 C695.01149,471.363 693.433006,470.879005 692.278,469.911 C691.122994,468.942995 690.5235,467.612008 690.4795,465.918 L694.7035,465.918 C694.7475,467.282007 695.550492,467.964 697.1125,467.964 C698.498507,467.964 699.1915,467.436005 699.1915,466.38 C699.1915,465.829997 698.977002,465.401002 698.548,465.093 C698.118998,464.784998 697.321506,464.521001 696.1555,464.301 C694.329491,463.992998 692.982004,463.432004 692.113,462.618 C691.243996,461.803996 690.8095,460.715007 690.8095,459.351 C690.8095,457.788992 691.348495,456.502005 692.4265,455.49 C693.526505,454.433995 695.04449,453.906 696.9805,453.906 Z M148.3225,486.906 C150.39051,486.906 152.012994,487.428495 153.19,488.4735 C154.367006,489.518505 154.9555,491.03099 154.9555,493.011 L154.9555,504 L151.2925,504 L151.0285,501.954 C149.972495,503.560008 148.377511,504.363 146.2435,504.363 C144.725492,504.363 143.499005,503.923004 142.564,503.043 C141.628995,502.162996 141.1615,500.997007 141.1615,499.545 C141.1615,498.070993 141.601496,496.938004 142.4815,496.146 C143.361504,495.353996 144.648492,494.815001 146.3425,494.529 L150.6655,493.737 L150.6655,493.11 C150.6655,491.415992 149.884508,490.569 148.3225,490.569 C147.596496,490.569 146.997002,490.772498 146.524,491.1795 C146.050998,491.586502 145.8145,492.119997 145.8145,492.78 L141.6565,492.78 C141.766501,491.019991 142.426494,489.601005 143.6365,488.523 C144.846506,487.444995 146.40849,486.906 148.3225,486.906 Z M150.6655,497.103 L150.6655,496.608 L147.3325,497.301 C146.078494,497.587001 145.4515,498.213995 145.4515,499.182 C145.4515,499.688003 145.621998,500.089499 145.963,500.3865 C146.304002,500.683501 146.782497,500.832 147.3985,500.832 C148.564506,500.832 149.455497,500.326005 150.0715,499.314 C150.467502,498.697997 150.6655,497.961004 150.6655,497.103 Z M167.6605,486.906 C169.398509,486.906 170.734995,487.455994 171.67,488.556 C172.605005,489.656005 173.0725,491.18499 173.0725,493.143 L173.0725,504 L168.7495,504 L168.7495,494.067 C168.7495,492.06499 167.957508,491.064 166.3735,491.064 C165.471495,491.064 164.751003,491.421496 164.212,492.1365 C163.672997,492.851504 163.4035,493.857994 163.4035,495.156 L163.4035,504 L159.1465,504 L159.1465,487.269 L162.8095,487.269 L163.1395,489.447 C164.041505,487.752992 165.548489,486.906 167.6605,486.906 Z M188.9785,479.91 L193.2685,479.91 L193.2685,504 L189.5725,504 L189.2425,501.756 C188.054494,503.494009 186.283512,504.363 183.9295,504.363 C181.707489,504.363 179.859507,503.527008 178.3855,501.855 C176.911493,500.182992 176.1745,498.104012 176.1745,495.618 C176.1745,493.153988 176.911493,491.086008 178.3855,489.414 C179.859507,487.741992 181.718489,486.906 183.9625,486.906 C186.206511,486.906 187.878494,487.631993 188.9785,489.084 L188.9785,479.91 Z M184.8205,490.932 C183.610494,490.932 182.604004,491.371996 181.801,492.252 C180.997996,493.132004 180.5965,494.253993 180.5965,495.618 C180.5965,497.004007 180.997996,498.136996 181.801,499.017 C182.604004,499.897004 183.610494,500.337 184.8205,500.337 C185.986506,500.337 186.976496,499.930004 187.7905,499.116 C188.626504,498.279996 189.0445,497.147007 189.0445,495.717 L189.0445,495.519 C189.0225,494.132993 188.593504,493.022004 187.7575,492.186 C186.921496,491.349996 185.942506,490.932 184.8205,490.932 Z M219.2725,480.9 L223.8265,480.9 L223.8265,504 L219.2725,504 L209.7685,490.041 L208.8775,488.523 L208.8775,504 L204.3565,504 L204.3565,480.9 L208.8445,480.9 L218.3155,494.892 L219.2725,496.476 L219.2725,480.9 Z M242.4055,480.9 L246.9595,480.9 L246.9595,494.694 C246.9595,497.774015 246.145508,500.166491 244.5175,501.8715 C242.889492,503.576509 240.579515,504.429 237.5875,504.429 C234.595485,504.429 232.280008,503.582008 230.641,501.888 C229.001992,500.193992 228.1825,497.796016 228.1825,494.694 L228.1825,480.9 L232.7365,480.9 L232.7365,494.694 C232.7365,498.368018 234.353484,500.205 237.5875,500.205 C240.799516,500.205 242.4055,498.368018 242.4055,494.694 L242.4055,480.9 Z M258.0145,480.471 C260.236511,480.471 261.985494,481.064994 263.2615,482.253 C264.537506,483.441006 265.2195,485.145989 265.3075,487.368 L260.7205,487.368 C260.6985,486.465995 260.429003,485.762003 259.912,485.256 C259.394997,484.749997 258.729504,484.497 257.9155,484.497 C257.101496,484.497 256.463502,484.711498 256.0015,485.1405 C255.539498,485.569502 255.3085,486.179996 255.3085,486.972 C255.3085,487.764004 255.594497,488.379998 256.1665,488.82 C256.650502,489.194002 257.717492,489.677997 259.3675,490.272 C261.787512,491.086004 263.503495,492.037495 264.5155,493.1265 C265.527505,494.215505 266.0335,495.650991 266.0335,497.433 C266.0335,499.611011 265.307507,501.326994 263.8555,502.581 C262.425493,503.813006 260.588511,504.429 258.3445,504.429 C255.814487,504.429 253.840007,503.758007 252.421,502.416 C251.001993,501.073993 250.2595,499.248012 250.1935,496.938 L254.7805,496.938 C254.8685,499.270012 256.078488,500.436 258.4105,500.436 C259.334505,500.436 260.071497,500.199502 260.6215,499.7265 C261.171503,499.253498 261.4465,498.621004 261.4465,497.829 C261.4465,497.058996 261.138503,496.421003 260.5225,495.915 C259.906497,495.408997 258.850507,494.914002 257.3545,494.43 C255.044488,493.681996 253.361505,492.769005 252.3055,491.691 C251.249495,490.612995 250.7215,489.172009 250.7215,487.368 C250.7215,485.34399 251.370494,483.683006 252.6685,482.385 C253.966506,481.108994 255.748489,480.471 258.0145,480.471 Z M287.5165,479.91 L291.8065,479.91 L291.8065,504 L288.1105,504 L287.7805,501.756 C286.592494,503.494009 284.821512,504.363 282.4675,504.363 C280.245489,504.363 278.397507,503.527008 276.9235,501.855 C275.449493,500.182992 274.7125,498.104012 274.7125,495.618 C274.7125,493.153988 275.449493,491.086008 276.9235,489.414 C278.397507,487.741992 280.256489,486.906 282.5005,486.906 C284.744511,486.906 286.416494,487.631993 287.5165,489.084 L287.5165,479.91 Z M283.3585,490.932 C282.148494,490.932 281.142004,491.371996 280.339,492.252 C279.535996,493.132004 279.1345,494.253993 279.1345,495.618 C279.1345,497.004007 279.535996,498.136996 280.339,499.017 C281.142004,499.897004 282.148494,500.337 283.3585,500.337 C284.524506,500.337 285.514496,499.930004 286.3285,499.116 C287.164504,498.279996 287.5825,497.147007 287.5825,495.717 L287.5825,495.519 C287.5605,494.132993 287.131504,493.022004 286.2955,492.186 C285.459496,491.349996 284.480506,490.932 283.3585,490.932 Z M303.4555,486.906 C305.831512,486.906 307.717993,487.659492 309.115,489.1665 C310.512007,490.673508 311.2105,492.823986 311.2105,495.618 L311.2105,496.938 L299.5615,496.938 C299.6275,498.060006 300.023496,498.967497 300.7495,499.6605 C301.475504,500.353503 302.421494,500.7 303.5875,500.7 C305.325509,500.7 306.447497,500.051006 306.9535,498.753 L311.1115,498.753 C310.011494,502.493019 307.45952,504.363 303.4555,504.363 C300.969488,504.363 298.956508,503.571008 297.4165,501.987 C295.898492,500.380992 295.1395,498.269013 295.1395,495.651 C295.1395,493.076987 295.909492,490.987008 297.4495,489.381 C299.011508,487.730992 301.013488,486.906 303.4555,486.906 Z M299.5945,493.968 L306.8875,493.968 C306.8655,492.911995 306.535503,492.065003 305.8975,491.427 C305.259497,490.788997 304.412505,490.47 303.3565,490.47 C302.322495,490.47 301.464503,490.788997 300.7825,491.427 C300.100497,492.065003 299.704501,492.911995 299.5945,493.968 Z M314.8075,479.91 L319.0975,479.91 L319.0975,504 L314.8075,504 L314.8075,479.91 Z M330.8125,486.906 C333.188512,486.906 335.074993,487.659492 336.472,489.1665 C337.869007,490.673508 338.5675,492.823986 338.5675,495.618 L338.5675,496.938 L326.9185,496.938 C326.9845,498.060006 327.380496,498.967497 328.1065,499.6605 C328.832504,500.353503 329.778494,500.7 330.9445,500.7 C332.682509,500.7 333.804497,500.051006 334.3105,498.753 L338.4685,498.753 C337.368494,502.493019 334.81652,504.363 330.8125,504.363 C328.326488,504.363 326.313508,503.571008 324.7735,501.987 C323.255492,500.380992 322.4965,498.269013 322.4965,495.651 C322.4965,493.076987 323.266492,490.987008 324.8065,489.381 C326.368508,487.730992 328.370488,486.906 330.8125,486.906 Z M326.9515,493.968 L334.2445,493.968 C334.2225,492.911995 333.892503,492.065003 333.2545,491.427 C332.616497,490.788997 331.769505,490.47 330.7135,490.47 C329.679495,490.47 328.821503,490.788997 328.1395,491.427 C327.457497,492.065003 327.061501,492.911995 326.9515,493.968 Z M350.7445,487.269 L357.0805,487.269 L357.0805,490.899 L354.6055,490.899 C354.825501,491.537003 354.9355,492.185997 354.9355,492.846 C354.9355,494.540008 354.319506,495.936994 353.0875,497.037 C351.877494,498.115005 350.29351,498.654 348.3355,498.654 C347.257495,498.654 346.333504,498.511001 345.5635,498.225 C345.299499,498.555002 345.1675,498.961998 345.1675,499.446 C345.1675,500.370005 345.728494,500.832 346.8505,500.832 L350.7775,500.832 C352.515509,500.832 353.862995,501.244496 354.82,502.0695 C355.777005,502.894504 356.2555,504.087992 356.2555,505.65 C356.2555,507.476009 355.595507,508.900495 354.2755,509.9235 C352.955493,510.946505 351.151511,511.458 348.8635,511.458 C346.377488,511.458 344.491006,511.012504 343.204,510.1215 C341.916994,509.230496 341.2735,507.960008 341.2735,506.31 C341.2735,505.077994 341.834494,504.099004 342.9565,503.373 C341.658494,502.470995 341.0095,501.272007 341.0095,499.776 C341.0095,498.367993 341.581494,497.191005 342.7255,496.245 C341.955496,495.232995 341.5705,494.100006 341.5705,492.846 C341.5705,491.085991 342.208494,489.667005 343.4845,488.589 C344.760506,487.466994 346.37749,486.906 348.3355,486.906 C349.149504,486.906 349.952496,487.026999 350.7445,487.269 Z M349.6885,504.066 L347.1805,504.066 C346.652497,504.132 346.234502,504.335498 345.9265,504.6765 C345.618498,505.017502 345.4645,505.451997 345.4645,505.98 C345.4645,506.706004 345.766997,507.266998 346.372,507.663 C346.977003,508.059002 347.818495,508.257 348.8965,508.257 C351.008511,508.257 352.0645,507.476008 352.0645,505.914 C352.0645,504.681994 351.272508,504.066 349.6885,504.066 Z M345.7945,492.846 C345.7945,493.616004 346.025498,494.248498 346.4875,494.7435 C346.949502,495.238502 347.554496,495.486 348.3025,495.486 C349.050504,495.486 349.649998,495.238502 350.101,494.7435 C350.552002,494.248498 350.7775,493.616004 350.7775,492.846 C350.7775,492.031996 350.552002,491.377502 350.101,490.8825 C349.649998,490.387498 349.050504,490.14 348.3025,490.14 C347.554496,490.14 346.949502,490.387498 346.4875,490.8825 C346.025498,491.377502 345.7945,492.031996 345.7945,492.846 Z M365.6275,486.906 C367.69551,486.906 369.317994,487.428495 370.495,488.4735 C371.672006,489.518505 372.2605,491.03099 372.2605,493.011 L372.2605,504 L368.5975,504 L368.3335,501.954 C367.277495,503.560008 365.682511,504.363 363.5485,504.363 C362.030492,504.363 360.804005,503.923004 359.869,503.043 C358.933995,502.162996 358.4665,500.997007 358.4665,499.545 C358.4665,498.070993 358.906496,496.938004 359.7865,496.146 C360.666504,495.353996 361.953492,494.815001 363.6475,494.529 L367.9705,493.737 L367.9705,493.11 C367.9705,491.415992 367.189508,490.569 365.6275,490.569 C364.901496,490.569 364.302002,490.772498 363.829,491.1795 C363.355998,491.586502 363.1195,492.119997 363.1195,492.78 L358.9615,492.78 C359.071501,491.019991 359.731494,489.601005 360.9415,488.523 C362.151506,487.444995 363.71349,486.906 365.6275,486.906 Z M367.9705,497.103 L367.9705,496.608 L364.6375,497.301 C363.383494,497.587001 362.7565,498.213995 362.7565,499.182 C362.7565,499.688003 362.926998,500.089499 363.268,500.3865 C363.609002,500.683501 364.087497,500.832 364.7035,500.832 C365.869506,500.832 366.760497,500.326005 367.3765,499.314 C367.772502,498.697997 367.9705,497.961004 367.9705,497.103 Z M377.4415,483.21 L381.7645,483.21 L381.7315,487.269 L385.5595,487.269 L385.5595,491.163 L381.6985,491.163 L381.6325,497.928 C381.6325,498.808004 381.791998,499.429498 382.111,499.7925 C382.430002,500.155502 382.996496,500.337 383.8105,500.337 C384.448503,500.337 385.031497,500.260001 385.5595,500.106 L385.5595,503.868 C384.899497,504.110001 383.997506,504.231 382.8535,504.231 C380.961491,504.231 379.564505,503.807504 378.6625,502.9605 C377.760495,502.113496 377.3205,500.777009 377.3425,498.951 L377.4085,491.163 L374.6695,491.163 L374.6695,487.269 L377.4085,487.269 L377.4415,483.21 Z M396.0865,486.906 C398.462512,486.906 400.348993,487.659492 401.746,489.1665 C403.143007,490.673508 403.8415,492.823986 403.8415,495.618 L403.8415,496.938 L392.1925,496.938 C392.2585,498.060006 392.654496,498.967497 393.3805,499.6605 C394.106504,500.353503 395.052494,500.7 396.2185,500.7 C397.956509,500.7 399.078497,500.051006 399.5845,498.753 L403.7425,498.753 C402.642494,502.493019 400.09052,504.363 396.0865,504.363 C393.600488,504.363 391.587508,503.571008 390.0475,501.987 C388.529492,500.380992 387.7705,498.269013 387.7705,495.651 C387.7705,493.076987 388.540492,490.987008 390.0805,489.381 C391.642508,487.730992 393.644488,486.906 396.0865,486.906 Z M392.2255,493.968 L399.5185,493.968 C399.4965,492.911995 399.166503,492.065003 398.5285,491.427 C397.890497,490.788997 397.043505,490.47 395.9875,490.47 C394.953495,490.47 394.095503,490.788997 393.4135,491.427 C392.731497,492.065003 392.335501,492.911995 392.2255,493.968 Z M412.7185,486.906 C414.478509,486.906 415.924994,487.389995 417.058,488.358 C418.191006,489.326005 418.7905,490.601992 418.8565,492.186 L414.5995,492.186 C414.5775,490.909994 413.939506,490.272 412.6855,490.272 C412.091497,490.272 411.635002,490.420499 411.316,490.7175 C410.996998,491.014501 410.8375,491.415997 410.8375,491.922 C410.8375,492.450003 411.046498,492.851499 411.4645,493.1265 C411.882502,493.401501 412.652494,493.637999 413.7745,493.836 C415.71051,494.166002 417.101996,494.737996 417.949,495.552 C418.796004,496.366004 419.2195,497.487993 419.2195,498.918 C419.2195,500.656009 418.625506,501.997995 417.4375,502.944 C416.249494,503.890005 414.68751,504.363 412.7515,504.363 C410.74949,504.363 409.171006,503.879005 408.016,502.911 C406.860994,501.942995 406.2615,500.612008 406.2175,498.918 L410.4415,498.918 C410.4855,500.282007 411.288492,500.964 412.8505,500.964 C414.236507,500.964 414.9295,500.436005 414.9295,499.38 C414.9295,498.829997 414.715002,498.401002 414.286,498.093 C413.856998,497.784998 413.059506,497.521001 411.8935,497.301 C410.067491,496.992998 408.720004,496.432004 407.851,495.618 C406.981996,494.803996 406.5475,493.715007 406.5475,492.351 C406.5475,490.788992 407.086495,489.502005 408.1645,488.49 C409.264505,487.433995 410.78249,486.906 412.7185,486.906 Z M435.2905,486.906 C437.35851,486.906 438.980994,487.428495 440.158,488.4735 C441.335006,489.518505 441.9235,491.03099 441.9235,493.011 L441.9235,504 L438.2605,504 L437.9965,501.954 C436.940495,503.560008 435.345511,504.363 433.2115,504.363 C431.693492,504.363 430.467005,503.923004 429.532,503.043 C428.596995,502.162996 428.1295,500.997007 428.1295,499.545 C428.1295,498.070993 428.569496,496.938004 429.4495,496.146 C430.329504,495.353996 431.616492,494.815001 433.3105,494.529 L437.6335,493.737 L437.6335,493.11 C437.6335,491.415992 436.852508,490.569 435.2905,490.569 C434.564496,490.569 433.965002,490.772498 433.492,491.1795 C433.018998,491.586502 432.7825,492.119997 432.7825,492.78 L428.6245,492.78 C428.734501,491.019991 429.394494,489.601005 430.6045,488.523 C431.814506,487.444995 433.37649,486.906 435.2905,486.906 Z M437.6335,497.103 L437.6335,496.608 L434.3005,497.301 C433.046494,497.587001 432.4195,498.213995 432.4195,499.182 C432.4195,499.688003 432.589998,500.089499 432.931,500.3865 C433.272002,500.683501 433.750497,500.832 434.3665,500.832 C435.532506,500.832 436.423497,500.326005 437.0395,499.314 C437.435502,498.697997 437.6335,497.961004 437.6335,497.103 Z M455.1565,487.104 L455.1565,491.394 C453.792493,491.394 452.681504,491.723997 451.8235,492.384 C450.987496,493.044003 450.5365,494.077993 450.4705,495.486 L450.4705,504 L446.1805,504 L446.1805,487.269 L449.8765,487.269 L450.2725,489.942 C450.976504,488.049991 452.604487,487.104 455.1565,487.104 Z M465.0895,486.906 C467.465512,486.906 469.351993,487.659492 470.749,489.1665 C472.146007,490.673508 472.8445,492.823986 472.8445,495.618 L472.8445,496.938 L461.1955,496.938 C461.2615,498.060006 461.657496,498.967497 462.3835,499.6605 C463.109504,500.353503 464.055494,500.7 465.2215,500.7 C466.959509,500.7 468.081497,500.051006 468.5875,498.753 L472.7455,498.753 C471.645494,502.493019 469.09352,504.363 465.0895,504.363 C462.603488,504.363 460.590508,503.571008 459.0505,501.987 C457.532492,500.380992 456.7735,498.269013 456.7735,495.651 C456.7735,493.076987 457.543492,490.987008 459.0835,489.381 C460.645508,487.730992 462.647488,486.906 465.0895,486.906 Z M461.2285,493.968 L468.5215,493.968 C468.4995,492.911995 468.169503,492.065003 467.5315,491.427 C466.893497,490.788997 466.046505,490.47 464.9905,490.47 C463.956495,490.47 463.098503,490.788997 462.4165,491.427 C461.734497,492.065003 461.338501,492.911995 461.2285,493.968 Z M490.4665,486.906 C492.996513,486.906 495.097492,487.719992 496.7695,489.348 C498.441508,490.954008 499.2775,493.043987 499.2775,495.618 C499.2775,498.214013 498.441508,500.314992 496.7695,501.921 C495.097492,503.549008 492.996513,504.363 490.4665,504.363 C487.958487,504.363 485.868508,503.549008 484.1965,501.921 C482.546492,500.314992 481.7215,498.214013 481.7215,495.618 C481.7215,493.065987 482.546492,490.976008 484.1965,489.348 C485.868508,487.719992 487.958487,486.906 490.4665,486.906 Z M490.4995,490.8 C489.245494,490.8 488.200504,491.261995 487.3645,492.186 C486.550496,493.066004 486.1435,494.209993 486.1435,495.618 C486.1435,497.026007 486.550496,498.180995 487.3645,499.083 C488.200504,499.985005 489.245494,500.436 490.4995,500.436 C491.753506,500.436 492.787496,499.979505 493.6015,499.0665 C494.415504,498.153495 494.8225,497.004007 494.8225,495.618 C494.8225,494.209993 494.426504,493.055005 493.6345,492.153 C492.842496,491.250995 491.797506,490.8 490.4995,490.8 Z M512.0485,486.906 C514.292511,486.906 516.151493,487.741992 517.6255,489.414 C519.099507,491.086008 519.8365,493.153988 519.8365,495.618 C519.8365,498.082012 519.088507,500.160992 517.5925,501.855 C516.118493,503.527008 514.270511,504.363 512.0485,504.363 C509.716488,504.363 508.044505,503.626007 507.0325,502.152 L507.0325,511.095 L502.7425,511.095 L502.7425,487.269 L506.4385,487.269 L506.7355,489.513 C507.923506,487.774991 509.694488,486.906 512.0485,486.906 Z M511.1575,490.932 C510.013494,490.932 509.023504,491.349996 508.1875,492.186 C507.351496,493.022004 506.9335,494.143993 506.9335,495.552 L506.9335,495.75 C506.9775,497.158007 507.406496,498.268996 508.2205,499.083 C509.056504,499.919004 510.035494,500.337 511.1575,500.337 C512.367506,500.337 513.373996,499.897004 514.177,499.017 C514.980004,498.136996 515.3815,497.004007 515.3815,495.618 C515.3815,494.231993 514.980004,493.104504 514.177,492.2355 C513.373996,491.366496 512.367506,490.932 511.1575,490.932 Z M530.6605,486.906 C533.036512,486.906 534.922993,487.659492 536.32,489.1665 C537.717007,490.673508 538.4155,492.823986 538.4155,495.618 L538.4155,496.938 L526.7665,496.938 C526.8325,498.060006 527.228496,498.967497 527.9545,499.6605 C528.680504,500.353503 529.626494,500.7 530.7925,500.7 C532.530509,500.7 533.652497,500.051006 534.1585,498.753 L538.3165,498.753 C537.216494,502.493019 534.66452,504.363 530.6605,504.363 C528.174488,504.363 526.161508,503.571008 524.6215,501.987 C523.103492,500.380992 522.3445,498.269013 522.3445,495.651 C522.3445,493.076987 523.114492,490.987008 524.6545,489.381 C526.216508,487.730992 528.218488,486.906 530.6605,486.906 Z M526.7995,493.968 L534.0925,493.968 C534.0705,492.911995 533.740503,492.065003 533.1025,491.427 C532.464497,490.788997 531.617505,490.47 530.5615,490.47 C529.527495,490.47 528.669503,490.788997 527.9875,491.427 C527.305497,492.065003 526.909501,492.911995 526.7995,493.968 Z M550.4935,486.906 C552.231509,486.906 553.567995,487.455994 554.503,488.556 C555.438005,489.656005 555.9055,491.18499 555.9055,493.143 L555.9055,504 L551.5825,504 L551.5825,494.067 C551.5825,492.06499 550.790508,491.064 549.2065,491.064 C548.304495,491.064 547.584003,491.421496 547.045,492.1365 C546.505997,492.851504 546.2365,493.857994 546.2365,495.156 L546.2365,504 L541.9795,504 L541.9795,487.269 L545.6425,487.269 L545.9725,489.447 C546.874505,487.752992 548.381489,486.906 550.4935,486.906 Z M575.2105,486.906 C576.948509,486.906 578.284995,487.455994 579.22,488.556 C580.155005,489.656005 580.6225,491.18499 580.6225,493.143 L580.6225,504 L576.2995,504 L576.2995,494.067 C576.2995,492.06499 575.507508,491.064 573.9235,491.064 C573.021495,491.064 572.301003,491.421496 571.762,492.1365 C571.222997,492.851504 570.9535,493.857994 570.9535,495.156 L570.9535,504 L566.6965,504 L566.6965,487.269 L570.3595,487.269 L570.6895,489.447 C571.591505,487.752992 573.098489,486.906 575.2105,486.906 Z M592.4695,486.906 C594.999513,486.906 597.100492,487.719992 598.7725,489.348 C600.444508,490.954008 601.2805,493.043987 601.2805,495.618 C601.2805,498.214013 600.444508,500.314992 598.7725,501.921 C597.100492,503.549008 594.999513,504.363 592.4695,504.363 C589.961487,504.363 587.871508,503.549008 586.1995,501.921 C584.549492,500.314992 583.7245,498.214013 583.7245,495.618 C583.7245,493.065987 584.549492,490.976008 586.1995,489.348 C587.871508,487.719992 589.961487,486.906 592.4695,486.906 Z M592.5025,490.8 C591.248494,490.8 590.203504,491.261995 589.3675,492.186 C588.553496,493.066004 588.1465,494.209993 588.1465,495.618 C588.1465,497.026007 588.553496,498.180995 589.3675,499.083 C590.203504,499.985005 591.248494,500.436 592.5025,500.436 C593.756506,500.436 594.790496,499.979505 595.6045,499.0665 C596.418504,498.153495 596.8255,497.004007 596.8255,495.618 C596.8255,494.209993 596.429504,493.055005 595.6375,492.153 C594.845496,491.250995 593.800506,490.8 592.5025,490.8 Z M622.8955,487.269 L627.4825,487.269 L622.4335,504 L617.9455,504 L614.9095,494.166 L611.6755,504 L607.4185,504 L602.3695,487.269 L606.9895,487.269 L609.5305,497.334 L609.8275,499.116 L610.1905,497.334 L613.0285,487.269 L616.8235,487.269 L619.6615,497.334 L620.0245,499.116 L620.3215,497.334 L622.8955,487.269 Z M629.4955,499.182 C630.221504,499.182 630.842997,499.429498 631.36,499.9245 C631.877003,500.419502 632.1355,501.029996 632.1355,501.756 C632.1355,502.482004 631.877003,503.097997 631.36,503.604 C630.842997,504.110003 630.221504,504.363 629.4955,504.363 C628.747496,504.363 628.120503,504.115502 627.6145,503.6205 C627.108497,503.125498 626.8555,502.504004 626.8555,501.756 C626.8555,501.007996 627.108497,500.392002 627.6145,499.908 C628.120503,499.423998 628.747496,499.182 629.4955,499.182 Z" id="Led" fill="#27428C"></path>
            </g>
        </g>
    </g>
</svg>
