<?xml version="1.0" encoding="UTF-8"?>
<svg width="14px" height="55px" viewBox="0 0 14 55" version="1.1" xmlns="http://www.w3.org/2000/svg" xmlns:xlink="http://www.w3.org/1999/xlink">
    <!-- Generator: Sketch 41.1 (35376) - http://www.bohemiancoding.com/sketch -->
    <title>Page 1</title>
    <desc>Created with Sketch.</desc>
    <defs></defs>
    <g id="Page-1" stroke="none" stroke-width="1" fill="none" fill-rule="evenodd">
        <path d="M6.816,14.09 C10.582,14.09 13.632,11.039 13.632,7.274 C13.632,3.508 10.582,0.454 6.816,0.454 C3.05,0.454 0,3.508 0,7.274 C0,11.039 3.05,14.09 6.816,14.09 Z M6.816,34.543 C10.582,34.543 13.632,31.493 13.632,27.727 C13.632,23.961 10.582,20.911 6.816,20.911 C3.05,20.911 0,23.961 0,27.727 C0,31.493 3.05,34.543 6.816,34.543 Z M6.816,55 C10.582,55 13.632,51.946 13.632,48.18 C13.632,44.415 10.582,41.364 6.816,41.364 C3.05,41.364 0,44.415 0,48.18 C0,51.946 3.05,55 6.816,55 Z" fill="#FFFFFF"></path>
    </g>
</svg>