<?xml version="1.0" encoding="UTF-8"?>
<svg width="48px" height="48px" viewBox="0 0 48 48" version="1.1" xmlns="http://www.w3.org/2000/svg" xmlns:xlink="http://www.w3.org/1999/xlink">
    <!-- Generator: Sketch 50.2 (55047) - http://www.bohemiancoding.com/sketch -->
    <title>Communications</title>
    <desc>Created with Sketch.</desc>
    <defs></defs>
    <g id="Communications" stroke="none" stroke-width="1" fill="none" fill-rule="evenodd">
        <g id="np_communication_223764_000000" transform="translate(0.000000, 2.000000)" fill="currentcolor" fill-rule="nonzero">
            <path d="M44.0685957,38.4515745 L43.915006,38.5533038 C44.4775251,39.7780187 45.4469209,41.2600953 46.9788357,42.0260528 C47.489474,42.2813719 47.3877447,43.0473294 46.825246,43.0992102 C45.1397311,43.3545294 42.7401396,43.0473498 40.4943523,41.363857 L40.4424919,41.4157174 C34.7238536,44.7867472 27.2179813,44.0207898 22.3148323,39.1178451 C20.6293174,37.4323302 19.4544409,35.4914962 18.7403643,33.3471217 C22.2629515,32.6330451 25.5323643,30.9475302 28.1350877,28.3424579 C31.6078366,24.8697089 33.4967898,20.2738621 33.4967898,15.3732664 C33.4967898,14.7609089 33.4449294,14.1983898 33.3950604,13.5860323 C37.0712477,13.6877617 40.6456136,15.1698281 43.4541243,17.9783387 C49.021103,23.5912749 49.2248477,32.5795302 44.0684732,38.4518706 L44.0685957,38.4515745 Z M25.685617,4.79948936 C31.5058723,10.6197447 31.5058723,20.1186383 25.685617,25.9388936 C20.7826723,30.8418383 13.2765957,31.6595745 7.55795745,28.2886468 L7.50609702,28.2367864 C5.26010553,29.9223013 2.85847149,30.2274587 1.1752034,29.9721396 C0.612684255,29.8724068 0.510965106,29.1582843 1.02161362,28.9029651 C2.55352851,28.1370077 3.52292426,26.6569736 4.0854434,25.4302162 L3.93185362,25.3284868 C-1.22457191,19.4040613 -1.02092936,10.4163166 4.59609191,4.79929532 C10.4163472,-1.02096 19.8631557,-1.02096 25.6859643,4.79929532 L25.685617,4.79948936 Z M15.1654468,3.98364255 C8.83455319,3.98364255 3.72817021,9.09002553 3.72817021,15.4209191 C3.72817021,21.7518128 8.83455319,26.8581957 15.1654468,26.8581957 C21.4468085,26.8083289 26.5531915,21.7017702 26.5531915,15.3708766 C26.5531915,9.08951489 21.4468085,3.98313191 15.1654468,3.98313191 L15.1654468,3.98364255 Z M13.5318128,15.3713872 C13.5318128,16.2390638 14.2458894,17.0050213 15.1654468,17.0050213 C16.0331234,17.0050213 16.7990809,16.2909447 16.7990809,15.3713872 C16.7990809,14.5037106 16.0850043,13.7377532 15.1654468,13.7377532 C14.2458894,13.7876201 13.5318128,14.5017191 13.5318128,15.3713872 Z M20.8344511,17.0050213 C21.7021277,17.0050213 22.4680851,16.2909447 22.4680851,15.3713872 C22.4680851,14.5037106 21.7540085,13.7377532 20.8344511,13.7377532 C19.9667745,13.7377532 19.200817,14.4518298 19.200817,15.3713872 C19.200817,16.2889532 19.9148936,17.0050213 20.8344511,17.0050213 Z M9.44670638,13.7875915 C8.57902979,13.7875915 7.81307234,14.5016681 7.81307234,15.4212255 C7.81307234,16.2889021 8.52714894,17.0548596 9.44670638,17.0548596 C10.3662638,17.0548596 11.0803404,16.340783 11.0803404,15.4212255 C11.0803404,14.5016681 10.3662638,13.7875915 9.44670638,13.7875915 Z" id="Shape"></path>
        </g>
    </g>
</svg>
