<?xml version="1.0" encoding="UTF-8"?>
<svg width="48px" height="48px" viewBox="0 0 48 48" version="1.1" xmlns="http://www.w3.org/2000/svg" xmlns:xlink="http://www.w3.org/1999/xlink">
    <!-- Generator: Sketch 50.2 (55047) - http://www.bohemiancoding.com/sketch -->
    <title>Inclusivity</title>
    <desc>Created with Sketch.</desc>
    <defs></defs>
    <g id="Inclusivity" stroke="none" stroke-width="1" fill="none" fill-rule="evenodd">
        <path d="M24.4997339,0 C15.3993323,0 8,7.41497844 8,16.5346232 C8,22.0747887 10.7360817,26.9834383 14.9192432,29.9858058 L14.9192432,46.9369949 C14.9213222,47.3245238 15.1313127,47.6787061 15.4702279,47.8662407 C15.8091218,48.053754 16.2208061,48.0412517 16.5492573,47.8370715 L24.5,42.8533227 L32.4507427,47.8370715 C32.7792418,48.0433382 33.1908889,48.053755 33.5297721,47.868324 C33.868666,47.6808108 34.0786278,47.3245483 34.0807568,46.9369981 L34.0807568,29.985809 C38.2639183,26.9834948 41,22.0747919 41,16.5346264 C41,7.41498164 33.6006677,3.20024965e-06 24.5002661,3.20024965e-06 L24.4997339,0 Z M24.4997339,2.13349977 C32.4483476,2.13349977 38.8704698,8.56920181 38.8704698,16.5346232 C38.8704698,24.5000446 32.4483476,30.9357466 24.4997339,30.9357466 C16.5511201,30.9357466 10.1289979,24.5000446 10.1289979,16.5346232 C10.1289979,8.56920181 16.5511201,2.13349977 24.4997339,2.13349977 Z M17.0482412,31.2859606 C18.0586636,31.8005821 19.1252383,32.2214469 20.241738,32.5193902 L20.241738,43.003408 L17.0482412,45.003564 L17.0482412,31.2859606 Z M31.9512266,31.2859606 L31.9512266,45.0038307 L28.7577297,43.0036747 L28.7577297,32.5196568 C29.8742294,32.2217189 30.9408042,31.8008274 31.9512266,31.2862273 L31.9512266,31.2859606 Z M22.370736,32.936116 C23.0693134,33.025707 23.7782697,33.0694597 24.4997339,33.0694597 C25.221198,33.0694597 25.9301544,33.0277898 26.6287318,32.936116 L26.6287318,41.6701307 L25.0652489,40.6866939 C24.7201171,40.4679249 24.2793294,40.4679249 23.9342188,40.6866939 L22.370736,41.6701307 L22.370736,32.936116 Z M24.5123299,25.599917 L24.4881222,25.599917 C24.395465,25.599917 24.3028058,25.5701503 24.2210002,25.5079128 C23.964734,25.3112782 17.9160663,20.649774 15.6880552,16.7180506 C15.6847161,16.7126385 15.6822118,16.7072264 15.6797075,16.7018145 C15.1821981,15.8106362 14.9192432,14.7868687 14.9192432,13.7406105 C14.9192432,10.5745883 17.3032536,7.99854396 20.2332614,7.99854396 C21.929486,7.99854396 23.505399,8.86986394 24.4997339,10.3157369 C25.4939192,8.86894029 27.0698749,7.99854396 28.7662064,7.99854396 C31.6962141,7.99854396 34.0802245,10.5745883 34.0802245,13.7406105 C34.0802245,14.7869149 33.8172696,15.8106824 33.3197602,16.7018145 C33.3172559,16.7072264 33.3139171,16.7126385 33.3114128,16.7180506 C31.0834017,20.649774 25.0349049,25.3114075 24.7784678,25.5079128 C24.6983312,25.5701503 24.6048385,25.599917 24.5121792,25.599917 L24.5123299,25.599917 Z M18.2076687,16.3250931 C19.687438,18.9254089 23.572908,22.0920512 24.5010038,22.8278767 C25.4289653,22.0921237 29.3144521,18.926134 30.7943388,16.3250931 C30.7963048,16.3222606 30.7976154,16.319428 30.7995815,16.3158874 C31.1252875,15.7359285 31.2976529,15.0688634 31.2976529,14.3861355 C31.2976529,12.3325676 29.751699,10.6620496 27.8511829,10.6620496 C26.5863588,10.6620496 25.4250815,11.4091328 24.8202758,12.6115613 C24.7567066,12.7376088 24.6341533,12.8162111 24.5017839,12.8162111 C24.3687484,12.8162111 24.2462052,12.7376088 24.183292,12.6115613 C23.5790567,11.4091509 22.4178632,10.6620496 21.1523848,10.6620496 C19.2519023,10.6620496 17.7059149,12.3325313 17.7059149,14.3861355 C17.7059149,15.0687727 17.8782635,15.7358379 18.2039862,16.3158874 C18.2046415,16.3187197 18.2066076,16.3222606 18.2079182,16.3250931 L18.2076687,16.3250931 Z" id="Shape" fill="currentcolor" fill-rule="nonzero"></path>
    </g>
</svg>
