<?xml version="1.0" encoding="UTF-8"?>
<svg width="48px" height="48px" viewBox="0 0 48 48" version="1.1" xmlns="http://www.w3.org/2000/svg" xmlns:xlink="http://www.w3.org/1999/xlink">
    <!-- Generator: Sketch 50.2 (55047) - http://www.bohemiancoding.com/sketch -->
    <title>Social</title>
    <desc>Created with Sketch.</desc>
    <defs></defs>
    <g id="Social" stroke="none" stroke-width="1" fill="none" fill-rule="evenodd">
        <g id="np_lemonade_330557_000000-copy" transform="translate(6.000000, 0.000000)" fill="currentcolor" fill-rule="nonzero">
            <path d="M35.20512,6.29232 L29.20512,0.29232 C28.9557456,0.0429456 28.59576,-0.0545568 28.256352,0.0298176 C27.9151008,0.114192 27.64512,0.3710688 27.541968,0.7067136 L24.240096,11.4990336 L15.868416,11.4990336 C15.159648,7.7883936 11.88216,4.9983936 8.023296,4.9983936 C3.611424,4.9983936 0.022656,8.5871616 0.022656,12.9990336 C0.022656,17.3115456 3.45576,20.8287936 7.730976,20.9847936 L9.999744,47.0847936 C10.0466194,47.6041536 10.479744,47.9997696 10.997232,47.9997696 L27.997872,47.9997696 C28.517232,47.9997696 28.948512,47.604144 28.993488,47.0866656 L31.993488,12.5866656 C32.0178629,12.3072912 31.9222368,12.0297696 31.7347392,11.8235616 C31.5453648,11.6173104 31.2772416,11.4991872 30.9978432,11.4991872 L26.3309472,11.4991872 L28.9672032,2.8836672 L33.7897632,7.7062272 C34.1797632,8.0962272 34.8135072,8.0962272 35.2035072,7.7062272 C35.595384,7.3162272 35.595384,6.6843552 35.2053821,6.2924832 L35.20512,6.29232 Z M2.79024,10.07232 L5.60088,12.029808 L2.03088,12.85104 C2.05525488,11.844144 2.3271312,10.899168 2.79024,10.072272 L2.79024,10.07232 Z M8.5464,7.023552 C9.502656,7.1079264 10.39704,7.4229264 11.17704,7.910448 L8.831424,10.269216 L8.5464,7.023552 Z M6.840144,10.458528 L4.052016,8.516016 C4.758912,7.88976 5.612016,7.428528 6.55512,7.1904 L6.840144,10.458528 Z M7.558272,18.980448 C6.752016,18.9185712 5.992656,18.6935712 5.3064,18.344832 L7.250784,15.447936 L7.558272,18.980448 Z M9.590784,18.9991978 L9.1126608,13.4998378 L23.6269008,13.4998378 L21.9450288,18.9991978 L9.590784,18.9991978 Z M10.42704,11.4991978 L12.678912,9.23609376 C13.209552,9.89047776 13.60704,10.6591978 13.8264,11.4991978 L10.42704,11.4991978 Z M2.316,14.8366858 L5.784768,14.0397898 L3.697872,17.1504298 C3.07536,16.5016618 2.599104,15.7123018 2.316,14.8366858 Z M27.08112,45.9992458 L11.91408,45.9992458 L9.740976,20.9998858 L21.333936,20.9998858 L14.540976,43.2075658 C14.3797248,43.7363338 14.675976,44.2950538 15.20472,44.4563338 C15.3022176,44.4863338 15.4015968,44.4994584 15.4990944,44.4994584 C15.9265968,44.4994584 16.3221984,44.2219608 16.4553504,43.7906904 L23.4263904,21.0002904 L29.2540704,21.0002904 L27.08112,45.9992458 Z M29.906736,13.4998858 L29.4286128,18.9992458 L24.0382128,18.9992458 L25.7200848,13.4998858 L29.906736,13.4998858 Z" id="Shape"></path>
            <path d="M22.9968,37.5 C21.343056,37.5 19.9968,38.846256 19.9968,40.5 C19.9968,42.153744 21.343056,43.5 22.9968,43.5 C24.650544,43.5 25.9968,42.153744 25.9968,40.5 C25.9968,38.846256 24.650544,37.5 22.9968,37.5 Z M22.9968,41.49936 C22.445568,41.49936 21.99744,41.0512368 21.99744,40.5 C21.99744,39.9487632 22.4455632,39.50064 22.9968,39.50064 C23.548032,39.50064 23.99616,39.9487632 23.99616,40.5 C23.9980349,41.051232 23.5480368,41.49936 22.9968,41.49936 Z" id="Shape"></path>
            <path d="M16.49808,32.49936 C16.49808,31.121232 15.376848,30 13.99872,30 C12.620592,30 11.49936,31.121232 11.49936,32.49936 C11.49936,33.877488 12.620592,34.99872 13.99872,34.99872 C15.376848,35.0005954 16.49808,33.877488 16.49808,32.49936 Z M13.996848,33 C13.7212224,33 13.496208,32.775 13.496208,32.49936 C13.496208,32.22372 13.7193312,31.99872 13.996848,31.99872 C14.2724736,31.99872 14.497488,32.2218432 14.497488,32.49936 C14.497488,32.7749856 14.272488,33 13.996848,33 Z" id="Shape"></path>
            <path d="M15.4968,27.99936 C17.150544,27.99936 18.4968,26.653104 18.4968,24.99936 C18.4968,23.343744 17.150544,21.99936 15.4968,21.99936 C13.843056,21.99936 12.4968,23.345616 12.4968,24.99936 C12.4968,26.654976 13.843056,27.99936 15.4968,27.99936 Z M15.4968,24 C16.048032,24 16.49616,24.4481232 16.49616,24.99936 C16.49616,25.550592 16.0480368,25.99872 15.4968,25.99872 C14.945568,25.99872 14.49744,25.5505968 14.49744,24.99936 C14.49744,24.448128 14.9455632,24 15.4968,24 Z" id="Shape"></path>
            <path d="M24.99744,28.5 C23.619312,28.5 22.49808,29.621232 22.49808,30.99936 C22.49808,32.377488 23.619312,33.49872 24.99744,33.49872 C26.375568,33.49872 27.4968,32.377488 27.4968,30.99936 C27.4968,29.621232 26.375568,28.5 24.99744,28.5 Z M24.99744,31.5 C24.7218144,31.5 24.4968,31.275 24.4968,30.99936 C24.4968,30.72372 24.7199232,30.49872 24.99744,30.49872 C25.2730656,30.49872 25.49808,30.7218432 25.49808,30.99936 C25.49808,31.2749856 25.27308,31.5 24.99744,31.5 Z" id="Shape"></path>
        </g>
    </g>
</svg>
