<?xml version="1.0" encoding="utf-8"?>
<!-- Generator: Adobe Illustrator 22.0.0, SVG Export Plug-In . SVG Version: 6.00 Build 0)  -->
<svg version="1.1" id="Layer_1" xmlns="http://www.w3.org/2000/svg" xmlns:xlink="http://www.w3.org/1999/xlink" x="0px" y="0px"
	 viewBox="0 0 391 244" style="enable-background:new 0 0 391 244;" xml:space="preserve">
<style type="text/css">
	.st0{fill:#FFFFFF;}
	.st1{font-family:'Larsseit-ExtraBold';}
	.st2{font-size:13.4028px;}
</style>
<g>
	<g>
		<path class="st0" d="M162.8,211c-0.8,0-1.4,0.7-1.4,1.6c0,0.9,0.6,1.6,1.4,1.6c0.8,0,1.4-0.7,1.4-1.6
			C164.2,211.6,163.6,211,162.8,211z"/>
		<path class="st0" d="M150.4,206.2v11.3h90.2v-11.3H150.4z M159.5,211.3h-1l-0.3,1.5h0.9v1.1H158l-0.2,1.3h-1.2l0.2-1.3h-1.1
			l-0.2,1.3h-1.2l0.2-1.3h-0.8v-1.1h1l0.3-1.5h-0.9v-1.1h1.1l0.2-1.2h1.2l-0.2,1.2h1.1l0.2-1.2h1.2l-0.2,1.2h0.8V211.3z
			 M162.8,215.4c-1.6,0-2.8-1.2-2.8-2.8c0-1.7,1.2-2.8,2.8-2.8c1.6,0,2.9,1.1,2.9,2.8C165.6,214.2,164.4,215.4,162.8,215.4z
			 M171.2,215.2h-1.4V212c0-0.6-0.3-1-0.8-1c-0.5,0-1,0.4-1,1.3v2.9h-1.4v-5.4h1.2l0.1,0.7c0.2-0.5,0.7-0.8,1.5-0.8
			c1.2,0,1.8,0.8,1.8,2V215.2z M177.4,213h-3.8c0,0.7,0.5,1.2,1.3,1.2c0.5,0,0.9-0.2,1.1-0.6h1.3c-0.3,1.1-1.2,1.8-2.5,1.8
			c-1.6,0-2.7-1.1-2.7-2.8c0-1.6,1.1-2.8,2.7-2.8c1.4,0,2.5,0.9,2.5,2.8V213z M184.4,215.2h-1.5l-1-3.2l-1,3.2h-1.4l-1.6-5.4h1.5
			l0.8,3.3l0.1,0.6l0.1-0.6l0.9-3.3h1.2l0.9,3.3l0.1,0.6l0.1-0.6l0.8-3.3h1.5L184.4,215.2z M189.2,215.4c-1.6,0-2.8-1.2-2.8-2.8
			c0-1.7,1.2-2.8,2.8-2.8c1.6,0,2.9,1.1,2.9,2.8C192.1,214.2,190.8,215.4,189.2,215.4z M196.1,211.2c-0.4,0-0.8,0.1-1.1,0.3
			c-0.3,0.2-0.4,0.5-0.4,1v2.8h-1.4v-5.4h1.2l0.1,0.9c0.2-0.5,0.7-0.9,1.6-0.9V211.2z M198.5,215.2h-1.4v-7.8h1.4V215.2z
			 M205.1,215.2h-1.2l-0.1-0.7c-0.3,0.4-0.8,0.8-1.7,0.8c-1.5,0-2.5-1.2-2.5-2.8c0-1.6,1.1-2.8,2.5-2.8c0.8,0,1.3,0.3,1.6,0.7v-3
			h1.4V215.2z M208.3,215.4c-1.3,0-2.1-0.7-2.1-1.8h1.4c0,0.4,0.3,0.7,0.8,0.7c0.4,0,0.7-0.2,0.7-0.5c0-0.3-0.2-0.5-1-0.7
			c-1.2-0.2-1.7-0.7-1.7-1.6c0-0.9,0.7-1.8,2-1.8c1.1,0,1.9,0.7,2,1.7h-1.4c0-0.4-0.2-0.6-0.6-0.6c-0.4,0-0.6,0.2-0.6,0.5
			c0,0.3,0.2,0.5,1,0.6c1.3,0.2,1.8,0.8,1.8,1.6C210.4,214.8,209.4,215.4,208.3,215.4z M215.9,215.2h-1.2l-0.1-0.7
			c-0.2,0.5-0.7,0.8-1.4,0.8c-1.2,0-1.7-0.8-1.7-2v-3.5h1.4v3.2c0,0.6,0.3,1,0.8,1c0.5,0,0.9-0.4,0.9-1.3v-2.9h1.4V215.2z
			 M219.1,215.4c-1.3,0-2.1-0.7-2.1-1.8h1.4c0,0.4,0.3,0.7,0.8,0.7c0.4,0,0.7-0.2,0.7-0.5c0-0.3-0.2-0.5-1-0.7
			c-1.2-0.2-1.7-0.7-1.7-1.6c0-0.9,0.7-1.8,2-1.8c1.1,0,1.9,0.7,2,1.7h-1.4c0-0.4-0.2-0.6-0.6-0.6c-0.4,0-0.6,0.2-0.6,0.5
			c0,0.3,0.2,0.5,1,0.6c1.3,0.2,1.8,0.8,1.8,1.6C221.2,214.8,220.2,215.4,219.1,215.4z M224,215.4c-1.3,0-2.1-0.7-2.1-1.8h1.4
			c0,0.4,0.3,0.7,0.8,0.7c0.4,0,0.7-0.2,0.7-0.5c0-0.3-0.2-0.5-1-0.7c-1.2-0.2-1.7-0.7-1.7-1.6c0-0.9,0.7-1.8,2-1.8
			c1.1,0,1.9,0.7,2,1.7h-1.4c0-0.4-0.2-0.6-0.6-0.6c-0.4,0-0.6,0.2-0.6,0.5c0,0.3,0.2,0.5,1,0.6c1.3,0.2,1.8,0.8,1.8,1.6
			C226.1,214.8,225.1,215.4,224,215.4z M232,213h-3.8c0,0.7,0.5,1.2,1.3,1.2c0.5,0,0.9-0.2,1.1-0.6h1.3c-0.3,1.1-1.2,1.8-2.5,1.8
			c-1.6,0-2.7-1.1-2.7-2.8c0-1.6,1.1-2.8,2.7-2.8c1.4,0,2.5,0.9,2.5,2.8V213z M236.3,215.2l-1.1-1.7l-1,1.7h-1.6l1.7-2.8l-1.6-2.7
			h1.6l1,1.6l1-1.6h1.6l-1.6,2.7l1.7,2.8H236.3z"/>
		<path class="st0" d="M174.9,210.9c-0.7,0-1.2,0.5-1.2,1.1h2.4C176,211.3,175.6,210.9,174.9,210.9z"/>
		<path class="st0" d="M202.4,211c-0.8,0-1.4,0.6-1.4,1.5c0,0.9,0.6,1.5,1.4,1.5c0.7,0,1.4-0.5,1.4-1.5v-0.1
			C203.7,211.5,203.1,211,202.4,211z"/>
		<polygon class="st0" points="155.9,212.8 157,212.8 157.3,211.3 156.2,211.3 		"/>
		<path class="st0" d="M229.5,210.9c-0.7,0-1.2,0.5-1.2,1.1h2.4C230.6,211.3,230.2,210.9,229.5,210.9z"/>
		<path class="st0" d="M189.2,211c-0.8,0-1.4,0.7-1.4,1.6c0,0.9,0.6,1.6,1.4,1.6c0.8,0,1.4-0.7,1.4-1.6
			C190.6,211.6,190.1,211,189.2,211z"/>
	</g>
</g>
<text transform="matrix(1 0 0 1 96.3977 231.7741)" class="st0 st1 st2">www.sussexstudent.com/oww</text>
<g>
	<path class="st0" d="M104.5,168.2c0,6.1-4.4,10.5-10.6,10.5c-6.2,0-10.6-4.4-10.6-10.5c0-6,4.4-10.4,10.6-10.4
		C100.1,157.8,104.5,162.1,104.5,168.2z M88.5,168.2c0,3.4,2,5.8,5.4,5.8s5.4-2.4,5.4-5.8c0-3.4-2-5.8-5.4-5.8
		S88.5,164.8,88.5,168.2z"/>
	<path class="st0" d="M120.2,168.7v9.6h-4.7v-8.4c0-1.3-0.5-2-1.6-2c-1.1,0-2,0.7-2,2.7v7.7h-4.7v-14.7h4l0.4,1.8
		c0.7-1.2,2-2.2,3.8-2.2C118.6,163.3,120.2,165.4,120.2,168.7z"/>
	<path class="st0" d="M137,171.1v1.2h-9.5c0.1,1.4,1,2.5,2.7,2.5c1.1,0,2-0.4,2.2-1.2h4.5c-0.9,3.3-3.2,5.1-6.9,5.1
		c-4.5,0-7.5-3-7.5-7.6c0-4.5,3-7.7,7.5-7.7C134.1,163.3,137,165.7,137,171.1z M127.5,169.4h4.8c-0.1-1.4-0.9-2.4-2.3-2.4
		C128.6,167,127.6,168,127.5,169.4z"/>
	<path class="st0" d="M166.4,178.3H161l-2.7-9.8l-0.3-1.4l-0.2,1.4l-2.7,9.8h-5.4l-5.9-20.2h5.2l3.2,11.5l0.3,1.5l0.2-1.5l3-11.5
		h4.6l3,11.5l0.2,1.5l0.3-1.5l3.2-11.5h5.2L166.4,178.3z"/>
	<path class="st0" d="M187.3,171c0,4.6-3.5,7.7-7.9,7.7s-7.9-3.1-7.9-7.7s3.4-7.7,7.9-7.7S187.3,166.3,187.3,171z M176.4,170.9
		c0,2,1.2,3.4,3,3.4c1.8,0,3-1.5,3-3.4s-1.2-3.4-3-3.4C177.6,167.6,176.4,169,176.4,170.9z"/>
	<path class="st0" d="M198.7,168.2c-1.2,0-2,0.1-2.9,0.7c-0.6,0.4-1,1-1.1,2.1v7.3H190v-14.7h4l0.5,2.2c0.5-1.3,1.8-2.4,4.2-2.4
		V168.2z"/>
	<path class="st0" d="M206,178.3h-4.7v-21h4.7V178.3z"/>
	<path class="st0" d="M224.2,178.3h-4l-0.4-1.8c-0.7,1.1-2,2.2-4.4,2.2c-3.8,0-6.8-3.4-6.8-7.7s3-7.7,6.8-7.7c1.8,0,3.3,0.7,4,1.6
		v-7.7h4.7V178.3z M213.6,171c0,2.1,1.4,3.3,3,3.3c1.5,0,3.1-1,3.1-3.2v-0.2c-0.1-2.1-1.6-3.1-3.1-3.1
		C215,167.7,213.6,168.9,213.6,171z"/>
	<path class="st0" d="M254.5,178.3h-5.4l-2.7-9.8l-0.3-1.4l-0.2,1.4l-2.7,9.8h-5.4l-5.9-20.2h5.2l3.2,11.5l0.3,1.5l0.2-1.5l3-11.5
		h4.6l3,11.5l0.2,1.5l0.3-1.5l3.2-11.5h5.2L254.5,178.3z"/>
	<path class="st0" d="M274,171.1v1.2h-9.5c0.1,1.4,1,2.5,2.7,2.5c1.1,0,2-0.4,2.2-1.2h4.5c-0.9,3.3-3.2,5.1-6.9,5.1
		c-4.5,0-7.5-3-7.5-7.6c0-4.5,3-7.7,7.5-7.7C271,163.3,274,165.7,274,171.1z M264.5,169.4h4.8c-0.1-1.4-0.9-2.4-2.3-2.4
		C265.5,167,264.5,168,264.5,169.4z"/>
	<path class="st0" d="M290.3,171.1v1.2h-9.5c0.1,1.4,1,2.5,2.7,2.5c1.1,0,2-0.4,2.2-1.2h4.5c-0.9,3.3-3.2,5.1-6.9,5.1
		c-4.5,0-7.5-3-7.5-7.6c0-4.5,3-7.7,7.5-7.7C287.3,163.3,290.3,165.7,290.3,171.1z M280.8,169.4h4.8c-0.1-1.4-0.9-2.4-2.3-2.4
		C281.9,167,280.9,168,280.8,169.4z"/>
	<path class="st0" d="M297.8,168.9l3.4-5.3h5.5l-3.9,6.2l4.7,8.5h-5.4l-2.7-4.8l-1.6,2.2v2.7h-4.7v-21h4.7V168.9z"/>
</g>
<g>
	<path class="st0" d="M138.2,191.2h-1.8v-8.4h-2.4v-1.6c1.7,0,2.6-0.3,2.9-1.5h1.4V191.2z"/>
	<path class="st0" d="M141.8,188.2h1.9c0.1,1.1,0.7,1.6,1.6,1.6c1.3,0,2-1.1,2.1-3.8c-0.4,0.5-1.3,1-2.3,1c-2.2,0-3.5-1.5-3.5-3.6
		c0-2.2,1.5-3.8,3.7-3.8c1.2,0,2.1,0.4,2.8,1.2c0.9,1,1.2,2.7,1.2,4.5c0,4-1.2,6.2-4,6.2C143.3,191.4,141.9,190.2,141.8,188.2z
		 M147.3,183.3c0-1-0.8-2.1-1.9-2.1c-1.1,0-1.9,0.9-1.9,2c0,1.1,0.8,2,1.9,2C146.4,185.3,147.3,184.5,147.3,183.3z"/>
	<path class="st0" d="M162.1,187.8H157v-1.6h5.1V187.8z"/>
	<path class="st0" d="M176.5,182.8c0,1.4-0.6,2.3-1.4,3.3l-2.7,3.4h4.2v1.7h-6.7v-1.3l3.6-4.4c0.8-1,1.2-1.6,1.2-2.6
		c0-1-0.5-1.6-1.5-1.6c-0.9,0-1.6,0.6-1.6,1.9h-1.8c0-2.2,1.3-3.6,3.4-3.6C175.3,179.6,176.5,180.9,176.5,182.8z"/>
	<path class="st0" d="M186.4,182.9c0,1.4-0.8,2.2-1.5,2.4c0.9,0.3,1.9,1.1,1.9,2.8c0,2.1-1.5,3.4-3.7,3.4c-2.3,0-3.7-1.3-3.7-3.6
		h1.8c0,1.3,0.8,1.9,1.9,1.9c1.1,0,1.8-0.7,1.8-1.7c0-1.2-0.9-1.9-2.4-1.9h-0.5v-1.6h0.5c1.4,0,2-0.5,2-1.6c0-1-0.5-1.6-1.5-1.6
		c-0.9,0-1.6,0.6-1.6,1.8h-1.8c0-2.2,1.3-3.5,3.4-3.5C185.2,179.6,186.4,181,186.4,182.9z"/>
	<path class="st0" d="M192,190.3c0,0.7-0.5,1.1-1.2,1.1c-0.7,0-1.1-0.5-1.1-1.1c0-0.7,0.5-1.1,1.1-1.1
		C191.5,189.1,192,189.6,192,190.3z"/>
	<path class="st0" d="M202.8,185.5c0,3.6-1.4,5.9-3.9,5.9c-2.5,0-3.9-2.3-3.9-5.9c0-3.6,1.4-5.9,3.9-5.9
		C201.4,179.6,202.8,181.9,202.8,185.5z M196.8,185.5c0,2.6,0.7,4.2,2.1,4.2s2.1-1.6,2.1-4.2c0-2.6-0.7-4.2-2.1-4.2
		S196.8,182.9,196.8,185.5z"/>
	<path class="st0" d="M212.7,182.9c0,1.4-0.8,2.2-1.5,2.4c0.9,0.3,1.9,1.1,1.9,2.8c0,2.1-1.5,3.4-3.7,3.4c-2.3,0-3.7-1.3-3.7-3.6
		h1.8c0,1.3,0.8,1.9,1.9,1.9c1.1,0,1.8-0.7,1.8-1.7c0-1.2-0.9-1.9-2.4-1.9h-0.5v-1.6h0.5c1.4,0,2-0.5,2-1.6c0-1-0.5-1.6-1.5-1.6
		c-0.9,0-1.6,0.6-1.6,1.8H206c0-2.2,1.3-3.5,3.4-3.5C211.5,179.6,212.7,181,212.7,182.9z"/>
	<path class="st0" d="M218.4,190.3c0,0.7-0.5,1.1-1.2,1.1c-0.7,0-1.1-0.5-1.1-1.1c0-0.7,0.5-1.1,1.1-1.1
		C217.9,189.1,218.4,189.6,218.4,190.3z"/>
	<path class="st0" d="M228,182.8c0,1.4-0.6,2.3-1.4,3.3l-2.7,3.4h4.2v1.7h-6.7v-1.3l3.6-4.4c0.8-1,1.2-1.6,1.2-2.6
		c0-1-0.5-1.6-1.5-1.6c-0.9,0-1.6,0.6-1.6,1.9h-1.8c0-2.2,1.3-3.6,3.4-3.6C226.8,179.6,228,180.9,228,182.8z"/>
	<path class="st0" d="M238.8,185.5c0,3.6-1.4,5.9-3.9,5.9c-2.5,0-3.9-2.3-3.9-5.9c0-3.6,1.4-5.9,3.9-5.9
		C237.4,179.6,238.8,181.9,238.8,185.5z M232.8,185.5c0,2.6,0.7,4.2,2.1,4.2s2.1-1.6,2.1-4.2c0-2.6-0.7-4.2-2.1-4.2
		S232.8,182.9,232.8,185.5z"/>
	<path class="st0" d="M245.8,191.2H244v-8.4h-2.4v-1.6c1.7,0,2.6-0.3,2.9-1.5h1.4V191.2z"/>
	<path class="st0" d="M256.5,182.9c0,1.3-0.8,2.2-1.3,2.5c0.7,0.3,1.7,1.1,1.7,2.7c0,2-1.6,3.4-3.7,3.4c-2.1,0-3.8-1.4-3.8-3.4
		c0-1.4,0.8-2.3,1.7-2.7c-0.6-0.3-1.3-1.2-1.3-2.5c0-1.8,1.3-3.3,3.4-3.3C255.2,179.6,256.5,181.1,256.5,182.9z M251.2,188
		c0,1.1,0.9,1.8,1.9,1.8c1,0,1.9-0.7,1.9-1.8s-0.9-1.8-1.9-1.8C252.1,186.2,251.2,186.9,251.2,188z M251.5,182.9
		c0,1,0.7,1.6,1.6,1.6c0.9,0,1.6-0.6,1.6-1.6c0-1-0.7-1.6-1.6-1.6C252.2,181.3,251.5,181.9,251.5,182.9z"/>
</g>
</svg>
