<svg xmlns="http://www.w3.org/2000/svg" viewBox="0 0 743 336"><path fill="#35509E" d="M0 0h743.2v336H0z"/><path fill="none" d="M417.2 336h-.8l.8.5zM88.2-.1l.1.1h5.8l.2-.3zM0 252.1v-3.9l-2.8.1zM244 78.6c9.9 1.4 19-5 21.4-14.5l-37.8-5.4A19.2 19.2 0 0 0 244 78.6zm9.8-11.7c.2-1 1.1-1.8 2.1-1.6l2.2.3a1.9 1.9 0 0 1-.5 3.7l-2.2-.3c-1-.1-1.7-1-1.6-2.1zM233.5 62l15.8 2.2a1.9 1.9 0 0 1-.5 3.8l-15.9-2.3a1.9 1.9 0 0 1 .6-3.7zM78 274l4.8 14.1-10.6 3.6-4.8-14zm118.1-75.6l4.8-3.2-5.3-3zm-151 88.1a17.5 17.5 0 0 0 12.7 13.1A70.3 70.3 0 0 1 47.2 279l-.3.3a8.5 8.5 0 0 0-1.7 7.3zM35 194a2.5 2.5 0 0 0 0 5 2.5 2.5 0 0 0 0-5zm45.2-80.3c6.4-2.5 14-7 14.3-13.9a9 9 0 0 0-5-8.7c-3.2-1.6-7-.7-10.4 2.3a2.1 2.1 0 0 1-3.5-1.5c-.2-4.4-2-7.7-5.3-9l-.3-.2a9 9 0 0 0-9.7 2.5c-4.8 5-2.8 13.6-.2 20a75.4 75.4 0 0 0 6.6 12.4 66 66 0 0 0 13.5-3.9z"/><path fill="none" d="M117.5 242.1l-49 16.7 4.7 13.7 5.3-1.8c.8-.2 1.6.2 1.9 1l5.7 16.9c.3.7-.1 1.6-.9 1.9L71.8 295c-.8.3-1.7-.1-2-.9l-5.7-17c-.2-.7.2-1.5 1-1.8l5.3-1.8-4.7-13.8-18.5 6.3c.6 4.4 1.6 8.7 3 13a59.3 59.3 0 0 0 28.2 34.2l43.2-14.7a59.3 59.3 0 0 0 1.4-44.3 69 69 0 0 0-5.5-12z"/><path fill="none" d="M48.5 298c-3.4-3-5.6-7-6.3-11-.7-3.8.2-7.3 2.4-9.8l1.6-1.4-1-4.1c-1.4.7-2.6 1.7-3.6 2.9-3 3.4-4.3 8-3.4 13.1.8 5 3.6 9.6 7.6 13.3a22.8 22.8 0 0 0 18.4 5.8 58.5 58.5 0 0 1-3.6-3.8c-4.2-.1-8.5-2-12-5zm258.1-10.5a2.2 2.2 0 1 0-1.5 4.2 2.2 2.2 0 0 0 1.5-4.2zm122.8-142.6l-3-.9c-.8-.2-1.7.3-2 1.1l-.8 3a1.4 1.4 0 0 1-2.7-.9l.9-2.9a4.4 4.4 0 0 1 5.5-3c.6-1.7-.4-3.4-2-4a3 3 0 0 0-2 .2h-1s-.7-.5-.8-.8a4.6 4.6 0 0 0-5.4-3c-.6.2-1.2 0-1.6-.5a7.6 7.6 0 0 0-9.8-2.9c-.5.3-1.2.1-1.6-.3a4.5 4.5 0 0 0-6-.5 1.4 1.4 0 0 1-2-.3 3 3 0 0 0-1.7-1.1c-1.6-.5-3.4.4-3.8 2v.2c2.4.7 3.7 3.2 3 5.5a1.6 1.6 0 0 0 3.1.9 4.4 4.4 0 0 1 5.5-3l2.9.8c2.3.7 3.7 3.2 3 5.5l-8 27.5a1.6 1.6 0 0 0 3 1l.9-3a1.4 1.4 0 0 1 2.7.8l-.8 3a4.4 4.4 0 0 1-8.5-2.6l4.5-15.4c-1.1.2-2.3.3-4.2-.3s-3-1.3-3.7-2c-.7-.5-1.3-1-2.7-1.4-1.4-.4-2.1-.3-3-.2-1 .1-2.2.2-4.2-.3l-.7-.3a131 131 0 0 0-1.6 21.2c-.1 9.2-.2 18.8-4.8 35.2-.2.9.3 1.8 1.1 2l20.3 6c.9.2 1.8-.3 2-1.1 5-16.4 10.1-24.5 15-32.3 3.4-5.5 6.7-10.8 10-18.7l-.7-.2a9 9 0 0 1-3-1.4 4.4 4.4 0 0 1-8.3-2.1 9.7 9.7 0 0 1-3.3-.8l-1.7 6a1.4 1.4 0 0 1-2.7-.8l2.2-7.6 3.3-11.3a4.4 4.4 0 0 1 5.5-3c2.3.7 3.7 3.2 3 5.5l-3.4 11.6a1.6 1.6 0 0 0 3 .9l.4-1v-.2l.5-1.7a1.4 1.4 0 1 1 2.7.8l-.2.9h.1c.7.6 1.3 1 2.7 1.5l1 .2a150.1 150.1 0 0 0 3.9-11.5zm-32.2 61.4c-.2.7-1 1.1-1.8 1L381 203a1.4 1.4 0 0 1 .8-2.7l14.5 4.2c.8.2 1.2 1 1 1.8zM228.8 104.8c-.1 1-1 1.8-2.1 1.6h-.5a8.3 8.3 0 0 0-9 5.2l15.7 2.2 2.3-15.9-5.3-.7-1 7.6zM418.7 272a2.5 2.5 0 1 0 3.3 3.9 2.5 2.5 0 0 0-3.3-4zM114 53a2.5 2.5 0 1 0 2-4.7 2.5 2.5 0 0 0-2 4.7zm246.9 265l2.4-5.3-6.1.3zM291 266.8a36.2 36.2 0 0 0-11.3 8.6c-1 1.3-1.8 2.5-2.2 3.6-.4 1-.4 2 0 2.7.6 1.3 3 2 6.4 1.8 4-.3 8.8-1.8 13.5-4.2 4.7-2.5 8.7-5.5 11.2-8.6 1.2-1.4 3.4-4.5 2.3-6.3-1.6-2.5-9.6-3-20 2.4zm26-187l2.3-5.2-6 .2zm-67.4 8.8l.9-6.4a23 23 0 0 1-26.4-26c.1-1 1-1.6 2.1-1.5l8.7 1.3 2.1-15c1.2-8-4.4-15.5-12.4-16.6h-.1c-8-1.2-15.5 4.4-16.7 12.5l-5 34.5A17.9 17.9 0 0 0 218 91.6l23.1 3.3c4.1.6 7.9-2.2 8.5-6.3zm-29.7-49z"/><path fill="none" d="M414.9 140.6a1.6 1.6 0 0 0-2 1.1l-3 10.2a7.7 7.7 0 0 0 3.2.7l2.9-10c.2-.8-.3-1.7-1.1-2zm-27.9 4a9 9 0 0 1 4.1.3 9 9 0 0 1 3.7 2c.7.5 1.2 1 2.7 1.4 1.4.4 2 .3 3 .2h1.2l2.7-9.3c.2-.8-.2-1.7-1.1-2l-2.9-.8c-.8-.2-1.7.3-2 1.1a4.4 4.4 0 0 1-8.5-2.5c.3-.8-.2-1.7-1-2l-3-.8c-1.3 4.4-2.3 8.3-3 11.8l1 .4c1.4.4 2.2.3 3 .2zm333.9 7.5l-6 .2 3.7 5.1zm-7.6 161.7a2.5 2.5 0 1 0 0 5 2.5 2.5 0 0 0 0-5zM567.2 138a2.5 2.5 0 0 0-1.7-4.8 2.5 2.5 0 0 0 1.7 4.8zm-307 188.9a2.5 2.5 0 1 0-2.5 4.4 2.5 2.5 0 0 0 2.5-4.4zm471-319a2.5 2.5 0 1 0 2.6-4.5 2.5 2.5 0 0 0-2.6 4.5zM381 65.9a2.5 2.5 0 1 0 0-5.1 2.5 2.5 0 0 0 0 5zM370.5 2.5c1.4 0 2.6-1.1 2.6-2.5H368c0 1.4 1.1 2.5 2.5 2.5zm172.6 27.7l-4.9 3.5 5.9 2.2zM91.9 4.9L94.1 0h-5.8zM.9 253.3l2.3-5.3-3.2.2v3.9zM451.6 38.8c2-1.7 3.7-3.7 5.3-5.9a52.4 52.4 0 0 0-36.2-10.8l-2 1.6a36 36 0 0 0-11 18.9 36 36 0 0 0 43.9-3.8z"/><path fill="none" d="M458.7 46.7l6.3-6a53.3 53.3 0 0 0-6.2-6.2A40.1 40.1 0 0 1 430 50.7a38 38 0 0 1-22.8-5.5c-1.5 9.7 1 19.9 7.4 28a126.7 126.7 0 0 0 44-26.5z"/><path fill="none" d="M464.2 53.8c2-1.8 4.2-3.4 6.5-4.8a52.2 52.2 0 0 0-4.2-6.3c-2 2-4 4-6.2 5.9a130.1 130.1 0 0 1-44 26.7 36.3 36.3 0 0 0 35 10.7 38.8 38.8 0 0 1 13-32.2zm-3.8 129.4l2.4-5.3-6.1.2zm5.3-145.4l1 1.2 6.9-7.8a36.8 36.8 0 0 0-8.7-9.4 39 39 0 0 1-4.7 10.7 57 57 0 0 1 5.5 5.3z"/><path fill="none" d="M465.9 55.6a36.7 36.7 0 0 0-12.2 29.7 36 36 0 0 0 22.7-20.5c-.9-4.7-2.4-9.3-4.6-13.6a37.7 37.7 0 0 0-6 4.4zm12.1 4.8c1-4 1.5-8.3 1.1-12.5a37 37 0 0 0-5 2.1 55 55 0 0 1 3.8 10.4zm-5.1-12.5c1.9-1 3.9-1.8 6-2.5a36 36 0 0 0-4-12c-2 2.6-4.3 5-6.6 7.5 1.7 2.2 3.2 4.5 4.6 7zm-269.2-8.6l-5.7-.7a8.3 8.3 0 0 0-8.9 5.2l13.7 2 .9-6.5zm416.8 72.2a4.3 4.3 0 1 0-8.6 0 4.3 4.3 0 0 0 8.6 0zm-141.7 129c-1 5.6-1 11.9-.3 18.3l15.3-2.1-2.2-15.3a39 39 0 0 1-12.8-.9zM668.3 88.3c-.4 1.5-1.2 3.2-2 4.9h3.9v-3.6l-2-1.3zM479.5 237.2c3.7.9 7.7 1.1 11.6.8l-2.2-15c-3.6 1.3-6.6 5.2-8.6 11.2l-.8 3zM477 233c1.1-3 2.4-5.6 3.9-7.7-4.2 2-8 4.6-11.3 8 2.1 1.2 4.3 2.2 6.6 3 .2-1.1.5-2.2.9-3.2zM665.9 86a8.6 8.6 0 0 0-17.1 0c0 1.1.6 4 4.7 10.5 1.4 2.3 2.9 4.3 3.8 5.6 3.1-4.3 8.6-12.5 8.6-16.1zm-15.6 0a7 7 0 1 1 8.4 7v2.8h-2.8v-2.9a7 7 0 0 1-5.6-7z"/><path fill="none" d="M661.6 86a4.3 4.3 0 1 0-8.6 0 4.3 4.3 0 0 0 8.6 0zm-22.5 10.8l3.5 2.7 1.9-3.7-2.5-7.3-2.2-.8-.8 2.4 1.4 2.9zM475.5 239.6c-2.9-1-5.6-2.1-8.1-3.7l-.5.6c-5.4 7.2-7.9 16-7 25l15.2-2.2c-.8-7-.7-13.7.4-19.7zm149.2-128.1a8.6 8.6 0 0 0-17 0c0 1.2.6 4 4.7 10.6l3.8 5.6c3.1-4.3 8.5-12.5 8.5-16.2zm-15.6 0a7 7 0 1 1 8.3 7v3h-2.8v-3a7 7 0 0 1-5.5-7zM512 288.3c-.4 1-1 1.8-1.5 2.6 4.3-2 8-4.7 11.2-8a35 35 0 0 0-6.5-3c-.8 3.2-1.8 6-3.1 8.4zm-11.7-10.1l2.2 15c4.2-1.5 7.6-6.8 9.4-14.2-3.8-.9-7.7-1.1-11.6-.8z"/><path fill="none" d="M657.2 139.9v-5.2l4.5-1.5 1.2-10-2-4.3-3.4 1.2h-2l-4.2 14h-4.8l-3.4 3.5-3.4-3.5h-5v-16.8h9.3l3-3.1-4.2-7 6.9-6.8h3c-3-4.4-6.7-10.7-6.7-14.4a11.3 11.3 0 0 1 21.8-4.3h6.3a41.4 41.4 0 0 0-46-18.5c.5 1.3.8 2.8.8 4.3 0 3.3-3 8.7-5.7 13h1.8l8.5 3.3-3.7 11.3-3.7-2-10 4.4-8.5-5v-7.1l3.8-3.7h1.4c-1.3-2-2.8-4.4-4-6.8a41 41 0 0 0-.7 55.5l3.9-3.8c-3-4.5-7.1-11.2-7.1-15a11.3 11.3 0 0 1 22.6 0c0 4.1-4.8 11.7-7.9 16l5 1.3v6.2l-6.7 3.4a40.9 40.9 0 0 0 39.4 1.4zM636 90.3l2-6 6.2 2 3.3 9.7-3.9 7.7-7.8-5.9 1.6-4.6-1.4-2.9zM516.3 257l.5 6.1c0 1-.7 1.8-1.7 1.8s-1.7-.7-1.8-1.6c0-2-.2-4-.4-6l-15.3 2.3 2.2 15.2c4.3-.4 8.6 0 12.8.9l.7-5.8c0-.9.8-1.6 1.8-1.5 1 0 1.6.8 1.6 1.8-.2 2.2-.4 4.4-.8 6.4 2.8 1 5.5 2.2 8.1 3.7 5.5-7 8.4-16 7.5-25.6l-15.2 2.2z"/><path fill="none" d="M616.5 86.8l-1.7-2.3h-2.3l-2.1 2V91l5.8 3.5 10-4.3 2 1 1.9-5.7-5.7-2.2h-3l-2.7 3.6-1.1 1.5-1.1-1.5zM486 282.7c.5 1 1.1 1.8 1.7 2.7 3.6 5.1 7.6 8 11.4 8.3l-2.2-15a36 36 0 0 0-10.9 4zM617.6 83.6c3.1-4.3 8.5-12.5 8.5-16.1a8.6 8.6 0 0 0-17 0c0 1.1.6 4 4.7 10.6l3.8 5.5zm-7-16.1a7 7 0 1 1 8.3 7v3h-2.8v-3a7 7 0 0 1-5.6-7zm-135 195.2l-15.3 2.2a36 36 0 0 0 14.4 22.4 38 38 0 0 1 6.8-5.8 67.7 67.7 0 0 1-6-18.8zm9.3 24.6l-1.8-2.8a35 35 0 0 0-5.4 4.7 36.2 36.2 0 0 0 13 4.5c-2-1.6-4-3.7-5.8-6.4zm137-156.3l-4-1-.6.9-1.1 1.4-1.1-1.4-1.5-2-3.6 3.5c1.7 1.6 3.4 3 5.2 4.4l6.7-3.4v-2.3z"/><path fill="none" d="M621.9 67.5a4.3 4.3 0 1 0-8.6 0 4.3 4.3 0 0 0 8.6 0zM498 316l-32.1-8.3c-2.2-.5-4.4.4-5.6 2.1l41.5 10.7c-.2-2.1-1.7-4-3.8-4.6zm-19-53.8c1 6.4 3 12.4 5.4 17.5 3.7-2.1 7.8-3.6 12-4.4l-2.2-15.3-15.2 2.2zm27.5-33.2l1.8 2.7c2-1.4 3.8-3 5.4-4.7a36.1 36.1 0 0 0-13-4.5c2 1.6 4 3.8 5.8 6.4zm5.9 25c-1-6.4-3-12.4-5.4-17.5a39.4 39.4 0 0 1-12 4.4l2.1 15.3 15.3-2.2zm122.1 31l-1.8 12.2 11.6-4.5a16.7 16.7 0 0 0-9.8-7.8z"/><path fill="none" d="M611.6 327c1.2 0 2.2 1 2.2 2.3v6.7h129.4V0h-1.9a10.5 10.5 0 1 1-17.8.4l.2-.4H482.3l-4.8 7.2a2.2 2.2 0 1 1-3.6-2.5L477 0h-96a10.5 10.5 0 0 1-21 0H99l-4.5 10a2.2 2.2 0 0 1-3.5.8l-.5-.5L83 0H0v243.8l6.1-.2a2.2 2.2 0 0 1 2.5 3l-5.2 11.8a2.2 2.2 0 0 1-3.4.8V336h251a10.5 10.5 0 1 1 15.8 0h141.5l-1.6-1a2.2 2.2 0 0 1 2.3-3.7l7.4 4.7h.8l1.2-9.2a2.2 2.2 0 0 1 2.8-1.8h.3l12.1 4.5a2.2 2.2 0 0 1-1.5 4.1l-9.7-3.6-.8 6h187.8v-6.7c0-1.2 1-2.2 2.2-2.2zm101.7-.2a10.5 10.5 0 1 1 0-21 10.5 10.5 0 0 1 0 21zm4.4-116.7a4.3 4.3 0 1 1 0-8.7 4.3 4.3 0 0 1 0 8.7zm2.9-158.4c1-.6 2.3-.1 2.9 1L733 72a2.2 2.2 0 0 1-4 2l-9.4-19.5a2.3 2.3 0 0 1 1-3zM711 148l12.8-.5a2.2 2.2 0 0 1 2.5 3l-5.2 12a2.2 2.2 0 0 1-3.5.6l-.5-.5-7.7-10.5c-.2-.4-.4-.8-.4-1.2l-.1-.6c0-1.2.9-2.2 2-2.3zm-20-36.3l8.6-4.5-7.7-5.9a2.2 2.2 0 0 1-.2-3.3l.2-.2 10-8.3a2.2 2.2 0 0 1 2.7 3.4l-8 6.6 8.2 6.2c.5.4.8.9.8 1.4.3 1-.1 2-1 2.5l-11.5 6a2.2 2.2 0 0 1-2-3.9zm-27.6-78c.6-1 2-1.4 3-.8l9.4 5.5 5.8-9.3c.6-1 2-1.3 3-.6 1 .6 1.3 2 .7 3l-6.9 11c-.3.4-.8.8-1.4.9a3 3 0 0 1-1.6-.2l-11.2-6.5c-1-.6-1.4-2-.8-3zm-44.7-24a4.3 4.3 0 1 1 7.5 4.3 4.3 4.3 0 0 1-7.5-4.3zm-47.8 63.5l5.3-21a2.2 2.2 0 1 1 4.2 1l-5.3 21a2.2 2.2 0 1 1-4.2-1zm-8.1 52.5a10.5 10.5 0 1 1 7.1 19.7 10.5 10.5 0 0 1-7.1-19.7zm-30.2-93.4l10.4-7.5a2 2 0 0 1 1.3-.7c1.2-.2 2.3.6 2.5 1.8l2.2 12.8a2.2 2.2 0 0 1-2.6 2.5l-.7-.1-12.1-4.5a2 2 0 0 1-1-.8l-.5-.5c-.7-1-.5-2.3.5-3zm-33.3 43.8c1.1-.4 2.3.1 2.8 1.3l3.7 10.2 10.4-3.4c1.1-.3 2.3.3 2.7 1.4.4 1.2-.3 2.4-1.4 2.8l-12.3 4c-.6.2-1.2 0-1.7-.2s-1-.6-1.1-1.2L498 78.9a2 2 0 0 1 1.3-2.7zm6.3 79.2a4.3 4.3 0 1 1-3-8.1 4.3 4.3 0 0 1 3 8.1zM404.3 48.6a38.5 38.5 0 0 1 15.2-28.7c9.6-7.3 22-9.8 33.7-6.6a1.2 1.2 0 0 1-.7 2.4 36.1 36.1 0 0 0-28 3.8A55.5 55.5 0 0 1 458.3 31c2-3.3 3.5-6.9 4.5-10.7-2-1.2-4-2.3-6.3-3.2a1.2 1.2 0 1 1 1-2.3 38.4 38.4 0 0 1 24.2 38 38.5 38.5 0 0 1-40.8 36.6 38.5 38.5 0 0 1-36.5-40.7zm63.9 127.8l-5.3 12a2.2 2.2 0 0 1-3.5.6l-.5-.5-7.6-10.5a2 2 0 0 1-.4-1.2l-.2-.6c0-1.2 1-2.2 2.1-2.3l12.9-.5a2.2 2.2 0 0 1 2.5 3zM381 53a10.5 10.5 0 1 1 0 21 10.5 10.5 0 0 1 0-21zm-25.5 73.3c.4 1.2-.2 2.4-1.3 2.8l-9.8 3.5 5.5 8.6c.3.5.4 1 .3 1.6 0 1-.8 1.8-1.8 2l-12.9 1.7a2.2 2.2 0 1 1-.6-4.3l9.7-1.3-5.3-8.2a2.2 2.2 0 0 1 .9-3.2l.3-.1 12.2-4.4c1.1-.4 2.4.2 2.8 1.3zM332 15c.5-1 1.8-1.5 3-1l11.5 5.8c.5.3 1 .7 1 1.3.3.5.3 1.1 0 1.7l-5.3 11.7a2.2 2.2 0 0 1-4-1.8l4.5-10-9.7-4.8c-1.1-.5-1.5-1.8-1-3zm-29.6 195.8a2.2 2.2 0 1 1 4.2 1.5 2.2 2.2 0 0 1-4.2-1.5zm1.3 21.6c1.3-.9 2.3-1.5 3.1-2.9 1.4-2.2 1.7-5.1 1-8.8a2 2 0 1 1 3.9-.8c.7 3.6.6 6.8-.4 9.4a11.8 11.8 0 0 1-5.5 6.4c-.9.6-1.7 1.1-2.5 2-2.6 2.6-3.6 7.1-3 13.3a2 2 0 0 1-4 .4c-.6-7.4.7-13 4.1-16.5 1.1-1.1 2.3-1.9 3.3-2.5zM290.9 209c0-.4 0-.2 0 0a2 2 0 0 1 3.9.8 16.2 16.2 0 0 0 2 11.7 2 2 0 0 1-.9 2.8c-.9.4-2 0-2.5-.8a20.5 20.5 0 0 1-2.5-14.5c0 .5-.3 1.3 0 0zm-1 24.3a2.2 2.2 0 1 1 4.2 1.5 2.2 2.2 0 0 1-4.1-1.5zm-7.1-1.8c-.8 2.4-1.4 4.5-1 7.2.6 4.5 3.9 8.9 9.6 13 .9.7 1 2 .4 2.9a2 2 0 0 1-2.7.3c-6.7-4.7-10.4-10-11.2-15.6-.5-3.6.3-6.3 1-9a21 21 0 0 0 1.2-7.9 22 22 0 0 0-6-13 2 2 0 1 1 3-2.6 26 26 0 0 1 7 15.4c.2 3.8-.6 6.7-1.3 9.3zm-32-24.2a2.2 2.2 0 1 1 4.2 1.5 2.2 2.2 0 0 1-4.2-1.5zm.8 33.7a2.2 2.2 0 0 1-4.2-1.5 2.2 2.2 0 0 1 4.2 1.5zm3.6-11.8a2 2 0 0 1 2.6-1.2 27.6 27.6 0 0 1 17.7 20.6l-.1 1a2 2 0 0 1-3.8-.2 24.2 24.2 0 0 0-15.2-17.7 2 2 0 0 1-1.2-2.6zm12.3-11.5a2.2 2.2 0 1 1-1.5 4.2 2.2 2.2 0 0 1 1.5-4.2zm-2.7-19.9a2.2 2.2 0 0 1 4.2 1.6 2.2 2.2 0 1 1-4.2-1.6zm17.3-21.5a2 2 0 0 1-2.2 2l-13-.4c-.5 0-1-.3-1.5-.7-.4-.4-.6-1-.6-1.5v-13a2.2 2.2 0 0 1 4.3 0v11l11 .3c1.1 0 2 1 2 2.3zm-5.4-62.4c1 .7 1.3 2 .6 3l-12.1 18a2.2 2.2 0 0 1-3.6-2.4l12.1-18c.7-1 2-1.3 3-.6zM263.3 16a4.3 4.3 0 1 1 0 8.7 4.3 4.3 0 0 1 0-8.7zM105.5 46.3a10.5 10.5 0 1 1 19 8.7 10.5 10.5 0 0 1-19-8.7zm-48.3 36c3.9-4 9.5-5.4 14.3-3.5 4 1.5 6.7 4.8 7.8 9.2 4-2.2 8.2-2.6 12-.8 4.1 2 6.8 6 7.4 10.6A9.1 9.1 0 0 1 111 103a13 13 0 0 1 12.6-2c4 1.4 6.7 4.8 7.8 9.2 2.6-1.5 5.3-2.2 8-2 3.4.4 6.5 2 8.6 4.8a2.1 2.1 0 0 1-3.3 2.6 8 8 0 0 0-5.7-3c-2.6-.3-5.3.7-7.8 3a2.1 2.1 0 0 1-3.5-1.6c-.2-4.5-2.2-7.8-5.6-9.1a9 9 0 0 0-9.7 2.5c-4.8 5-2.8 13.6-.2 20a75 75 0 0 0 6.6 12.4c2.4-.5 8-1.7 13.5-3.9 6.4-2.6 14-7 14.3-14 0-1.1 1-2 2.2-2 1.2 0 2 1 2 2.2-.6 17.1-31.4 21.9-32.7 22a2.1 2.1 0 0 1-2-.8c-.7-1-15.5-22.1-9.3-35.2v-.2c1.1-2.5 0-5.4-2.5-6.4a4.9 4.9 0 0 0-6.6 2.8c-5 13.6-30.5 17.6-31.7 17.7a2.1 2.1 0 0 1-2-.8c-.8-1.1-18.7-26.7-6.8-39zM87 233.5c-.6-1.9-1.4-2.6-2.2-3.5-1-1-2-2.1-3-4.7-.8-2.5-.6-4-.5-5.5a8 8 0 0 0-.3-4.1 1.5 1.5 0 0 1 2.8-1c.9 2.6.7 4.1.5 5.5-.1 1.2-.3 2.3.4 4.2.6 1.9 1.4 2.6 2.2 3.5 1 1 2 2.1 3 4.7s.6 4 .5 5.4c-.2 1.3-.3 2.3.3 4.2.3.8-.1 1.6-.9 2-.8.2-1.6-.2-1.9-1-.8-2.6-.7-4.1-.5-5.5.2-1.2.3-2.3-.4-4.2zm-10.7 3.7c-.6-2-1.4-2.7-2.2-3.6-1-1-2-2-3-4.6-.8-2.6-.6-4.1-.5-5.5.2-1.2.3-2.3-.3-4.2a1.5 1.5 0 0 1 2.8-1c.9 2.6.7 4.2.5 5.5a8 8 0 0 0 .4 4.2c.6 2 1.4 2.7 2.2 3.5 1 1 2.1 2.1 3 4.7.8 2.5.6 4.1.5 5.5-.2 1.2-.3 2.2.4 4.2.2.7-.2 1.6-1 1.8-.8.3-1.6-.1-1.9-.9-.8-2.5-.7-4-.5-5.5.2-1.2.3-2.2-.4-4.1zm.7-91.8l-5.1 8.3a2.2 2.2 0 0 1-3.3.5l-.2-.2-9.2-9.1a2.2 2.2 0 0 1 3-3.1l7.4 7.3 5.4-8.7c.3-.5.8-.8 1.3-1 1-.3 2 0 2.6.9l7 10.8a2.2 2.2 0 0 1-3.6 2.4l-5.3-8zm-11.4 95.4a8 8 0 0 0-2.2-3.5c-1-1-2-2.1-3-4.7-.8-2.5-.6-4.1-.5-5.5a8 8 0 0 0-.3-4.2 1.5 1.5 0 0 1 2.8-1c.9 2.6.7 4.2.5 5.6-.1 1.2-.3 2.2.4 4.1s1.4 2.7 2.2 3.6c1 1 2.1 2 3 4.6.8 2.6.6 4.1.5 5.5a8 8 0 0 0 .4 4.2c.2.8-.2 1.6-1 1.9-.8.3-1.6-.2-1.9-1-.8-2.5-.7-4-.5-5.4a8 8 0 0 0-.4-4.2zM10.1 22.5c.6-1 2-1.3 3-.7l8.2 5.2 1.2-9.7a2.2 2.2 0 0 1 2.8-1.8l.3.1 12.1 4.5a2.2 2.2 0 0 1-1.5 4l-9.7-3.5-1.3 10.1c0 .6-.4 1.1-.8 1.4-.7.7-1.8.9-2.7.3l-11-6.9c-1-.6-1.2-2-.6-3zm18.3 51.3a4.3 4.3 0 1 1-8.7 0 4.3 4.3 0 0 1 8.7 0zM23 320.5l-11.5 6a2.2 2.2 0 0 1-2-3.9l8.6-4.5-7.8-5.9a2.2 2.2 0 0 1-.2-3.3l.3-.2 10-8.3c.8-.7 2.2-.6 3 .3a2 2 0 0 1-.3 3l-8 6.7 8.2 6.2c.4.4.7.9.8 1.4.2 1-.2 2-1 2.5zM22.6 134l-13-.4c-.5 0-1-.3-1.5-.7-.4-.4-.6-1-.6-1.6v-12.9a2.2 2.2 0 0 1 4.3 0v11l11 .3c1.1 0 2 1 2 2.2a2 2 0 0 1-2.2 2.1zm1.9 62.5a10.5 10.5 0 1 1 21 0 10.5 10.5 0 0 1-21 0zm105 82c-.3 8-2.3 15.5-5.5 22-.2.3-.5.5-.9.6l-44.3 15.1c-.4.2-.8.1-1.2 0a49.8 49.8 0 0 1-10.7-7c-7.4 2.2-16.4 0-23-6-4.6-4-7.7-9.4-8.6-15-1-6 .4-11.5 4-15.6 1.5-1.7 3.3-3 5.3-4a71 71 0 0 1-.5-3.4c0-.7.3-1.4 1-1.6l72.6-24.7c.7-.2 1.4 0 1.8.7a71.3 71.3 0 0 1 10 38.8zm11-104.3l-6.8 11a3 3 0 0 1-1.4.9c-.6.1-1.2 0-1.7-.2l-11.2-6.5a2.2 2.2 0 0 1 2.2-3.8l9.4 5.5 5.8-9.3c.6-1 2-1.3 3-.6 1 .6 1.3 2 .7 3zm3.2 73.2c-1-.7-1.3-2-.6-3l12.1-18a2.2 2.2 0 0 1 3.6 2.5l-12.1 18c-.7 1-2 1.2-3 .5zm14.6-156.6a4.3 4.3 0 1 1 7.8 3.6 4.3 4.3 0 0 1-7.8-3.6zm16.1 237.4c0 1.2-1 2.1-2.3 2a2.2 2.2 0 0 1-2-2.3l.6-10.3-10.1 1.7c-.6.1-1.1 0-1.6-.3a2.2 2.2 0 0 1-1-2.5l3.4-12.5a2.2 2.2 0 1 1 4.2 1.1l-2.6 9.4 9.6-1.6a2.2 2.2 0 0 1 2.6 2v.4l-.8 12.9zm.8-315.7l-18.5 11.3a2.2 2.2 0 1 1-2.3-3.7L173 8.8a2.2 2.2 0 0 1 2.3 3.7zm17.3 191l-.4-.7-.1-.7-1-13 .3-1.2.3-.6c.6-1 1.9-1.4 3-.8l11 6.4c.5.1 1 .4 1.2.8.7 1 .4 2.4-.6 3l-10.7 7.4c-1 .7-2.4.4-3-.6zm17.6 83a4.3 4.3 0 1 1-7.5-4.3 4.3 4.3 0 0 1 7.5 4.4zm10.9-145a2.2 2.2 0 0 1-2.8 1.3l-9.8-3.6-1.3 10.1c0 .6-.3 1.1-.8 1.4-.7.7-1.8.9-2.6.3l-11-6.9a2.2 2.2 0 0 1 2.3-3.7l8.2 5.2 1.3-9.7a2.2 2.2 0 0 1 2.7-1.8l.3.1 12.2 4.5c1 .4 1.7 1.6 1.3 2.8zm13.3-23.7l-19.6-2.8a2 2 0 0 1-1.7-2.1c1-6.2 6.3-10.6 12.3-10.4l.9-5.9-8.7-1.2a21.6 21.6 0 0 1-18.3-24.5l3-21.4-15.7-2.3c-1-.1-1.8-1-1.6-2.1 1-6.6 7-11.2 13.6-10.3l5.7.8c1.8-9.7 11-16.4 20.8-15h.1a18.5 18.5 0 0 1 15.7 21l-2.2 14.9 29.2 4.2c1 .1 1.8 1 1.6 2.1a23 23 0 0 1-15 18.4l-1 8a11.3 11.3 0 0 1-12.8 9.5l-1.7-.3-2.5 17.8c-.2 1-1.1 1.8-2.1 1.6zm8.9 111.4a2.2 2.2 0 1 1-4.2-1.5 2.2 2.2 0 0 1 4.2 1.5zm18 36a2.2 2.2 0 1 1-4.2-1.5 2.2 2.2 0 0 1 4.2 1.5zm11.1.2c-1.6-3-3.8-5.5-6.5-7.6-2.3-1.9-5-4-8.8-4.5-2.4-.3-4 .3-5.7.9-2 .6-3.9 1.3-6.4.4-3.5-1.2-6-4.7-7.7-10.5a2 2 0 0 1 3.8-1.1c.9 3 2.5 7 5.2 7.8 1.1.4 2.1.2 3.8-.4 1.9-.6 4.2-1.4 7.5-1 4.9.6 8.3 3.3 10.8 5.3 3 2.4 5.6 5.4 7.5 8.8a2 2 0 0 1-.7 2.6h-.1a2 2 0 0 1-2.7-.7zm47.2 63l-33-32a2 2 0 1 1 2.8-2.8l31 30-8-51.1-.6.7a40.9 40.9 0 0 1-12.5 9.6 40.4 40.4 0 0 1-15 4.6c-5.2.4-8.8-1-10.3-3.9s-.5-6.6 2.7-10.6c2.9-3.5 7.3-7 12.5-9.6-1.6.8-1.1.6 0 0l.7-.4c6.3-3.3 2.5-1.3 0 0l-.7.4c11.6-6 22.7-6.4 25.3-.8.4 1 .6 1.7.7 2.8l9.5 60.4c.5 2.6-3.2 4.5-5.1 2.6zm-8.6-22.2c-.4-.4-1-.6-1.6-.6-.5 0-1 .2-1.5.6a2 2 0 1 1-2.8-2.7 6.1 6.1 0 0 1 8.7-.1 6.2 6.2 0 0 1 0 8.7 2 2 0 0 1-2.8-2.8 2 2 0 0 0 0-3zm.8-14.5a6.2 6.2 0 1 1-11.6-4.2 6.2 6.2 0 0 1 11.6 4.2zm11.5-111.2a4.3 4.3 0 1 1-5.6-6.7 4.3 4.3 0 0 1 5.6 6.7zM324.7 73l-5.2 12a2.2 2.2 0 0 1-3.5.7l-.5-.5-7.7-10.5a2 2 0 0 1-.4-1.3l-.1-.6c0-1.2.9-2.2 2-2.2l13-.5a2.2 2.2 0 0 1 2.4 3zm25.8 155.1l-10.2 8c-.5.3-1 .5-1.6.4-.6 0-1.1-.3-1.5-.8l-8.3-9.9a2.2 2.2 0 1 1 3.3-2.8l7 8.4 8.6-6.7a2 2 0 0 1 3 .4 2 2 0 0 1-.3 3zm18.2 83l-5.3 12a2.2 2.2 0 0 1-3.4.6l-.6-.5-7.6-10.5c-.3-.3-.4-.8-.4-1.2l-.1-.6c0-1.2.8-2.2 2-2.3l12.9-.4a2.2 2.2 0 0 1 2.5 3zm1.5-35.5a2 2 0 0 1-2.3-2l-2.3-21.5a2.2 2.2 0 1 1 4.3-.4l2.3 21.5c0 1.2-.8 2.3-2 2.4zm56.9 6.2a10.5 10.5 0 1 1-13.5-16 10.5 10.5 0 0 1 13.5 16zm5-136c-5.1 17-10.3 25.4-15.3 33.4-4.8 7.7-9.7 15.6-14.7 31.6a4.4 4.4 0 0 1-5.4 3l-20.4-6a4.4 4.4 0 0 1-3-5.4c4.5-16.1 4.6-25.5 4.7-34.6.1-9.4.2-19.2 5.1-36.4a3 3 0 0 1 3.6-2h.1v-.1a6 6 0 0 1 9.6-2.8 7.3 7.3 0 0 1 8 .8 10.4 10.4 0 0 1 12 3.5c1-.1 2 0 2.8.2a8 8 0 0 1 4.4 3.4 6 6 0 0 1 6.5 7.5v.1a3 3 0 0 1 2 3.7zm14-27.4c-.4.9-1.4 1.4-2.4 1.2l-12.6-2.8a2.2 2.2 0 0 1 .9-4.2l9.4 2-2.1-9.5a2.2 2.2 0 0 1 2-2.6h13.3a2.2 2.2 0 0 1 0 4.3H444l2.3 10c.1.6 0 1.1-.3 1.6zm61.1 205.1c-.2 1-1.2 1.5-2 1.2L455.3 312a1.7 1.7 0 1 1 .9-3.3l.7.1a8.6 8.6 0 0 1 9.8-4.5l14.4 3.7.9-3.5a48.5 48.5 0 0 1 6.8-94.5c1-.1 1.8.5 2 1.5l.3 2.2c.1 1-.5 1.8-1.5 2-1 0-1.8-.6-2-1.5v-.5a45 45 0 0 0-4.7 87.5v-.5a1.7 1.7 0 0 1 3.4.8l-.1.5a45 45 0 0 0 14.2.8v-.5a1.7 1.7 0 1 1 3.3-.5l.3 2.3c0 .4 0 .9-.3 1.2-.3.4-.7.6-1.1.7-6 .8-11.8.6-17.3-.6l-.9 3.4 14.4 3.7c4 1 6.7 4.8 6.5 8.7l.7.2c.9.3 1.4 1.2 1.2 2.1zm18.6-40.1l-.3.3a39.2 39.2 0 0 1-39.6 12.4 39.3 39.3 0 1 1 40-12.7zm29.7 25.3l-13-.4c-.6 0-1.1-.3-1.5-.7-.4-.4-.7-1-.7-1.6v-13a2.2 2.2 0 0 1 4.4 0v11l10.9.4c1.2 0 2.1 1 2.1 2.2a2 2 0 0 1-2.2 2.1zM565.6 198l-1.3 10.2c0 .5-.3 1-.8 1.4-.7.7-1.8.8-2.6.3l-11-7a2.2 2.2 0 0 1 2.3-3.6l8.2 5.1 1.3-9.6a2.2 2.2 0 0 1 2.7-1.9l.3.1 12.2 4.5c1 .4 1.7 1.7 1.2 2.8a2.2 2.2 0 0 1-2.7 1.3l-9.8-3.6zm26.2 57.1l-12.2 18a2.2 2.2 0 1 1-3.6-2.4l12.2-18a2.2 2.2 0 0 1 3.6 2.4zm3.1-152c0-11.6 4.5-22.5 12.6-30.8-.7-1.7-1.2-3.4-1.2-4.7a11.3 11.3 0 0 1 20.4-6.8 43.9 43.9 0 0 1 43.3 73.4 43.6 43.6 0 0 1-62.2 0 43.8 43.8 0 0 1-12.9-31zm71.8 147.7c.4 1.2-.2 2.6-1.4 3l-.8.3a2.3 2.3 0 1 1-1.7-4.3l.8-.3c1.2-.5 2.6 0 3 1.3zM642 189.2c-.6 1-2 1.4-3 .8l-11-6.8a2.2 2.2 0 0 1-.3-3.6l.6-.4 11.4-6.2a3 3 0 0 1 1.3-.3h.6c1.2.1 2 1.2 2 2.4l-1.3 12.8c0 .4 0 1-.3 1.3zM622.1 281c2.7-1 5.6-1.5 8.5-1.4l2.3-15.9-8.2-7.4-5.8 2.3a2.3 2.3 0 1 1-1.7-4.4l7.2-2.8 7.2-2.8a2.3 2.3 0 0 1 1.7 4.4l-3.6 1.4 6.2 5.7 20-7.8c1.2-.4 2.6.2 3 1.4.5 1.2 0 2.6-1.3 3l-17.8 6.9 22.4 20.1 10.2-32.7-.5.2a2.3 2.3 0 1 1-1.7-4.4l2.2-.8-5.6-7.8a2.3 2.3 0 0 1 1-3.6l11.5-4.4c5.2-2 11.1.6 13.2 5.8a2.3 2.3 0 0 1-4.4 1.7 5.5 5.5 0 0 0-7.1-3.1l-8.6 3.3 13.5 18.7c.9-.5 1.8-1 2.8-1.3a21.3 21.3 0 1 1-6.6 4l-5.2-7L666 287l4.9 4.4 1.9-.8a2.4 2.4 0 0 1 1.6 4.4l-3.2 1.2-3.2 1.3a2.3 2.3 0 0 1-2-4.2l-3.2-2.8-12.4 4.8a21.4 21.4 0 1 1-28.3-14.4z"/><path fill="none" d="M635.8 316.3c7.8-3 12-11.3 10.2-19.2l-15.4 6a2.4 2.4 0 0 1-3.1-2.6l2.4-16.3a16.6 16.6 0 1 0 5.9 32.1zm-120-62.8l15.2-2.1c-1.7-9.3-7-17.2-14.3-22.5a38 38 0 0 1-6.8 5.8c2.7 5.5 4.7 12 5.9 18.8zm165.1 27.6a16.6 16.6 0 1 0 7.8-20.7l9.6 13.3a2.3 2.3 0 1 1-3.8 2.8l-9.7-13.3a16.6 16.6 0 0 0-4 18zm-175.5-47.6l-1.7-2.6c-3.6-5.2-7.6-8.1-11.4-8.4l2.2 15a36 36 0 0 0 10.9-4zM648.7 291l10.2-4-21.8-19.5-1.9 12.8a21.4 21.4 0 0 1 13.5 10.7zm-10.4-106.6l.6-6-5.5 3zm30.3-99.2l4.3 2.9V96h-8.2c-2.6 4.4-5.7 8.5-6.3 9.3l-1 1.4-1.2-1.4-1.5-2.1h-4l-4.4 4.4 4.3 7-5.5 5.5h-7.7v11.3h3.5l2.2 2.2 2.3-2.2h3.8l4.3-14.1h3.6l5.2-1.8 3.5 7.2-1.6 12.6-4.2 1.4v1.7a41.4 41.4 0 0 0 15.7-54h-7.2l.1.8z"/><path fill="#E9576D" d="M369.9 251.8a2.2 2.2 0 0 0-4.3.4l2.3 21.6a2.2 2.2 0 1 0 4.3-.5l-2.3-21.5zm-19-26.6c-.8-1-2.1-1.2-3-.4l-8.7 6.7-7-8.4a2.2 2.2 0 0 0-3.3 2.8l8.3 10c.4.4 1 .7 1.5.7s1.1 0 1.6-.4l10.2-8c1-.7 1.1-2 .4-3zm-10.7-95.8l-.3.2c-1 .6-1.3 2-.6 3l5.2 8.2-9.6 1.3a2.2 2.2 0 0 0 .6 4.3l12.9-1.8c1 0 1.7-1 1.8-1.9.1-.5 0-1-.3-1.6l-5.5-8.6 9.8-3.5a2.2 2.2 0 0 0-1.5-4l-12.2 4.3a2 2 0 0 0-.3.1zm-22.6 44.4a4.3 4.3 0 1 0 5.6 6.7 4.3 4.3 0 0 0-5.6-6.7zm96 92.2a10.5 10.5 0 1 0 13.5 16 10.5 10.5 0 0 0-13.5-16zm8.4 9.9a2.5 2.5 0 1 1-3.3-4 2.5 2.5 0 0 1 3.3 4zm287.4-123.7l7.7 10.5.5.5.6.4c1.1.5 2.4 0 2.9-1l5.2-12a2.2 2.2 0 0 0-2.5-3l-12.8.5a2.2 2.2 0 0 0-2 2.9c0 .4.2.8.4 1.2zm11.5-.1l-2.3 5.3-3.7-5 6-.3zM572.5 76c1.2.3 2.4-.4 2.6-1.6l5.3-21a2.2 2.2 0 1 0-4.2-1l-5.3 21c-.2 1.1.5 2.3 1.6 2.6zm-70.1 15c.2.7.6 1.1 1.1 1.3a2 2 0 0 0 1.7.2l12.3-4a2.2 2.2 0 0 0-1.3-4.2l-10.4 3.4-3.7-10.2a2.2 2.2 0 0 0-4.1 1.4l4.4 12.2zm-58.3 15.9h10.4a2.2 2.2 0 0 0 0-4.3h-13a3 3 0 0 0-.6 0 2.2 2.2 0 0 0-1.6 2.6l2.1 9.5-9.4-2a2.2 2.2 0 1 0-1 4.2l12.7 2.8c1 .2 2-.3 2.4-1.2.3-.5.4-1 .3-1.6l-2.3-10zm58.5 40.4a4.3 4.3 0 1 0 3 8.1 4.3 4.3 0 0 0-3-8.1zm67.4-1.9a10.5 10.5 0 1 0-7.2-19.7 10.5 10.5 0 0 0 7.2 19.7zm-4.5-12.2a2.5 2.5 0 1 1 1.7 4.8 2.5 2.5 0 0 1-1.7-4.8zM591.2 252c-1-.7-2.4-.4-3 .6l-12.2 18a2.2 2.2 0 1 0 3.6 2.4l12.2-18c.6-1 .4-2.3-.6-3zm-35.6 52.5l-10.9-.4v-11a2.2 2.2 0 0 0-4.4 0v13c0 .6.3 1.2.7 1.6.4.4 1 .7 1.5.7l13 .4a2.2 2.2 0 0 0 .1-4.3zm22.5-104.3c.5-1.1-.1-2.4-1.2-2.8l-12.2-4.5h-.3l-.3-.1a2 2 0 0 0-2.4 1.9l-1.3 9.6-8.2-5.1a2.2 2.2 0 0 0-2.3 3.6l11 7c.8.5 2 .4 2.6-.3.5-.4.8-.9.8-1.4l1.3-10.2 9.8 3.6c1 .4 2.3-.2 2.7-1.3zm143.9 5.6a4.3 4.3 0 1 0-8.6 0 4.3 4.3 0 0 0 8.6 0zm-8.7 100.1a10.5 10.5 0 1 0 0 21 10.5 10.5 0 0 0 0-21zm0 13a2.5 2.5 0 0 1 0-5.1 2.5 2.5 0 0 1 0 5zM139.8 171.2c-1-.7-2.4-.4-3 .6l-5.8 9.3-9.4-5.5a2.2 2.2 0 0 0-2.2 3.8l11.2 6.5c.5.3 1.1.3 1.7.2.5-.1 1-.5 1.4-1l6.8-11c.6-1 .3-2.3-.7-3zM23.2 316.6l-8.2-6.2 8-6.6a2.2 2.2 0 0 0-2.8-3.4l-10 8.3-.2.2-.2.3c-.7 1-.5 2.3.4 3l7.8 6-8.6 4.4a2.2 2.2 0 0 0 2 3.9l11.5-6A2 2 0 0 0 24 318c0-.5-.4-1-.8-1.4zm185.4-36a4.3 4.3 0 1 0-4.4 7.5 4.3 4.3 0 0 0 4.4-7.5zm55.6 39.4a10.5 10.5 0 0 0-13.1 16h15.7a10.5 10.5 0 0 0-2.6-16zm-3 10.4a2.5 2.5 0 0 1-4.5-2.6 2.5 2.5 0 0 1 4.4 2.6zM729 74a2.2 2.2 0 0 0 4-1.9l-9.5-19.4a2.2 2.2 0 0 0-4 1.9l9.6 19.4zm-64.8-37.2l11.2 6.5c.5.3 1 .3 1.6.2a2 2 0 0 0 1.4-1l6.9-11a2.2 2.2 0 0 0-3.7-2.3l-5.8 9.3-9.4-5.5a2.2 2.2 0 0 0-2.2 3.8zm28.8 78.9l11.5-6a2 2 0 0 0 1.1-2.5c0-.5-.3-1-.8-1.4l-8.1-6.2 8-6.6a2.2 2.2 0 0 0-2.8-3.4l-10 8.3-.2.2-.2.3a2 2 0 0 0 .4 3l7.7 6-8.5 4.4a2.2 2.2 0 0 0 2 3.9zm-72.7-100a4.3 4.3 0 1 0 4.3-7.5 4.3 4.3 0 0 0-4.4 7.5zm107-1a10.5 10.5 0 0 0 14-14.7h-17.6l-.3.4c-2.8 5-1.1 11.4 3.9 14.3zm3-10.3a2.5 2.5 0 1 1 4.4 2.5 2.5 2.5 0 0 1-4.4-2.5zM262.2 135.6c1 .6 2.3.4 3-.6l12.1-18a2.2 2.2 0 1 0-3.6-2.4l-12 18c-.8 1-.5 2.3.5 3zm6.9 27.3a2.2 2.2 0 0 0-4.3 0v12.9c0 .6.2 1.1.6 1.5.4.4 1 .7 1.6.7l12.9.5a2.2 2.2 0 0 0 .1-4.4l-10.9-.3v-11zm-49.4-24.2l-12.2-4.5-.3-.1h-.3a2 2 0 0 0-2.4 1.8l-1.3 9.7-8.2-5.2a2.2 2.2 0 0 0-2.3 3.7l11 7c.8.5 2 .3 2.6-.4.5-.3.8-.8.8-1.4l1.3-10.1 9.8 3.6a2.2 2.2 0 0 0 1.5-4.1zm43.6-113.9a4.3 4.3 0 1 0 0-8.7 4.3 4.3 0 0 0 0 8.7zm117.7 49a10.5 10.5 0 1 0 0-21 10.5 10.5 0 0 0 0 21zm0-13a2.5 2.5 0 0 1 0 5 2.5 2.5 0 0 1 0-5zm281.8 188.9a2.3 2.3 0 1 0 1.7 4.3l.8-.3a2.3 2.3 0 1 0-1.7-4.3l-.8.3z"/><path fill="#E9576D" d="M637.5 320.7c10.2-4 15.7-15 13-25.3l12.3-4.8 3.2 2.8a2.3 2.3 0 0 0 2 4.2l3.2-1.3 3.2-1.2a2.4 2.4 0 0 0-1.6-4.4l-2 .8-4.8-4.4 11-34.9 5 7.1a21.3 21.3 0 1 0 3.9-2.7l-13.5-18.7 8.6-3.3c2.8-1.1 6 .3 7 3a2.3 2.3 0 1 0 4.5-1.6c-2-5.2-8-7.8-13.2-5.8l-11.4 4.4a2.3 2.3 0 0 0-1.1 3.6l5.6 7.8-2.2.8a2.3 2.3 0 1 0 1.7 4.4l.5-.2-10.2 32.7-22.4-20.1 17.8-6.9a2.3 2.3 0 1 0-1.7-4.4l-20 7.8-6.2-5.7 3.6-1.4a2.3 2.3 0 1 0-1.7-4.4l-7.2 2.8-7.2 2.8a2.4 2.4 0 0 0 1.7 4.4l5.8-2.3 8.2 7.4-2.3 15.9a21.4 21.4 0 0 0-20.7 29 21.3 21.3 0 0 0 27.6 12.1zm57-44.2a2.4 2.4 0 0 0 3.8-2.8l-9.6-13.3 1.7-.8a16.6 16.6 0 1 1-5.6 3.6l9.7 13.3zm-57.4-9L659 287l-10.2 4a21.4 21.4 0 0 0-13.5-10.9l2-12.7zm-2.6 17.4c4.2 1.3 7.7 4 9.8 7.8l-11.6 4.5 1.8-12.3zm-10.7.5c2-.8 4-1.2 6-1.2l-2.3 16.3a2.3 2.3 0 0 0 3.1 2.5l15.4-5.9a16.7 16.7 0 0 1-31.7 9.8c-3.3-8.6 1-18.2 9.5-21.5zM670 134.1a43.8 43.8 0 0 0 0-62.2 43.6 43.6 0 0 0-43.3-11.2 11.3 11.3 0 0 0-20.4 6.8c0 1.3.5 3 1.2 4.7a43.7 43.7 0 0 0 .3 62 43.6 43.6 0 0 0 62.2 0zm10-31a41 41 0 0 1-20 35.3v-1.7l4.2-1.4 1.6-12.6-3.5-7.2-5.2 1.8h-3.6l-4.3 14h-3.8l-2.3 2.3-2.2-2.2h-3.5V120h7.7l5.5-5.5-4.3-7 4.5-4.4h3.9a99 99 0 0 0 1.5 2l1.1 1.5 1.1-1.4c.6-.8 3.7-4.9 6.3-9.3h8.2v-8l-4.3-2.8v-.7h7a41 41 0 0 1 4.5 18.5zm-26.5-6.6c-4.1-6.5-4.7-9.4-4.7-10.5a8.6 8.6 0 0 1 17 0c0 3.6-5.4 11.8-8.5 16.1-1-1.3-2.4-3.3-3.8-5.6zm12.8-3.3c.8-1.7 1.6-3.4 2-4.9l1.9 1.3v3.6h-4zm-48.7-34.3c4.7 0 8.5 3.9 8.5 8.6 0 3.6-5.4 11.8-8.5 16.1l-3.8-5.5c-4.1-6.6-4.7-9.5-4.7-10.6 0-4.7 3.8-8.6 8.5-8.6zm3.7 24.3h3.1l5.7 2.2-2 5.7-2-1-9.9 4.3-5.8-3.5v-4.3l2-2.1h2.4l1.7 2.3 1.1 1.5 1.1-1.5 2.6-3.6zM610 132.4l3.6-3.5 1.5 2 1 1.4 1.2-1.4c0-.2.3-.5.6-.8l4 1v2.3l-6.7 3.4a41.5 41.5 0 0 1-5.2-4.4zm2.4-10.3c-4.1-6.6-4.8-9.4-4.8-10.6a8.6 8.6 0 0 1 17.1 0c0 3.7-5.4 11.9-8.5 16.2l-3.8-5.6zm5.5 16.4l6.7-3.4V129l-5-1.2c3-4.4 7.9-12 7.9-16.2a11.3 11.3 0 0 0-22.6 0c0 4 4 10.6 7 15l-3.8 4a41 41 0 0 1 .7-55.6c1.2 2.4 2.7 4.8 4 6.8h-1.4l-3.8 3.7v7l8.4 5 10-4.2 3.8 1.9 3.7-11.3-8.5-3.4h-1.8c2.7-4.2 5.7-9.6 5.7-12.9 0-1.5-.3-3-.8-4.3a41.2 41.2 0 0 1 46 18.5h-6.3A11.3 11.3 0 0 0 646 86c0 3.7 3.8 10 6.7 14.4h-3l-6.9 6.8 4.3 7-3.1 3h-9.4v17h5.1l3.4 3.4 3.4-3.5h4.8l4.2-14h2l3.4-1.2 2 4.2-1.2 10.1-4.5 1.5v5.2h.1a41 41 0 0 1-39.4-1.4z"/><path fill="#E9576D" d="M658.7 95.8v-2.9a7 7 0 1 0-2.8 0v2.9h2.8zM653 86a4.3 4.3 0 1 1 8.6 0 4.3 4.3 0 0 1-8.6 0zm-9.4 17.7l3.9-7.7-3.3-9.7-6.2-2-2 6 1.4 2.9-1.6 4.6 7.8 6zm-3.8-16l2.2.8 2.5 7.3-1.9 3.7-3.5-2.7 1.3-3.8-1.4-3 .8-2.4zm-22.4 33.8v-3a7 7 0 0 0-1.2-14 7 7 0 0 0-1.6 14v3h2.8zm-5.5-10a4.3 4.3 0 1 1 8.6 0 4.3 4.3 0 0 1-8.6 0zm4.2-34.1h2.8v-3a7 7 0 0 0-1.3-14 7 7 0 0 0-1.5 14v3zm-2.8-9.9a4.3 4.3 0 1 1 8.6 0 4.3 4.3 0 0 1-8.6 0zM240.6 98.7c6.1.9 11.8-3.4 12.7-9.6l1.1-7.9a23 23 0 0 0 15-18.4c.2-1-.5-2-1.6-2.1l-29.2-4.2 2.2-15a18.5 18.5 0 0 0-36.6-6c-1.8-.1-4.4-.5-5.7-.7a12 12 0 0 0-13.6 10.3c-.2 1 .6 2 1.6 2.1l15.7 2.3-3 21.4a21.6 21.6 0 0 0 18.3 24.5l8.7 1.2-.9 5.9a12 12 0 0 0-12.2 10.4c-.2 1 .5 2 1.6 2.1l19.6 2.8c1 .2 2-.5 2.1-1.6l2.5-17.8 1.7.3zM265.4 64a19.2 19.2 0 0 1-37.8-5.4l37.8 5.4zM189 43.8c1.4-3.5 5-5.8 9-5.2l5.6.7-1 6.4-13.6-2zm43.8 70l-15.6-2.2c1.3-3.5 5-5.8 8.9-5.2h.5c1 .2 2-.5 2.1-1.6l1.1-7.7 5.3.8-2.3 16zM218 91.6a17.9 17.9 0 0 1-15.1-20.2l5-34.5c1-8 8.5-13.7 16.6-12.5A14.6 14.6 0 0 1 237 41.1L235 56l-8.8-1.3c-1-.1-2 .6-2.1 1.6a23 23 0 0 0 26.4 26l-1 6.3c-.5 4-4.3 7-8.4 6.3L218 91.6z"/><path fill="#E9576D" d="M255.4 69l2.2.3a1.9 1.9 0 0 0 .5-3.7l-2.2-.3a1.9 1.9 0 0 0-.5 3.7zM233 65.8l15.8 2.3a1.9 1.9 0 0 0 .5-3.8l-15.8-2.2a1.9 1.9 0 0 0-.6 3.7zm-15.2-29.2a2.6 2.6 0 1 0-.7 5 2.6 2.6 0 0 0 .7-5z"/><path fill="none" d="M275 266.1zm0 .1z"/><path fill="#E9576D" d="M311 312.1c.8.8 2 .8 2.8 0a6.2 6.2 0 0 0-8.8-8.6 2 2 0 0 0 2.8 2.7 2.2 2.2 0 0 1 3.1 0c.9.9.9 2.3 0 3.1a2 2 0 0 0 0 2.8zm-3-28.3a6.2 6.2 0 1 0-4.2 11.6 6.2 6.2 0 0 0 4.2-11.6zm0 6.5a2.2 2.2 0 1 1-4.2-1.5 2.2 2.2 0 0 1 4.1 1.5zm-48.1-27.9c-1.2-.5-2.4.1-2.9 1.3a2.2 2.2 0 1 0 2.9-1.3zm44-48.7a2.2 2.2 0 1 0 1.5-4.2 2.2 2.2 0 0 0-1.5 4.2zm-53.6 24.6a2.2 2.2 0 1 0-1.6 4.2 2.2 2.2 0 0 0 1.6-4.2zM255 209a2.2 2.2 0 1 0-4.2-1.6 2.2 2.2 0 0 0 4.2 1.5zm11.1-8.2a2.2 2.2 0 1 0 1.5-4.2 2.2 2.2 0 0 0-1.5 4.2zM239 227.7a2.2 2.2 0 1 0 4.2 1.5 2.2 2.2 0 0 0-4.2-1.5zm27-5.7a2.2 2.2 0 1 0 1.5-4.2 2.2 2.2 0 0 0-1.5 4.2zm25.3 14.2c1.1.4 2.4-.2 2.8-1.3.5-1.2-.1-2.4-1.3-2.9s-2.4.2-2.8 1.4a2 2 0 0 0 1.3 2.8zm-.7-20.8c.3 2.8 1.3 5.7 2.8 8.2a2 2 0 0 0 2.5.8 2 2 0 0 0 1-2.8 16.4 16.4 0 0 1-2.1-11.7 2 2 0 0 0-3.9-.8c0-.2 0-.4 0 0-.3 1.3-.1.5 0 0a22 22 0 0 0-.3 6.3zm5.9 36a2 2 0 1 0 4-.4c-.7-6.2.3-10.7 2.9-13.3.8-.9 1.6-1.4 2.5-2 1.5-1 3-2 4.4-4 .5-.8.8-1.6 1.1-2.4 1-2.6 1.1-5.8.4-9.4a2 2 0 0 0-4 .8c.8 3.7.5 6.6-.9 8.8-.8 1.4-1.8 2-3.1 2.9-1 .6-2.2 1.4-3.3 2.5-3.4 3.5-4.7 9-4 16.5zm-22.1-44.7c-.9.7-1 2-.2 2.8 3.6 4.2 5.6 8.6 5.9 13a21 21 0 0 1-1.2 8c-.7 2.6-1.5 5.3-1 8.9.8 5.6 4.5 10.9 11.2 15.6.8.6 2 .5 2.7-.3a2 2 0 0 0-.4-2.9c-5.7-4.1-9-8.5-9.6-13-.4-2.7.2-4.8 1-7.2.7-2.6 1.5-5.5 1.3-9.3a26.3 26.3 0 0 0-7-15.4 2 2 0 0 0-2.7-.2zm-18 25.1a23.7 23.7 0 0 1 15.2 17.7 2 2 0 0 0 3.9-.8 28.2 28.2 0 0 0-17.7-20.6 2 2 0 0 0-1.4 3.7zm18.6 34.4zm0-.1c.1 0 .1 0 0 0zm0 .1a2 2 0 0 0 .8-2.7c-2-3.4-4.5-6.4-7.5-8.8-2.5-2-6-4.7-10.8-5.3-3.3-.4-5.6.4-7.5 1-1.7.6-2.6.8-3.8.4-2.7-.9-4.3-4.7-5.2-7.8a2 2 0 0 0-3.8 1c1.6 5.9 4.2 9.4 7.7 10.6 2.5.9 4.5.2 6.4-.4a11 11 0 0 1 5.7-.9 18 18 0 0 1 8.9 4.5 26 26 0 0 1 6.4 7.6 2 2 0 0 0 2.7.8zm14.8-3.2c2.5-1.4 6.3-3.4 0 0zm-.7.3c-1.1.6-1.6.8 0 0z"/><path fill="#E9576D" d="M315 265.3a8 8 0 0 0-.6-2.8c-2.6-5.6-13.7-5.2-25.3.8a40.3 40.3 0 0 0-12.5 9.6c-3.2 4-4.2 7.7-2.7 10.6 1.5 3 5.1 4.3 10.2 4 4.6-.4 10-2 15.1-4.7a40.3 40.3 0 0 0 13-10.3l8.1 51.1-31-30a2 2 0 1 0-2.7 2.9l32.9 31.8c1.9 2 5.6 0 5.1-2.6l-9.5-60.4zm-6.4 5.4a36.2 36.2 0 0 1-11.2 8.6 37.2 37.2 0 0 1-13.5 4.2c-3.4.2-5.8-.5-6.5-1.8-.3-.7-.3-1.6.1-2.7.4-1 1.1-2.3 2.2-3.6 2.5-3.1 6.5-6.2 11.2-8.6 10.4-5.4 18.4-5 20-2.4 1.1 1.8-1.1 4.9-2.3 6.3zm-19.5-7.4zM64.9 121.9c.3.1.7.2 1.1.1 1.2-.1 26.7-4.1 31.9-17.6v-.2a5 5 0 0 1 6.5-2.6 4.9 4.9 0 0 1 2.5 6.6c-6.2 13 8.6 34.2 9.3 35.2a2.1 2.1 0 0 0 2 .9c1.3-.2 32.1-5 32.7-22a2.1 2.1 0 1 0-4.2-.2c-.2 6.8-7.9 11.3-14.3 13.9-5.5 2.2-11 3.4-13.5 3.9a75 75 0 0 1-6.6-12.4c-2.6-6.4-4.6-15 .2-20a9 9 0 0 1 9.7-2.5c3.4 1.3 5.4 4.6 5.6 9.1a2.1 2.1 0 0 0 3.5 1.5c2.5-2.2 5.2-3.2 7.8-3a8 8 0 0 1 5.7 3.1c.7 1 2 1.1 3 .4.9-.7 1-2 .3-3a12.2 12.2 0 0 0-8.6-4.7 13 13 0 0 0-8 1.9c-1-4.4-3.8-7.8-7.8-9.3a13 13 0 0 0-12.6 2 9 9 0 0 0-12.4-5.2C98 93 95.4 89 91.4 87.2a12.8 12.8 0 0 0-12.1.8c-1-4.4-3.8-7.7-7.8-9.2a13.3 13.3 0 0 0-14.3 3.5c-11.9 12.2 6 37.8 6.8 38.9.2.3.5.5.9.7zm-4.6-36.7a9 9 0 0 1 10-2.4c3.2 1.4 5.1 4.7 5.3 9a2.1 2.1 0 0 0 3.5 1.6c3.3-3 7.2-3.9 10.5-2.3a9 9 0 0 1 5 8.7c-.3 6.9-8 11.4-14.4 14-5.5 2.2-11 3.4-13.5 3.8-1.4-2-4.3-6.9-6.6-12.4-2.6-6.4-4.6-15 .2-20zm369.8 57v-.2a6 6 0 0 0-6.5-7.5 7.3 7.3 0 0 0-7.2-3.6 10.4 10.4 0 0 0-12-3.5c-.8-.6-1.6-1-2.5-1.4a7.3 7.3 0 0 0-5.5.6 6 6 0 0 0-9.6 2.8 2.9 2.9 0 0 0-3.7 2c-4.9 17.3-5 27-5.1 36.5-.1 9.1-.2 18.5-4.7 34.6-.6 2.3.7 4.8 3 5.4l20.4 6c2.3.6 4.7-.7 5.4-3 5-16 10-24 14.7-31.6 5-8 10.2-16.3 15.3-33.5a3 3 0 0 0-2-3.6zm-44.3-10h.1l3 .8c.8.3 1.3 1.2 1 2a4.4 4.4 0 0 0 8.5 2.5c.3-.9 1.2-1.3 2-1l2.9.8c.9.2 1.3 1.1 1.1 2l-2.7 9.1-1.2.1c-1 .1-1.6.2-3-.2-1.5-.4-2-.9-2.7-1.4a9 9 0 0 0-3.7-2 9 9 0 0 0-4.1-.3c-1 0-1.7.2-3-.2l-1-.4a130 130 0 0 1 2.8-11.8zm39.7 24.2c-.3 0-.7 0-1-.2-1.4-.4-2-.9-2.7-1.4l-.1-.1.2-.9a1.4 1.4 0 1 0-2.7-.8l-.5 1.7v.2l-.3 1a1.6 1.6 0 0 1-3-.9l3.3-11.6a4.4 4.4 0 0 0-8.5-2.5l-3.3 11.2-2.2 7.7a1.4 1.4 0 0 0 2.7.7l1.7-5.9a10.7 10.7 0 0 0 3.3.8 4.4 4.4 0 0 0 8.4 2.1 9 9 0 0 0 3.6 1.6c-3.3 8-6.6 13.2-10 18.7-4.9 7.8-10 16-15 32.3-.2.8-1.1 1.3-2 1l-20.3-5.9a1.6 1.6 0 0 1-1-2c4.5-16.4 4.6-26 4.7-35.2 0-6.5.2-12.7 1.6-21.2l.7.3c2 .5 3.2.4 4.2.3.9-.1 1.6-.2 3 .2s2 .9 2.7 1.4c.8.7 1.7 1.4 3.7 2s3 .5 4.1.3l-4.4 15.4a4.4 4.4 0 0 0 8.5 2.5l.8-2.9a1.4 1.4 0 0 0-2.7-.8l-.9 3a1.6 1.6 0 0 1-3-1l8-27.5c.7-2.3-.7-4.8-3-5.5l-3-.8c-2.2-.7-4.7.7-5.4 3a1.6 1.6 0 0 1-3-.9c.6-2.3-.7-4.8-3-5.5h-.2v-.1a3.1 3.1 0 0 1 4-2.1 3 3 0 0 1 1.5 1.1c.3.3.6.5 1 .6.3 0 .7 0 1-.3a4.5 4.5 0 0 1 6 .5c.5.4 1.2.6 1.7.3a7.6 7.6 0 0 1 9.8 2.9c.4.5 1 .7 1.6.6a4.6 4.6 0 0 1 5.4 2.9c.1.3.4.6.7.8s.7.1 1.1 0a3 3 0 0 1 2-.1c1.6.5 2.6 2.2 2 3.8v.1c-2.4-.7-4.8.7-5.5 3l-.9 3a1.4 1.4 0 1 0 2.7.7l.9-2.9c.2-.8 1.1-1.3 2-1l2.9.8a127 127 0 0 1-3.9 11.5zm-12.4-3.8c-.6 0-1.2 0-2.1-.3l-1-.4 2.9-10.2c.1-.4.4-.7.8-1a1.6 1.6 0 0 1 2.3 2l-3 9.9z"/><path fill="#E9576D" d="M396.2 204.5l-14.5-4.2a1.4 1.4 0 0 0-.8 2.7l14.5 4.2a1.4 1.4 0 1 0 .8-2.7zM505.4 220a39.2 39.2 0 0 0-48.7 43.6 39.3 39.3 0 1 0 48.7-43.6zm11.3 8.9a35.9 35.9 0 0 1 14.3 22.5l-15.2 2.1a67.7 67.7 0 0 0-5.9-18.8c2.5-1.7 4.7-3.6 6.8-5.8zm-21.7 12c4.2-.8 8.3-2.3 12-4.4a63 63 0 0 1 5.4 17.5l-15.3 2.2-2.1-15.3zm1.4 34.4c-4.2.8-8.3 2.3-12 4.4a63 63 0 0 1-5.4-17.5l15.2-2.2 2.2 15.3zm8.2-52c3.3.8 6.3 2 9.1 3.7a35.8 35.8 0 0 1-5.4 4.7l-1.8-2.8a29.6 29.6 0 0 0-5.8-6.4l3.9.8zm-.9 7.6l1.7 2.6a36 36 0 0 1-11 4l-2-15c3.7.3 7.7 3.2 11.3 8.4zm-10 25.8l-15.2 2.1c-.8-6.4-.7-12.7.3-18.3 4.1 1 8.5 1.3 12.8.9l2.1 15.3zM489 223l2.2 15c-4 .3-7.9 0-11.6-.8l.8-3c2-6 5-10 8.6-11.2zm-8 2.3a29.4 29.4 0 0 0-4.7 11c-2.3-.8-4.5-1.8-6.6-3 3.3-3.4 7-6 11.3-8zm-14 11.2l.5-.6c2.5 1.6 5.2 2.8 8 3.7-1 6-1.1 12.8-.3 19.7l-15.2 2.2c-.9-9 1.6-17.8 7-25zm7.8 50.8a35.9 35.9 0 0 1-14.4-22.4l15.3-2.2a67.7 67.7 0 0 0 5.9 18.8 39.8 39.8 0 0 0-6.8 5.8zm12 5.6c-3.2-.8-6.2-2-9-3.7a35 35 0 0 1 5.4-4.7 29.5 29.5 0 0 0 7.6 9.2c-1.3-.2-2.6-.4-4-.8zm1-7.5l-1.7-2.7a36 36 0 0 1 11-4l2 15c-3.7-.2-7.7-3.2-11.3-8.3zm14.8 7.8l-2.2-15c4-.3 7.8 0 11.6.8-1.8 7.4-5.2 12.7-9.4 14.2zm8-2.3l1.6-2.6c1.3-2.4 2.3-5.2 3.1-8.3 2.3.7 4.4 1.7 6.5 3a36 36 0 0 1-11.2 7.9zm13.5-10.6a39.3 39.3 0 0 0-8-3.7l.7-6.4a1.7 1.7 0 0 0-3.4-.3l-.7 5.8c-4.2-1-8.5-1.3-12.8-.9l-2.2-15.2 15.3-2.2c.2 2 .4 4 .4 5.9a1.7 1.7 0 0 0 3.5-.1l-.5-6.3 15.2-2.2c1 9.5-2 18.6-7.5 25.6z"/><path fill="#E9576D" d="M506 321.5l-.7-.2c.2-4-2.5-7.7-6.5-8.7l-14.4-3.7 1-3.4a48.5 48.5 0 0 0 17.2.6c.4 0 .8-.3 1.1-.7.3-.3.4-.8.3-1.2l-.3-2.3c-.1-1-1-1.6-2-1.4-.9 0-1.5 1-1.4 1.9v.5a45 45 0 0 1-14.1-.8l.1-.5a1.7 1.7 0 0 0-3.3-.8l-.1.5a45 45 0 0 1 4.7-87.5v.5a1.7 1.7 0 0 0 3.5-.5l-.4-2.2c0-1-1-1.6-1.9-1.5a48.5 48.5 0 0 0-6.8 94.5l-.9 3.5-14.4-3.7c-4-1-8 1-9.8 4.5l-.7-.1a1.7 1.7 0 1 0-.9 3.3l49.8 12.7a1.7 1.7 0 1 0 .9-3.3zm-45.7-11.7a5.1 5.1 0 0 1 5.6-2l32 8.1c2.2.6 3.7 2.4 4 4.6l-41.6-10.7zM441 89.3a38.7 38.7 0 0 0 16.4-74.6c-.6-.2-1.3 0-1.6.7-.2.6 0 1.4.7 1.6 2.2.9 4.3 2 6.3 3.2-1 3.8-2.5 7.4-4.5 10.7a54.5 54.5 0 0 0-33.8-11.4 36 36 0 0 1 28-3.8c.7.2 1.4-.2 1.6-.9.1-.6-.3-1.3-1-1.5a38.6 38.6 0 0 0-38.9 63.2c7 7.7 16.4 12.3 26.7 12.8zm10.3-3.3a36.3 36.3 0 0 1-35-10.7 130.2 130.2 0 0 0 50.2-32.6c1.6 2 3 4.1 4.2 6.3a39.9 39.9 0 0 0-17 20c-2 5.4-2.9 11.2-2.4 17zm16-8.4a36 36 0 0 1-13.6 7.7 36.7 36.7 0 0 1 18.1-34 49 49 0 0 1 4.6 13.5 36 36 0 0 1-9.2 12.8zm10.6-17.2A55 55 0 0 0 474 50c1.7-.8 3.4-1.5 5.1-2 .4 4.1 0 8.4-1.2 12.4zm1-15c-2.1.7-4.1 1.5-6 2.5a55.4 55.4 0 0 0-4.6-7 142 142 0 0 0 6.6-7.4 36 36 0 0 1 4 12zm-14-23.6a36.5 36.5 0 0 1 8.7 9.4l-6.9 7.8a86.3 86.3 0 0 0-6.5-6.5 39 39 0 0 0 4.7-10.7zm-46.1 1.9l1.9-1.6c13.2-1 26 2.9 36.2 10.8a36 36 0 0 1-49.2 9.6 36 36 0 0 1 11-18.8zm-11.6 21.5a38 38 0 0 0 28.6 4.6 39 39 0 0 0 23-15.3 53 53 0 0 1 6.2 6.2l-6.3 6a126.7 126.7 0 0 1-44 26.5c-6.6-8.1-9-18.3-7.5-28zm-319.4 198a1.5 1.5 0 0 0 2.8-1c-.6-1.9-.5-3-.3-4.2.1-1.3.3-2.9-.5-5.4s-2-3.7-3-4.7c-.8-.9-1.6-1.6-2.2-3.5-.7-2-.5-3-.4-4.2.2-1.4.4-3-.5-5.5a1.5 1.5 0 0 0-2.8 1c.6 1.9.5 3 .3 4.1-.1 1.4-.3 3 .5 5.5 1 2.6 2 3.7 3 4.7.8.9 1.6 1.6 2.2 3.5.7 2 .6 3 .4 4.2-.2 1.4-.3 3 .5 5.5zm-10.7 3.6c.3.8 1.1 1.2 2 1 .7-.3 1.1-1.2.9-2a6.9 6.9 0 0 1-.4-4.1c.1-1.4.3-3-.5-5.5-.9-2.6-2-3.7-3-4.7-.8-.8-1.6-1.6-2.2-3.5a8 8 0 0 1-.4-4.2c.2-1.3.4-2.9-.5-5.5a1.5 1.5 0 0 0-2.8 1c.6 2 .5 3 .3 4.2-.1 1.4-.3 3 .5 5.5 1 2.5 2 3.6 3 4.6.8.9 1.6 1.7 2.2 3.6.7 1.9.6 3 .4 4.1-.2 1.4-.3 3 .5 5.5zm-10.7 3.7c.3.7 1.1 1.2 2 .9.7-.3 1.1-1.1.9-1.9a8 8 0 0 1-.4-4.2c.1-1.4.3-3-.5-5.5a11 11 0 0 0-3-4.6c-.8-.9-1.6-1.6-2.2-3.6s-.5-3-.4-4.1c.2-1.4.4-3-.5-5.5a1.5 1.5 0 0 0-2.8 1c.6 1.9.5 3 .3 4.1-.1 1.4-.3 3 .6 5.5.8 2.6 2 3.7 2.9 4.7.8.8 1.6 1.6 2.2 3.5s.6 3 .4 4.2c-.2 1.3-.3 3 .5 5.5zm53.1-10.9c-.4-.6-1.1-1-1.8-.7l-72.6 24.7c-.7.2-1 .9-1 1.6l.5 3.4c-2 1-3.8 2.3-5.2 4a18.3 18.3 0 0 0-4.1 15.7c1 5.5 4 10.8 8.6 14.9 6.6 6 15.6 8.2 23 6 3.4 2.8 7 5.2 10.7 7 .4.1.8.2 1.2 0l44.3-15c.4-.2.7-.4.9-.8 3.2-6.4 5.2-14 5.5-22a69.5 69.5 0 0 0-10-38.8zM47 278.9l.3 1c2.5 7.2 6 14 10.5 19.7a17.5 17.5 0 0 1-12.8-13 8.5 8.5 0 0 1 2-7.7zm-1.3 22c-4-3.6-6.8-8.3-7.6-13.2a15 15 0 0 1 3.4-13.1 14 14 0 0 1 3.6-3l1 4.2-1.6 1.4c-2.2 2.5-3 6-2.4 9.8a20 20 0 0 0 18.4 16l3.6 3.8c-6 1-13-1-18.4-5.8zm75.8-2.4l-43.2 14.7a59.3 59.3 0 0 1-28-34.2 68.7 68.7 0 0 1-3-12.9l18.4-6.2 4.7 13.7-5.3 1.8c-.8.3-1.2 1.1-1 1.9L70 294c.2.8 1 1.2 1.9 1l13.4-4.6c.8-.3 1.2-1.2 1-2l-5.8-16.8a1.5 1.5 0 0 0-2-1l-5.2 1.8-4.7-13.7 49-16.7c2.2 3.8 4 7.9 5.5 12.1 5.2 15.5 4.7 32-1.4 44.3zM78 274l4.8 14.1-10.6 3.6-4.8-14L78 274zm80.2-48.1c-1-.7-2.3-.5-3 .5l-12.1 18a2.2 2.2 0 1 0 3.6 2.4l12.1-18c.7-1 .4-2.3-.6-3zM22.7 129.7l-10.9-.4v-10.9a2.2 2.2 0 0 0-4.3 0v13c0 .5.2 1 .6 1.5.4.4 1 .7 1.6.7l12.9.4a2.2 2.2 0 0 0 .1-4.3zM409 331.3a2.2 2.2 0 0 0-2.3 3.7l1.6 1h8.1l-7.4-4.7zm23.1 2.3a2.2 2.2 0 0 0 1.5-4l-12.1-4.5a2.8 2.8 0 0 0-.6-.2c-1.2-.1-2.3.7-2.5 1.9l-1.2 9.2h4.4l.8-6 9.7 3.6zM370.5 10.5c5.8 0 10.5-4.7 10.5-10.5h-8a2.5 2.5 0 0 1-5 0h-8c0 5.8 4.8 10.5 10.5 10.5zm104-2.8c1 .7 2.3.4 3-.5l4.8-7.2h-5.2l-3.2 4.7c-.7 1-.4 2.4.6 3zm139.3 321.6a2.2 2.2 0 0 0-4.4 0v6.7h4.4v-6.7zM10.8 25.5l11 7c.8.5 2 .3 2.6-.4.4-.3.7-.8.8-1.4l1.3-10.1 9.7 3.6a2.2 2.2 0 0 0 1.5-4.1l-12.1-4.5a2.8 2.8 0 0 0-.6-.2c-1.2-.1-2.3.7-2.5 2L21.3 27l-8.2-5.2a2.2 2.2 0 0 0-2.3 3.7z"/><circle cx="24.1" cy="73.8" r="4.3" fill="#E9576D"/><path fill="#E9576D" d="M45.4 196.5a10.5 10.5 0 1 0-21 0 10.5 10.5 0 0 0 21 0zM34.9 199a2.5 2.5 0 1 1 0-5 2.5 2.5 0 0 1 0 5zm138-190.2L154.4 20a2.2 2.2 0 1 0 2.3 3.7l18.5-11.3a2.2 2.2 0 1 0-2.3-3.7zM333 17.9l9.8 4.9-4.5 10a2.2 2.2 0 0 0 4 1.7l5.3-11.7c.3-.6.3-1.2 0-1.7 0-.6-.5-1-1-1.3L335 14a2.2 2.2 0 0 0-2 3.9zM85.2 154.2c1-.7 1.3-2 .7-3l-7.1-10.9a2.2 2.2 0 0 0-2.6-.9c-.5.2-1 .5-1.3 1l-5.4 8.7-7.3-7.3a2.2 2.2 0 0 0-3.1 3l9.2 9.2.2.2.3.2c1 .6 2.4.3 3-.7l5.1-8.3 5.3 8.1c.7 1 2 1.3 3 .7zm75.2-57.7a4.3 4.3 0 1 0 3.6-7.9 4.3 4.3 0 0 0-3.6 8zm-49.7-36.3a10.5 10.5 0 1 0 8.7-19 10.5 10.5 0 0 0-8.7 19zm2-10.6a2.5 2.5 0 1 1 4.6 2.1 2.5 2.5 0 0 1-4.6-2zm62.4 265c-.2-1.2-1.3-2-2.5-1.8l-9.6 1.7 2.6-9.4a2.2 2.2 0 0 0-4.2-1.1l-3.4 12.5c-.3 1 .2 2 1 2.5.5.3 1 .4 1.6.3l10-1.7-.5 10.3a2.2 2.2 0 0 0 4.3.3l.8-13v-.6zm466.5-141.9h-.6c-.4 0-.9 0-1.3.3l-11.4 6.2-.6.4-.5.6c-.6 1-.3 2.4.7 3L639 190a2.2 2.2 0 0 0 3.3-2.1l1.3-12.8c0-1.2-.8-2.3-2-2.4zm-3.3 11.7l-5-3 5.6-3-.6 6zm-270.7 124c-.5-.2-1-.2-1.4-.1l-12.9.4a2.2 2.2 0 0 0-2 2.9c0 .4.2.9.5 1.2l7.6 10.5.6.5a2.2 2.2 0 0 0 3.4-.7l5.3-11.8c.5-1.1 0-2.4-1.1-3zm-6.7 9.6l-3.7-5 6-.3-2.3 5.3zM206.8 193.7c-.3-.4-.7-.7-1.1-.8l-11.2-6.4a2.2 2.2 0 0 0-3.2 1.4c-.2.4-.3.8-.3 1.3l1 13 .1.6.4.7c.6 1 2 1.3 3 .6l10.7-7.3c1-.7 1.3-2 .6-3zm-10.7 4.7l-.5-6.2 5.3 3-4.8 3.2zM91 10.8l.6.4c1 .5 2.3 0 2.8-1.1L99 0h-5l-2 5-3.6-5H83l7.5 10.3.5.5zM3.4 258.4l5.2-11.8a2.2 2.2 0 0 0-2.5-3l-6.1.2v4.4l3.2-.2-2.3 5.3-.9-1.2v7.1l.5.4c1.1.4 2.4 0 2.9-1.2zm462.3-85l-12.9.5a2.2 2.2 0 0 0-2 2.9c0 .4.2.8.5 1.2l7.6 10.5.5.5.7.4c1 .5 2.3 0 2.8-1l5.3-12a2.2 2.2 0 0 0-2.5-3zm-5.3 9.8l-3.7-5 6-.3-2.3 5.3zm72.1-147.3l1 .8 12.2 4.5.7.1h.8c1.2-.2 2-1.3 1.8-2.5L546.8 26a2.2 2.2 0 0 0-3.8-1.1l-10.4 7.5a2.2 2.2 0 0 0 0 3.5zm10.6-5.7l1 5.7-6-2.2 5-3.5zm-219.5 40c-.4-.2-1-.2-1.4-.1l-12.8.5a2.2 2.2 0 0 0-2 2.8c0 .5.1.9.4 1.3l7.7 10.5.5.5a2.2 2.2 0 0 0 3.5-.7l5.2-12c.5-1 0-2.3-1-2.8zm-6.6 9.6l-3.7-5 6-.2-2.3 5.3z"/></svg>