<?xml version="1.0" encoding="UTF-8"?>
<svg width="100pt" height="100pt" version="1.1" viewBox="0 0 100 100" xmlns="http://www.w3.org/2000/svg">
 <g>
  <path d="m78.848 32.059h-73.078c-0.53125 0-0.96094-0.42969-0.96094-0.96094v-13.371c0-1.5742 1.2773-2.8516 2.8516-2.8516h69.293c1.5742-0.003906 2.8555 1.2773 2.8555 2.8516v13.375c0 0.52734-0.42969 0.95703-0.96094 0.95703zm-72.117-1.9219h71.152v-12.41c0-0.51172-0.41797-0.92969-0.92969-0.92969h-69.293c-0.51172 0-0.92969 0.41406-0.92969 0.92969z"/>
  <path d="m15.223 21.699c-0.53125 0-0.96094-0.42969-0.96094-0.96094v-9.8086c0-0.53125 0.42969-0.96094 0.96094-0.96094s0.96094 0.42969 0.96094 0.96094v9.8125c0 0.52734-0.42969 0.95703-0.96094 0.95703z"/>
  <path d="m26.566 21.699c-0.53125 0-0.96094-0.42969-0.96094-0.96094v-9.8086c0-0.53125 0.42969-0.96094 0.96094-0.96094s0.96094 0.42969 0.96094 0.96094v9.8125c0.003906 0.52734-0.42578 0.95703-0.96094 0.95703z"/>
  <path d="m58.047 21.699c-0.53125 0-0.96094-0.42969-0.96094-0.96094l-0.003907-9.8086c0-0.53125 0.42969-0.96094 0.96094-0.96094s0.96094 0.42969 0.96094 0.96094v9.8125c0.003906 0.52734-0.42578 0.95703-0.95703 0.95703z"/>
  <path d="m69.391 21.699c-0.53125 0-0.96094-0.42969-0.96094-0.96094v-9.8086c0-0.53125 0.42969-0.96094 0.96094-0.96094s0.96094 0.42969 0.96094 0.96094v9.8125c0 0.52734-0.42969 0.95703-0.96094 0.95703z"/>
  <path d="m20.562 42.008h-1.8906c-0.53125 0-0.96094-0.42969-0.96094-0.96094s0.42969-0.96094 0.96094-0.96094h1.8906c0.53125 0 0.96094 0.42969 0.96094 0.96094s-0.42969 0.96094-0.96094 0.96094z"/>
  <path d="m35.691 42.008h-1.8906c-0.53125 0-0.96094-0.42969-0.96094-0.96094s0.42969-0.96094 0.96094-0.96094h1.8906c0.53125 0 0.96094 0.42969 0.96094 0.96094s-0.42969 0.96094-0.96094 0.96094z"/>
  <path d="m50.816 42.008h-1.8906c-0.53125 0-0.96094-0.42969-0.96094-0.96094s0.42969-0.96094 0.96094-0.96094h1.8906c0.53125 0 0.96094 0.42969 0.96094 0.96094s-0.42969 0.96094-0.96094 0.96094z"/>
  <path d="m65.941 42.008h-1.8906c-0.53125 0-0.96094-0.42969-0.96094-0.96094s0.42969-0.96094 0.96094-0.96094h1.8906c0.53125 0 0.96094 0.42969 0.96094 0.96094s-0.42969 0.96094-0.96094 0.96094z"/>
  <path d="m20.562 53.355h-1.8906c-0.53125 0-0.96094-0.42969-0.96094-0.96094s0.42969-0.96094 0.96094-0.96094h1.8906c0.53125 0 0.96094 0.42969 0.96094 0.96094s-0.42969 0.96094-0.96094 0.96094z"/>
  <path d="m35.691 53.355h-1.8906c-0.53125 0-0.96094-0.42969-0.96094-0.96094s0.42969-0.96094 0.96094-0.96094h1.8906c0.53125 0 0.96094 0.42969 0.96094 0.96094s-0.42969 0.96094-0.96094 0.96094z"/>
  <path d="m50.816 53.355h-1.8906c-0.53125 0-0.96094-0.42969-0.96094-0.96094s0.42969-0.96094 0.96094-0.96094h1.8906c0.53125 0 0.96094 0.42969 0.96094 0.96094s-0.42969 0.96094-0.96094 0.96094z"/>
  <path d="m65.941 53.355h-1.8906c-0.53125 0-0.96094-0.42969-0.96094-0.96094s0.42969-0.96094 0.96094-0.96094h1.8906c0.53125 0 0.96094 0.42969 0.96094 0.96094s-0.42969 0.96094-0.96094 0.96094z"/>
  <path d="m20.562 64.699h-1.8906c-0.53125 0-0.96094-0.42969-0.96094-0.96094s0.42969-0.96094 0.96094-0.96094h1.8906c0.53125 0 0.96094 0.42969 0.96094 0.96094s-0.42969 0.96094-0.96094 0.96094z"/>
  <path d="m35.691 64.699h-1.8906c-0.53125 0-0.96094-0.42969-0.96094-0.96094s0.42969-0.96094 0.96094-0.96094h1.8906c0.53125 0 0.96094 0.42969 0.96094 0.96094s-0.42969 0.96094-0.96094 0.96094z"/>
  <path d="m50.816 64.699h-1.8906c-0.53125 0-0.96094-0.42969-0.96094-0.96094s0.42969-0.96094 0.96094-0.96094h1.8906c0.53125 0 0.96094 0.42969 0.96094 0.96094s-0.42969 0.96094-0.96094 0.96094z"/>
  <path d="m78.848 90.035c-9.0117 0-16.348-7.332-16.348-16.348 0-9.0117 7.332-16.348 16.348-16.348 9.0117 0 16.348 7.332 16.348 16.348-0.003906 9.0117-7.3359 16.348-16.348 16.348zm0-30.77c-7.9531 0-14.422 6.4688-14.422 14.422s6.4688 14.422 14.422 14.422 14.422-6.4688 14.422-14.422-6.4688-14.422-14.422-14.422z"/>
  <path d="m78.848 63.109c-0.53125 0-0.96094-0.42969-0.96094-0.96094v-3.8477c0-0.53125 0.42969-0.96094 0.96094-0.96094s0.96094 0.42969 0.96094 0.96094v3.8477c0 0.53125-0.42969 0.96094-0.96094 0.96094z"/>
  <path d="m78.848 90.035c-0.53125 0-0.96094-0.42969-0.96094-0.96094v-3.8477c0-0.53125 0.42969-0.96094 0.96094-0.96094s0.96094 0.42969 0.96094 0.96094v3.8477c0 0.52734-0.42969 0.96094-0.96094 0.96094z"/>
  <path d="m94.23 74.648h-3.8477c-0.53125 0-0.96094-0.42969-0.96094-0.96094s0.42969-0.96094 0.96094-0.96094h3.8477c0.53125 0 0.96094 0.42969 0.96094 0.96094s-0.42969 0.96094-0.96094 0.96094z"/>
  <path d="m67.309 74.648h-3.8477c-0.53125 0-0.96094-0.42969-0.96094-0.96094s0.42969-0.96094 0.96094-0.96094h3.8477c0.53125 0 0.96094 0.42969 0.96094 0.96094s-0.42969 0.96094-0.96094 0.96094z"/>
  <path d="m72.871 80.047c-0.26172 0-0.52344-0.10547-0.71484-0.31641-0.35547-0.39453-0.32422-1 0.070312-1.3594l5.6562-5.1094v-3.418c0-0.53125 0.42969-0.96094 0.96094-0.96094s0.96094 0.42969 0.96094 0.96094v3.8477c0 0.27344-0.11328 0.53125-0.31641 0.71484l-5.9766 5.3984c-0.17969 0.16016-0.41406 0.24219-0.64062 0.24219z"/>
  <path d="m63.461 74.648h-55.801c-1.5742 0-2.8516-1.2773-2.8516-2.8516v-40.699c0-0.53125 0.42969-0.96094 0.96094-0.96094h73.078c0.53125 0 0.96094 0.42969 0.96094 0.96094v27.203c0 0.53125-0.42969 0.96094-0.96094 0.96094-7.9531 0-14.422 6.4688-14.422 14.422-0.003906 0.53516-0.43359 0.96484-0.96484 0.96484zm-56.73-42.59v39.738c0 0.51172 0.41797 0.92969 0.92969 0.92969h54.867c0.48047-8.25 7.1094-14.875 15.355-15.355v-25.312z"/>
 </g>
</svg>
