<?xml version="1.0" encoding="UTF-8"?>
<svg width="40px" height="40px" viewBox="0 0 40 40" version="1.1" xmlns="http://www.w3.org/2000/svg" xmlns:xlink="http://www.w3.org/1999/xlink">
    <!-- Generator: Sketch 50.2 (55047) - http://www.bohemiancoding.com/sketch -->
    <title>np_warning_936905_000000</title>
    <desc>Created with Sketch.</desc>
    <defs></defs>
    <g id="Experiment-Content-Pages" stroke="none" stroke-width="1" fill="none" fill-rule="evenodd">
        <g id="Content-/-Warning" transform="translate(0.000000, -20.000000)" fill="#000000" fill-rule="nonzero">
            <g id="np_warning_936905_000000" transform="translate(0.000000, 20.000000)">
                <path d="M20,0.14293617 C9.03276596,0.14293617 0.142978723,9.0327234 0.142978723,19.9999574 C0.142978723,30.9671915 9.03276596,39.8569787 20,39.8569787 C30.967234,39.8569787 39.8570213,30.9671915 39.8570213,19.9999574 C39.8570213,9.0327234 30.967234,0.14293617 20,0.14293617 Z M20,10.7561277 C20.919234,10.7561277 21.6639149,11.5008085 21.6639149,12.4200426 L21.238383,22.3485532 C21.195166,23.2461702 20.4986809,23.5869362 20,23.5869362 C19.4414894,23.5869362 18.8098298,23.2927191 18.761617,22.3485532 L18.3360851,12.4200426 C18.3360851,11.5008085 19.080766,10.7561277 20,10.7561277 Z M21.5026383,28.6216596 C21.1103489,29.0172723 20.5618298,29.2433191 20,29.2433191 C19.4381702,29.2433191 18.889617,29.0189191 18.494,28.6216596 C18.0983872,28.2260468 17.8723404,27.6758298 17.8723404,27.1156596 C17.8723404,26.5588085 18.0984043,26.0085957 18.494,25.6146809 C18.8896128,25.2190681 19.4381702,24.988 20,24.988 C20.5618298,24.988 21.1070638,25.2173872 21.5026383,25.6146809 C21.9015745,26.0102936 22.1276596,26.5605106 22.1276596,27.1156596 C22.1276596,27.6758298 21.9015957,28.2260426 21.5026383,28.6216596 Z" id="Shape"></path>
            </g>
        </g>
    </g>
</svg>