<svg xmlns="http://www.w3.org/2000/svg" width="1168.111" height="429.258" viewBox="0 0 1168.111 429.258">
  <defs>
    <style>
      .cls-1 {
        fill: #ed5551;
      }

      .cls-2 {
        fill: #031327;
      }
    </style>
  </defs>
  <g id="Group_601" data-name="Group 601" transform="translate(0 -6900)">
    <path id="Path_729" data-name="Path 729" class="cls-1" d="M100.25,459.223s179.712-14.545,243.265,41.818,46.276,80,138.894,80,312.279-3.636,311.4,41.821-13.869,89.09,69.8,90.909,198.258,1.819,229.483,38.182,54.842,81.769,106.153,92.729,69.123,42.113,69.123,42.113L104.576,880.246Z" transform="translate(-100.25 6442.462)"/>
    <path id="Path_760" data-name="Path 760" class="cls-2" d="M-7.213,438.756S50.71,448.8,69.26,511.164,64.113,648.332,96.818,673.418,188.731,719.2,280.8,717.428c25.512-.491,51.51,2.032,76.056,9.625,25.468,7.878,49.543,19.933,73.523,31.765,17.289,8.529,34.787,17,53.395,21.447,33.781,8.068,69.833,2.2,101.306-13.078,35.895-17.426,65.868-43.605,105.77-51.735,24.615-5.017,50.166-3.363,74.339,3.388,27.035,7.553,54.978,21.159,72.825,44.727,13.474,17.794,25.836,38.3,33.134,59.907H-7.213Z" transform="translate(7.213 6504.009)"/>
  </g>
</svg>
