<?xml version="1.0" encoding="UTF-8"?>
<svg width="140px" height="90px" viewBox="0 0 140 90" version="1.1" xmlns="http://www.w3.org/2000/svg" xmlns:xlink="http://www.w3.org/1999/xlink">
    <!-- Generator: Sketch 48.2 (47327) - http://www.bohemiancoding.com/sketch -->
    <title>Shape</title>
    <desc>Created with Sketch.</desc>
    <defs></defs>
    <g id="Page-1" stroke="none" stroke-width="1" fill="none" fill-rule="evenodd">
        <path d="M12.134233,41.858744 L0,41.858744 L0,62.420934 L5.082863,62.420934 L5.082863,54.519179 L11.047147,54.519179 L11.047147,49.789875 L5.082863,49.789875 L5.082863,46.588048 L12.134233,46.588048 L12.134233,41.858744 Z M22.658735,41.858744 C27.330268,41.858744 30.268339,44.619953 30.268339,48.673642 C30.268339,51.11173 29.034349,53.1092 26.918938,54.225433 L31.14976,62.420934 L25.391141,62.420934 L21.747933,55.194793 L20.837131,55.194793 L20.837131,62.420934 L15.754268,62.420934 L15.754268,41.858744 L22.658735,41.858744 Z M22.658735,46.588048 L20.837131,46.588048 L20.837131,50.759235 L22.658735,50.759235 C24.157151,50.759235 25.067953,50.112995 25.067953,48.673642 C25.067953,47.204914 24.157151,46.588048 22.658735,46.588048 Z M46.786506,41.858744 L34.53475,41.858744 L34.53475,62.420934 L46.786506,62.420934 L46.786506,57.691631 L39.617613,57.691631 L39.617613,54.254808 L45.69942,54.254808 L45.69942,49.525504 L39.617613,49.525504 L39.617613,46.588048 L46.786506,46.588048 L46.786506,41.858744 Z M57.369768,41.476875 C53.138946,41.476875 50.43592,44.061836 50.43592,47.909903 C50.43592,51.43485 52.668854,53.256073 56.547108,54.431055 C58.721281,55.10667 59.661463,55.75291 59.661463,56.839769 C59.661463,57.779754 58.897565,58.367246 57.692956,58.367246 C56.077017,58.367246 55.283738,57.515383 55.166215,55.958532 L50.053971,55.958532 C50.171494,59.924097 52.639474,62.802804 57.634194,62.802804 C61.629971,62.802804 64.773707,60.511588 64.773707,56.369776 C64.773707,53.256073 63.334052,51.199854 58.809423,49.7605 C56.547108,49.055511 55.548164,48.644267 55.548164,47.43991 C55.548164,46.47055 56.19454,45.941808 57.222865,45.941808 C58.251189,45.941808 59.015088,46.617423 59.10323,47.851154 L64.215474,47.851154 C63.980428,43.591843 61.394925,41.476875 57.369768,41.476875 Z M86.051549,41.858744 L80.968686,41.858744 L80.968686,49.408006 L73.711651,49.408006 L73.711651,41.858744 L68.628788,41.858744 L68.628788,62.420934 L73.711651,62.420934 L73.711651,54.137309 L80.968686,54.137309 L80.968686,62.420934 L86.051549,62.420934 L86.051549,41.858744 Z M103.15733,41.858744 L90.905574,41.858744 L90.905574,62.420934 L103.15733,62.420934 L103.15733,57.691631 L95.988436,57.691631 L95.988436,54.254808 L102.070243,54.254808 L102.070243,49.525504 L95.988436,49.525504 L95.988436,46.588048 L103.15733,46.588048 L103.15733,41.858744 Z M114.269445,41.858744 C118.940978,41.858744 121.879049,44.619953 121.879049,48.673642 C121.879049,51.11173 120.645059,53.1092 118.529648,54.225433 L122.76047,62.420934 L117.001851,62.420934 L113.358643,55.194793 L112.447841,55.194793 L112.447841,62.420934 L107.364978,62.420934 L107.364978,41.858744 L114.269445,41.858744 Z M114.269445,46.588048 L112.447841,46.588048 L112.447841,50.759235 L114.269445,50.759235 C115.767861,50.759235 116.678663,50.112995 116.678663,48.673642 C116.678663,47.204914 115.767861,46.588048 114.269445,46.588048 Z M132.521073,41.476875 C128.290251,41.476875 125.587226,44.061836 125.587226,47.909903 C125.587226,51.43485 127.82016,53.256073 131.698414,54.431055 C133.872586,55.10667 134.812769,55.75291 134.812769,56.839769 C134.812769,57.779754 134.04887,58.367246 132.844261,58.367246 C131.228322,58.367246 130.435043,57.515383 130.31752,55.958532 L125.205277,55.958532 C125.322799,59.924097 127.790779,62.802804 132.7855,62.802804 C136.781276,62.802804 139.925012,60.511588 139.925012,56.369776 C139.925012,53.256073 138.485358,51.199854 133.960728,49.7605 C131.698414,49.055511 130.699469,48.644267 130.699469,47.43991 C130.699469,46.47055 131.345845,45.941808 132.37417,45.941808 C133.402495,45.941808 134.166393,46.617423 134.254535,47.851154 L139.366779,47.851154 C139.131733,43.591843 136.546231,41.476875 132.521073,41.476875 Z M56.849399,68.466688 L51.50211,68.466688 L48.270232,80.187136 L47.976425,81.685238 L47.77076,80.187136 L44.685785,68.466688 L39.955491,68.466688 L36.870516,80.187136 L36.63547,81.685238 L36.371044,80.187136 L33.139166,68.466688 L27.791877,68.466688 L33.814922,89.028878 L39.309115,89.028878 L42.070902,79.070903 L42.305947,77.631549 L42.570374,79.070903 L45.332161,89.028878 L50.826353,89.028878 L56.849399,68.466688 Z M72.398001,68.466688 L60.146245,68.466688 L60.146245,89.028878 L72.398001,89.028878 L72.398001,84.299574 L65.229108,84.299574 L65.229108,80.862751 L71.310915,80.862751 L71.310915,76.133447 L65.229108,76.133447 L65.229108,73.195991 L72.398001,73.195991 L72.398001,68.466688 Z M88.857407,68.466688 L76.60565,68.466688 L76.60565,89.028878 L88.857407,89.028878 L88.857407,84.299574 L81.688513,84.299574 L81.688513,80.862751 L87.77032,80.862751 L87.77032,76.133447 L81.688513,76.133447 L81.688513,73.195991 L88.857407,73.195991 L88.857407,68.466688 Z M110.311533,68.466688 L104.170964,68.466688 L98.147919,77.984044 L98.147919,68.466688 L93.065056,68.466688 L93.065056,89.028878 L98.147919,89.028878 L98.147919,85.268934 L100.67466,81.861486 L105.169908,89.028878 L111.192954,89.028878 L104.170964,77.778422 L110.311533,68.466688 Z M39.442404,0 C46.529898,0 50.256701,1.717303 50.256701,1.717303 C58.007074,4.717461 58.258615,10.846989 58.258615,10.846989 L58.235787,19.785767 C51.376789,19.472766 45.844192,18.595239 42.414801,13.671555 C38.985194,8.747655 39.442404,0 39.442404,0 Z M68.662653,5.404296 C68.662653,5.404296 68.876935,9.504813 67.269489,11.812959 C65.662043,14.120888 63.068464,14.532256 59.853786,14.678942 L59.842803,10.488903 C59.842803,10.488903 59.960604,7.615585 63.59351,6.209558 C63.59351,6.209558 65.340726,5.404296 68.662653,5.404296 Z M59.591908,28.181808 L60.226359,25.396933 C60.991102,25.78975 62.241266,26.181918 63.49143,26.181918 C64.648344,26.181918 65.208064,25.78975 65.208064,25.154255 C65.208064,24.537311 64.648344,24.182245 63.230199,23.696455 C61.103304,22.949006 59.703895,21.77142 59.703895,19.902469 C59.703895,17.678884 61.569558,15.959207 64.74181,15.959207 C66.252991,15.959207 67.316223,16.239852 68.155695,16.61347 L67.446946,19.304508 C66.905747,19.061829 65.972807,18.706332 64.704337,18.706332 C63.678147,18.706332 63.118427,19.080381 63.118427,19.640807 C63.118427,20.276302 63.789704,20.53818 65.37583,21.135925 C67.633663,21.958228 68.659422,23.173132 68.659422,24.929696 C68.659422,27.097843 66.96174,28.966577 63.286192,28.966577 C61.775012,28.966577 60.300873,28.555425 59.591908,28.181808 Z M69.704348,16.164999 L73.081408,16.164999 L73.081408,23.304072 C73.081408,25.210124 73.734594,26.294306 75.059058,26.294306 C76.402473,26.294306 77.05566,25.303745 77.05566,23.304072 L77.05566,16.164999 L80.432719,16.164999 L80.432719,23.117263 C80.432719,27.004222 78.492326,28.966577 74.965807,28.966577 C71.514449,28.966577 69.704348,27.078859 69.704348,23.023426 L69.704348,16.164999 Z" id="Shape" fill="currentcolor" fill-rule="nonzero"></path>
    </g>
</svg>
