<svg xmlns="http://www.w3.org/2000/svg" xmlns:xlink="http://www.w3.org/1999/xlink" width="197.073" height="106.32" viewBox="0 0 197.073 106.32">
  <defs>
    <style>
      .cls-1 {
        fill: #161a43;
      }

      .cls-2 {
        fill: none;
      }

      .cls-3 {
        clip-path: url(#clip-path);
      }

      .cls-4 {
        clip-path: url(#clip-path-2);
      }
    </style>
    <clipPath id="clip-path">
      <rect class="cls-2" width="197.073" height="106.32"/>
    </clipPath>
    <clipPath id="clip-path-2">
      <rect id="Rectangle_146" data-name="Rectangle 146" class="cls-1" width="197.073" height="106.32"/>
    </clipPath>
  </defs>
  <g id="Component_5_1" data-name="Component 5 – 1" class="cls-3">
    <path id="Path_1143" data-name="Path 1143" class="cls-1" d="M111.323,375.873a9.236,9.236,0,0,0,4.566,1.168c4.221,0,6.265-2.416,6.265-5.177,0-2.628-1.54-4.089-4.566-5.257-2.469-.956-3.558-1.779-3.558-3.451,0-1.221.929-2.681,3.372-2.681a7.127,7.127,0,0,1,3.4.849l.637-1.885a8.129,8.129,0,0,0-3.956-.876c-3.478,0-5.787,2.071-5.787,4.858,0,2.522,1.805,4.035,4.726,5.071,2.416.929,3.372,1.885,3.372,3.557,0,1.805-1.38,3.053-3.743,3.053a8.185,8.185,0,0,1-4.142-1.168l-.584,1.938Zm16.645.876H130.3V360.82h5.469v-1.964H122.526v1.964h5.442v15.929Zm9.026-17.893V369.4c0,5.549,2.761,7.646,6.425,7.646,3.876,0,6.77-2.257,6.77-7.752V358.856h-2.336v10.593c0,3.956-1.7,5.708-4.354,5.708-2.389,0-4.168-1.7-4.168-5.708V358.856Zm16.46,17.84a37.243,37.243,0,0,0,4.194.212c3.478,0,6.239-.9,7.911-2.575a9.463,9.463,0,0,0,2.575-6.956,8.241,8.241,0,0,0-2.522-6.425c-1.566-1.46-3.929-2.23-7.248-2.23a33.1,33.1,0,0,0-4.911.372v17.6Zm2.31-15.9a13.117,13.117,0,0,1,2.708-.239c4.885,0,7.274,2.681,7.248,6.9,0,4.832-2.681,7.593-7.619,7.593a14.6,14.6,0,0,1-2.336-.133V360.794Zm23.893,5.655H172.7v-5.655h7.354v-1.938h-9.663v17.893h10.062v-1.938H172.7V368.36h6.956v-1.912Zm5.23,10.3V369.1c0-2.973-.053-5.124-.186-7.38l.08-.027a56.8,56.8,0,0,0,3.345,5.973l5.681,9.08h2.336V358.856h-2.177v7.486c0,2.788.053,4.965.265,7.354l-.053.027a50.641,50.641,0,0,0-3.212-5.814l-5.734-9.053h-2.522v17.893Zm17.946,0h2.336V360.82h5.469v-1.964H197.39v1.964h5.442v15.929Zm7.991-.876a9.236,9.236,0,0,0,4.566,1.168c4.221,0,6.265-2.416,6.265-5.177,0-2.628-1.539-4.089-4.565-5.257-2.47-.956-3.558-1.779-3.558-3.451,0-1.221.929-2.681,3.372-2.681a7.124,7.124,0,0,1,3.4.849l.639-1.885a8.134,8.134,0,0,0-3.956-.876c-3.479,0-5.788,2.071-5.788,4.858,0,2.522,1.805,4.035,4.725,5.071,2.417.929,3.372,1.885,3.372,3.557,0,1.805-1.381,3.053-3.743,3.053a8.183,8.183,0,0,1-4.142-1.168l-.584,1.938Zm13.38-17.23a36.866,36.866,0,0,1-1.566,6.186l1.487-.159a31.32,31.32,0,0,0,2.5-6.292l-2.417.266Z" transform="translate(-30.76 -294.139)"/>
    <g id="Group_366" data-name="Group 366">
      <g id="Group_365" data-name="Group 365" class="cls-4" transform="translate(0 0)">
        <path id="Path_1144" data-name="Path 1144" class="cls-1" d="M111.323,484.846v9.743c0,5.761,2.575,8.442,7.486,8.442,5.018,0,7.779-2.788,7.779-8.31v-9.876h-4.805v10.141c0,2.841-.929,4.248-2.841,4.248-1.885,0-2.814-1.54-2.814-4.248V484.846Zm22.247,17.893v-4.407c0-2.894-.053-5.6-.159-8.018h.08a66.411,66.411,0,0,0,3.027,6.478l3.026,5.947h5.044V484.846h-4.38v4.221a67.625,67.625,0,0,0,.372,7.539h-.08a52.43,52.43,0,0,0-2.814-6.265l-2.84-5.5H129.19v17.893Zm13.672-17.893v17.893h4.805V484.846Zm15.584-.292c-5.469,0-8.894,4.141-8.894,9.345,0,4.965,3.053,9.133,8.6,9.133,5.522,0,8.973-3.664,8.973-9.425,0-4.779-2.92-9.053-8.681-9.053Zm-.08,3.8c2.31,0,3.69,2.336,3.69,5.416,0,3.212-1.354,5.469-3.663,5.469s-3.77-2.071-3.77-5.416c0-3.292,1.46-5.469,3.743-5.469Zm15.026,14.389v-4.407c0-2.894-.053-5.6-.159-8.018h.08a66.368,66.368,0,0,0,3.026,6.478l3.027,5.947h5.044V484.846h-4.381v4.221a67.58,67.58,0,0,0,.372,7.539h-.08a52.456,52.456,0,0,0-2.814-6.265l-2.841-5.5h-5.655v17.893Z" transform="translate(-30.76 -397.23)"/>
        <path id="Path_1145" data-name="Path 1145" class="cls-1" d="M-323.96,13.894s-1.8,34.429,11.717,53.806,35.33,22.832,62.368,24.064l.09-35.18s-.991-24.124-31.545-35.931c0,0-14.691-6.76-42.63-6.76Z" transform="translate(324.947 -12.683)"/>
        <path id="Path_1146" data-name="Path 1146" class="cls-1" d="M-323.96,13.894s-1.8,34.429,11.717,53.806,35.33,22.832,62.368,24.064l.09-35.18s-.991-24.124-31.545-35.931c0,0-14.691-6.76-42.63-6.76Z" transform="translate(324.947 -12.683)"/>
      </g>
    </g>
    <path id="Path_1147" data-name="Path 1147" class="cls-1" d="M150.709,130.148s.845,16.138-5.492,25.221-16.561,10.7-29.235,11.28l-.042-16.49s.465-11.308,14.787-16.842c0,0,6.886-3.169,19.983-3.169Z" transform="translate(-34.532 -107.667)"/>
  </g>
</svg>
