<?xml version="1.0" encoding="UTF-8"?>
<svg width="20px" height="20px" viewBox="0 0 20 20" version="1.1" xmlns="http://www.w3.org/2000/svg" xmlns:xlink="http://www.w3.org/1999/xlink">
    <!-- Generator: Sketch 50.2 (55047) - http://www.bohemiancoding.com/sketch -->
    <title>Shape</title>
    <desc>Created with Sketch.</desc>
    <defs></defs>
    <g id="Symbols" stroke="none" stroke-width="1" fill="none" fill-rule="evenodd">
        <g id="Experiment-/-Header-parts-/-Auth-/-Logged-in" transform="translate(-10.000000, -16.000000)" fill="#FFFFFF" fill-rule="nonzero">
            <g id="Auth-log-in">
                <path d="M20,16 C14.4848986,16 10,20.485933 10,26 C10,31.5151014 14.485933,36 20,36 C25.5151014,36 30,31.514067 30,26 C30,20.4848986 25.5151014,16 20,16 Z M20,17.5828248 C24.6444456,17.5828248 28.4172011,21.3566146 28.4172011,26.0000259 C28.4172011,27.8737588 27.810121,29.5889274 26.7808492,30.986838 C25.0657065,29.1131051 22.9809423,28.0050941 20.7121173,27.7938302 C22.6383688,27.4504034 24.1161305,25.7625155 24.1161305,23.7040494 C24.1161305,21.4080989 22.2686698,19.5615174 19.9999741,19.5615174 C17.7302958,19.5615174 15.8838177,21.4089781 15.8838177,23.7040494 C15.8838177,25.7353641 17.3615794,27.4504293 19.287831,27.7938302 C17.0181527,27.9786771 14.9342935,29.0867553 13.2190991,30.986838 C12.1898014,29.5888757 11.5827472,27.8737329 11.5827472,26.0000259 C11.5827472,21.3555803 15.3555027,17.5828248 19.9999483,17.5828248 L20,17.5828248 Z" id="Shape"></path>
            </g>
        </g>
    </g>
</svg>