<?xml version="1.0" encoding="UTF-8"?>
<svg width="1920px" height="220px" viewBox="0 0 1920 220" version="1.1" xmlns="http://www.w3.org/2000/svg" xmlns:xlink="http://www.w3.org/1999/xlink">
    <!-- Generator: Sketch 56.2 (81672) - https://sketch.com -->
    <title>Sand</title>
    <desc>Created with Sketch.</desc>
    <g id="Sand" stroke="none" stroke-width="1" fill="none" fill-rule="evenodd">
        <path d="M1965.39266,2.36282275 C1964.86966,-1.30517725 1775.46366,0.334822754 1758.57466,0.553822754 C1741.07466,0.779822754 1723.00066,1.16982275 1707.13966,5.99982275 C1678.67666,14.6668228 1663.97466,35.4998228 1656.88466,55.4628228 C1649.22966,77.0168228 1649.49566,104.954823 1625.71866,122.304823 C1606.38366,136.412823 1571.99966,139.512823 1544.92566,139.512823 C1445.45966,139.512823 1332.43066,146.886823 1314.34666,176.381823 C1296.44666,205.581823 1298.47866,213.100823 1298.52166,213.247823 C1293.66166,196.392823 1088.92166,202.779823 1063.90866,202.391823 C970.791998,200.947156 877.668665,199.713823 784.538665,198.691823 C598.279998,196.647823 412.004998,195.450156 225.713665,195.098823 C149.298665,194.954823 72.9246646,193.344823 -3.5733354,192.598823 L-26,220 L2034.59922,220 C2034.59922,220 1965.39366,6.47882275 1965.39266,2.36282275 Z" id="Path_846" fill="#FFC400" fill-rule="nonzero"></path>
    </g>
</svg>