<?xml version="1.0" encoding="UTF-8"?>
<svg width="585px" height="315px" viewBox="0 0 585 315" version="1.1" xmlns="http://www.w3.org/2000/svg" xmlns:xlink="http://www.w3.org/1999/xlink">
    <!-- Generator: Sketch 51.1 (57501) - http://www.bohemiancoding.com/sketch -->
    <title>logo</title>
    <desc>Created with Sketch.</desc>
    <defs></defs>
    <g id="Page-1" stroke="none" stroke-width="1" fill="none" fill-rule="evenodd">
        <g id="logo" fill="#FFFFFF" fill-rule="nonzero">
            <path d="M576.94,190.428 C576.066,196.083 574.009,204.362 572.263,208.97 L576.701,208.492 C578.928,204.834 582.359,196.246 584.172,189.638 L576.94,190.428 Z M536.861,242.043 C539.729,243.957 545.376,245.541 550.546,245.541 C563.194,245.541 569.31,238.301 569.31,230.033 C569.31,222.157 564.695,217.782 555.644,214.288 C548.239,211.429 544.98,208.97 544.98,203.961 C544.98,200.302 547.763,195.921 555.076,195.921 C559.934,195.921 563.494,197.519 565.264,198.467 L567.168,192.825 C564.77,191.475 560.796,190.203 555.314,190.203 C544.9,190.203 537.985,196.397 537.985,204.749 C537.985,212.301 543.394,216.835 552.134,219.947 C559.372,222.727 562.229,225.587 562.229,230.594 C562.229,235.99 558.103,239.732 551.022,239.732 C546.25,239.732 541.72,238.139 538.608,236.241 L536.861,242.043 Z M512.922,244.656 L519.93,244.656 L519.93,196.957 L536.324,196.957 L536.324,191.075 L496.63,191.075 L496.63,196.957 L512.922,196.957 L512.922,244.656 Z M459.183,244.656 L459.183,221.768 C459.183,212.851 459.036,206.42 458.634,199.666 L458.883,199.58 C461.57,205.385 465.153,211.504 468.881,217.475 L485.905,244.656 L492.901,244.656 L492.901,191.075 L486.376,191.075 L486.376,213.501 C486.376,221.843 486.552,228.36 487.176,235.515 L487.022,235.604 C484.471,230.124 481.372,224.463 477.397,218.186 L460.22,191.076 L452.663,191.076 L452.663,244.657 L459.183,244.657 L459.183,244.656 Z M443.52,213.814 L422.693,213.814 L422.693,196.871 L444.723,196.871 L444.723,191.075 L415.778,191.075 L415.778,244.656 L445.907,244.656 L445.907,238.86 L422.693,238.86 L422.693,219.544 L443.52,219.544 L443.52,213.814 Z M371.964,196.871 C373.8,196.483 376.498,196.16 380.069,196.16 C394.701,196.16 401.861,204.186 401.793,216.835 C401.793,231.311 393.754,239.571 378.965,239.571 C376.26,239.571 373.715,239.501 371.964,239.175 L371.964,196.871 Z M365.054,244.506 C368.545,244.905 372.677,245.144 377.609,245.144 C388.023,245.144 396.288,242.434 401.317,237.435 C406.316,232.503 409.007,225.34 409.007,216.597 C409.007,207.922 406.236,201.727 401.469,197.347 C396.764,192.99 389.696,190.675 379.752,190.675 C374.277,190.675 369.266,191.153 365.054,191.786 L365.054,244.506 Z M315.765,191.075 L315.765,222.629 C315.765,239.264 324.023,245.541 334.993,245.541 C346.608,245.541 355.281,238.774 355.281,222.327 L355.281,191.075 L348.268,191.075 L348.268,222.803 C348.268,234.642 343.183,239.898 335.23,239.898 C328.083,239.898 322.753,234.804 322.753,222.803 L322.753,191.075 L315.765,191.075 Z M288.718,244.656 L295.719,244.656 L295.719,196.957 L312.09,196.957 L312.09,191.075 L272.414,191.075 L272.414,196.957 L288.718,196.957 L288.718,244.656 Z M238.866,242.043 C241.723,243.957 247.376,245.541 252.539,245.541 C265.186,245.541 271.309,238.301 271.309,230.033 C271.309,222.157 266.688,217.782 257.63,214.288 C250.232,211.429 246.972,208.97 246.972,203.961 C246.972,200.302 249.755,195.921 257.074,195.921 C261.927,195.921 265.498,197.519 267.249,198.467 L269.153,192.825 C266.766,191.475 262.799,190.203 257.305,190.203 C246.898,190.203 239.982,196.397 239.982,204.749 C239.982,212.301 245.378,216.835 254.125,219.947 C261.364,222.727 264.22,225.587 264.22,230.594 C264.22,235.99 260.088,239.732 253.02,239.732 C248.247,239.732 243.711,238.139 240.611,236.241 L238.866,242.043 Z" id="Shape"></path>
            <path d="M437.88,313.255 L437.88,300.045 C437.88,291.384 437.728,283.27 437.41,276.04 L437.641,276.04 C440.186,282.558 443.684,289.712 446.711,295.443 L455.775,313.255 L470.876,313.255 L470.876,259.655 L457.76,259.655 L457.76,272.29 C457.76,280.333 458.084,287.802 458.883,294.87 L458.634,294.87 C456.246,288.6 453.147,281.432 450.203,276.115 L441.701,259.655 L424.756,259.655 L424.756,313.255 L437.88,313.255 Z M392.881,270.158 C399.79,270.158 403.93,277.15 403.93,286.376 C403.93,295.992 399.87,302.756 392.955,302.756 C386.039,302.756 381.657,296.554 381.657,286.528 C381.657,276.677 386.039,270.158 392.881,270.158 Z M393.113,258.783 C376.736,258.783 366.481,271.186 366.481,286.774 C366.481,301.638 375.607,314.122 392.229,314.122 C408.788,314.122 419.116,303.146 419.116,285.893 C419.116,271.583 410.375,258.783 393.113,258.783 Z M346.442,313.255 L360.823,313.255 L360.823,259.655 L346.442,259.655 L346.442,313.255 Z M305.484,313.255 L305.484,300.045 C305.484,291.384 305.338,283.27 305.008,276.04 L305.246,276.04 C307.791,282.558 311.302,289.712 314.31,295.443 L323.374,313.255 L338.487,313.255 L338.487,259.655 L325.363,259.655 L325.363,272.29 C325.363,280.333 325.686,287.802 326.481,294.87 L326.249,294.87 C323.861,288.6 320.768,281.432 317.819,276.115 L309.304,259.655 L292.365,259.655 L292.365,313.255 L305.484,313.255 Z M238.866,259.655 L238.866,288.84 C238.866,306.095 246.582,314.122 261.28,314.122 C276.32,314.122 284.585,305.771 284.585,289.235 L284.585,259.655 L270.191,259.655 L270.191,290.035 C270.191,298.532 267.407,302.756 261.682,302.756 C256.036,302.756 253.253,298.142 253.253,290.035 L253.253,259.655 L238.866,259.655 Z" id="Shape"></path>
            <path d="M0.538,0.874 C0.538,0.874 -4.87,103.988 35.623,162.024 C76.111,220.051 141.441,230.41 222.422,234.102 L222.685,128.733 C222.685,128.733 219.713,56.48 128.214,21.114 C128.214,21.114 84.211,0.874 0.538,0.874" id="Shape"></path>
            <path d="M345.521,64.575 C345.521,64.575 348.059,112.908 329.077,140.116 C310.106,167.313 279.476,172.172 241.516,173.906 L241.393,124.5 C241.393,124.5 242.785,90.65 285.677,74.072 C285.678,74.071 306.309,64.575 345.521,64.575" id="Shape"></path>
        </g>
    </g>
</svg>