<svg xmlns="http://www.w3.org/2000/svg" xmlns:xlink="http://www.w3.org/1999/xlink" width="772" height="823" viewBox="0 0 772 823">
  <defs>
    <polygon id="vote-ge-banner-a" points="139.551 47.396 396.455 47.396 396.865 405.277 261.073 460.143 65.235 460.143 65.235 124.602"/>
  </defs>
  <g fill="none" fill-rule="evenodd">
    <g transform="translate(139)">
      <g transform="translate(13 201)">
        <polygon fill="#27428C" points="44.261 436 428.739 436 468 471 5 471"/>
        <use fill="#FFF" transform="rotate(22 231.05 253.77)" xlink:href="#vote-ge-banner-a"/>
        <path fill="#778A8D" d="M144.702,81.038 C160.794,84.515 177.991,93.947 195.247,98.974 C204.776,81.057 211.675,60.503 219.706,41.09 C217.821,64.206 210.54,88.991 206.661,112.835 C185.646,102.597 165.841,91.149 144.702,81.038 Z"/>
        <path fill="#B0BFC1" d="M137.362,76.146 C156.954,83.46 175.567,91.75 196.063,98.159 C203.555,76.846 213.206,57.689 220.522,36.199 C221.844,35.644 222.989,30.32 222.965,35.383 C217.047,60.988 213.404,88.87 206.66,113.65 C204.273,113.862 204.154,111.807 201.769,112.022 C199.029,108.782 193.996,107.835 190.355,105.498 C187.793,104.529 186.041,102.746 183.019,102.237 C179.738,98.721 174.154,97.512 169.972,94.899 C167.931,94.222 166.771,92.666 164.265,92.454 C160.447,88.663 154.312,87.188 149.591,84.301 C148.038,83.952 147.542,82.544 145.513,82.671 C142.945,78.99 136.671,79.013 134.101,75.333 C135.644,75.148 135.901,76.25 137.362,76.146 Z M206.661,112.835 C210.54,88.991 217.821,64.206 219.706,41.09 C211.675,60.503 204.776,81.057 195.247,98.974 C177.991,93.948 160.794,84.515 144.702,81.038 C165.841,91.149 185.646,102.597 206.661,112.835 Z"/>
        <path fill="#27428C" d="M221.073,169.536 C224.96,192.284 230.011,213.863 233.303,237.204 C252.383,227.199 271.723,210.411 290.371,197.256 C305.318,203.235 320.264,209.212 335.211,215.191 C305.012,238.257 272.029,258.542 242.27,282.046 C249.842,322.029 258.282,361.151 265.913,401.075 C249.452,396.609 236.136,389.004 220.259,383.956 C216.027,358.293 211.111,333.315 206.398,308.134 C184.441,322.048 164.144,337.624 143.623,352.975 C128.391,347.011 113.305,340.898 97.967,335.038 C129.809,310.082 164.789,288.265 197.432,264.107 C190.985,225.987 182.994,189.405 175.418,152.416 C190.149,155.37 206.138,164.072 221.073,169.536 Z"/>
      </g>
      <rect width="338.068" height="72.543" x="77.532" y="83.058" fill="#27428C"/>
      <rect width="493.096" height="72.543" x=".019" fill="#27428C"/>
      <g fill="#FFF" fill-rule="nonzero" transform="translate(18 13)">
        <polygon points="22.935 25.127 22.935 39.58 15.208 39.58 15.208 25.127 .478 .669 9.372 .669 17.71 14.232 19.044 16.844 20.435 14.232 28.773 .669 37.668 .669"/>
        <path d="M64.609 25.461C64.609 34.189 58.273 40.191 49.767 40.191 41.318 40.191 35.037 34.188 35.037 25.461 35.037 16.734 41.318 10.785 49.767 10.785 58.273 10.785 64.609 16.733 64.609 25.461zM42.486 25.461C42.486 30.074 45.487 33.576 49.823 33.576 54.215 33.576 57.105 30.074 57.105 25.461 57.105 20.791 54.214 17.345 49.823 17.345 45.487 17.345 42.486 20.791 42.486 25.461zM92.893 39.58L86.723 39.58 86.166 35.911C84.888 38.357 82.387 40.191 78.718 40.191 72.658 40.191 69.656 36.078 69.656 29.685L69.656 11.397 76.883 11.397 76.883 28.073C76.883 31.408 78.217 33.187 80.886 33.187 83.498 33.187 85.722 31.075 85.722 26.516L85.722 11.397 92.893 11.397 92.893 39.58zM115.162 18.346C112.938 18.346 111.215 18.735 109.547 20.013 108.213 21.07 107.379 22.682 107.269 25.239L107.269 39.58 100.042 39.58 100.042 11.397 106.268 11.397 106.936 15.899C107.88 13.398 110.381 11.119 115.163 11.119L115.163 18.346 115.162 18.346z"/>
        <polygon points="146.68 39.58 139.342 39.58 129.17 11.397 136.951 11.397 142.455 28.684 143.011 31.13 143.567 28.684 149.071 11.397 156.909 11.397"/>
        <path d="M187.414 25.461C187.414 34.189 181.078 40.191 172.572 40.191 164.123 40.191 157.842 34.188 157.842 25.461 157.842 16.734 164.123 10.785 172.572 10.785 181.078 10.785 187.414 16.733 187.414 25.461zM165.291 25.461C165.291 30.074 168.292 33.576 172.628 33.576 177.02 33.576 179.91 30.074 179.91 25.461 179.91 20.791 177.019 17.345 172.628 17.345 168.292 17.345 165.291 20.791 165.291 25.461zM201.562 11.397L208.009 11.397 208.009 17.956 201.505 17.956 201.395 29.352C201.395 32.243 202.285 33.411 205.064 33.411 206.453 33.411 207.232 33.244 208.009 33.021L208.009 39.358C207.12 39.692 205.675 39.969 203.451 39.969 197.28 39.969 194.112 37.468 194.168 31.075L194.279 17.956 189.665 17.956 189.665 11.397 194.279 11.397 194.335 4.559 201.616 4.559 201.562 11.397zM238.139 25.461L238.139 27.685 218.516 27.685C218.739 31.409 221.352 34.022 225.298 34.022 228.077 34.022 230.19 32.854 230.968 30.742L237.972 30.742C236.248 36.69 231.912 40.192 225.076 40.192 216.738 40.192 211.068 34.411 211.068 25.517 211.068 17.012 216.682 10.786 225.076 10.786 232.524 10.785 238.139 15.455 238.139 25.461zM218.572 22.682L230.856 22.682C230.8 19.124 228.466 16.789 224.908 16.789 221.295 16.789 218.905 19.235 218.572 22.682zM295.616 21.292L295.616 39.58 288.389 39.58 288.389 22.849C288.389 19.569 287.111 17.79 284.443 17.79 281.775 17.79 279.607 19.902 279.496 24.349L279.496 39.58 272.269 39.58 272.269 22.849C272.269 19.569 270.935 17.79 268.323 17.79 265.543 17.79 263.376 20.013 263.376 24.683L263.376 39.58 256.205 39.58 256.205 11.397 262.375 11.397 262.931 15.065C264.209 12.675 266.767 10.785 270.436 10.785 274.438 10.785 277.162 12.62 278.496 15.733 279.83 13.064 282.61 10.785 286.612 10.785 292.614 10.785 295.616 14.899 295.616 21.292zM324.289 21.069L324.289 39.58 318.119 39.58 317.675 36.134C316.174 38.413 313.616 40.192 309.614 40.192 304.611 40.192 301.053 37.134 301.053 32.077 301.053 26.573 304.778 24.461 309.781 23.627L317.062 22.293 317.062 21.237C317.062 18.458 315.672 16.957 313.116 16.957 310.725 16.957 308.891 18.402 308.891 20.682L301.887 20.682C302.22 14.956 306.445 10.786 313.116 10.786 319.787 10.786 324.289 14.177 324.289 21.069zM311.448 28.296C309.558 28.74 308.28 29.574 308.28 31.464 308.28 33.132 309.447 34.243 311.559 34.243 313.338 34.243 315.061 33.354 316.062 31.686 316.673 30.741 317.062 29.351 317.062 27.961L317.062 27.127 311.448 28.296zM339.771 11.397L346.219 11.397 346.219 17.956 339.715 17.956 339.604 29.352C339.604 32.243 340.494 33.411 343.273 33.411 344.663 33.411 345.441 33.244 346.219 33.021L346.219 39.358C345.329 39.692 343.884 39.969 341.66 39.969 335.49 39.969 332.322 37.468 332.377 31.075L332.488 17.956 327.875 17.956 327.875 11.397 332.488 11.397 332.544 4.559 339.826 4.559 339.771 11.397zM361.167 11.397L367.615 11.397 367.615 17.956 361.111 17.956 361 29.352C361 32.243 361.89 33.411 364.669 33.411 366.059 33.411 366.837 33.244 367.615 33.021L367.615 39.358C366.725 39.692 365.28 39.969 363.056 39.969 356.886 39.969 353.718 37.468 353.773 31.075L353.884 17.956 349.271 17.956 349.271 11.397 353.884 11.397 353.94 4.559 361.222 4.559 361.167 11.397zM397.744 25.461L397.744 27.685 378.122 27.685C378.345 31.409 380.957 34.022 384.903 34.022 387.683 34.022 389.796 32.854 390.573 30.742L397.578 30.742C395.854 36.69 391.518 40.192 384.682 40.192 376.343 40.192 370.673 34.411 370.673 25.517 370.673 17.012 376.288 10.786 384.682 10.786 392.13 10.785 397.744 15.455 397.744 25.461zM378.178 22.682L390.463 22.682C390.407 19.124 388.072 16.789 384.515 16.789 380.901 16.789 378.511 19.235 378.178 22.682zM418.651 18.346C416.427 18.346 414.705 18.735 413.037 20.013 411.703 21.07 410.869 22.682 410.758 25.239L410.758 39.58 403.531 39.58 403.531 11.397 409.758 11.397 410.425 15.899C411.369 13.398 413.871 11.119 418.652 11.119L418.652 18.346 418.651 18.346zM442.955 19.68L435.784 19.68C435.728 17.623 434.727 16.456 432.559 16.456 430.502 16.456 429.446 17.623 429.446 19.235 429.446 20.958 430.447 21.792 434.394 22.459 441.231 23.626 443.566 26.406 443.566 31.02 443.566 37.413 438.507 40.192 432.67 40.192 425.722 40.192 421.83 36.579 421.663 31.02L428.778 31.02C428.834 33.299 430.39 34.466 432.837 34.466 435.061 34.466 436.339 33.466 436.339 31.798 436.339 30.074 435.449 29.074 431.225 28.296 425.055 27.239 422.22 24.571 422.22 19.958 422.22 15.065 425.666 10.785 432.615 10.785 438.563 10.785 442.732 14.343 442.955 19.68zM456.656 35.8C456.656 38.302 454.655 40.192 452.209 40.192 449.708 40.192 447.763 38.302 447.763 35.8 447.763 33.299 449.708 31.464 452.209 31.464 454.655 31.464 456.656 33.299 456.656 35.8zM111.409 103.507C111.409 115.014 103.571 122.963 91.287 122.963L76.723 122.963 76.723 84.052 91.287 84.052C103.571 84.052 111.409 92.001 111.409 103.507zM84.338 91.167L84.338 115.848 91.287 115.848C99.014 115.848 103.461 111.345 103.461 103.507 103.461 95.725 99.068 91.167 91.287 91.167L84.338 91.167 84.338 91.167zM145.002 108.844C145.002 117.572 138.664 123.574 130.159 123.574 121.71 123.574 115.429 117.571 115.429 108.844 115.429 100.117 121.71 94.168 130.159 94.168 138.664 94.168 145.002 100.116 145.002 108.844zM122.877 108.844C122.877 113.457 125.879 116.959 130.215 116.959 134.607 116.959 137.497 113.457 137.497 108.844 137.497 104.174 134.606 100.728 130.215 100.728 125.879 100.728 122.877 104.174 122.877 108.844zM173.796 104.675L173.796 122.963 166.514 122.963 166.514 106.232C166.514 102.952 165.125 101.173 162.512 101.173 159.733 101.173 157.509 103.396 157.509 108.066L157.509 122.963 150.338 122.963 150.338 94.78 156.508 94.78 157.065 98.448C158.343 96.058 160.901 94.168 164.68 94.168 170.684 94.168 173.796 98.282 173.796 104.675zM185.547 86.72C185.547 90.445 183.49 94.558 180.934 97.393L178.877 96.67C179.822 94.725 180.322 92.724 180.6 90.333 178.489 90.055 176.875 88.443 176.875 86.275 176.875 83.884 178.821 81.995 181.211 81.995 183.657 81.995 185.547 83.829 185.547 86.72zM200.15 94.78L206.598 94.78 206.598 101.339 200.094 101.339 199.984 112.735C199.984 115.626 200.873 116.794 203.652 116.794 205.042 116.794 205.82 116.627 206.598 116.404L206.598 122.741C205.708 123.075 204.263 123.352 202.04 123.352 195.869 123.352 192.7 120.851 192.757 114.458L192.868 101.339 188.254 101.339 188.254 94.78 192.868 94.78 192.923 87.942 200.205 87.942 200.15 94.78z"/>
        <polygon points="231.669 122.963 224.442 122.963 224.442 82.384 231.669 82.384"/>
        <path d="M266.583 108.844C266.583 117.572 260.246 123.574 251.74 123.574 243.291 123.574 237.01 117.571 237.01 108.844 237.01 100.117 243.291 94.168 251.74 94.168 260.246 94.168 266.583 100.116 266.583 108.844zM244.459 108.844C244.459 113.457 247.461 116.959 251.797 116.959 256.188 116.959 259.078 113.457 259.078 108.844 259.078 104.174 256.187 100.728 251.797 100.728 247.461 100.728 244.459 104.174 244.459 108.844zM291.275 103.062L284.105 103.062C284.049 101.005 283.048 99.838 280.88 99.838 278.823 99.838 277.767 101.005 277.767 102.617 277.767 104.34 278.768 105.174 282.715 105.841 289.552 107.008 291.887 109.788 291.887 114.402 291.887 120.795 286.828 123.574 280.991 123.574 274.043 123.574 270.151 119.961 269.984 114.402L277.099 114.402C277.155 116.681 278.711 117.848 281.158 117.848 283.382 117.848 284.66 116.848 284.66 115.18 284.66 113.456 283.77 112.456 279.546 111.678 273.376 110.621 270.541 107.953 270.541 103.34 270.541 98.447 273.987 94.167 280.936 94.167 286.885 94.168 291.054 97.726 291.275 103.062zM322.477 108.844L322.477 111.068 302.855 111.068C303.078 114.792 305.69 117.405 309.636 117.405 312.416 117.405 314.529 116.237 315.306 114.125L322.311 114.125C320.587 120.073 316.251 123.575 309.415 123.575 301.076 123.575 295.406 117.794 295.406 108.9 295.406 100.395 301.021 94.169 309.415 94.169 316.862 94.168 322.477 98.838 322.477 108.844zM302.91 106.064L315.195 106.064C315.139 102.506 312.804 100.171 309.247 100.171 305.634 100.172 303.243 102.618 302.91 106.064zM348.603 86.497C348.603 88.943 346.602 90.777 344.211 90.777 341.766 90.777 339.82 88.943 339.82 86.497 339.82 84.107 341.765 82.217 344.211 82.217 346.602 82.217 348.603 84.107 348.603 86.497zM347.824 122.963L340.598 122.963 340.598 94.78 347.824 94.78 347.824 122.963zM363.673 94.78L370.121 94.78 370.121 101.339 363.617 101.339 363.506 112.735C363.506 115.626 364.396 116.794 367.175 116.794 368.565 116.794 369.343 116.627 370.121 116.404L370.121 122.741C369.231 123.075 367.786 123.352 365.562 123.352 359.392 123.352 356.224 120.851 356.279 114.458L356.39 101.339 351.777 101.339 351.777 94.78 356.39 94.78 356.446 87.942 363.728 87.942 363.673 94.78zM383.857 119.183C383.857 121.685 381.856 123.575 379.41 123.575 376.909 123.575 374.964 121.685 374.964 119.183 374.964 116.682 376.909 114.847 379.41 114.847 381.856 114.847 383.857 116.682 383.857 119.183z"/>
      </g>
    </g>
    <rect width="771.939" height="72.543" y="750" fill="#27428C"/>
    <g fill="#FFF" fill-rule="nonzero" transform="translate(23 760)">
      <path d="M26.625 15.107C26.625 19.979 24.105 23.787 19.793 25.747L28.305 41.819 19.513 41.819 11.897 27.147 8.425 27.147 8.425 41.819.753 41.819.753 2.619 12.85 2.619C21.25 2.619 26.625 7.659 26.625 15.107zM8.426 9.787L8.426 20.315 12.85 20.315C16.434 20.315 18.73 18.579 18.73 15.107 18.73 11.579 16.434 9.787 12.85 9.787L8.426 9.787zM57.812 27.596L57.812 29.835 38.044 29.835C38.268 33.587 40.9 36.22 44.876 36.22 47.676 36.22 49.804 35.043 50.588 32.915L57.644 32.915C55.908 38.907 51.54 42.436 44.652 42.436 36.252 42.436 30.54 36.612 30.54 27.652 30.54 19.084 36.196 12.812 44.652 12.812 52.156 12.812 57.812 17.516 57.812 27.596zM38.1 24.795L50.475 24.795C50.419 21.211 48.067 18.859 44.483 18.859 40.844 18.859 38.436 21.323 38.1 24.795zM88.886 19.588L84.686 19.588C85.022 20.596 85.246 21.716 85.246 22.892 85.246 28.604 80.598 32.747 74.046 32.747 72.31 32.747 70.742 32.523 69.342 32.019 68.95 32.523 68.67 33.195 68.67 34.091 68.67 35.546 69.734 36.443 71.526 36.443L78.19 36.443C84.014 36.443 87.486 39.243 87.486 44.619 87.486 51.003 82.502 54.475 74.942 54.475 66.486 54.475 62.062 51.338 62.062 45.739 62.062 43.275 63.518 41.651 64.918 40.755 63.182 39.579 61.614 37.396 61.614 34.651 61.614 31.963 62.846 30.059 64.526 28.659 63.294 27.092 62.566 25.132 62.566 22.891 62.566 17.011 67.382 12.811 74.046 12.811 75.502 12.811 76.902 13.035 78.134 13.427L88.886 13.427 88.886 19.588zM72.086 41.932C70.462 42.156 69.174 43.276 69.174 45.18 69.174 47.755 71.47 49.043 74.998 49.043 78.302 49.043 80.374 47.699 80.374 45.067 80.374 42.939 78.806 41.931 76.342 41.931L72.086 41.931 72.086 41.932zM69.734 22.892C69.734 25.524 71.47 27.371 73.99 27.371 76.51 27.371 78.19 25.523 78.19 22.892 78.19 20.148 76.51 18.3 73.99 18.3 71.414 18.3 69.734 20.147 69.734 22.892zM100.427 5.084C100.427 7.548 98.411 9.396 96.003 9.396 93.539 9.396 91.579 7.548 91.579 5.084 91.579 2.676 93.539.772 96.003.772 98.411.771 100.427 2.676 100.427 5.084zM99.643 41.819L92.363 41.819 92.363 13.427 99.643 13.427 99.643 41.819zM126.259 21.771L119.035 21.771C118.979 19.699 117.971 18.523 115.787 18.523 113.715 18.523 112.651 19.699 112.651 21.323 112.651 23.059 113.659 23.899 117.635 24.571 124.523 25.747 126.875 28.548 126.875 33.195 126.875 39.635 121.779 42.435 115.899 42.435 108.899 42.435 104.979 38.794 104.811 33.195L111.979 33.195C112.035 35.491 113.603 36.667 116.067 36.667 118.307 36.667 119.595 35.659 119.595 33.979 119.595 32.243 118.699 31.235 114.443 30.451 108.227 29.388 105.371 26.699 105.371 22.052 105.371 17.123 108.843 12.812 115.843 12.812 121.835 12.812 126.035 16.396 126.259 21.771zM141.323 13.428L147.819 13.428 147.819 20.035 141.267 20.035 141.155 31.515C141.155 34.427 142.051 35.603 144.851 35.603 146.251 35.603 147.035 35.435 147.819 35.21L147.819 41.595C146.923 41.931 145.467 42.21 143.227 42.21 137.011 42.21 133.819 39.69 133.875 33.25L133.987 20.034 129.339 20.034 129.339 13.427 133.987 13.427 134.043 6.538 141.379 6.538 141.323 13.428zM177.941 27.596L177.941 29.835 158.173 29.835C158.397 33.587 161.029 36.22 165.005 36.22 167.805 36.22 169.933 35.043 170.717 32.915L177.773 32.915C176.037 38.907 171.669 42.436 164.781 42.436 156.381 42.436 150.669 36.612 150.669 27.652 150.669 19.084 156.325 12.812 164.781 12.812 172.285 12.812 177.941 17.516 177.941 27.596zM158.229 24.795L170.604 24.795C170.548 21.211 168.196 18.859 164.612 18.859 160.973 18.859 158.565 21.323 158.229 24.795zM198.778 20.428C196.538 20.428 194.802 20.82 193.122 22.108 191.778 23.172 190.938 24.796 190.826 27.372L190.826 41.82 183.546 41.82 183.546 13.428 189.818 13.428 190.49 17.964C191.442 15.443 193.962 13.148 198.778 13.148L198.778 20.428zM224.76 13.428L231.256 13.428 231.256 20.035 224.704 20.035 224.592 31.515C224.592 34.427 225.488 35.603 228.288 35.603 229.688 35.603 230.472 35.435 231.256 35.21L231.256 41.595C230.36 41.931 228.904 42.21 226.664 42.21 220.448 42.21 217.256 39.69 217.312 33.25L217.424 20.034 212.776 20.034 212.776 13.427 217.424 13.427 217.48 6.538 224.816 6.538 224.76 13.428zM263.736 27.596C263.736 36.388 257.352 42.436 248.784 42.436 240.272 42.436 233.944 36.388 233.944 27.596 233.944 18.804 240.272 12.812 248.784 12.812 257.352 12.812 263.736 18.804 263.736 27.596zM241.448 27.596C241.448 32.243 244.472 35.772 248.84 35.772 253.264 35.772 256.176 32.244 256.176 27.596 256.176 22.892 253.264 19.42 248.84 19.42 244.472 19.42 241.448 22.892 241.448 27.596z"/>
      <polygon points="295.431 41.819 288.039 41.819 277.791 13.427 285.631 13.427 291.175 30.843 291.735 33.307 292.295 30.843 297.839 13.427 305.735 13.427"/>
      <path d="M336.243 27.596C336.243 36.388 329.859 42.436 321.291 42.436 312.779 42.436 306.451 36.388 306.451 27.596 306.451 18.804 312.779 12.812 321.291 12.812 329.859 12.812 336.243 18.804 336.243 27.596zM313.955 27.596C313.955 32.243 316.979 35.772 321.347 35.772 325.771 35.772 328.683 32.244 328.683 27.596 328.683 22.892 325.771 19.42 321.347 19.42 316.979 19.42 313.955 22.892 313.955 27.596zM350.27 13.428L356.766 13.428 356.766 20.035 350.214 20.035 350.102 31.515C350.102 34.427 350.998 35.603 353.798 35.603 355.197 35.603 355.982 35.435 356.766 35.21L356.766 41.595C355.87 41.931 354.414 42.21 352.174 42.21 345.958 42.21 342.766 39.69 342.822 33.25L342.934 20.034 338.286 20.034 338.286 13.427 342.934 13.427 342.99 6.538 350.326 6.538 350.27 13.428zM386.888 27.596L386.888 29.835 367.12 29.835C367.345 33.587 369.976 36.22 373.952 36.22 376.753 36.22 378.881 35.043 379.664 32.915L386.721 32.915C384.985 38.907 380.617 42.436 373.729 42.436 365.329 42.436 359.617 36.612 359.617 27.652 359.617 19.084 365.273 12.812 373.729 12.812 381.232 12.812 386.888 17.516 386.888 27.596zM367.176 24.795L379.552 24.795C379.495 21.211 377.144 18.859 373.56 18.859 369.92 18.859 367.512 21.323 367.176 24.795zM411.863 16.508C413.375 14.491 416.343 12.812 420.431 12.812 428.046 12.812 433.647 19.251 433.647 27.596 433.647 35.94 428.046 42.436 420.431 42.436 415.615 42.436 412.983 40.308 411.414 38.012L410.854 41.82 404.638 41.82 404.638.94 411.862.94 411.862 16.508 411.863 16.508zM411.75 27.428L411.75 27.764C411.75 32.86 415.334 35.604 418.918 35.604 422.95 35.604 426.086 32.468 426.086 27.596 426.086 22.78 422.895 19.644 418.918 19.644 415.391 19.644 411.807 22.388 411.75 27.428z"/>
      <polygon points="447.782 53.859 440.222 53.859 444.534 41.483 434.454 13.427 442.294 13.427 447.838 30.843 448.399 33.307 448.959 30.843 454.503 13.427 462.399 13.427"/>
      <polygon points="520.749 41.819 513.02 41.819 513.02 17.011 511.901 20.427 502.997 41.819 496.5 41.819 487.596 20.427 486.476 17.011 486.476 41.819 478.804 41.819 478.804 2.619 487.653 2.619 498.852 27.875 499.693 30.172 500.589 27.875 511.845 2.619 520.749 2.619 520.749 41.819"/>
      <path d="M550.22,23.172 L550.22,41.819 L544.004,41.819 L543.557,38.347 C542.044,40.643 539.468,42.435 535.437,42.435 C530.397,42.435 526.813,39.355 526.813,34.259 C526.813,28.715 530.565,26.587 535.605,25.746 L542.941,24.402 L542.941,23.339 C542.941,20.538 541.541,19.027 538.964,19.027 C536.557,19.027 534.708,20.483 534.708,22.779 L527.652,22.779 C527.988,17.011 532.244,12.811 538.964,12.811 C545.685,12.812 550.22,16.228 550.22,23.172 Z M537.285,30.451 C535.381,30.899 534.093,31.739 534.093,33.643 C534.093,35.323 535.27,36.443 537.398,36.443 C539.19,36.443 540.925,35.547 541.934,33.867 C542.549,32.915 542.942,31.515 542.942,30.115 L542.942,29.275 L537.285,30.451 Z"/>
      <polygon points="565.923 53.859 558.362 53.859 562.674 41.483 552.594 13.427 560.434 13.427 565.978 30.843 566.539 33.307 567.099 30.843 572.643 13.427 580.539 13.427"/>
      <path d="M618.955 13.26C618.955 18.02 616.77 21.38 614.083 24.627L605.906 34.651 619.066 34.651 619.066 41.819 595.21 41.819 595.21 36.219 607.25 21.883C609.825 18.859 611.17 16.786 611.17 13.651 611.17 10.796 609.882 9.059 607.138 9.059 604.45 9.059 602.658 10.739 602.714 14.547L594.985 14.547C594.874 6.818 599.857 1.891 607.25 1.891 614.978 1.892 618.955 6.483 618.955 13.26zM647.123 13.26C647.123 18.02 644.938 21.38 642.251 24.627L634.074 34.651 647.234 34.651 647.234 41.819 623.379 41.819 623.379 36.219 635.419 21.883C637.994 18.859 639.339 16.786 639.339 13.651 639.339 10.796 638.051 9.059 635.307 9.059 632.619 9.059 630.827 10.739 630.883 14.547L623.154 14.547C623.043 6.818 628.026 1.891 635.419 1.891 643.146 1.892 647.123 6.483 647.123 13.26zM676.612 23.396L676.612 41.82 669.276 41.82 669.276 24.965C669.276 21.66 667.876 19.868 665.244 19.868 662.444 19.868 660.204 22.108 660.204 26.812L660.204 41.82 652.98 41.82 652.98 13.428 659.196 13.428 659.756 17.123C661.044 14.716 663.62 12.811 667.428 12.811 673.476 12.812 676.612 16.955 676.612 23.396zM710.53 41.819L704.259 41.819 703.698 38.011C702.131 40.307 699.554 42.435 694.682 42.435 687.066 42.435 681.522 35.939 681.522 27.595 681.522 19.25 687.066 12.811 694.738 12.811 698.77 12.811 701.738 14.491 703.251 16.507L703.251.939 710.53.939 710.53 41.819 710.53 41.819zM689.026 27.596C689.026 32.468 692.163 35.604 696.194 35.604 699.778 35.604 703.362 32.86 703.362 27.764L703.362 27.428C703.306 22.388 699.722 19.644 696.194 19.644 692.218 19.644 689.026 22.779 689.026 27.596zM725.185 38.012C725.185 40.532 723.168 42.436 720.705 42.436 718.185 42.436 716.226 40.532 716.226 38.012 716.226 35.491 718.186 33.644 720.705 33.644 723.168 33.644 725.185 35.491 725.185 38.012z"/>
    </g>
  </g>
</svg>
