<?xml version="1.0" encoding="UTF-8"?>
<svg width="48px" height="48px" viewBox="0 0 48 48" version="1.1" xmlns="http://www.w3.org/2000/svg" xmlns:xlink="http://www.w3.org/1999/xlink">
    <!-- Generator: Sketch 50.2 (55047) - http://www.bohemiancoding.com/sketch -->
    <title>Community</title>
    <desc>Created with Sketch.</desc>
    <defs></defs>
    <g id="Community" stroke="none" stroke-width="1" fill="none" fill-rule="evenodd">
        <g id="np_social_1394903_000000-copy" fill="currentcolor" fill-rule="nonzero">
            <path d="M11.3931429,38.1382857 C10.8485029,38.2342686 10.2882286,38.2856057 9.71457143,38.2856057 C4.45565714,38.2856057 0.19,34.0222343 0.19,28.7610343 C0.19,23.8458343 3.91542857,19.7987486 8.69685714,19.2924629 C10.9535429,13.6652057 15.8174286,9.36617714 21.7951429,7.88846286 C22.6456,3.50229143 26.5072,0.189605714 31.1431429,0.189605714 C36.4020571,0.189605714 40.6677143,4.45520571 40.6677143,9.71417714 C40.6677143,10.9106343 40.4467314,12.0534914 40.0449714,13.1092629 C43.3775429,16.5400629 45.4289143,21.2206914 45.4289143,26.3818343 C45.4289143,28.0894343 45.2034686,29.7456629 44.7816,31.3215486 C46.6454286,33.0604057 47.8106286,35.5358343 47.8106286,38.28612 C47.8106286,43.5450343 43.5450286,47.8106914 38.2860571,47.8106914 C35.5360571,47.8106914 33.0606286,46.6454914 31.3214857,44.7816629 C29.7456,45.2035371 28.0893714,45.4289771 26.3817714,45.4289771 C20.2989143,45.4289771 14.8817714,42.57852 11.3932,38.1386914 L11.3931429,38.1382857 Z M15.8574286,36.0400571 C18.4668,38.8838286 22.2168571,40.6673143 26.382,40.6673143 C27.2770857,40.6673143 28.1543429,40.5847257 29.0047429,40.42624 C28.8462629,39.7387543 28.76144,39.02224 28.76144,38.2856114 C28.76144,33.0266971 33.02704,28.76104 38.2860114,28.76104 C39.02264,28.76104 39.7391543,28.8458629 40.42664,29.0043429 C40.58512,28.1538857 40.6677143,27.2766857 40.6677143,26.3816 C40.6677143,22.8190857 39.3641714,19.5598857 37.2056571,17.0581714 C35.5605714,18.4197714 33.4467429,19.2389714 31.1433714,19.2389714 C26.9424571,19.2389714 23.3776571,16.518 22.1119429,12.7435429 C18.3686286,13.9154286 15.2862286,16.5850857 13.5719429,20.0515429 C16.9089714,21.5314286 19.2393714,24.8752 19.2393714,28.7612571 C19.2393714,31.6809143 17.9246286,34.2947429 15.8576571,36.0401143 L15.8574286,36.0400571 Z M31.1431429,14.4754857 C33.7726286,14.4754857 35.9042857,12.3437714 35.9042857,9.71434286 C35.9042857,7.08491429 33.7725714,4.9532 31.1431429,4.9532 C28.5137143,4.9532 26.382,7.08491429 26.382,9.71434286 C26.382,12.3437714 28.5137143,14.4754857 31.1431429,14.4754857 Z M38.286,43.0469143 C40.9154857,43.0469143 43.0471429,40.9152 43.0471429,38.2857714 C43.0471429,35.6563429 40.9154286,33.5246286 38.286,33.5246286 C35.6565714,33.5246286 33.5248571,35.6563429 33.5248571,38.2857714 C33.5248571,40.9152 35.6565714,43.0469143 38.286,43.0469143 Z M9.71457143,33.5246286 C12.3440571,33.5246286 14.4757143,31.3929143 14.4757143,28.7612571 C14.4757143,26.1317714 12.344,24.0001143 9.71457143,24.0001143 C7.08514286,24.0001143 4.95342857,26.1318286 4.95342857,28.7612571 C4.95342857,31.3929714 7.08514286,33.5246286 9.71457143,33.5246286 Z" id="Shape"></path>
        </g>
    </g>
</svg>
