<?xml version="1.0" encoding="UTF-8"?>
<svg width="48px" height="48px" viewBox="0 0 48 48" version="1.1" xmlns="http://www.w3.org/2000/svg" xmlns:xlink="http://www.w3.org/1999/xlink">
    <!-- Generator: Sketch 50.2 (55047) - http://www.bohemiancoding.com/sketch -->
    <title>Fundraising</title>
    <desc>Created with Sketch.</desc>
    <defs></defs>
    <g id="Fundraising" stroke="none" stroke-width="1" fill="none" fill-rule="evenodd">
        <g id="np_charity_221473_000000" transform="translate(1.000000, 0.000000)" fill="currentcolor" fill-rule="nonzero">
            <path d="M29.8982169,14.688 C29.7830053,14.8032116 29.6677937,14.8619451 29.4938487,14.8619451 L29.6090602,13.7053186 C29.7830053,13.764052 29.8982169,13.8792636 29.9569504,13.9357417 C30.0156839,13.9944752 30.0721619,14.1661648 30.0721619,14.2836318 C30.0721619,14.4575769 30.0134284,14.5727884 29.8982169,14.688 Z" id="Shape"></path>
            <path d="M29.030747,11.7964337 C29.0894805,11.6812222 29.204692,11.6224887 29.3199036,11.6224887 L29.2611701,12.6639152 C29.1459586,12.6051817 29.030747,12.4899701 28.9720135,12.433492 C28.9155377,12.3182805 28.9155377,12.2030689 28.9155377,12.0856019 C28.9155377,11.9703904 28.9742712,11.8551788 29.0307493,11.7964453 L29.030747,11.7964337 Z" id="Shape"></path>
            <path d="M26.6024096,10.1204819 C27.1807229,9.65738024 27.9329928,9.31176867 28.6852627,9.19425542 C28.8592077,9.13552193 29.0896308,9.13552193 29.3223325,9.13552193 L29.6702227,9.13552193 C29.7854342,9.13552193 29.9006458,9.13552193 30.0181128,9.19425542 C30.1333243,9.19425542 30.2485359,9.25298892 30.3660029,9.25298892 C31.8705427,9.60087904 33.0271692,10.7575287 33.4315258,12.2033118 C33.5467373,12.6664135 33.6054708,13.1859817 33.6054708,13.7078516 C33.4315258,16.0211046 31.3509745,17.814801 29.0377214,17.5820877 C27.8810949,17.4668761 26.8984251,16.9450178 26.1461552,16.077548 L26.0874217,16.0188145 C26.9548916,15.4992347 27.5919614,14.631788 27.8223614,13.6468048 C27.8810949,13.5315933 27.8810949,13.4163817 27.8810949,13.2989147 C27.8810949,13.1249696 27.9398284,12.9510246 27.9398284,12.7793349 C27.817839,11.7966651 27.3547489,10.8139952 26.602479,10.1204241 L26.6024096,10.1204819 Z M28.396106,12.9532916 C28.5700511,13.1837147 28.8592077,13.4163933 29.2048193,13.5316048 L29.0896077,14.8034313 C28.9743961,14.7446978 28.9156627,14.6294863 28.8004511,14.5142747 C28.7417176,14.3990631 28.6852395,14.2251181 28.626506,14.1099065 L27.8177928,14.1099065 C27.8765263,14.5142747 27.9917378,14.8621764 28.1656829,15.0925764 C28.339628,15.3229995 28.6287846,15.4969446 28.9743961,15.5556781 L28.9156627,16.0752578 L29.3787643,16.1339913 L29.4374978,15.5556781 C29.841866,15.5556781 30.1310111,15.381733 30.4201677,15.1513099 C30.6505908,14.9208867 30.8245359,14.6317301 30.8245359,14.2250834 C30.8245359,13.8771933 30.7658024,13.6467701 30.6505908,13.4163701 C30.4766458,13.185947 30.1874892,13.0120019 29.7243643,12.8380569 L29.8395759,11.6814304 C30.013521,11.7966419 30.1287325,11.970587 30.187466,12.2010101 L30.9397359,12.1422766 C30.9397359,11.85312 30.8245243,11.5639634 30.6505793,11.3900067 C30.4766342,11.2160617 30.2462111,11.0421166 29.8983094,10.9856386 L29.8983094,10.6964819 L29.4352077,10.6377484 L29.4352077,10.9269051 C29.0873176,10.9269051 28.7981378,11.0421166 28.5677378,11.2747952 C28.3373147,11.5052183 28.2198477,11.7378969 28.1633696,12.0835084 C28.1633696,12.3749263 28.2221031,12.6640771 28.3960482,12.9532337 L28.396106,12.9532916 Z" id="Shape"></path>
            <path d="M24.6373012,10.4096386 C24.8677243,10.468372 25.0416694,10.5835836 25.2156145,10.6400617 C25.3895595,10.7552733 25.5635046,10.8704848 25.7351942,11.0444299 C26.1982959,11.5075316 26.5439075,12.1422998 26.5439075,12.8381263 L26.5439075,13.1860164 C26.5439075,13.301228 26.485174,13.3599614 26.485174,13.475173 C26.3112289,14.1122429 25.9068607,14.6317995 25.3873041,14.9797128 C25.213359,15.0949243 24.9829359,15.2101359 24.8089908,15.2688694 C24.6350458,15.3276029 24.4046227,15.384081 24.171921,15.384081 L23.8240308,15.384081 C22.3194911,15.558026 11.5643682,16.1927942 6.58971759,15.384081 C5.25913446,15.1536578 0.343356145,14.2862111 0.287259759,8.32923759 C0.287259759,8.21402602 0.345993253,7.05741108 0.345993253,6.3051412 C1.04176193,0.69370988 7.17066795,0.57850988 9.94714988,0.230538795 C11.1037764,0.115327229 24.6351499,0.115327229 24.6351499,0.115327229 C25.2722198,0.115327229 26.0221764,0.404483855 26.5440463,0.924040482 L26.5440463,0.865306988 L34.4102631,7.92015036 C35.4516896,8.90282024 35.5668896,10.5813166 34.5842082,11.6791865 C34.0058949,9.82904675 32.5013552,8.38326361 30.5360154,7.92015036 C30.4208039,7.86141687 30.2468588,7.86141687 30.1316472,7.86141687 C30.0164357,7.86141687 29.9012241,7.80268337 29.727279,7.80268337 C28.8598092,7.74394988 28.0510959,7.86141687 27.298826,8.15057349 L23.9418911,5.7830747 C21.1655248,6.24617639 14.1695537,7.22885783 14.1695537,7.22885783 C11.6259007,11.7401639 23.9418911,10.3508241 23.9418911,10.3508241 L24.1723142,10.3508241 C24.3485205,10.3508241 24.5202043,10.4095576 24.6376771,10.4095576 L24.6373012,10.4096386 Z" id="Shape"></path>
            <path d="M20.9343614,23.941012 L20.4712598,22.8431422 C20.6452048,22.8431422 20.8191499,22.8431422 20.9343614,22.9018757 C21.049573,22.9606092 21.1083065,23.0758207 21.1647846,23.1910323 C21.2235181,23.3062439 21.2235181,23.4801889 21.1647846,23.5954005 C21.1670435,23.710612 21.049573,23.8258236 20.9343614,23.9410352 L20.9343614,23.941012 Z" id="Shape"></path>
            <path d="M19.373494,20.3560482 L19.2582824,20.0668916 L18.8539142,20.2408366 L18.9691258,20.5299933 C18.6799692,20.7039383 18.449546,20.9343614 18.3320559,21.2235065 C18.2168443,21.5126631 18.2733224,21.8018198 18.3907894,22.0909764 C18.506001,22.380133 18.7386795,22.6105561 18.9691027,22.7280463 C19.2582593,22.8432578 19.5474159,22.9019913 20.0105292,22.8432578 L20.5301089,23.9998843 C20.4148973,23.9998843 20.2996858,23.9411508 20.1822188,23.8846728 C20.0670072,23.8259393 19.9517957,23.7107277 19.8343287,23.5955161 L19.0843142,24.0586178 C19.3147373,24.406508 19.5474159,24.6369311 19.8365841,24.7521311 C20.1257523,24.8673311 20.4148973,24.8673427 20.7628106,24.7521311 L20.9932337,25.2717108 L21.3976019,25.0977658 L21.1671788,24.578186 C21.5150689,24.3477629 21.745492,24.1150843 21.8042487,23.7694728 C21.8629822,23.4215827 21.8629822,23.1324029 21.7455152,22.7868029 C21.6303036,22.4976463 21.3976251,22.2672231 21.1672019,22.149733 C20.9367788,22.0345214 20.530132,22.0345214 20.069332,22.0909995 L19.6062304,20.9931296 C19.8366535,20.9931296 20.0105986,21.1083412 20.1258101,21.2822863 L20.76288,20.8779181 C20.5889349,20.6474949 20.3585118,20.4735499 20.1258101,20.3583383 C19.9518651,20.2408713 19.6627084,20.2408713 19.3735402,20.3560794 L19.373494,20.3560482 Z M24.5783133,20.6452048 C25.6761831,23.1324145 24.5195798,26.0239807 22.0911036,27.1217349 C19.603894,28.2196048 16.7123277,27.0630014 15.6145735,24.6345253 C14.5167036,22.1473157 15.673307,19.2557494 18.1017831,18.1579952 C20.6454361,17.0601253 23.5370024,18.1579952 24.5783133,20.6452048 Z" id="Shape"></path>
            <path d="M19.1994217,21.1674217 L19.6037899,22.1500916 C19.4298448,22.1500916 19.3146333,22.1500916 19.2558998,22.0913581 C19.1971663,22.0326246 19.0819547,21.9761465 19.0254766,21.8609349 C18.9667431,21.7457234 18.9667431,21.6305118 18.9667431,21.5130448 C19.0842101,21.3390998 19.1429494,21.2238882 19.1994217,21.1674101 L19.1994217,21.1674217 Z" id="Shape"></path>
            <path d="M45.9169157,38.9771566 C45.9169157,38.9771566 46.9583422,46.7253976 39.6144578,47.5928675 C36.7228916,47.9407576 28.2222651,47.3037108 28.2222651,47.3037108 L28.2222651,47.2449773 C23.8849157,47.0145542 20.5891084,45.5687942 18.3909398,44.4686111 C16.3080867,43.4271846 9.94640964,39.1485918 9.94640964,39.1485918 C8.73102651,37.7028087 8.73102651,36.7765822 8.96373976,36.1982689 C9.42684145,35.330799 10.2355663,34.8112424 11.1030361,34.8112424 C11.5074043,34.8112424 11.855306,34.926454 12.2596627,35.100399 C19.373494,39.7856617 19.314506,39.8421051 22.9584578,40.8835316 C27.0654072,42.0989147 33.657253,40.7095865 33.657253,40.7095865 C33.7724646,40.3616964 33.8311981,40.0160733 33.7724646,39.6117166 C33.483308,37.239707 29.6655152,37.2984636 29.6655152,37.2984636 L24.4019393,37.1245186 C23.0713561,37.1245186 21.395173,36.5462053 21.395173,35.1004222 C21.395173,33.654639 22.4930429,32.4392559 23.7671827,32.4392559 C23.7671827,32.4392559 35.911761,32.3805224 37.6467007,32.3805224 C40.7122236,32.2698275 45.5129176,32.9046188 45.9171586,38.9767634 L45.9169157,38.9771566 Z" id="Shape"></path>
            <path d="M31.1138313,29.8982169 C31.1725648,30.0134284 31.1725648,30.12864 31.1725648,30.246107 C31.1725648,30.420052 31.0573533,30.5352636 30.9421417,30.5939971 C30.8269301,30.7092087 30.7117186,30.7092087 30.5377735,30.7092087 L30.7681966,29.5525822 C30.9398863,29.6677937 31.055092,29.7830053 31.1138313,29.8982169 Z" id="Shape"></path>
            <path d="M30.7656867,27.5288675 L30.5352636,28.570294 C30.420052,28.5115605 30.3613186,28.3963489 30.3048405,28.2811373 C30.246107,28.1659258 30.246107,28.0507142 30.246107,27.9919807 C30.246107,27.8767692 30.3048405,27.7615576 30.420052,27.7028241 C30.5352636,27.5853571 30.5917417,27.528879 30.7656867,27.528879 L30.7656867,27.5288675 Z" id="Shape"></path>
            <path d="M32.2114699,28.2222651 C32.2114699,27.9331084 32.1527364,27.6439518 31.9810467,27.4135518 C31.8071017,27.1831287 31.5766786,27.0656617 31.2875335,26.9504501 L31.346267,26.6612935 L30.9418988,26.5460819 L30.8831653,26.8352386 C30.5352752,26.7765051 30.2460954,26.893972 29.9569388,27.0656617 C29.7265157,27.2396067 29.5525706,27.4700299 29.4938371,27.8179316 C29.4351036,28.1070882 29.4938371,28.4550014 29.6090487,28.6854014 C29.7242602,28.9745581 30.0134169,29.1485031 30.3613186,29.3789147 L30.1308954,30.6507412 C30.0156839,30.5920077 29.9569504,30.4767961 29.9004723,30.3615846 C29.8417388,30.246373 29.7852607,30.072428 29.7852607,29.8984829 L28.9765475,29.8397494 C28.9765475,30.2441176 29.035281,30.5920193 29.2069706,30.8224193 L29.2657041,30.8811528 L25.8545812,30.8811528 C25.5654246,30.0724395 25.5066911,29.2049696 25.6806361,28.3374998 C26.2002159,25.6763335 28.8026024,24.0001504 31.4637687,24.519707 C34.1249349,25.0392867 35.8598747,27.6416733 35.2815614,30.3028395 C35.2815614,30.4767846 35.1663499,30.7072077 35.1076164,30.9399094 L31.6964935,30.9399094 C31.8117051,30.7659643 31.8704386,30.5920193 31.9269166,30.3615961 C31.9856501,30.0724395 31.9856501,29.7832829 31.8117051,29.4941263 C31.6964935,29.2637031 31.4073369,29.0310246 30.9442352,28.800613 L31.1746583,27.6439865 C31.3486034,27.7591981 31.4050814,27.9331431 31.4050814,28.1635663 L32.2114699,28.2222651 Z" id="Shape"></path>
        </g>
    </g>
</svg>
