<?xml version="1.0" encoding="UTF-8"?>
<svg width="48px" height="48px" viewBox="0 0 48 48" version="1.1" xmlns="http://www.w3.org/2000/svg" xmlns:xlink="http://www.w3.org/1999/xlink">
    <!-- Generator: Sketch 50.2 (55047) - http://www.bohemiancoding.com/sketch -->
    <title>Development</title>
    <desc>Created with Sketch.</desc>
    <defs></defs>
    <g id="Development" stroke="none" stroke-width="1" fill="none" fill-rule="evenodd">
        <g id="np_acorn_1446496_000000-copy" transform="translate(1.000000, 0.000000)" fill="currentcolor" fill-rule="nonzero">
            <path d="M46.8526957,29.5314783 C46.8526957,23.8455652 44.6088,18.4711304 40.5918261,14.4542609 L36.6257739,10.4352522 C37.0945252,9.13090435 36.7827026,7.61869565 35.7901565,6.57521739 L34.2249391,5.01 C31.5632348,2.34829565 28.017287,0.889095652 24.2080696,0.889095652 C20.4519652,0.889095652 16.9037217,2.35038261 14.1912,5.01 L11.8963826,7.30481739 L7.25170435,0.783078261 C7.09477565,0.522208696 6.78295304,0.36528 6.52210435,0.36528 C6.20824696,0.36528 5.94735652,0.46922087 5.68648696,0.679137391 L0.469095652,5.8965287 C0.261213913,6.10441043 0.155238261,6.41826783 0.155238261,6.73214609 C0.155238261,7.04600348 0.312166957,7.30689391 0.573036522,7.46174609 L7.09477565,12.1043896 L4.17220174,15.0269635 C1.56554087,17.686633 0.104253913,21.2346157 0.104253913,24.9911374 C0.104253913,28.7472417 1.56554087,32.2954852 4.22515826,35.008007 L5.79037565,36.5732243 C6.46905391,37.2519026 7.40860174,37.6697113 8.3990713,37.6697113 C8.81686957,37.6697113 9.2346887,37.6167235 9.5994887,37.4618296 L13.5655409,41.4278817 C17.5825148,45.4448557 22.9568452,47.6887513 28.6427583,47.6887513 L45.8069322,47.5848104 C46.38168,47.5848104 46.8504104,47.1160591 46.8504104,46.5413322 L46.8526957,29.5314783 Z M11.3744348,12.1570435 L9.96615652,12.1570435 L11.3744348,10.7487652 L11.3744348,12.1570435 Z M13.4083826,18.7826087 L13.4083826,14.2438957 L17.9470957,14.2438957 L17.9470957,18.7826087 L13.4083826,18.7826087 Z M13.4083826,20.8165565 L17.9470957,20.8165565 L17.9470957,25.3552696 L13.4083826,25.3552696 L13.4083826,20.8165565 Z M20.0339478,20.8165565 L23.8430609,20.8165565 L20.0339478,24.6256696 L20.0339478,20.8165565 Z M24.5746957,18.7826087 L20.0359826,18.7826087 L20.0359826,14.2438957 L24.5746957,14.2438957 L24.5746957,18.7826087 Z M26.6086435,18.0530087 L26.6086435,14.2438957 L30.4177565,14.2438957 L26.6086435,18.0530087 Z M26.6086435,12.1568348 L26.6086435,7.61812174 L31.1473565,7.61812174 L31.1473565,12.1568348 L26.6086435,12.1568348 Z M26.6086435,5.58187826 L26.6086435,3.18104348 C28.4877391,3.54585391 30.2078087,4.38146087 31.7221043,5.58187826 L26.6086435,5.58187826 Z M24.5746957,12.1568348 L20.0359826,12.1568348 L20.0359826,7.61812174 L24.5746957,7.61812174 L24.5746957,12.1568348 Z M17.9470435,5.58187826 L16.6426957,5.58187826 C17.0604939,5.26802087 17.478313,4.9562087 17.9470435,4.69533913 L17.9470435,5.58187826 Z M17.9470435,7.61786087 L17.9470435,12.1565739 L13.4083304,12.1565739 L13.4083304,8.71226087 L14.5048174,7.61577391 L17.9470435,7.61786087 Z M7.93017391,14.2434261 L11.374487,14.2434261 L11.374487,18.7821391 L6.83577391,18.7821391 L6.83577391,15.3378261 L7.93017391,14.2434261 Z M6.83572174,20.8162957 L11.3744348,20.8162957 L11.3744348,25.3550087 L6.83572174,25.3550087 L6.83572174,20.8162957 Z M6.83572174,27.3912522 L11.3744348,27.3912522 L11.3744348,31.9299652 L6.83572174,31.9299652 L6.83572174,27.3912522 Z M13.4085913,27.3912522 L17.2177043,27.3912522 L13.4085913,31.2003652 L13.4085913,27.3912522 Z M34.3313739,8.03368696 C34.6452313,8.34754435 34.8001252,8.76328696 34.8001252,9.18109565 C34.8001252,9.59889391 34.6431965,10.016713 34.3313739,10.3285043 L33.1839652,11.4779478 L33.1839652,6.99015652 L34.3313739,8.03368696 Z M24.5753739,2.97323478 L24.5753739,5.58193043 L20.0366609,5.58193043 L20.0366609,3.70283478 C21.3389739,3.18313565 22.6963304,2.97323478 24.5753739,2.97323478 Z M2.76615652,6.46846957 L6.2613913,2.97323478 L10.4353043,8.8161913 L8.66222609,10.5892696 L2.76615652,6.46846957 Z M4.80010435,17.4782087 L4.80010435,18.7825565 L3.91356522,18.7825565 C4.17443478,18.3138052 4.43530435,17.8960174 4.80010435,17.4782087 Z M2.92304348,20.8165043 L4.80213913,20.8165043 L4.80213913,25.3552174 L2.19342879,25.3552174 C2.19140557,23.217287 2.40132522,22.1208522 2.92304348,20.8165043 Z M2.40130435,27.3914609 L4.80213913,27.3914609 L4.80213913,32.5049217 C3.59968696,31.0436348 2.76615652,29.2705565 2.40130435,27.3914609 Z M7.25186087,35.1137217 L6.15537391,34.0172348 L10.6431652,34.0172348 L9.54667826,35.1137217 C9.23282087,35.4275791 8.81707826,35.582473 8.39926957,35.582473 C7.98350609,35.582473 7.56568696,35.4255443 7.25186087,35.1137217 Z M28.7490783,45.5996348 L28.6451374,45.5996348 C23.4807548,45.5996348 18.6282678,43.6166087 15.0267026,39.9643304 L11.32152,36.2591478 L35.4253461,12.1553217 L39.1814504,15.9114261 C42.8336243,19.5636 44.8167548,24.4162957 44.8167548,29.5298609 L44.8167548,45.4961217 L28.7490783,45.5996348 Z" id="Shape"></path>
            <path d="M42.1570435,40.9565217 L28.905913,41.0095096 L28.8529252,41.0095096 C24.9928904,41.0095096 21.1838817,39.4442922 18.4181426,36.6786574 L17.0098643,35.2703791 C16.5920661,34.8525809 15.9663861,34.8525809 15.5485774,35.2703791 C15.1307791,35.6881774 15.1307791,36.3138574 15.5485774,36.7316661 L16.9568557,38.1399443 C20.0872904,41.2703791 24.418247,43.0434574 28.7998122,43.0434574 L28.903753,43.0434574 L42.1548835,42.9904696 C42.7296313,42.9904696 43.1983617,42.5217183 43.1983617,41.9469913 C43.2003997,41.4252522 42.7296104,40.9565217 42.1569183,40.9565217 L42.1570435,40.9565217 Z" id="Shape"></path>
        </g>
    </g>
</svg>
