<svg xmlns="http://www.w3.org/2000/svg" xmlns:xlink="http://www.w3.org/1999/xlink" width="18" height="22" viewBox="0 0 18 22">
  <defs>
    <polygon id="events-pin-a" points=".936 .01 .936 23.708 18.749 23.708 18.749 .01 .936 .01"/>
  </defs>
  <g fill="none" fill-rule="evenodd" transform="translate(-2 -1)">
    <mask id="events-pin-b" fill="#fff">
      <use xlink:href="#events-pin-a"/>
    </mask>
    <path fill="#27428C" stroke="#27428C" stroke-width=".1" d="M9.91235675,5.87679015 C8.40948767,5.87679015 7.18624272,7.09854562 7.18624272,8.59984033 C7.18624272,10.101135 8.40948767,11.3230985 9.91235675,11.3230985 C11.4152779,11.3230985 12.6385229,10.101135 12.6385229,8.59984033 C12.6385229,7.09854562 11.4152779,5.87679015 9.91235675,5.87679015 Z M9.91235675,10.5450173 C8.83858134,10.5450173 7.96513988,9.67249088 7.96513988,8.59984033 C7.96513988,7.52739781 8.83858134,6.65466332 9.91235675,6.65466332 C10.9861322,6.65466332 11.8596257,7.52739781 11.8596257,8.59984033 C11.8596257,9.67249088 10.9861322,10.5450173 9.91235675,10.5450173 Z" mask="url(#events-pin-b)"/>
    <path fill="#27428C" stroke="#27428C" stroke-width=".1" d="M15.1242674,3.39344161 C13.7137039,1.98435584 11.8382803,1.20830292 9.84342688,1.20830292 C7.84841724,1.20830292 5.97314983,1.98435584 4.56263844,3.39344161 C1.95220581,6.00067153 1.6278085,10.9064681 3.86016806,13.8785812 L9.84342688,22.5105967 L15.8179393,13.8907509 C18.0590453,10.9064681 17.7346479,6.00067153 15.1242674,3.39344161 Z M15.1860648,13.4358951 L9.84342688,21.1433248 L4.49225084,13.4239334 C2.46751389,10.7270429 2.75755039,6.29690511 5.113713,3.94357482 C6.37704557,2.68156569 8.05666459,1.98638412 9.84342688,1.98638412 C11.6301892,1.98638412 13.3098082,2.68156569 14.5735573,3.94357482 C16.9297199,6.29690511 17.2197564,10.7270429 15.1860648,13.4358951 Z" mask="url(#events-pin-b)"/>
  </g>
</svg>
