<?xml version="1.0" encoding="UTF-8"?>
<svg width="100pt" height="100pt" version="1.1" viewBox="0 0 100 100" xmlns="http://www.w3.org/2000/svg">
 <path d="m86.191 47.918c0.003906-4.7266-1.7305-9.2891-4.8672-12.82-3.1367-3.5352-7.4609-5.793-12.156-6.3516-0.74609-6.3125-4.5547-11.848-10.184-14.809-5.625-2.957-12.344-2.957-17.969 0-5.6289 2.9609-9.4375 8.4961-10.184 14.809-6.3125 0.75-11.852 4.5586-14.809 10.184-2.9609 5.625-2.9609 12.348 0 17.973 2.957 5.625 8.4961 9.4336 14.809 10.184 0.74609 6.3125 4.5547 11.852 10.184 14.809 5.625 2.9609 12.344 2.9609 17.969 0 5.6289-2.957 9.4375-8.4961 10.184-14.809 4.6953-0.55469 9.0195-2.8164 12.156-6.3477 3.1367-3.5352 4.8711-8.0977 4.8672-12.82zm-38.488-2.2969c-0.38281 0.046875-0.76172 0.10156-1.1406 0.16797h0.003906c-3.0234-0.69531-5.7617-2.3086-7.8359-4.6172s-3.3867-5.2031-3.7578-8.2852c3.082 0.375 5.9727 1.6875 8.2812 3.7617 2.3086 2.0742 3.9219 4.8086 4.6172 7.832-0.066406 0.37891-0.12109 0.75781-0.16797 1.1406zm0 4.5898c0.046875 0.38281 0.10156 0.76172 0.16797 1.1406-0.69531 3.0234-2.3086 5.7578-4.6172 7.8359-2.3086 2.0742-5.1992 3.3867-8.2812 3.7578 0.37109-3.082 1.6836-5.9727 3.7578-8.2812 2.0742-2.3086 4.8125-3.9219 7.8359-4.6211 0.375 0.066406 0.75391 0.125 1.1367 0.16797zm4.5898 0c0.38281-0.046876 0.76172-0.10156 1.1406-0.16797 3.0273 0.69922 5.7617 2.3125 7.8359 4.6211 2.0742 2.3086 3.3867 5.1992 3.7578 8.2812-3.082-0.37109-5.9727-1.6836-8.2812-3.7578s-3.9219-4.8125-4.6172-7.8359c0.066406-0.37891 0.12109-0.75781 0.16797-1.1406zm0-4.5898c-0.046875-0.38281-0.10156-0.76172-0.16797-1.1406h0.003906c0.69531-3.0234 2.3086-5.7578 4.6172-7.832 2.3086-2.0742 5.1992-3.3867 8.2812-3.7617-0.37109 3.082-1.6836 5.9766-3.7578 8.2852s-4.8086 3.918-7.8359 4.6172c-0.375-0.066406-0.75391-0.12109-1.1367-0.16797zm-13.008-25.293c2.6484-2.6523 6.1836-4.2266 9.9258-4.4258 3.7422-0.19531 7.4219 1.0039 10.332 3.3672 2.9062 2.3633 4.8359 5.7188 5.4102 9.4219-4.4414 0.43359-8.5938 2.4023-11.738 5.5664-1.2617 1.2656-2.3438 2.7031-3.2148 4.2656-0.87109-1.5625-1.9531-3-3.2148-4.2656-3.1445-3.1641-7.2969-5.1328-11.738-5.5664 0.48438-3.168 1.9688-6.0977 4.2383-8.3633zm-21.312 27.59c0-3.6133 1.2891-7.1055 3.6367-9.8477 2.3477-2.7422 5.5977-4.5547 9.1641-5.1055 0.43359 4.4414 2.4023 8.5898 5.5664 11.738 1.2656 1.2617 2.7031 2.3438 4.2656 3.2148-1.5625 0.86719-3 1.9492-4.2656 3.2148-3.1641 3.1445-5.1328 7.2969-5.5664 11.738-3.5664-0.55469-6.8164-2.3672-9.1641-5.1094-2.3477-2.7422-3.6367-6.2344-3.6367-9.8438zm42.742 27.586c-2.6484 2.6523-6.1836 4.2305-9.9258 4.4258-3.7422 0.19531-7.4219-1.0039-10.332-3.3672-2.9062-2.3633-4.8359-5.7188-5.4102-9.4219 4.4414-0.42969 8.5938-2.3984 11.738-5.5625 1.2617-1.2695 2.3438-2.7031 3.2148-4.2656 0.87109 1.5625 1.9531 2.9961 3.2148 4.2656 3.1445 3.1641 7.2969 5.1328 11.738 5.5625-0.48438 3.168-1.9688 6.1016-4.2383 8.3633zm8.5117-12.633c-0.43359-4.4414-2.4023-8.5938-5.5664-11.738-1.2656-1.2656-2.7031-2.3477-4.2656-3.2148 1.5625-0.87109 3-1.9531 4.2656-3.2148 3.1641-3.1484 5.1328-7.2969 5.5664-11.738 4.7969 0.74219 8.9414 3.7461 11.152 8.0703 2.207 4.3203 2.207 9.4414 0 13.766-2.2109 4.3203-6.3555 7.3242-11.152 8.0703z"/>
</svg>
