<?xml version="1.0" encoding="UTF-8"?>
<svg width="72px" height="39px" viewBox="0 0 72 39" version="1.1" xmlns="http://www.w3.org/2000/svg" xmlns:xlink="http://www.w3.org/1999/xlink">
    <!-- Generator: Sketch 41.2 (35397) - http://www.bohemiancoding.com/sketch -->
    <title>retweet</title>
    <desc>Created with Sketch.</desc>
    <defs></defs>
    <g id="Page-1" stroke="none" stroke-width="1" fill="none" fill-rule="evenodd">
        <g id="retweet" fill="#9b9b9b">
            <path d="M10.41,16.121 C6.785,16.105 3.164,16.129 -0.461,16.109 C14.32,0.391 -0.461,16.109 14.32,0.391 C29.09,16.102 14.32,0.391 29.09,16.102 C25.469,16.137 21.852,16.094 18.23,16.125 C18.215,21.105 18.223,26.086 18.227,31.062 C22.141,31.098 36.883,31.059 40.797,31.082 C43.316,33.711 45.914,36.262 48.406,38.914 C40.164,38.914 22.707,38.934 10.402,38.934 L10.41,16.121 Z" id="Fill-1"></path>
            <path d="M60.59,23.207 C64.215,23.223 67.836,23.199 71.461,23.219 C56.68,38.934 71.461,23.219 56.68,38.934 C41.91,23.223 56.68,38.934 41.91,23.223 C45.531,23.188 49.148,23.23 52.77,23.199 C52.785,18.219 52.777,13.238 52.773,8.262 C48.859,8.227 34.117,8.266 30.203,8.242 C27.684,5.613 25.086,3.062 22.594,0.41 C30.836,0.41 48.293,0.391 60.598,0.391 L60.59,23.207 Z" id="Fill-2"></path>
        </g>
    </g>
</svg>