<svg xmlns="http://www.w3.org/2000/svg" xmlns:xlink="http://www.w3.org/1999/xlink" width="45" height="45" viewBox="0 0 45 45">
  <defs>
    <rect id="social-facebook-a" width="45" height="45" rx="2"/>
  </defs>
  <g fill="none" fill-rule="evenodd">
    <rect width="45" height="45" fill="#3A559F" fill-rule="nonzero" rx="2"/>
    <mask id="social-facebook-b" fill="#fff">
      <use xlink:href="#social-facebook-a"/>
    </mask>
    <path fill="#FFF" fill-rule="nonzero" d="M16.4049879,23.315 L19.157367,23.315 L19.157367,34.5967742 C19.157367,34.8195161 19.3386396,35 19.562355,35 L24.229112,35 C24.4528274,35 24.6341,34.8195161 24.6341,34.5967742 L24.6341,23.3681452 L27.7981898,23.3681452 C28.0039237,23.3681452 28.1770155,23.2144355 28.2005048,23.0109677 L28.6810635,18.8575806 C28.6942661,18.7433065 28.6578982,18.628871 28.5811125,18.5431452 C28.5042458,18.4573387 28.3942511,18.4082258 28.2788295,18.4082258 L24.634262,18.4082258 L24.634262,15.8046774 C24.634262,15.0198387 25.0586893,14.6218548 25.8958804,14.6218548 L28.2788295,14.6218548 C28.5025448,14.6218548 28.6838174,14.4412903 28.6838174,14.218629 L28.6838174,10.4062097 C28.6838174,10.1834677 28.5025448,10.0029839 28.2788295,10.0029839 L24.9947822,10.0029839 C24.9716169,10.0018548 24.9201835,10 24.8443697,10 C24.2745517,10 22.2939176,10.111371 20.7293682,11.5444355 C18.9958578,13.1325 19.2368256,15.0339516 19.2944149,15.363629 L19.2944149,18.4081452 L16.4049879,18.4081452 C16.1812726,18.4081452 16,18.588629 16,18.811371 L16,22.9116935 C16,23.1344355 16.1812726,23.315 16.4049879,23.315 Z" mask="url(#social-facebook-b)"/>
  </g>
</svg>
