<svg xmlns="http://www.w3.org/2000/svg" xmlns:xlink="http://www.w3.org/1999/xlink" width="45" height="45" viewBox="0 0 45 45">
  <defs>
    <rect id="social-mail-a" width="45" height="45" rx="2"/>
  </defs>
  <g fill="none" fill-rule="evenodd">
    <rect width="45" height="45" fill="#A3A9B8" fill-rule="nonzero" rx="2"/>
    <mask id="social-mail-b" fill="#fff">
      <use xlink:href="#social-mail-a"/>
    </mask>
    <path fill="#FFF" fill-rule="nonzero" d="M31.3441462,14.0550171 L14.6051906,14.0550171 C13.1686997,14.0550171 12,15.1925616 12,16.5907534 L12,28.4160582 C12,29.81425 13.1686997,30.9517945 14.6051906,30.9517945 L31.3441462,30.9517945 C32.7806371,30.9517945 33.9492794,29.81425 33.9492794,28.4160582 L33.9492794,16.5907534 C33.9492794,15.1925616 32.7806371,14.0550171 31.3441462,14.0550171 Z M31.3441462,28.7131507 L14.6051906,28.7131507 C14.3940366,28.7131507 14.208846,28.5743562 14.208846,28.4160582 L14.208846,18.1544623 L21.7794308,24.6325103 C21.9346371,24.7653664 22.1320052,24.8384897 22.3352324,24.8384897 L23.6138172,24.8385479 C23.8169295,24.8385479 24.0144125,24.7653664 24.1696762,24.6325103 L31.7406057,18.1542295 L31.7406057,28.4161747 C31.7404909,28.5743562 31.5552428,28.7131507 31.3441462,28.7131507 Z M22.9746684,22.6156815 L15.6113316,16.293661 L30.3380052,16.293661 L22.9746684,22.6156815 Z" mask="url(#social-mail-b)"/>
  </g>
</svg>
