<?xml version="1.0" encoding="utf-8"?>
<!-- Generator: Adobe Illustrator 16.0.4, SVG Export Plug-In . SVG Version: 6.00 Build 0)  -->
<!DOCTYPE svg PUBLIC "-//W3C//DTD SVG 1.1//EN" "http://www.w3.org/Graphics/SVG/1.1/DTD/svg11.dtd">
<svg version="1.1" id="Layer_1" xmlns="http://www.w3.org/2000/svg" xmlns:xlink="http://www.w3.org/1999/xlink" x="0px" y="0px"
	 width="960px" height="960px" viewBox="0 0 960 960" enable-background="new 0 0 960 960" xml:space="preserve">
<path fill="#FFF900" d="M0,0v960h960V0H0z M827.298,672.608c-3.611,9.631-20.465,22.872-86.674,33.706
	c-4.815,1.204-7.224,7.224-10.835,22.872c-1.204,4.814-2.408,10.834-3.611,15.649s-4.814,7.223-9.63,7.223h-1.204
	c-3.611,0-8.426-1.204-14.446-2.407c-10.833-2.409-24.075-3.611-39.725-3.611c-9.63,0-19.261,1.204-28.891,2.408
	c-19.261,3.61-36.114,15.649-54.171,27.687c-24.077,18.058-56.579,28.891-97.509,28.891c-1.204,0-3.611,0-4.815,0
	c-1.204,0-2.408,0-3.611,0c-40.93,0-62.597-12.038-87.877-30.095c-18.057-12.039-34.911-24.076-54.171-27.687
	c-10.834-1.204-20.465-2.408-30.095-2.408c-16.854,0-30.095,2.408-39.725,4.815c-6.02,1.203-10.835,2.407-14.446,2.407
	s-8.426-1.204-10.834-7.223c-1.204-6.02-2.408-10.835-3.611-15.649c-2.408-13.242-4.815-21.669-10.834-22.872
	c-66.211-9.631-84.268-24.075-89.083-33.706c0-2.408,0-3.611,0-4.815c0-3.61,2.408-7.224,6.02-7.224
	c101.12-16.854,146.864-120.38,148.067-123.99c6.02-12.039,7.223-22.872,3.611-32.503c-7.224-16.854-30.095-24.076-44.541-28.891
	c-3.611-1.204-7.223-2.408-9.63-3.611c-30.095-12.039-32.502-24.076-31.299-30.095c2.408-10.834,15.649-18.057,27.687-18.057
	c3.611,0,6.02,0,8.426,1.204c13.241,6.019,25.28,9.63,36.114,9.63c14.445,0,20.465-6.02,21.669-7.223
	c0-7.224-1.204-14.446-1.204-21.669c-3.611-48.152-7.223-107.139,8.426-140.845c44.542-101.12,140.846-109.546,169.738-109.546
	c1.204,0,12.039,0,12.039,0h1.204c28.891,0,125.195,8.426,170.939,109.546c15.65,33.706,10.834,93.896,8.427,140.845v2.408
	c0,7.223-1.205,13.241-1.205,19.261c1.205,1.204,6.02,6.019,19.261,7.223c9.631,0,21.67-3.611,33.707-9.63
	c3.61-1.204,7.223-2.408,10.834-2.408c4.815,0,8.426,1.204,12.039,2.408c9.63,3.611,16.854,10.834,16.854,18.057
	c0,7.223-4.815,18.057-31.3,27.687c-2.407,1.205-6.019,2.408-9.63,3.611c-14.445,4.815-37.317,12.038-44.541,28.891
	c-3.611,8.427-2.407,19.261,3.611,32.502c2.408,4.815,44.541,108.342,145.66,125.195c3.611,1.204,6.02,3.611,6.02,7.224
	C828.502,668.997,828.502,670.201,827.298,672.608z"/>
</svg>
