<?xml version="1.0" encoding="utf-8"?>
<!-- Generator: Adobe Illustrator 15.0.0, SVG Export Plug-In . SVG Version: 6.00 Build 0)  -->
<!DOCTYPE svg PUBLIC "-//W3C//DTD SVG 1.1//EN" "http://www.w3.org/Graphics/SVG/1.1/DTD/svg11.dtd">
<svg version="1.1" id="Layer_1" xmlns="http://www.w3.org/2000/svg" xmlns:xlink="http://www.w3.org/1999/xlink" x="0px" y="0px"
	 width="595.28px" height="841.89px" viewBox="0 0 595.28 841.89" enable-background="new 0 0 595.28 841.89" xml:space="preserve">
<g>
	<path fill="#FFFFFF" d="M581.94,434.428c-0.874,5.655-2.931,13.934-4.677,18.542l4.438-0.478
		c2.227-3.658,5.658-12.246,7.471-18.854L581.94,434.428z M541.861,486.043c2.868,1.914,8.515,3.498,13.685,3.498
		c12.648,0,18.764-7.24,18.764-15.508c0-7.876-4.615-12.251-13.666-15.745c-7.405-2.859-10.664-5.318-10.664-10.327
		c0-3.659,2.783-8.04,10.096-8.04c4.858,0,8.418,1.598,10.188,2.546l1.904-5.642c-2.398-1.35-6.372-2.622-11.854-2.622
		c-10.414,0-17.329,6.194-17.329,14.546c0,7.552,5.409,12.086,14.149,15.198c7.238,2.78,10.095,5.64,10.095,10.647
		c0,5.396-4.126,9.138-11.207,9.138c-4.772,0-9.302-1.593-12.414-3.491L541.861,486.043z M517.922,488.656h7.008v-47.699h16.394
		v-5.882H501.63v5.882h16.292V488.656z M464.183,488.656v-22.888c0-8.917-0.147-15.348-0.549-22.102l0.249-0.086
		c2.687,5.805,6.27,11.924,9.998,17.895l17.024,27.181h6.996v-53.581h-6.525v22.426c0,8.342,0.176,14.859,0.8,22.014l-0.154,0.089
		c-2.551-5.48-5.65-11.141-9.625-17.418l-17.177-27.11h-7.557v53.581H464.183z M448.52,457.814h-20.827v-16.943h22.03v-5.796
		h-28.945v53.581h30.129v-5.796h-23.214v-19.316h20.827V457.814z M376.964,440.871c1.836-0.388,4.534-0.711,8.105-0.711
		c14.632,0,21.792,8.026,21.724,20.675c0,14.476-8.039,22.736-22.828,22.736c-2.705,0-5.25-0.07-7.001-0.396V440.871z
		 M370.054,488.506c3.491,0.399,7.623,0.638,12.555,0.638c10.414,0,18.679-2.71,23.708-7.709c4.999-4.932,7.69-12.095,7.69-20.838
		c0-8.675-2.771-14.87-7.538-19.25c-4.705-4.357-11.773-6.672-21.717-6.672c-5.475,0-10.486,0.478-14.698,1.111V488.506z
		 M320.765,435.075v31.554c0,16.635,8.258,22.912,19.228,22.912c11.615,0,20.288-6.767,20.288-23.214v-31.252h-7.013v31.728
		c0,11.839-5.085,17.095-13.038,17.095c-7.147,0-12.477-5.094-12.477-17.095v-31.728H320.765z M293.718,488.656h7.001v-47.699
		h16.371v-5.882h-39.676v5.882h16.304V488.656z M243.866,486.043c2.857,1.914,8.51,3.498,13.673,3.498
		c12.647,0,18.77-7.24,18.77-15.508c0-7.876-4.621-12.251-13.679-15.745c-7.398-2.859-10.658-5.318-10.658-10.327
		c0-3.659,2.783-8.04,10.102-8.04c4.853,0,8.424,1.598,10.175,2.546l1.904-5.642c-2.387-1.35-6.354-2.622-11.848-2.622
		c-10.407,0-17.323,6.194-17.323,14.546c0,7.552,5.396,12.086,14.143,15.198c7.239,2.78,10.095,5.64,10.095,10.647
		c0,5.396-4.132,9.138-11.2,9.138c-4.773,0-9.309-1.593-12.409-3.491L243.866,486.043z"/>
	<path fill="#FFFFFF" d="M442.88,557.255v-13.21c0-8.661-0.152-16.775-0.47-24.005h0.231c2.545,6.518,6.043,13.672,9.07,19.403
		l9.064,17.812h15.101v-53.6H462.76v12.635c0,8.043,0.324,15.512,1.123,22.58h-0.249c-2.388-6.27-5.487-13.438-8.431-18.755
		l-8.502-16.46h-16.945v53.6H442.88z M397.881,514.158c6.909,0,11.049,6.992,11.049,16.218c0,9.616-4.06,16.38-10.975,16.38
		c-6.916,0-11.298-6.202-11.298-16.228C386.657,520.677,391.039,514.158,397.881,514.158 M398.113,502.783
		c-16.377,0-26.632,12.403-26.632,27.991c0,14.864,9.126,27.348,25.748,27.348c16.559,0,26.887-10.976,26.887-28.229
		C424.116,515.583,415.375,502.783,398.113,502.783 M351.442,557.255h14.381v-53.6h-14.381V557.255z M310.484,557.255v-13.21
		c0-8.661-0.146-16.775-0.476-24.005h0.238c2.545,6.518,6.056,13.672,9.064,19.403l9.064,17.812h15.113v-53.6h-13.124v12.635
		c0,8.043,0.323,15.512,1.118,22.58h-0.232c-2.388-6.27-5.481-13.438-8.43-18.755l-8.515-16.46h-16.939v53.6H310.484z
		 M243.866,503.655v29.185c0,17.255,7.716,25.282,22.414,25.282c15.04,0,23.305-8.351,23.305-24.887v-29.58h-14.394v30.38
		c0,8.497-2.784,12.721-8.509,12.721c-5.646,0-8.429-4.614-8.429-12.721v-30.38H243.866z"/>
	<path fill="#FFFFFF" d="M5.538,244.874c0,0-5.408,103.114,35.085,161.15c40.488,58.027,105.818,68.386,186.799,72.078
		l0.263-105.369c0,0-2.972-72.253-94.471-107.619C133.214,265.114,89.211,244.874,5.538,244.874"/>
	<path fill="#FFFFFF" d="M350.521,308.575c0,0,2.538,48.333-16.444,75.541c-18.971,27.197-49.601,32.056-87.561,33.79l-0.123-49.406
		c0,0,1.392-33.85,44.284-50.428C290.678,318.071,311.309,308.575,350.521,308.575"/>
</g>
</svg>
