<svg xmlns="http://www.w3.org/2000/svg" xmlns:xlink="http://www.w3.org/1999/xlink" width="111.262" height="111.321" viewBox="0 0 111.262 111.321">
  <defs>
    <style>
      .cls-1 {
        fill: none;
      }

      .cls-2 {
        clip-path: url(#clip-path);
      }

      .cls-3 {
        fill: #181a45;
      }
    </style>
    <clipPath id="clip-path">
      <rect class="cls-1" width="111.262" height="111.321"/>
    </clipPath>
  </defs>
  <g id="Component_4_1" data-name="Component 4 – 1" class="cls-2">
    <path id="Path_778" data-name="Path 778" class="cls-3" d="M303.493,3641.021v20.354c-.044,2.8-.782,3.605-3.569,3.605H260.6c-2.744,0-3.525-.8-3.525-3.605,0-7.219.03-14.574-.094-21.887,0-2.072.576-2.539,2.488-2.474,2.744.189,2.8.087,2.488,2.753a18.423,18.423,0,1,0,36.409-1.426c-.2-1.034.037-1.24.986-1.24,4.138-.32,4.138-.387,4.138,3.919" transform="translate(-224.65 -3586.094)"/>
    <g id="Group_361" data-name="Group 361">
      <path id="Path_776" data-name="Path 776" class="cls-3" d="M265.883,3643.216a11.881,11.881,0,0,1,11.713-11.508,11.644,11.644,0,1,1-11.713,11.508" transform="translate(-221.933 -3587.7)"/>
      <path id="Path_777" data-name="Path 777" class="cls-3" d="M295.364,3628.791c0,5.837,0,5.837-5.861,5.837-5.9,0-5.9,0-5.9-5.918,0-5.881,0-5.881,5.8-5.881,5.963,0,5.963,0,5.963,5.962" transform="translate(-216.521 -3590.414)"/>
      <path id="Path_786" data-name="Path 786" class="cls-3" d="M317.934,3675.733c0,5.166-2.833,7.954-7.955,7.954h-44.5c-4.919,0-7.721-2.788-7.721-7.867v-44.138c0-5.283,2.723-8.034,7.984-8.034h44.24c5.122,0,7.955,2.751,7.955,7.845ZM287.823,3598a55.661,55.661,0,1,0,55.653,55.682A55.666,55.666,0,0,0,287.823,3598" transform="translate(-232.214 -3597.996)"/>
    </g>
  </g>
</svg>
