<svg xmlns="http://www.w3.org/2000/svg" xmlns:xlink="http://www.w3.org/1999/xlink" width="112.34" height="112.34" viewBox="0 0 112.34 112.34">
  <defs>
    <style>
      .cls-1 {
        fill: none;
      }

      .cls-2 {
        clip-path: url(#clip-path);
      }

      .cls-3 {
        fill: #171a44;
      }
    </style>
    <clipPath id="clip-path">
      <rect class="cls-1" width="112.34" height="112.34"/>
    </clipPath>
  </defs>
  <g id="linkedin" class="cls-2">
    <path id="linkedin-2" data-name="linkedin" class="cls-3" d="M56.17,0a56.17,56.17,0,1,0,56.17,56.17A56.176,56.176,0,0,0,56.17,0ZM39.848,84.913H26.168V43.757h13.68Zm-6.84-46.776h-.089c-4.591,0-7.559-3.16-7.559-7.11,0-4.039,3.06-7.111,7.739-7.111s7.56,3.073,7.649,7.111C40.748,34.977,37.779,38.137,33.008,38.137ZM89.175,84.913H75.5V62.9c0-5.533-1.981-9.307-6.93-9.307a7.489,7.489,0,0,0-7.019,5,9.368,9.368,0,0,0-.45,3.338V84.913H47.418s.179-37.3,0-41.156H61.1v5.827a13.581,13.581,0,0,1,12.328-6.793c9,0,15.749,5.882,15.749,18.523Zm0,0" transform="translate(0 0)"/>
  </g>
</svg>
