<?xml version="1.0" encoding="utf-8"?>
<!-- Generator: Adobe Illustrator 15.0.0, SVG Export Plug-In . SVG Version: 6.00 Build 0)  -->
<!DOCTYPE svg PUBLIC "-//W3C//DTD SVG 1.1//EN" "http://www.w3.org/Graphics/SVG/1.1/DTD/svg11.dtd">
<svg version="1.1" id="Layer_1" xmlns="http://www.w3.org/2000/svg" xmlns:xlink="http://www.w3.org/1999/xlink" x="0px" y="0px"
	 width="526.67px" height="823.235px" viewBox="0 0 526.67 823.235" enable-background="new 0 0 526.67 823.235"
	 xml:space="preserve">
<rect x="17.019" y="215.756" fill-rule="evenodd" clip-rule="evenodd" fill="#FFFFFF" width="493.096" height="467.645"/>
<g>
	<path fill-rule="evenodd" clip-rule="evenodd" fill="#1DB8A4" d="M0.231,205.402c175.557,0,351.111,0,526.67,0
		c0,162.784,0,325.566,0,488.353c-175.557,0-351.109,0-526.67,0c0-1.088,0-2.174,0-3.261C0.231,528.798,0.231,367.099,0.231,205.402
		z M255.413,229.859c-2.188-1.948-4.334,1.088-6.521,1.632c-31.064,13.232-60.764,27.828-92.127,40.762
		c-12.08,30.317-24.646,60.145-36.688,90.498c-1.018,1.974-2.02,3.962-2.445,6.521c-11.607,26.711-22.393,54.247-33.428,81.528
		c-1.016,1.976-2.018,3.96-2.445,6.522c-2.451,4.887-4.635,10.041-6.521,15.489c-1.016,1.975-2.02,3.962-2.447,6.524
		c-14.596,34.049-28.371,68.918-42.395,103.541c43.334,18.898,88.291,36.176,132.076,54.623c-29.078,0-58.158,0-87.234,0
		c-14.551,11.538-30.354,21.825-43.211,35.057c154.629,0,309.266,0,463.893,0c-3.604-6.721-11.525-12.016-18.75-17.936
		c-5.65-4.636-14.963-15.47-22.012-17.121c-12.33-2.891-30.148,0-45.656,0c-15.879,0-33.871,0-47.285,0
		c1.236-2.566,2.717-4.893,3.26-8.154c5.846-12.633,10.967-25.992,16.307-39.133c1.016-1.974,2.018-3.96,2.445-6.522
		c1.279-2.257,2.531-4.532,3.262-7.335c1.016-1.975,2.02-3.964,2.447-6.524c7.75-17.252,14.768-35.233,22.012-52.992
		c1.014-1.974,2.016-3.96,2.445-6.522c5.939-12.541,10.904-26.055,16.307-39.135c1.014-1.973,2.016-3.959,2.443-6.521
		c1.279-2.256,2.533-4.531,3.262-7.338c1.016-1.974,2.02-3.962,2.447-6.522c5.844-12.631,10.963-25.994,16.305-39.133
		c1.016-1.974,2.02-3.96,2.445-6.524c7.865-17.137,14.717-35.287,22.012-52.992c1.016-1.972,2.018-3.958,2.447-6.521
		c1.279-2.256,2.531-4.536,3.26-7.339c1.016-1.973,2.02-3.959,2.447-6.521c1.162-1.556,1.893-3.539,2.447-5.708
		c-1.92-3.788-7.402-4.011-11.416-5.706c-8.949-4.098-18.242-7.848-27.719-11.415c-1.973-1.015-3.961-2.017-6.521-2.445
		c-18.846-8.331-38.518-15.833-57.887-23.644c-1.973-1.016-3.961-2.018-6.52-2.445c-20.281-8.799-41.166-16.991-61.963-25.273
		c-1.977-1.016-3.961-2.019-6.523-2.445c-8.896-4.146-18.369-7.722-27.719-11.414c-1.975-1.016-3.961-2.019-6.521-2.447
		C270.509,235.418,262.913,232.688,255.413,229.859z"/>
	<path fill-rule="evenodd" clip-rule="evenodd" fill="#27428C" d="M362.216,637.501c13.414,0,31.406,0,47.285,0
		c15.508,0,33.326-2.891,45.656,0c7.049,1.651,16.361,12.485,22.012,17.121c7.225,5.92,15.146,11.215,18.75,17.936
		c-154.627,0-309.264,0-463.893,0c12.857-13.231,28.66-23.519,43.211-35.057c29.076,0,58.156,0,87.234,0
		c1.158-0.07,2.309-0.137,2.445,0.814c-29.35,0-58.699,0-88.051,0c-15.668,9.877-29.379,21.712-43.209,33.428
		c153.541,0,307.094,0,460.635,0c-4.24-6.204-11.125-10.765-18.754-17.121c-5.082-4.236-13.924-14.67-20.381-16.307
		c-12.406-3.146-30.107,0-47.287,0c-16.434,0-36.492-0.604-46.469,0.816C361.269,638.184,361.577,637.68,362.216,637.501z"/>
	<path fill-rule="evenodd" clip-rule="evenodd" fill="#778A8D" d="M174.702,282.038c16.092,3.477,33.289,12.909,50.545,17.936
		c9.529-17.917,16.428-38.471,24.459-57.884c-1.885,23.116-9.166,47.901-13.045,71.745
		C215.646,303.597,195.841,292.149,174.702,282.038z"/>
	<path fill-rule="evenodd" clip-rule="evenodd" fill="#B0BFC1" d="M167.362,277.146c19.592,7.314,38.205,15.604,58.701,22.013
		c7.492-21.313,17.143-40.47,24.459-61.96c1.322-0.555,2.467-5.879,2.443-0.816c-5.918,25.605-9.561,53.487-16.305,78.267
		c-2.387,0.212-2.506-1.843-4.891-1.628c-2.74-3.24-7.773-4.187-11.414-6.524c-2.562-0.969-4.314-2.752-7.336-3.261
		c-3.281-3.516-8.865-4.725-13.047-7.338c-2.041-0.677-3.201-2.233-5.707-2.445c-3.818-3.791-9.953-5.266-14.674-8.153
		c-1.553-0.349-2.049-1.757-4.078-1.63c-2.568-3.681-8.842-3.658-11.412-7.338C165.644,276.148,165.901,277.25,167.362,277.146z
		 M236.661,313.835c3.879-23.844,11.16-48.629,13.045-71.745c-8.031,19.413-14.93,39.967-24.459,57.884
		c-17.256-5.026-34.453-14.459-50.545-17.936C195.841,292.149,215.646,303.597,236.661,313.835z"/>
	<path fill-rule="evenodd" clip-rule="evenodd" fill="#27428C" d="M251.073,370.536c3.887,22.748,8.938,44.327,12.23,67.668
		c19.08-10.005,38.42-26.793,57.068-39.948c14.947,5.979,29.893,11.956,44.84,17.935c-30.199,23.066-63.182,43.351-92.941,66.855
		c7.572,39.983,16.012,79.105,23.643,119.029c-16.461-4.466-29.777-12.071-45.654-17.119c-4.232-25.663-9.148-50.641-13.861-75.822
		c-21.957,13.914-42.254,29.49-62.775,44.841c-15.232-5.964-30.318-12.077-45.656-17.937c31.842-24.956,66.822-46.773,99.465-70.931
		c-6.447-38.12-14.438-74.702-22.014-111.691C220.149,356.37,236.138,365.072,251.073,370.536z"/>
	<path fill-rule="evenodd" clip-rule="evenodd" fill="#27428C" d="M164.917,638.315c14.914,5.195,28.346,11.873,43.209,17.122
		c-0.148,0.692,0.318,0.768,0.816,0.813c44.58,3.252,98.367,1.64,144.305,0.817c0.727-0.362,1.457-0.717,1.629-1.631
		c1.602-5.738,5.203-9.476,5.707-16.306c0.273,0,0.545,0,0.818,0c9.977-1.42,30.035-0.816,46.469-0.816
		c17.18,0,34.881-3.146,47.287,0c6.457,1.637,15.299,12.07,20.381,16.307c7.629,6.356,14.514,10.917,18.754,17.121
		c-153.541,0-307.094,0-460.635,0c13.83-11.716,27.541-23.551,43.209-33.428C106.218,638.315,135.567,638.315,164.917,638.315z"/>
	<path fill-rule="evenodd" clip-rule="evenodd" fill="#27428C" d="M208.942,656.251c0.543,0,1.088,0,1.631,0
		c45.928,1.903,95.385,0.272,142.674,0.817C307.31,657.891,253.522,659.503,208.942,656.251z"/>
	<path fill-rule="evenodd" clip-rule="evenodd" fill="#27428C" d="M210.573,656.251c47.559-0.543,97.289,1.088,143.49-0.813
		c0.27,0,0.543,0,0.812,0c-0.172,0.914-0.902,1.269-1.629,1.631C305.958,656.523,256.501,658.154,210.573,656.251z"/>
</g>
<rect x="45.034" y="750.692" fill-rule="evenodd" clip-rule="evenodd" fill="#27428C" width="437.064" height="72.543"/>
<rect x="94.532" y="83.058" fill-rule="evenodd" clip-rule="evenodd" fill="#27428C" width="338.068" height="72.543"/>
<rect x="17.019" fill-rule="evenodd" clip-rule="evenodd" fill="#27428C" width="493.096" height="72.543"/>
<g>
	<path fill="#FFFFFF" d="M57.935,38.127V52.58h-7.727V38.127l-14.73-24.458h8.894l8.338,13.563l1.334,2.612l1.391-2.612
		l8.338-13.563h8.895L57.935,38.127z"/>
	<path fill="#FFFFFF" d="M99.609,38.461c0,8.728-6.336,14.73-14.842,14.73c-8.449,0-14.73-6.003-14.73-14.73
		s6.281-14.676,14.73-14.676C93.273,23.785,99.609,29.733,99.609,38.461z M77.486,38.461c0,4.613,3.001,8.115,7.337,8.115
		c4.392,0,7.282-3.502,7.282-8.115c0-4.67-2.891-8.116-7.282-8.116C80.487,30.345,77.486,33.791,77.486,38.461z"/>
	<path fill="#FFFFFF" d="M127.893,52.58h-6.17l-0.557-3.669c-1.278,2.446-3.779,4.28-7.448,4.28c-6.06,0-9.062-4.113-9.062-10.506
		V24.397h7.227v16.676c0,3.335,1.334,5.114,4.003,5.114c2.612,0,4.836-2.112,4.836-6.671V24.397h7.171V52.58z"/>
	<path fill="#FFFFFF" d="M150.162,31.346c-2.224,0-3.947,0.389-5.615,1.667c-1.334,1.057-2.168,2.669-2.278,5.226V52.58h-7.227
		V24.397h6.226l0.668,4.502c0.944-2.501,3.445-4.78,8.227-4.78V31.346z"/>
	<path fill="#FFFFFF" d="M181.68,52.58h-7.338L164.17,24.397h7.781l5.504,17.287l0.556,2.446l0.556-2.446l5.504-17.287h7.838
		L181.68,52.58z"/>
	<path fill="#FFFFFF" d="M222.414,38.461c0,8.728-6.336,14.73-14.842,14.73c-8.449,0-14.73-6.003-14.73-14.73
		s6.281-14.676,14.73-14.676C216.078,23.785,222.414,29.733,222.414,38.461z M200.291,38.461c0,4.613,3.001,8.115,7.337,8.115
		c4.392,0,7.282-3.502,7.282-8.115c0-4.67-2.891-8.116-7.282-8.116C203.292,30.345,200.291,33.791,200.291,38.461z"/>
	<path fill="#FFFFFF" d="M236.562,24.397h6.447v6.559h-6.504l-0.11,11.396c0,2.891,0.89,4.059,3.669,4.059
		c1.389,0,2.168-0.167,2.945-0.39v6.337c-0.889,0.334-2.334,0.611-4.558,0.611c-6.171,0-9.339-2.501-9.283-8.894l0.111-13.119
		h-4.614v-6.559h4.614l0.056-6.838h7.281L236.562,24.397z"/>
	<path fill="#FFFFFF" d="M273.139,38.461v2.224h-19.623c0.223,3.724,2.836,6.337,6.782,6.337c2.779,0,4.892-1.168,5.67-3.28h7.004
		c-1.724,5.948-6.06,9.45-12.896,9.45c-8.338,0-14.008-5.781-14.008-14.675c0-8.505,5.614-14.731,14.008-14.731
		C267.524,23.785,273.139,28.455,273.139,38.461z M253.572,35.682h12.284c-0.056-3.558-2.39-5.893-5.948-5.893
		C256.295,29.789,253.905,32.235,253.572,35.682z"/>
	<path fill="#FFFFFF" d="M330.616,34.292V52.58h-7.227V35.849c0-3.28-1.278-5.059-3.946-5.059s-4.836,2.112-4.947,6.559V52.58
		h-7.227V35.849c0-3.28-1.334-5.059-3.946-5.059c-2.78,0-4.947,2.223-4.947,6.893V52.58h-7.171V24.397h6.17l0.556,3.668
		c1.278-2.39,3.836-4.28,7.505-4.28c4.002,0,6.726,1.835,8.06,4.948c1.334-2.669,4.114-4.948,8.116-4.948
		C327.614,23.785,330.616,27.899,330.616,34.292z"/>
	<path fill="#FFFFFF" d="M359.289,34.069V52.58h-6.17l-0.444-3.446c-1.501,2.279-4.059,4.058-8.061,4.058
		c-5.003,0-8.561-3.058-8.561-8.115c0-5.504,3.725-7.616,8.728-8.45l7.281-1.334v-1.056c0-2.779-1.39-4.28-3.946-4.28
		c-2.391,0-4.225,1.445-4.225,3.725h-7.004c0.333-5.726,4.558-9.896,11.229-9.896S359.289,27.177,359.289,34.069z M346.448,41.296
		c-1.89,0.444-3.168,1.278-3.168,3.168c0,1.668,1.167,2.779,3.279,2.779c1.779,0,3.502-0.889,4.503-2.557
		c0.611-0.945,1-2.335,1-3.725v-0.834L346.448,41.296z"/>
	<path fill="#FFFFFF" d="M374.771,24.397h6.448v6.559h-6.504l-0.111,11.396c0,2.891,0.89,4.059,3.669,4.059
		c1.39,0,2.168-0.167,2.946-0.39v6.337c-0.89,0.334-2.335,0.611-4.559,0.611c-6.17,0-9.338-2.501-9.283-8.894l0.111-13.119h-4.613
		v-6.559h4.613l0.056-6.838h7.282L374.771,24.397z"/>
	<path fill="#FFFFFF" d="M396.167,24.397h6.448v6.559h-6.504L396,42.352c0,2.891,0.89,4.059,3.669,4.059
		c1.39,0,2.168-0.167,2.946-0.39v6.337c-0.89,0.334-2.335,0.611-4.559,0.611c-6.17,0-9.338-2.501-9.283-8.894l0.111-13.119h-4.613
		v-6.559h4.613l0.056-6.838h7.282L396.167,24.397z"/>
	<path fill="#FFFFFF" d="M432.744,38.461v2.224h-19.622c0.223,3.724,2.835,6.337,6.781,6.337c2.78,0,4.893-1.168,5.67-3.28h7.005
		c-1.724,5.948-6.06,9.45-12.896,9.45c-8.339,0-14.009-5.781-14.009-14.675c0-8.505,5.615-14.731,14.009-14.731
		C427.13,23.785,432.744,28.455,432.744,38.461z M413.178,35.682h12.285c-0.056-3.558-2.391-5.893-5.948-5.893
		C415.901,29.789,413.511,32.235,413.178,35.682z"/>
	<path fill="#FFFFFF" d="M453.651,31.346c-2.224,0-3.946,0.389-5.614,1.667c-1.334,1.057-2.168,2.669-2.279,5.226V52.58h-7.227
		V24.397h6.227l0.667,4.502c0.944-2.501,3.446-4.78,8.227-4.78V31.346z"/>
	<path fill="#FFFFFF" d="M477.955,32.68h-7.171c-0.056-2.057-1.057-3.224-3.225-3.224c-2.057,0-3.113,1.167-3.113,2.779
		c0,1.723,1.001,2.557,4.948,3.224c6.837,1.167,9.172,3.947,9.172,8.561c0,6.393-5.059,9.172-10.896,9.172
		c-6.948,0-10.84-3.613-11.007-9.172h7.115c0.056,2.279,1.612,3.446,4.059,3.446c2.224,0,3.502-1,3.502-2.668
		c0-1.724-0.89-2.724-5.114-3.502c-6.17-1.057-9.005-3.725-9.005-8.338c0-4.893,3.446-9.173,10.395-9.173
		C473.563,23.785,477.732,27.343,477.955,32.68z"/>
	<path fill="#FFFFFF" d="M491.656,48.8c0,2.502-2.001,4.392-4.447,4.392c-2.501,0-4.446-1.89-4.446-4.392
		c0-2.501,1.945-4.336,4.446-4.336C489.655,44.464,491.656,46.299,491.656,48.8z"/>
	<path fill="#FFFFFF" d="M146.409,116.507c0,11.507-7.838,19.456-20.122,19.456h-14.564V97.052h14.564
		C138.571,97.052,146.409,105.001,146.409,116.507z M119.338,104.167v24.681h6.949c7.727,0,12.174-4.503,12.174-12.341
		c0-7.782-4.393-12.34-12.174-12.34H119.338z"/>
	<path fill="#FFFFFF" d="M180.002,121.844c0,8.728-6.338,14.73-14.843,14.73c-8.449,0-14.73-6.003-14.73-14.73
		s6.281-14.676,14.73-14.676C173.664,107.168,180.002,113.116,180.002,121.844z M157.877,121.844c0,4.613,3.002,8.115,7.338,8.115
		c4.392,0,7.282-3.502,7.282-8.115c0-4.67-2.891-8.116-7.282-8.116C160.879,113.728,157.877,117.174,157.877,121.844z"/>
	<path fill="#FFFFFF" d="M208.796,117.675v18.288h-7.282v-16.731c0-3.28-1.389-5.059-4.002-5.059c-2.779,0-5.003,2.223-5.003,6.893
		v14.897h-7.171V107.78h6.17l0.557,3.668c1.278-2.39,3.836-4.28,7.615-4.28C205.684,107.168,208.796,111.282,208.796,117.675z"/>
	<path fill="#FFFFFF" d="M220.547,99.72c0,3.725-2.057,7.838-4.613,10.673l-2.057-0.723c0.945-1.945,1.445-3.946,1.723-6.337
		c-2.111-0.278-3.725-1.89-3.725-4.058c0-2.391,1.946-4.28,4.336-4.28C218.657,94.995,220.547,96.829,220.547,99.72z"/>
	<path fill="#FFFFFF" d="M235.15,107.78h6.448v6.559h-6.504l-0.11,11.396c0,2.891,0.889,4.059,3.668,4.059
		c1.39,0,2.168-0.167,2.946-0.39v6.337c-0.89,0.334-2.335,0.611-4.558,0.611c-6.171,0-9.34-2.501-9.283-8.894l0.111-13.119h-4.614
		v-6.559h4.614l0.055-6.838h7.282L235.15,107.78z"/>
	<path fill="#FFFFFF" d="M266.669,135.963h-7.227V95.384h7.227V135.963z"/>
	<path fill="#FFFFFF" d="M301.583,121.844c0,8.728-6.337,14.73-14.843,14.73c-8.449,0-14.73-6.003-14.73-14.73
		s6.281-14.676,14.73-14.676C295.246,107.168,301.583,113.116,301.583,121.844z M279.459,121.844c0,4.613,3.002,8.115,7.338,8.115
		c4.391,0,7.281-3.502,7.281-8.115c0-4.67-2.891-8.116-7.281-8.116C282.461,113.728,279.459,117.174,279.459,121.844z"/>
	<path fill="#FFFFFF" d="M326.275,116.062h-7.17c-0.056-2.057-1.057-3.224-3.225-3.224c-2.057,0-3.113,1.167-3.113,2.779
		c0,1.723,1.001,2.557,4.948,3.224c6.837,1.167,9.172,3.947,9.172,8.561c0,6.393-5.059,9.172-10.896,9.172
		c-6.948,0-10.84-3.613-11.007-9.172h7.115c0.056,2.279,1.612,3.446,4.059,3.446c2.224,0,3.502-1,3.502-2.668
		c0-1.724-0.89-2.724-5.114-3.502c-6.17-1.057-9.005-3.725-9.005-8.338c0-4.893,3.446-9.173,10.395-9.173
		C321.885,107.168,326.054,110.726,326.275,116.062z"/>
	<path fill="#FFFFFF" d="M357.477,121.844v2.224h-19.622c0.223,3.724,2.835,6.337,6.781,6.337c2.78,0,4.893-1.168,5.67-3.28h7.005
		c-1.724,5.948-6.06,9.45-12.896,9.45c-8.339,0-14.009-5.781-14.009-14.675c0-8.505,5.615-14.731,14.009-14.731
		C351.862,107.168,357.477,111.838,357.477,121.844z M337.91,119.064h12.285c-0.056-3.558-2.391-5.893-5.948-5.893
		C340.634,113.172,338.243,115.618,337.91,119.064z"/>
	<path fill="#FFFFFF" d="M383.603,99.497c0,2.446-2.001,4.28-4.392,4.28c-2.445,0-4.391-1.834-4.391-4.28
		c0-2.39,1.945-4.28,4.391-4.28C381.602,95.217,383.603,97.107,383.603,99.497z M382.824,135.963h-7.226V107.78h7.226V135.963z"/>
	<path fill="#FFFFFF" d="M398.673,107.78h6.448v6.559h-6.504l-0.111,11.396c0,2.891,0.89,4.059,3.669,4.059
		c1.39,0,2.168-0.167,2.946-0.39v6.337c-0.89,0.334-2.335,0.611-4.559,0.611c-6.17,0-9.338-2.501-9.283-8.894l0.111-13.119h-4.613
		v-6.559h4.613l0.056-6.838h7.282L398.673,107.78z"/>
	<path fill="#FFFFFF" d="M418.857,132.183c0,2.502-2.001,4.392-4.447,4.392c-2.501,0-4.446-1.89-4.446-4.392
		c0-2.501,1.945-4.336,4.446-4.336C416.856,127.847,418.857,129.682,418.857,132.183z"/>
	<path fill="#FFFFFF" d="M91.342,776.516c0,4.836-2.502,8.616-6.782,10.562l8.449,15.954h-8.728l-7.56-14.564h-3.446v14.564H65.66
		V764.12h12.006C86.005,764.12,91.342,769.123,91.342,776.516z M73.275,771.235v10.45h4.391c3.559,0,5.838-1.724,5.838-5.17
		c0-3.502-2.279-5.28-5.838-5.28H73.275z"/>
	<path fill="#FFFFFF" d="M122.521,788.912v2.224h-19.622c0.222,3.724,2.834,6.337,6.781,6.337c2.779,0,4.892-1.168,5.67-3.28h7.004
		c-1.723,5.948-6.059,9.45-12.896,9.45c-8.338,0-14.008-5.781-14.008-14.675c0-8.505,5.614-14.731,14.008-14.731
		C116.906,774.236,122.521,778.906,122.521,788.912z M102.953,786.133h12.285c-0.056-3.558-2.391-5.893-5.947-5.893
		C105.678,780.24,103.287,782.687,102.953,786.133z"/>
	<path fill="#FFFFFF" d="M153.588,780.963h-4.169c0.333,1.001,0.556,2.112,0.556,3.279c0,5.67-4.613,9.784-11.117,9.784
		c-1.723,0-3.279-0.223-4.67-0.723c-0.389,0.5-0.666,1.167-0.666,2.057c0,1.445,1.056,2.334,2.834,2.334h6.615
		c5.781,0,9.228,2.78,9.228,8.116c0,6.337-4.947,9.783-12.452,9.783c-8.393,0-12.785-3.112-12.785-8.671
		c0-2.446,1.445-4.059,2.836-4.948c-1.724-1.167-3.279-3.335-3.279-6.059c0-2.668,1.223-4.559,2.89-5.948
		c-1.223-1.556-1.945-3.502-1.945-5.726c0-5.836,4.78-10.006,11.396-10.006c1.445,0,2.835,0.223,4.058,0.612h10.673V780.963z
		 M136.912,803.143c-1.612,0.223-2.891,1.334-2.891,3.224c0,2.558,2.279,3.836,5.781,3.836c3.279,0,5.336-1.334,5.336-3.947
		c0-2.112-1.557-3.112-4.002-3.112H136.912z M134.577,784.242c0,2.613,1.724,4.447,4.225,4.447s4.169-1.834,4.169-4.447
		c0-2.724-1.668-4.558-4.169-4.558C136.244,779.685,134.577,781.519,134.577,784.242z"/>
	<path fill="#FFFFFF" d="M165.268,766.565c0,2.446-2.002,4.28-4.392,4.28c-2.446,0-4.392-1.834-4.392-4.28
		c0-2.39,1.945-4.28,4.392-4.28C163.266,762.285,165.268,764.176,165.268,766.565z M164.489,803.031h-7.227v-28.183h7.227V803.031z"
		/>
	<path fill="#FFFFFF" d="M191.132,783.131h-7.171c-0.056-2.057-1.057-3.224-3.225-3.224c-2.057,0-3.112,1.167-3.112,2.779
		c0,1.723,1.001,2.557,4.947,3.224c6.837,1.167,9.172,3.947,9.172,8.561c0,6.393-5.059,9.172-10.896,9.172
		c-6.948,0-10.84-3.613-11.006-9.172h7.115c0.056,2.279,1.611,3.446,4.058,3.446c2.224,0,3.503-1,3.503-2.668
		c0-1.724-0.891-2.724-5.115-3.502c-6.17-1.057-9.005-3.725-9.005-8.338c0-4.893,3.446-9.173,10.396-9.173
		C186.74,774.236,190.91,777.794,191.132,783.131z"/>
	<path fill="#FFFFFF" d="M206.307,774.849h6.449v6.559h-6.504l-0.111,11.396c0,2.891,0.889,4.059,3.668,4.059
		c1.391,0,2.168-0.167,2.947-0.39v6.337c-0.89,0.334-2.335,0.611-4.559,0.611c-6.17,0-9.339-2.501-9.283-8.894l0.111-13.119h-4.613
		v-6.559h4.613l0.056-6.838h7.282L206.307,774.849z"/>
	<path fill="#FFFFFF" d="M242.885,788.912v2.224h-19.623c0.223,3.724,2.835,6.337,6.781,6.337c2.779,0,4.893-1.168,5.67-3.28h7.004
		c-1.723,5.948-6.059,9.45-12.896,9.45c-8.338,0-14.008-5.781-14.008-14.675c0-8.505,5.615-14.731,14.008-14.731
		C237.27,774.236,242.885,778.906,242.885,788.912z M223.317,786.133h12.284c-0.055-3.558-2.39-5.893-5.947-5.893
		C226.041,780.24,223.65,782.687,223.317,786.133z"/>
	<path fill="#FFFFFF" d="M263.791,781.797c-2.224,0-3.947,0.389-5.615,1.667c-1.334,1.057-2.168,2.669-2.278,5.226v14.342h-7.227
		v-28.183h6.226l0.668,4.502c0.944-2.501,3.445-4.78,8.227-4.78V781.797z"/>
	<path fill="#FFFFFF" d="M290.027,774.849h6.449v6.559h-6.504l-0.111,11.396c0,2.891,0.889,4.059,3.669,4.059
		c1.39,0,2.168-0.167,2.946-0.39v6.337c-0.89,0.334-2.335,0.611-4.559,0.611c-6.17,0-9.339-2.501-9.283-8.894l0.111-13.119h-4.613
		v-6.559h4.613l0.056-6.838h7.282L290.027,774.849z"/>
	<path fill="#FFFFFF" d="M328.945,788.912c0,8.728-6.337,14.73-14.842,14.73c-8.449,0-14.731-6.003-14.731-14.73
		s6.282-14.676,14.731-14.676C322.608,774.236,328.945,780.185,328.945,788.912z M306.821,788.912c0,4.613,3.002,8.115,7.338,8.115
		c4.391,0,7.281-3.502,7.281-8.115c0-4.67-2.891-8.116-7.281-8.116C309.823,780.796,306.821,784.242,306.821,788.912z"/>
	<path fill="#FFFFFF" d="M360.854,803.031h-7.338l-10.173-28.183h7.782l5.504,17.287l0.556,2.446l0.556-2.446l5.503-17.287h7.838
		L360.854,803.031z"/>
	<path fill="#FFFFFF" d="M401.588,788.912c0,8.728-6.337,14.73-14.842,14.73c-8.449,0-14.731-6.003-14.731-14.73
		s6.282-14.676,14.731-14.676C395.251,774.236,401.588,780.185,401.588,788.912z M379.464,788.912c0,4.613,3.002,8.115,7.338,8.115
		c4.391,0,7.281-3.502,7.281-8.115c0-4.67-2.891-8.116-7.281-8.116C382.466,780.796,379.464,784.242,379.464,788.912z"/>
	<path fill="#FFFFFF" d="M415.735,774.849h6.448v6.559h-6.504l-0.111,11.396c0,2.891,0.89,4.059,3.669,4.059
		c1.39,0,2.168-0.167,2.946-0.39v6.337c-0.89,0.334-2.335,0.611-4.559,0.611c-6.17,0-9.338-2.501-9.283-8.894l0.111-13.119h-4.613
		v-6.559h4.613l0.056-6.838h7.282L415.735,774.849z"/>
	<path fill="#FFFFFF" d="M452.312,788.912v2.224H432.69c0.223,3.724,2.835,6.337,6.781,6.337c2.78,0,4.893-1.168,5.67-3.28h7.005
		c-1.724,5.948-6.06,9.45-12.896,9.45c-8.339,0-14.009-5.781-14.009-14.675c0-8.505,5.615-14.731,14.009-14.731
		C446.698,774.236,452.312,778.906,452.312,788.912z M432.746,786.133h12.285c-0.056-3.558-2.391-5.893-5.948-5.893
		C435.47,780.24,433.079,782.687,432.746,786.133z"/>
	<path fill="#FFFFFF" d="M464.92,799.251c0,2.502-2.001,4.392-4.447,4.392c-2.501,0-4.446-1.89-4.446-4.392
		c0-2.501,1.945-4.336,4.446-4.336C462.919,794.915,464.92,796.75,464.92,799.251z"/>
</g>
</svg>
