<svg id="Layer_1" data-name="Layer 1" xmlns="http://www.w3.org/2000/svg" viewBox="0 0 25 25"><defs><style>.cls-1{fill-rule:evenodd;}</style></defs><title>SOCIALMEDIABLACK</title><path d="M12.55,3.24A9.61,9.61,0,1,1,3,12.85a9.6,9.6,0,0,1,9.6-9.61m0-.49a10.1,10.1,0,1,0,10.09,10.1A10.11,10.11,0,0,0,12.55,2.75Z"/><path class="cls-1" d="M6.74,16.75a5.39,5.39,0,0,0,2.63-.45,4.57,4.57,0,0,0,1.05-.63,2.52,2.52,0,0,1-1.09-.28,2.44,2.44,0,0,1-1.2-1.34c-.06-.14-.06-.14.09-.13a2.05,2.05,0,0,0,.93-.06,2.49,2.49,0,0,1-.6-.22,2.54,2.54,0,0,1-1.36-2.16c0-.11,0-.12.12-.07a2.64,2.64,0,0,0,1,.27c-.16-.15-.3-.26-.42-.39a2.57,2.57,0,0,1-.4-2.86c.06-.12.08-.12.17,0a7.14,7.14,0,0,0,4.4,2.46c.18,0,.38,0,.56.08s.14,0,.12-.14A2.53,2.53,0,0,1,14,8.16a2.51,2.51,0,0,1,3,.37.29.29,0,0,0,.28.07,4.93,4.93,0,0,0,1.33-.53A.3.3,0,0,0,18.68,8,2.47,2.47,0,0,1,17.61,9.4,5,5,0,0,0,19,9.05c0,.06,0,.09-.06.14a5.32,5.32,0,0,1-1.05,1.07.22.22,0,0,0-.09.2A7.34,7.34,0,0,1,16,15.39a6.78,6.78,0,0,1-4.22,2.37,7.19,7.19,0,0,1-5-1Z"/></svg>