<svg id="Layer_1" data-name="Layer 1" xmlns="http://www.w3.org/2000/svg" viewBox="0 0 25 25"><title>SOCIALMEDIABLACK</title><path d="M12.2,3.25A9.59,9.59,0,0,1,13,22.4a4.52,4.52,0,0,1-.82.05,9.47,9.47,0,0,1-2.08-.22,9.6,9.6,0,0,1,2.08-19m0-.5a10.1,10.1,0,0,0-2.19,20,10.35,10.35,0,0,0,2.19.23,5.43,5.43,0,0,0,.9-.05,10.09,10.09,0,0,0-.9-20.14Z"/><path d="M13.29,8.27a1.15,1.15,0,0,1,.87-.3,4.88,4.88,0,0,1,1.31.19l.37-2a7,7,0,0,0-2.38-.34,3.9,3.9,0,0,0-2,.42,2.19,2.19,0,0,0-1.06,1.09,5.18,5.18,0,0,0-.3,2v.79H8.53v2.3h1.59v7.24a9.47,9.47,0,0,0,2.08.22,4.52,4.52,0,0,0,.82-.05V12.43h2.1v-2.3H13V9.39A1.57,1.57,0,0,1,13.29,8.27Z"/></svg>