<svg xmlns="http://www.w3.org/2000/svg" xmlns:xlink="http://www.w3.org/1999/xlink" width="45" height="45" viewBox="0 0 45 45">
  <defs>
    <polyline id="social-snapchat-a" points=".938 .019 25.86 .019 25.86 24.019 .938 24.019 .938 .019"/>
    <polyline id="social-snapchat-c" points=".938 .019 25.86 .019 25.86 24.019 .938 24.019 .938 .019"/>
  </defs>
  <g fill="none" fill-rule="evenodd">
    <path fill="#FFF900" fill-rule="nonzero" d="M2,0 L43,0 C44.104,0 45,0.896 45,2 L45,43 C45,44.104 44.104,45 43,45 L2,45 C0.896,45 0,44.104 0,43 L0,2 C0,0.896 0.896,0 2,0"/>
    <path fill="#FFF" fill-rule="nonzero" d="M22.42,34.38 L22.252,34.38 L22.126,34.38 C20.694,34.38 19.938,33.96 19.054,33.329 C18.423,32.907 17.833,32.487 17.16,32.36 C16.781,32.319 16.444,32.276 16.108,32.276 C15.518,32.276 15.055,32.36 14.719,32.444 C14.508,32.487 14.34,32.528 14.214,32.528 C14.087,32.528 13.919,32.487 13.835,32.276 C13.792,32.065 13.75,31.897 13.708,31.729 C13.624,31.266 13.54,30.971 13.329,30.93 C11.016,30.592 10.384,30.088 10.216,29.752 L10.216,29.582 C10.216,29.457 10.3,29.33 10.426,29.33 C13.961,28.74 15.56,25.121 15.602,24.996 C15.813,24.574 15.855,24.195 15.729,23.859 C15.476,23.269 14.676,23.017 14.171,22.849 C14.045,22.807 13.919,22.765 13.835,22.723 C12.782,22.302 12.698,21.881 12.74,21.671 C12.825,21.293 13.287,21.04 13.708,21.04 C13.835,21.04 13.919,21.04 14.003,21.082 C14.466,21.293 14.887,21.419 15.266,21.419 C15.771,21.419 15.981,21.209 16.023,21.167 C16.023,20.915 15.981,20.662 15.981,20.41 C15.855,18.726 15.729,16.664 16.276,15.486 C17.833,11.951 21.2,11.657 22.21,11.657 L22.631,11.657 L22.673,11.657 C23.683,11.657 27.05,11.951 28.649,15.486 C29.196,16.664 29.028,18.768 28.944,20.41 L28.944,20.494 C28.944,20.747 28.902,20.957 28.902,21.167 C28.944,21.209 29.112,21.377 29.575,21.419 C29.911,21.419 30.333,21.293 30.754,21.082 C30.88,21.04 31.006,20.999 31.132,20.999 C31.301,20.999 31.427,21.041 31.553,21.082 C31.89,21.208 32.143,21.461 32.143,21.713 C32.143,21.966 31.975,22.344 31.048,22.681 C30.964,22.723 30.838,22.765 30.712,22.807 C30.207,22.975 29.407,23.228 29.154,23.816 C29.028,24.111 29.07,24.49 29.281,24.953 C29.364,25.121 30.838,28.74 34.373,29.33 C34.499,29.371 34.583,29.457 34.583,29.582 L34.541,29.752 C34.415,30.088 33.825,30.551 31.511,30.93 C31.343,30.971 31.259,31.182 31.132,31.729 C31.091,31.897 31.048,32.108 31.006,32.276 C30.964,32.444 30.838,32.528 30.669,32.528 L30.627,32.528 C30.501,32.528 30.333,32.487 30.122,32.444 C29.743,32.36 29.281,32.319 28.733,32.319 C28.397,32.319 28.06,32.36 27.723,32.403 C27.05,32.528 26.46,32.95 25.829,33.37 C24.987,34.001 23.852,34.38 22.42,34.38"/>
    <g transform="translate(9 11)">
      <mask id="social-snapchat-b" fill="#fff">
        <use xlink:href="#social-snapchat-a"/>
      </mask>
      <path fill="#1D1D1B" fill-rule="nonzero" d="M6.267,10.419 C6.772,10.419 6.982,10.209 7.024,10.167 C7.024,9.915 6.982,9.662 6.982,9.41 C6.856,7.726 6.73,5.664 7.277,4.486 C8.834,0.951 12.201,0.657 13.211,0.657 L13.632,0.657 L13.674,0.657 C14.684,0.657 18.051,0.951 19.65,4.486 C20.197,5.664 20.029,7.768 19.945,9.41 L19.945,9.494 C19.945,9.747 19.903,9.957 19.903,10.167 C19.945,10.209 20.113,10.377 20.576,10.419 C20.912,10.419 21.334,10.293 21.755,10.082 C21.881,10.04 22.007,9.999 22.133,9.999 C22.302,9.999 22.428,10.041 22.554,10.082 C22.891,10.208 23.144,10.461 23.144,10.713 C23.144,10.966 22.976,11.344 22.049,11.681 C21.965,11.723 21.839,11.765 21.713,11.807 C21.208,11.975 20.408,12.228 20.155,12.816 C20.029,13.111 20.071,13.49 20.282,13.953 C20.365,14.121 21.839,17.74 25.374,18.33 C25.5,18.371 25.584,18.457 25.584,18.582 L25.542,18.752 C25.416,19.088 24.826,19.551 22.512,19.93 C22.344,19.971 22.26,20.182 22.133,20.729 C22.092,20.897 22.049,21.108 22.007,21.276 C21.965,21.444 21.839,21.528 21.67,21.528 L21.628,21.528 C21.502,21.528 21.334,21.487 21.123,21.444 C20.744,21.36 20.282,21.319 19.734,21.319 C19.398,21.319 19.061,21.36 18.724,21.403 C18.051,21.528 17.461,21.95 16.83,22.37 C15.988,23.001 14.852,23.38 13.421,23.38 L13.253,23.38 L13.127,23.38 C11.695,23.38 10.939,22.96 10.055,22.329 C9.424,21.907 8.834,21.487 8.161,21.36 C7.782,21.319 7.445,21.276 7.109,21.276 C6.519,21.276 6.056,21.36 5.72,21.444 C5.509,21.487 5.341,21.528 5.215,21.528 C5.088,21.528 4.92,21.487 4.836,21.276 C4.793,21.065 4.751,20.897 4.709,20.729 C4.625,20.266 4.541,19.971 4.33,19.93 C2.017,19.592 1.385,19.088 1.217,18.752 L1.217,18.582 C1.217,18.457 1.301,18.33 1.427,18.33 C4.962,17.74 6.561,14.121 6.603,13.996 C6.814,13.574 6.856,13.195 6.73,12.859 C6.477,12.269 5.677,12.017 5.172,11.849 C5.046,11.807 4.92,11.765 4.836,11.723 C3.783,11.302 3.699,10.881 3.741,10.671 C3.826,10.293 4.288,10.04 4.709,10.04 C4.836,10.04 4.92,10.04 5.004,10.082 C5.467,10.293 5.888,10.419 6.267,10.419 M13.627,0.019 L13.13,0.019 C12.093,0.019 8.568,0.319 6.867,4.176 C6.287,5.462 6.453,7.647 6.536,9.405 L6.536,9.491 C6.536,9.662 6.536,9.791 6.577,9.919 L6.328,9.962 C6.08,9.962 5.748,9.834 5.333,9.662 C5.126,9.576 4.919,9.533 4.794,9.533 C4.587,9.533 4.38,9.576 4.214,9.662 C3.716,9.833 3.384,10.262 3.384,10.69 C3.384,11.247 3.841,11.719 4.711,12.105 C4.794,12.148 4.919,12.191 5.043,12.234 C5.499,12.362 6.204,12.619 6.37,13.005 C6.453,13.219 6.411,13.476 6.246,13.818 L6.246,13.861 C6.08,14.247 4.67,17.505 1.518,18.061 C1.186,18.104 0.937,18.447 0.937,18.79 L0.937,18.79 L1.02,19.09 C1.31,19.734 2.264,20.204 4.213,20.505 C4.254,20.633 4.296,20.89 4.337,20.976 C4.379,21.191 4.42,21.362 4.462,21.576 C4.544,21.92 4.835,22.134 5.166,22.134 C5.332,22.134 5.54,22.091 5.788,22.048 C6.162,21.963 6.576,21.92 7.074,21.92 C7.364,21.92 7.696,21.963 7.986,22.006 C8.567,22.091 9.106,22.52 9.686,22.905 C10.764,23.634 12.008,24.019 13.418,24.019 L13.708,24.019 C15.325,24.019 16.113,23.547 16.983,22.905 C17.564,22.476 18.103,22.091 18.684,22.006 C19.016,21.92 19.305,21.877 19.637,21.877 C20.176,21.877 20.591,21.963 20.922,22.048 C21.13,22.091 21.338,22.134 21.503,22.134 C22.001,22.134 22.208,21.791 22.25,21.576 C22.291,21.362 22.332,21.148 22.374,20.976 C22.416,20.847 22.457,20.59 22.498,20.462 C24.447,20.118 25.525,19.691 25.774,19.005 C25.816,18.919 25.857,18.833 25.857,18.704 L25.857,18.704 C25.857,18.361 25.65,18.061 25.318,17.975 C22.043,17.418 20.59,13.947 20.507,13.818 C20.341,13.475 20.3,13.175 20.382,13.005 C20.548,12.618 21.253,12.361 21.668,12.234 C21.834,12.191 21.958,12.148 22.042,12.105 C23.285,11.59 23.451,10.991 23.368,10.562 C23.27,9.952 22.549,9.583 21.964,9.583 C21.81,9.583 21.665,9.609 21.544,9.663 C21.129,9.877 20.798,9.963 20.466,9.963 C20.341,9.963 20.217,9.92 20.134,9.92 C20.134,9.749 20.134,9.577 20.175,9.406 C20.3,7.649 20.424,5.463 19.843,4.177 C18.188,0.318 14.663,0.019 13.627,0.019" mask="url(#social-snapchat-b)"/>
      <g>
        <mask id="social-snapchat-d" fill="#fff">
          <use xlink:href="#social-snapchat-c"/>
        </mask>
        <path fill="#1D1D1B" fill-rule="nonzero" d="M6.287,10.776 C6.909,10.733 7.199,10.476 7.282,10.39 C7.365,10.304 7.407,10.176 7.407,10.047 C7.407,9.833 7.365,9.618 7.365,9.361 L7.365,9.276 C7.282,7.605 7.158,5.547 7.614,4.433 C9.107,1.133 12.217,0.876 13.13,0.876 L13.171,0.876 L13.586,0.876 C14.497,0.876 17.608,1.133 19.06,4.519 C19.558,5.633 19.433,7.69 19.308,9.362 C19.308,9.619 19.267,9.877 19.267,10.133 C19.267,10.261 19.308,10.347 19.392,10.433 C19.474,10.519 19.806,10.819 20.428,10.819 C20.843,10.819 21.341,10.691 21.838,10.433 L21.962,10.433 C22.211,10.433 22.501,10.605 22.501,10.733 C22.501,10.776 22.377,11.033 21.672,11.333 C21.589,11.375 21.506,11.418 21.382,11.418 C20.802,11.589 19.889,11.89 19.558,12.661 C19.392,13.09 19.433,13.604 19.681,14.161 C19.889,14.633 21.464,18.061 24.866,18.79 C24.658,18.962 24.037,19.347 22.212,19.604 C21.715,19.69 21.631,20.204 21.507,20.76 C21.465,20.932 21.424,21.104 21.383,21.275 C21.258,21.275 21.134,21.233 20.968,21.19 C20.637,21.104 20.139,21.018 19.517,21.018 C19.185,21.018 18.812,21.061 18.481,21.104 C17.692,21.233 17.071,21.704 16.448,22.175 C15.661,22.733 14.997,23.16 13.629,23.16 L13.619,23.16 L13.588,23.16 L13.42,23.16 C12.176,23.16 11.139,22.86 10.227,22.175 C9.605,21.703 8.942,21.233 8.195,21.104 C7.822,21.061 7.49,21.018 7.159,21.018 C6.578,21.018 6.122,21.104 5.707,21.19 C5.5,21.233 5.376,21.233 5.293,21.233 C5.251,21.061 5.21,20.889 5.168,20.76 C5.044,20.203 4.961,19.69 4.464,19.647 C2.681,19.346 2.1,19.004 1.893,18.833 C5.334,18.104 6.87,14.59 7.035,14.161 C7.284,13.604 7.367,13.09 7.16,12.661 C6.828,11.89 5.916,11.59 5.377,11.418 C5.252,11.376 5.128,11.333 5.045,11.29 C4.382,11.033 4.216,10.776 4.216,10.69 C4.216,10.648 4.299,10.519 4.506,10.433 C4.603,10.383 4.714,10.362 4.807,10.362 C4.872,10.362 4.928,10.373 4.962,10.39 C5.458,10.604 5.872,10.733 6.287,10.776 M13.673,0.657 L13.631,0.657 L13.21,0.657 C12.2,0.657 8.833,0.951 7.276,4.486 C6.729,5.664 6.855,7.726 6.981,9.41 C6.981,9.662 7.023,9.915 7.023,10.167 C6.981,10.209 6.771,10.419 6.266,10.419 C5.887,10.419 5.466,10.293 5.003,10.082 C4.919,10.04 4.835,10.04 4.708,10.04 C4.287,10.04 3.825,10.292 3.74,10.671 C3.698,10.881 3.782,11.302 4.835,11.723 C4.919,11.765 5.045,11.807 5.171,11.849 C5.676,12.017 6.476,12.269 6.729,12.859 C6.855,13.195 6.813,13.574 6.602,13.996 C6.56,14.121 4.961,17.74 1.426,18.33 C1.3,18.33 1.216,18.457 1.216,18.582 L1.216,18.752 C1.384,19.088 2.016,19.592 4.329,19.93 C4.54,19.971 4.624,20.266 4.708,20.729 C4.75,20.897 4.792,21.065 4.835,21.276 C4.919,21.487 5.087,21.528 5.214,21.528 C5.34,21.528 5.508,21.487 5.719,21.444 C6.055,21.36 6.518,21.276 7.108,21.276 C7.444,21.276 7.781,21.319 8.16,21.36 C8.833,21.487 9.423,21.907 10.054,22.329 C10.938,22.96 11.695,23.38 13.126,23.38 L13.252,23.38 L13.42,23.38 C14.852,23.38 15.987,23.001 16.829,22.37 C17.46,21.95 18.05,21.528 18.723,21.403 C19.06,21.36 19.397,21.319 19.733,21.319 C20.281,21.319 20.743,21.36 21.122,21.444 C21.333,21.487 21.501,21.528 21.627,21.528 L21.669,21.528 C21.838,21.528 21.964,21.444 22.006,21.276 C22.048,21.108 22.091,20.897 22.132,20.729 C22.259,20.182 22.343,19.971 22.511,19.93 C24.825,19.551 25.415,19.088 25.541,18.752 L25.583,18.582 C25.583,18.457 25.499,18.371 25.373,18.33 C21.838,17.74 20.364,14.121 20.281,13.953 C20.07,13.49 20.028,13.111 20.154,12.816 C20.407,12.228 21.207,11.975 21.712,11.807 C21.838,11.765 21.964,11.723 22.048,11.681 C22.975,11.344 23.143,10.966 23.143,10.713 C23.143,10.461 22.89,10.208 22.553,10.082 C22.427,10.04 22.301,9.999 22.132,9.999 C22.006,9.999 21.88,10.041 21.754,10.082 C21.333,10.293 20.911,10.419 20.575,10.419 C20.112,10.377 19.944,10.209 19.902,10.167 C19.902,9.957 19.944,9.747 19.944,9.494 L19.944,9.41 C20.028,7.768 20.196,5.664 19.649,4.486 C18.05,0.951 14.683,0.657 13.673,0.657" mask="url(#social-snapchat-d)"/>
      </g>
    </g>
  </g>
</svg>
