<svg xmlns="http://www.w3.org/2000/svg" xmlns:xlink="http://www.w3.org/1999/xlink" width="45" height="45" viewBox="0 0 45 45">
  <defs>
    <rect id="social-instagram-a" width="45" height="45" rx="2"/>
  </defs>
  <g fill="none" fill-rule="evenodd">
    <rect width="45" height="45" fill="#5851DB" fill-rule="nonzero" rx="2"/>
    <mask id="social-instagram-b" fill="#fff">
      <use xlink:href="#social-instagram-a"/>
    </mask>
    <g mask="url(#social-instagram-b)">
      <g transform="translate(10 10)">
        <path fill="#FFF" fill-rule="nonzero" d="M18.1007559,0 L6.89894831,0 C3.09487052,0 0,3.0950184 0,6.89909619 L0,18.1009038 C0,21.9051295 3.09487052,25 6.89894831,25 L18.1007559,25 C21.9051295,25 25,21.9049816 25,18.1009038 L25,6.89909619 C25.0001479,3.0950184 21.9051295,0 18.1007559,0 Z M22.7820267,18.1009038 C22.7820267,20.6820575 20.6820575,22.7818788 18.1009038,22.7818788 L6.89894831,22.7818788 C4.31794253,22.7820267 2.21812116,20.6820575 2.21812116,18.1009038 L2.21812116,6.89909619 C2.21812116,4.3180904 4.31794253,2.21812116 6.89894831,2.21812116 L18.1007559,2.21812116 C20.6819096,2.21812116 22.7818788,4.3180904 22.7818788,6.89909619 L22.7818788,18.1009038 L22.7820267,18.1009038 Z"/>
        <path fill="#FFF" fill-rule="nonzero" d="M12.5 6C8.91584602 6 6 8.91591295 6 12.5001492 6 16.0842363 8.91584602 19 12.5 19 16.084154 19 19 16.0842363 19 12.5001492 19 8.91591295 16.084154 6 12.5 6zM12.5 16.7616615C10.1501044 16.7616615 8.23813787 14.8499495 8.23813787 12.5 8.23813787 10.1499013 10.1499552 8.23804003 12.5 8.23804003 14.8500448 8.23804003 16.7618621 10.1499013 16.7618621 12.5 16.7618621 14.8499495 14.8498956 16.7616615 12.5 16.7616615zM18.5 4C18.1059091 4 17.7187727 4.15954545 17.4404545 4.43909091 17.1607727 4.71727273 17 5.10454545 17 5.5 17 5.89422727 17.1609091 6.28136364 17.4404545 6.56090909 17.7186364 6.83909091 18.1059091 7 18.5 7 18.8954545 7 19.2813636 6.83909091 19.5609091 6.56090909 19.8404545 6.28136364 20 5.89409091 20 5.5 20 5.10454545 19.8404545 4.71727273 19.5609091 4.43909091 19.2827273 4.15954545 18.8954545 4 18.5 4z"/>
      </g>
    </g>
  </g>
</svg>
