<svg xmlns="http://www.w3.org/2000/svg" xmlns:xlink="http://www.w3.org/1999/xlink" width="45" height="45" viewBox="0 0 45 45">
  <defs>
    <rect id="social-twitter-a" width="45" height="45" rx="2"/>
  </defs>
  <g fill="none" fill-rule="evenodd">
    <rect width="45" height="45" fill="#50ABF1" fill-rule="nonzero" rx="2"/>
    <mask id="social-twitter-b" fill="#fff">
      <use xlink:href="#social-twitter-a"/>
    </mask>
    <path fill="#FFF" fill-rule="nonzero" d="M35,14.390253 C34.0798596,14.795869 33.0925622,15.0709531 32.0552239,15.1937636 C33.1144169,14.5627648 33.9252025,13.5619121 34.309476,12.372983 C33.3159286,12.9573285 32.2192357,13.3816383 31.050688,13.611654 C30.114943,12.6185634 28.7839359,12 27.3076263,12 C24.4753504,12 22.1789006,14.2845921 22.1789006,17.1006992 C22.1789006,17.5000974 22.224203,17.8901894 22.3117031,18.263213 C18.0500132,18.0502657 14.2710446,16.0190159 11.7418329,12.9324575 C11.2997162,13.6846819 11.0482043,14.5611798 11.0482043,15.4968072 C11.0482043,17.2669932 11.9542924,18.8289053 13.3290496,19.7427096 C12.4885662,19.7147501 11.6980828,19.4847345 11.0060474,19.1024045 L11.0060474,19.1661262 C11.0060474,21.6372098 12.7744735,23.6995482 15.1193303,24.1689265 C14.6897135,24.2839343 14.2366899,24.347656 13.7680209,24.347656 C13.436852,24.347656 13.1165901,24.315023 12.8025781,24.2528456 C13.4555612,26.2810068 15.3489875,27.7558706 17.5923327,27.7963062 C15.8379589,29.1639647 13.6258638,29.9767816 11.2232046,29.9767816 C10.8092333,29.9767816 10.4014712,29.9519107 10,29.9068422 C12.2698975,31.3568757 14.964714,32.2023255 17.8610423,32.2023255 C27.295208,32.2023255 32.4520792,24.4284866 32.4520792,17.6866296 L32.4348814,17.026127 C33.4424811,16.3111684 34.3141737,15.4128881 35,14.390253 Z" mask="url(#social-twitter-b)"/>
  </g>
</svg>
