<svg id="Layer_1" data-name="Layer 1" xmlns="http://www.w3.org/2000/svg" viewBox="0 0 25 25"><defs><style>.cls-1{fill-rule:evenodd;}</style></defs><title>SOCIALMEDIABLACK</title><path d="M13.21,3.24a9.61,9.61,0,1,1-9.6,9.61,9.6,9.6,0,0,1,9.6-9.61m0-.49a10.1,10.1,0,1,0,10.1,10.1,10.1,10.1,0,0,0-10.1-10.1Z"/><path class="cls-1" d="M17,7.66H9.4A1.24,1.24,0,0,0,8,9.05v7.62A1.22,1.22,0,0,0,9.35,18H17a1.24,1.24,0,0,0,1.38-1.37V9A1.24,1.24,0,0,0,17,7.66Zm-.84,1.18c1,0,1,0,1,1s0,1-1,1-1,0-1-1S15.19,8.84,16.19,8.84Zm-3,2a2,2,0,1,1,0,4,2,2,0,0,1-2-2A2.06,2.06,0,0,1,13.22,10.83Zm4,5.41c0,.48-.13.62-.62.62H9.82c-.48,0-.61-.14-.61-.62,0-1.26,0-2.53,0-3.79,0-.36.1-.43.43-.42.48,0,.49,0,.43.48a3.18,3.18,0,0,0,6.21,1.24,3,3,0,0,0,.07-1.49c0-.18,0-.22.17-.22.72,0,.72-.06.72.68Z"/></svg>