<svg id="Layer_1" data-name="Layer 1" xmlns="http://www.w3.org/2000/svg" viewBox="0 0 25 25"><defs><style>.cls-1{fill:#fff;}</style></defs><title>SOCIALMEDIA</title><path class="cls-1" d="M12.9,3.24a9.61,9.61,0,1,1-9.6,9.61,9.6,9.6,0,0,1,9.6-9.61m0-.49A10.1,10.1,0,1,0,23,12.85,10.11,10.11,0,0,0,12.9,2.75Z"/><rect class="cls-1" x="8" y="10.29" width="2.41" height="7.25"/><path class="cls-1" d="M9.2,9.3h0A1.24,1.24,0,0,1,7.86,8.05,1.26,1.26,0,0,1,9.22,6.8a1.25,1.25,0,1,1,0,2.5Z"/><path class="cls-1" d="M19.1,17.55H16.69V13.67c0-1-.35-1.64-1.22-1.64a1.32,1.32,0,0,0-1.24.88,1.72,1.72,0,0,0-.08.59v4.05H11.74s0-6.58,0-7.26h2.41v1a2.41,2.41,0,0,1,2.18-1.2c1.58,0,2.77,1,2.77,3.27Z"/></svg>