<svg xmlns="http://www.w3.org/2000/svg" xmlns:xlink="http://www.w3.org/1999/xlink" width="494" height="823" viewBox="0 0 494 823">
  <defs>
    <polygon id="vote-reg-a" points="139.551 47.396 396.455 47.396 396.865 405.277 261.073 460.143 65.235 460.143 65.235 124.602"/>
  </defs>
  <g fill="none" fill-rule="evenodd">
    <g transform="translate(13 201)">
      <polygon fill="#27428C" points="44.261 436 428.739 436 468 471 5 471"/>
      <mask id="vote-reg-b" fill="#fff">
        <use xlink:href="#vote-reg-a"/>
      </mask>
      <use fill="#FFF" transform="rotate(22 231.05 253.77)" xlink:href="#vote-reg-a"/>
      <rect width="172" height="14" x="160" y="454" fill="#A5B8EB" mask="url(#vote-reg-b)"/>
      <path fill="#778A8D" d="M144.702,81.038 C160.794,84.515 177.991,93.947 195.247,98.974 C204.776,81.057 211.675,60.503 219.706,41.09 C217.821,64.206 210.54,88.991 206.661,112.835 C185.646,102.597 165.841,91.149 144.702,81.038 Z"/>
      <path fill="#B0BFC1" d="M137.362,76.146 C156.954,83.46 175.567,91.75 196.063,98.159 C203.555,76.846 213.206,57.689 220.522,36.199 C221.844,35.644 222.989,30.32 222.965,35.383 C217.047,60.988 213.404,88.87 206.66,113.65 C204.273,113.862 204.154,111.807 201.769,112.022 C199.029,108.782 193.996,107.835 190.355,105.498 C187.793,104.529 186.041,102.746 183.019,102.237 C179.738,98.721 174.154,97.512 169.972,94.899 C167.931,94.222 166.771,92.666 164.265,92.454 C160.447,88.663 154.312,87.188 149.591,84.301 C148.038,83.952 147.542,82.544 145.513,82.671 C142.945,78.99 136.671,79.013 134.101,75.333 C135.644,75.148 135.901,76.25 137.362,76.146 Z M206.661,112.835 C210.54,88.991 217.821,64.206 219.706,41.09 C211.675,60.503 204.776,81.057 195.247,98.974 C177.991,93.948 160.794,84.515 144.702,81.038 C165.841,91.149 185.646,102.597 206.661,112.835 Z"/>
      <path fill="#27428C" d="M221.073,169.536 C224.96,192.284 230.011,213.863 233.303,237.204 C252.383,227.199 271.723,210.411 290.371,197.256 C305.318,203.235 320.264,209.212 335.211,215.191 C305.012,238.257 272.029,258.542 242.27,282.046 C249.842,322.029 258.282,361.151 265.913,401.075 C249.452,396.609 236.136,389.004 220.259,383.956 C216.027,358.293 211.111,333.315 206.398,308.134 C184.441,322.048 164.144,337.624 143.623,352.975 C128.391,347.011 113.305,340.898 97.967,335.038 C129.809,310.082 164.789,288.265 197.432,264.107 C190.985,225.987 182.994,189.405 175.418,152.416 C190.149,155.37 206.138,164.072 221.073,169.536 Z"/>
    </g>
    <rect width="437.064" height="72.543" x="28.034" y="749.692" fill="#27428C"/>
    <rect width="338.068" height="72.543" x="77.532" y="83.058" fill="#27428C"/>
    <rect width="493.096" height="72.543" x=".019" fill="#27428C"/>
    <g fill="#FFF" fill-rule="nonzero" transform="translate(18 13)">
      <polygon points="22.935 25.127 22.935 39.58 15.208 39.58 15.208 25.127 .478 .669 9.372 .669 17.71 14.232 19.044 16.844 20.435 14.232 28.773 .669 37.668 .669"/>
      <path d="M64.609 25.461C64.609 34.189 58.273 40.191 49.767 40.191 41.318 40.191 35.037 34.188 35.037 25.461 35.037 16.734 41.318 10.785 49.767 10.785 58.273 10.785 64.609 16.733 64.609 25.461zM42.486 25.461C42.486 30.074 45.487 33.576 49.823 33.576 54.215 33.576 57.105 30.074 57.105 25.461 57.105 20.791 54.214 17.345 49.823 17.345 45.487 17.345 42.486 20.791 42.486 25.461zM92.893 39.58L86.723 39.58 86.166 35.911C84.888 38.357 82.387 40.191 78.718 40.191 72.658 40.191 69.656 36.078 69.656 29.685L69.656 11.397 76.883 11.397 76.883 28.073C76.883 31.408 78.217 33.187 80.886 33.187 83.498 33.187 85.722 31.075 85.722 26.516L85.722 11.397 92.893 11.397 92.893 39.58zM115.162 18.346C112.938 18.346 111.215 18.735 109.547 20.013 108.213 21.07 107.379 22.682 107.269 25.239L107.269 39.58 100.042 39.58 100.042 11.397 106.268 11.397 106.936 15.899C107.88 13.398 110.381 11.119 115.163 11.119L115.163 18.346 115.162 18.346z"/>
      <polygon points="146.68 39.58 139.342 39.58 129.17 11.397 136.951 11.397 142.455 28.684 143.011 31.13 143.567 28.684 149.071 11.397 156.909 11.397"/>
      <path d="M187.414 25.461C187.414 34.189 181.078 40.191 172.572 40.191 164.123 40.191 157.842 34.188 157.842 25.461 157.842 16.734 164.123 10.785 172.572 10.785 181.078 10.785 187.414 16.733 187.414 25.461zM165.291 25.461C165.291 30.074 168.292 33.576 172.628 33.576 177.02 33.576 179.91 30.074 179.91 25.461 179.91 20.791 177.019 17.345 172.628 17.345 168.292 17.345 165.291 20.791 165.291 25.461zM201.562 11.397L208.009 11.397 208.009 17.956 201.505 17.956 201.395 29.352C201.395 32.243 202.285 33.411 205.064 33.411 206.453 33.411 207.232 33.244 208.009 33.021L208.009 39.358C207.12 39.692 205.675 39.969 203.451 39.969 197.28 39.969 194.112 37.468 194.168 31.075L194.279 17.956 189.665 17.956 189.665 11.397 194.279 11.397 194.335 4.559 201.616 4.559 201.562 11.397zM238.139 25.461L238.139 27.685 218.516 27.685C218.739 31.409 221.352 34.022 225.298 34.022 228.077 34.022 230.19 32.854 230.968 30.742L237.972 30.742C236.248 36.69 231.912 40.192 225.076 40.192 216.738 40.192 211.068 34.411 211.068 25.517 211.068 17.012 216.682 10.786 225.076 10.786 232.524 10.785 238.139 15.455 238.139 25.461zM218.572 22.682L230.856 22.682C230.8 19.124 228.466 16.789 224.908 16.789 221.295 16.789 218.905 19.235 218.572 22.682zM295.616 21.292L295.616 39.58 288.389 39.58 288.389 22.849C288.389 19.569 287.111 17.79 284.443 17.79 281.775 17.79 279.607 19.902 279.496 24.349L279.496 39.58 272.269 39.58 272.269 22.849C272.269 19.569 270.935 17.79 268.323 17.79 265.543 17.79 263.376 20.013 263.376 24.683L263.376 39.58 256.205 39.58 256.205 11.397 262.375 11.397 262.931 15.065C264.209 12.675 266.767 10.785 270.436 10.785 274.438 10.785 277.162 12.62 278.496 15.733 279.83 13.064 282.61 10.785 286.612 10.785 292.614 10.785 295.616 14.899 295.616 21.292zM324.289 21.069L324.289 39.58 318.119 39.58 317.675 36.134C316.174 38.413 313.616 40.192 309.614 40.192 304.611 40.192 301.053 37.134 301.053 32.077 301.053 26.573 304.778 24.461 309.781 23.627L317.062 22.293 317.062 21.237C317.062 18.458 315.672 16.957 313.116 16.957 310.725 16.957 308.891 18.402 308.891 20.682L301.887 20.682C302.22 14.956 306.445 10.786 313.116 10.786 319.787 10.786 324.289 14.177 324.289 21.069zM311.448 28.296C309.558 28.74 308.28 29.574 308.28 31.464 308.28 33.132 309.447 34.243 311.559 34.243 313.338 34.243 315.061 33.354 316.062 31.686 316.673 30.741 317.062 29.351 317.062 27.961L317.062 27.127 311.448 28.296zM339.771 11.397L346.219 11.397 346.219 17.956 339.715 17.956 339.604 29.352C339.604 32.243 340.494 33.411 343.273 33.411 344.663 33.411 345.441 33.244 346.219 33.021L346.219 39.358C345.329 39.692 343.884 39.969 341.66 39.969 335.49 39.969 332.322 37.468 332.377 31.075L332.488 17.956 327.875 17.956 327.875 11.397 332.488 11.397 332.544 4.559 339.826 4.559 339.771 11.397zM361.167 11.397L367.615 11.397 367.615 17.956 361.111 17.956 361 29.352C361 32.243 361.89 33.411 364.669 33.411 366.059 33.411 366.837 33.244 367.615 33.021L367.615 39.358C366.725 39.692 365.28 39.969 363.056 39.969 356.886 39.969 353.718 37.468 353.773 31.075L353.884 17.956 349.271 17.956 349.271 11.397 353.884 11.397 353.94 4.559 361.222 4.559 361.167 11.397zM397.744 25.461L397.744 27.685 378.122 27.685C378.345 31.409 380.957 34.022 384.903 34.022 387.683 34.022 389.796 32.854 390.573 30.742L397.578 30.742C395.854 36.69 391.518 40.192 384.682 40.192 376.343 40.192 370.673 34.411 370.673 25.517 370.673 17.012 376.288 10.786 384.682 10.786 392.13 10.785 397.744 15.455 397.744 25.461zM378.178 22.682L390.463 22.682C390.407 19.124 388.072 16.789 384.515 16.789 380.901 16.789 378.511 19.235 378.178 22.682zM418.651 18.346C416.427 18.346 414.705 18.735 413.037 20.013 411.703 21.07 410.869 22.682 410.758 25.239L410.758 39.58 403.531 39.58 403.531 11.397 409.758 11.397 410.425 15.899C411.369 13.398 413.871 11.119 418.652 11.119L418.652 18.346 418.651 18.346zM442.955 19.68L435.784 19.68C435.728 17.623 434.727 16.456 432.559 16.456 430.502 16.456 429.446 17.623 429.446 19.235 429.446 20.958 430.447 21.792 434.394 22.459 441.231 23.626 443.566 26.406 443.566 31.02 443.566 37.413 438.507 40.192 432.67 40.192 425.722 40.192 421.83 36.579 421.663 31.02L428.778 31.02C428.834 33.299 430.39 34.466 432.837 34.466 435.061 34.466 436.339 33.466 436.339 31.798 436.339 30.074 435.449 29.074 431.225 28.296 425.055 27.239 422.22 24.571 422.22 19.958 422.22 15.065 425.666 10.785 432.615 10.785 438.563 10.785 442.732 14.343 442.955 19.68zM456.656 35.8C456.656 38.302 454.655 40.192 452.209 40.192 449.708 40.192 447.763 38.302 447.763 35.8 447.763 33.299 449.708 31.464 452.209 31.464 454.655 31.464 456.656 33.299 456.656 35.8zM111.409 103.507C111.409 115.014 103.571 122.963 91.287 122.963L76.723 122.963 76.723 84.052 91.287 84.052C103.571 84.052 111.409 92.001 111.409 103.507zM84.338 91.167L84.338 115.848 91.287 115.848C99.014 115.848 103.461 111.345 103.461 103.507 103.461 95.725 99.068 91.167 91.287 91.167L84.338 91.167 84.338 91.167zM145.002 108.844C145.002 117.572 138.664 123.574 130.159 123.574 121.71 123.574 115.429 117.571 115.429 108.844 115.429 100.117 121.71 94.168 130.159 94.168 138.664 94.168 145.002 100.116 145.002 108.844zM122.877 108.844C122.877 113.457 125.879 116.959 130.215 116.959 134.607 116.959 137.497 113.457 137.497 108.844 137.497 104.174 134.606 100.728 130.215 100.728 125.879 100.728 122.877 104.174 122.877 108.844zM173.796 104.675L173.796 122.963 166.514 122.963 166.514 106.232C166.514 102.952 165.125 101.173 162.512 101.173 159.733 101.173 157.509 103.396 157.509 108.066L157.509 122.963 150.338 122.963 150.338 94.78 156.508 94.78 157.065 98.448C158.343 96.058 160.901 94.168 164.68 94.168 170.684 94.168 173.796 98.282 173.796 104.675zM185.547 86.72C185.547 90.445 183.49 94.558 180.934 97.393L178.877 96.67C179.822 94.725 180.322 92.724 180.6 90.333 178.489 90.055 176.875 88.443 176.875 86.275 176.875 83.884 178.821 81.995 181.211 81.995 183.657 81.995 185.547 83.829 185.547 86.72zM200.15 94.78L206.598 94.78 206.598 101.339 200.094 101.339 199.984 112.735C199.984 115.626 200.873 116.794 203.652 116.794 205.042 116.794 205.82 116.627 206.598 116.404L206.598 122.741C205.708 123.075 204.263 123.352 202.04 123.352 195.869 123.352 192.7 120.851 192.757 114.458L192.868 101.339 188.254 101.339 188.254 94.78 192.868 94.78 192.923 87.942 200.205 87.942 200.15 94.78z"/>
      <polygon points="231.669 122.963 224.442 122.963 224.442 82.384 231.669 82.384"/>
      <path d="M266.583 108.844C266.583 117.572 260.246 123.574 251.74 123.574 243.291 123.574 237.01 117.571 237.01 108.844 237.01 100.117 243.291 94.168 251.74 94.168 260.246 94.168 266.583 100.116 266.583 108.844zM244.459 108.844C244.459 113.457 247.461 116.959 251.797 116.959 256.188 116.959 259.078 113.457 259.078 108.844 259.078 104.174 256.187 100.728 251.797 100.728 247.461 100.728 244.459 104.174 244.459 108.844zM291.275 103.062L284.105 103.062C284.049 101.005 283.048 99.838 280.88 99.838 278.823 99.838 277.767 101.005 277.767 102.617 277.767 104.34 278.768 105.174 282.715 105.841 289.552 107.008 291.887 109.788 291.887 114.402 291.887 120.795 286.828 123.574 280.991 123.574 274.043 123.574 270.151 119.961 269.984 114.402L277.099 114.402C277.155 116.681 278.711 117.848 281.158 117.848 283.382 117.848 284.66 116.848 284.66 115.18 284.66 113.456 283.77 112.456 279.546 111.678 273.376 110.621 270.541 107.953 270.541 103.34 270.541 98.447 273.987 94.167 280.936 94.167 286.885 94.168 291.054 97.726 291.275 103.062zM322.477 108.844L322.477 111.068 302.855 111.068C303.078 114.792 305.69 117.405 309.636 117.405 312.416 117.405 314.529 116.237 315.306 114.125L322.311 114.125C320.587 120.073 316.251 123.575 309.415 123.575 301.076 123.575 295.406 117.794 295.406 108.9 295.406 100.395 301.021 94.169 309.415 94.169 316.862 94.168 322.477 98.838 322.477 108.844zM302.91 106.064L315.195 106.064C315.139 102.506 312.804 100.171 309.247 100.171 305.634 100.172 303.243 102.618 302.91 106.064zM348.603 86.497C348.603 88.943 346.602 90.777 344.211 90.777 341.766 90.777 339.82 88.943 339.82 86.497 339.82 84.107 341.765 82.217 344.211 82.217 346.602 82.217 348.603 84.107 348.603 86.497zM347.824 122.963L340.598 122.963 340.598 94.78 347.824 94.78 347.824 122.963zM363.673 94.78L370.121 94.78 370.121 101.339 363.617 101.339 363.506 112.735C363.506 115.626 364.396 116.794 367.175 116.794 368.565 116.794 369.343 116.627 370.121 116.404L370.121 122.741C369.231 123.075 367.786 123.352 365.562 123.352 359.392 123.352 356.224 120.851 356.279 114.458L356.39 101.339 351.777 101.339 351.777 94.78 356.39 94.78 356.446 87.942 363.728 87.942 363.673 94.78zM383.857 119.183C383.857 121.685 381.856 123.575 379.41 123.575 376.909 123.575 374.964 121.685 374.964 119.183 374.964 116.682 376.909 114.847 379.41 114.847 381.856 114.847 383.857 116.682 383.857 119.183zM56.342 763.516C56.342 768.352 53.84 772.132 49.56 774.078L58.009 790.032 49.281 790.032 41.721 775.468 38.275 775.468 38.275 790.032 30.66 790.032 30.66 751.12 42.666 751.12C51.005 751.12 56.342 756.123 56.342 763.516zM38.275 758.235L38.275 768.685 42.666 768.685C46.225 768.685 48.504 766.961 48.504 763.515 48.504 760.013 46.225 758.235 42.666 758.235L38.275 758.235 38.275 758.235zM87.521 775.912L87.521 778.136 67.899 778.136C68.121 781.86 70.733 784.473 74.68 784.473 77.459 784.473 79.572 783.305 80.35 781.193L87.354 781.193C85.631 787.141 81.295 790.643 74.458 790.643 66.12 790.643 60.45 784.862 60.45 775.968 60.45 767.463 66.064 761.237 74.458 761.237 81.906 761.236 87.521 765.906 87.521 775.912zM67.953 773.133L80.238 773.133C80.182 769.575 77.847 767.24 74.291 767.24 70.678 767.24 68.287 769.687 67.953 773.133zM118.588 767.963L114.419 767.963C114.752 768.964 114.975 770.075 114.975 771.242 114.975 776.912 110.362 781.026 103.858 781.026 102.135 781.026 100.579 780.803 99.188 780.303 98.799 780.803 98.522 781.47 98.522 782.36 98.522 783.805 99.578 784.694 101.356 784.694L107.971 784.694C113.752 784.694 117.199 787.474 117.199 792.81 117.199 799.147 112.252 802.593 104.747 802.593 96.354 802.593 91.962 799.481 91.962 793.922 91.962 791.476 93.407 789.863 94.798 788.974 93.074 787.807 91.519 785.639 91.519 782.915 91.519 780.247 92.742 778.356 94.409 776.967 93.186 775.411 92.464 773.465 92.464 771.241 92.464 765.405 97.244 761.235 103.86 761.235 105.305 761.235 106.695 761.458 107.918 761.847L118.591 761.847 118.591 767.963 118.588 767.963zM101.912 790.143C100.3 790.366 99.021 791.477 99.021 793.367 99.021 795.925 101.3 797.203 104.802 797.203 108.081 797.203 110.138 795.869 110.138 793.256 110.138 791.144 108.581 790.144 106.136 790.144L101.912 790.144 101.912 790.143zM99.577 771.242C99.577 773.855 101.301 775.689 103.802 775.689 106.303 775.689 107.971 773.855 107.971 771.242 107.971 768.518 106.303 766.684 103.802 766.684 101.244 766.685 99.577 768.519 99.577 771.242zM130.268 753.565C130.268 756.011 128.266 757.845 125.876 757.845 123.43 757.845 121.484 756.011 121.484 753.565 121.484 751.175 123.429 749.285 125.876 749.285 128.266 749.285 130.268 751.176 130.268 753.565zM129.489 790.031L122.262 790.031 122.262 761.848 129.489 761.848 129.489 790.031zM156.132 770.131L148.961 770.131C148.905 768.074 147.904 766.907 145.736 766.907 143.679 766.907 142.624 768.074 142.624 769.686 142.624 771.409 143.625 772.243 147.571 772.91 154.408 774.077 156.743 776.857 156.743 781.471 156.743 787.864 151.684 790.643 145.847 790.643 138.899 790.643 135.007 787.03 134.841 781.471L141.956 781.471C142.012 783.75 143.567 784.917 146.014 784.917 148.238 784.917 149.517 783.917 149.517 782.249 149.517 780.525 148.626 779.525 144.402 778.747 138.232 777.69 135.397 775.022 135.397 770.409 135.397 765.516 138.843 761.236 145.793 761.236 151.74 761.236 155.91 764.794 156.132 770.131zM171.307 761.849L177.756 761.849 177.756 768.408 171.252 768.408 171.141 779.804C171.141 782.695 172.03 783.863 174.809 783.863 176.2 783.863 176.977 783.696 177.756 783.473L177.756 789.81C176.866 790.144 175.421 790.421 173.197 790.421 167.027 790.421 163.858 787.92 163.914 781.527L164.025 768.408 159.412 768.408 159.412 761.849 164.025 761.849 164.081 755.011 171.363 755.011 171.307 761.849zM207.885 775.912L207.885 778.136 188.262 778.136C188.485 781.86 191.097 784.473 195.043 784.473 197.822 784.473 199.936 783.305 200.713 781.193L207.717 781.193C205.994 787.141 201.658 790.643 194.821 790.643 186.483 790.643 180.813 784.862 180.813 775.968 180.813 767.463 186.428 761.237 194.821 761.237 202.27 761.236 207.885 765.906 207.885 775.912zM188.317 773.133L200.601 773.133C200.546 769.575 198.211 767.24 194.654 767.24 191.041 767.24 188.65 769.687 188.317 773.133zM228.791 768.797C226.567 768.797 224.844 769.186 223.176 770.464 221.842 771.521 221.008 773.133 220.898 775.69L220.898 790.032 213.671 790.032 213.671 761.849 219.897 761.849 220.565 766.351C221.509 763.85 224.01 761.571 228.792 761.571L228.792 768.797 228.791 768.797zM255.027 761.849L261.476 761.849 261.476 768.408 254.972 768.408 254.861 779.804C254.861 782.695 255.75 783.863 258.53 783.863 259.92 783.863 260.698 783.696 261.476 783.473L261.476 789.81C260.586 790.144 259.141 790.421 256.917 790.421 250.747 790.421 247.578 787.92 247.634 781.527L247.745 768.408 243.132 768.408 243.132 761.849 247.745 761.849 247.801 755.011 255.083 755.011 255.027 761.849zM293.945 775.912C293.945 784.64 287.608 790.642 279.103 790.642 270.654 790.642 264.372 784.639 264.372 775.912 264.372 767.185 270.654 761.236 279.103 761.236 287.608 761.236 293.945 767.185 293.945 775.912zM271.821 775.912C271.821 780.525 274.823 784.027 279.159 784.027 283.55 784.027 286.44 780.525 286.44 775.912 286.44 771.242 283.549 767.796 279.159 767.796 274.823 767.796 271.821 771.242 271.821 775.912z"/>
      <polygon points="325.854 790.031 318.516 790.031 308.343 761.848 316.125 761.848 321.629 779.135 322.185 781.581 322.741 779.135 328.244 761.848 336.082 761.848"/>
      <path d="M366.588 775.912C366.588 784.64 360.251 790.642 351.746 790.642 343.297 790.642 337.015 784.639 337.015 775.912 337.015 767.185 343.297 761.236 351.746 761.236 360.251 761.236 366.588 767.185 366.588 775.912zM344.464 775.912C344.464 780.525 347.466 784.027 351.802 784.027 356.193 784.027 359.083 780.525 359.083 775.912 359.083 771.242 356.192 767.796 351.802 767.796 347.466 767.796 344.464 771.242 344.464 775.912zM380.735 761.849L387.183 761.849 387.183 768.408 380.679 768.408 380.568 779.804C380.568 782.695 381.458 783.863 384.237 783.863 385.627 783.863 386.405 783.696 387.183 783.473L387.183 789.81C386.293 790.144 384.848 790.421 382.624 790.421 376.454 790.421 373.286 787.92 373.341 781.527L373.452 768.408 368.839 768.408 368.839 761.849 373.452 761.849 373.508 755.011 380.79 755.011 380.735 761.849zM417.312 775.912L417.312 778.136 397.69 778.136C397.913 781.86 400.525 784.473 404.471 784.473 407.251 784.473 409.364 783.305 410.141 781.193L417.146 781.193C415.422 787.141 411.086 790.643 404.25 790.643 395.911 790.643 390.241 784.862 390.241 775.968 390.241 767.463 395.856 761.237 404.25 761.237 411.698 761.236 417.312 765.906 417.312 775.912zM397.746 773.133L410.031 773.133C409.975 769.575 407.64 767.24 404.083 767.24 400.47 767.24 398.079 769.687 397.746 773.133zM429.92 786.251C429.92 788.753 427.919 790.643 425.473 790.643 422.972 790.643 421.027 788.753 421.027 786.251 421.027 783.75 422.972 781.915 425.473 781.915 427.919 781.915 429.92 783.75 429.92 786.251z"/>
    </g>
  </g>
</svg>
