<svg xmlns="http://www.w3.org/2000/svg" width="64.183" height="64.183" viewBox="0 0 64.183 64.183">
  <g id="Group_601" data-name="Group 601" transform="translate(-0.726 0.003)">
    <path id="Path_780" data-name="Path 780" d="M271.429,3538.256a26.693,26.693,0,0,1-14.813-.7,26.872,26.872,0,0,1-18.1-22.378,27.449,27.449,0,0,1,0-6.211,26.587,26.587,0,0,1,4.048-11.369,25.443,25.443,0,0,1,3.2-4.079,26.928,26.928,0,0,1,38.532-.476,27.42,27.42,0,0,1,3.23,3.894,26.88,26.88,0,0,1,4.468,12.029,26.984,26.984,0,0,1,0,6.211,26.7,26.7,0,0,1-4.211,11.622,26.339,26.339,0,0,1-3.114,3.9,26.624,26.624,0,0,1-13.232,7.557m20.621-43.848a32.1,32.1,0,0,0-26.8-14.433,31.994,31.994,0,0,0-24.618,11.515,30.9,30.9,0,0,0-2.776,3.86,32.089,32.089,0,1,0,54.193-.942" transform="translate(-232.433 -3479.979)" fill="#0a162a"/>
    <path id="Path_781" data-name="Path 781" d="M276.941,3523.17a50.661,50.661,0,0,1-.985,5.218c-1.457,6.014-3.735,9.874-6.3,9.874-2.549,0-4.823-3.851-6.292-9.853a50.742,50.742,0,0,1-.994-5.239,71.738,71.738,0,0,1-.677-7.681c-.039-1.024-.061-2.061-.061-3.106s.021-2.082.061-3.105a73.432,73.432,0,0,1,.746-8.191,50.819,50.819,0,0,1,1.049-5.235c1.47-5.713,3.693-9.346,6.168-9.346,2.493,0,4.708,3.641,6.177,9.355a52.106,52.106,0,0,1,1.037,5.226,71.655,71.655,0,0,1,.746,8.191c.042,1.023.064,2.061.064,3.105s-.021,2.082-.064,3.106a71.763,71.763,0,0,1-.673,7.681m6.014-13.892a65.389,65.389,0,0,0-.951-8.88,51.694,51.694,0,0,0-1.169-5.055,32.094,32.094,0,0,0-4-9.15c-2.07-3.084-4.537-4.866-7.184-4.866-2.835,0-5.466,2.061-7.629,5.569a32.957,32.957,0,0,0-3.543,8.447,51.763,51.763,0,0,0-1.156,5.055,65.331,65.331,0,0,0-.964,8.88c-.051,1.023-.073,2.061-.073,3.105s.021,2.082.073,3.106a66,66,0,0,0,.878,8.374c.3,1.77.673,3.466,1.11,5.063a33.838,33.838,0,0,0,3.676,8.94c2.163,3.513,4.794,5.568,7.629,5.568,2.647,0,5.115-1.778,7.184-4.861a32.559,32.559,0,0,0,4.129-9.647,50.03,50.03,0,0,0,1.118-5.063,64.413,64.413,0,0,0,.87-8.374c.051-1.024.073-2.061.073-3.106s-.021-2.082-.073-3.105" transform="translate(-237.839 -3480.295)" fill="#0a162a"/>
    <path id="Path_783" data-name="Path 783" d="M293.552,3542.255a31.3,31.3,0,0,1-2.887,3.778,16.208,16.208,0,0,0-4.6-2.361,48.031,48.031,0,0,0-9.1-2.09c-1.594-.227-3.273-.4-5.012-.54-2.018-.146-4.129-.218-6.305-.218s-4.275.085-6.292.24c-1.739.116-3.414.291-5.008.518a51.765,51.765,0,0,0-7.577,1.594,23.262,23.262,0,0,0-4.888,2.009,33.028,33.028,0,0,1-2.7-3.895,29.771,29.771,0,0,1,4.516-2.193,50.561,50.561,0,0,1,9.544-2.579c1.645-.287,3.355-.526,5.124-.693,2.339-.228,4.784-.352,7.286-.352s4.952.124,7.291.352c1.778.167,3.5.407,5.145.693a46.877,46.877,0,0,1,11.095,3.251,24.754,24.754,0,0,1,4.37,2.485" transform="translate(-233.841 -3492.953)" fill="#0a162a"/>
    <path id="Path_784" data-name="Path 784" d="M293.552,3497.563a1.108,1.108,0,0,0-.094.073,25.433,25.433,0,0,1-4.532,2.527A47.227,47.227,0,0,1,278,3503.307c-1.644.292-3.362.527-5.132.694-2.318.227-4.734.343-7.218.343s-4.892-.116-7.213-.343c-1.769-.167-3.479-.4-5.115-.694a49.572,49.572,0,0,1-9.356-2.484,29.61,29.61,0,0,1-4.7-2.245.923.923,0,0,0-.086-.051,32.947,32.947,0,0,1,2.7-3.895.9.9,0,0,0,.154.082,23.278,23.278,0,0,0,5.128,2.03,51.233,51.233,0,0,0,7.317,1.512c1.593.218,3.26.395,5,.506,1.979.159,4.048.227,6.168.227s4.194-.068,6.181-.214c1.739-.125,3.418-.292,5-.519a48.039,48.039,0,0,0,8.863-1.988,17.148,17.148,0,0,0,4.853-2.4,1.116,1.116,0,0,0,.116-.082,31.223,31.223,0,0,1,2.887,3.778" transform="translate(-233.841 -3483.208)" fill="#0a162a"/>
    <rect id="Rectangle_188" data-name="Rectangle 188" width="61.51" height="6.211" transform="translate(2.065 28.984)" fill="#0a162a"/>
  </g>
</svg>
