<?xml version="1.0" encoding="UTF-8"?>
<svg width="100pt" height="100pt" version="1.1" viewBox="0 0 100 100" xmlns="http://www.w3.org/2000/svg">
 <g>
  <path d="m97.184 72.91c-0.21875-0.67188-0.78125-1.1445-1.4727-1.2539l-14.145-1.9805-6.3086-12.328c-0.61719-1.2188-2.6172-1.2188-3.2383 0l-6.3086 12.328-14.145 1.9805c-0.69141 0.089844-1.2734 0.58203-1.4727 1.2539s-0.019531 1.3984 0.49219 1.8711l10.199 9.582-2.3984 13.508c-0.12891 0.67188 0.14453 1.3633 0.71094 1.7812 0.54688 0.41797 1.2891 0.47266 1.9102 0.16406l12.629-6.4336 12.656 6.418c0.25391 0.12891 0.54688 0.19922 0.81641 0.19922 0.38281 0 0.76172-0.12891 1.0898-0.36328 0.54688-0.41797 0.81641-1.0898 0.71094-1.7812l-2.3984-13.508 10.199-9.582c0.50781-0.45703 0.6875-1.1836 0.47266-1.8555zm-13.875 9.4727c-0.45312 0.41797-0.65625 1.0352-0.54688 1.6367l1.9258 10.891-10.238-5.1836c-0.25391-0.12891-0.54688-0.19922-0.81641-0.19922-0.27344 0-0.5625 0.074218-0.81641 0.19922l-10.238 5.1836 1.9258-10.891c0.10938-0.60156-0.089844-1.2188-0.54688-1.6367l-8.1445-7.6562 11.309-1.582c0.58203-0.074219 1.0898-0.4375 1.3633-0.96484l5.1289-10 5.1289 10c0.27344 0.52734 0.78125 0.89062 1.3633 0.96484l11.309 1.582z"/>
  <path d="m38.562 21.816c-7.0195 0-12.727 5.7109-12.727 12.727 0 7.0195 5.7109 12.727 12.727 12.727 7.0195 0 12.727-5.7109 12.727-12.727s-5.707-12.727-12.727-12.727zm0 21.82c-5.0195 0-9.0898-4.0742-9.0898-9.0898 0-5.0195 4.0742-9.0898 9.0898-9.0898 5.0195 0 9.0898 4.0742 9.0898 9.0898 0.003906 5.0156-4.0898 9.0898-9.0898 9.0898z"/>
  <path d="m43.109 86.164l-5.4375 7.1094-25.055-36.184c-9.4531-12.602-8.0898-33.309 2.9102-44.309 5.8906-5.8906 13.727-9.1445 22.074-9.1445 8.3438 0 16.184 3.2539 22.09 9.1445 8.0547 8.0547 11.199 21.727 7.8008 34-0.27344 0.96484 0.30859 1.9648 1.2734 2.2383 0.96484 0.27344 1.9648-0.30859 2.2383-1.2734 3.7266-13.508 0.21875-28.602-8.7461-37.547-6.5859-6.5625-15.348-10.199-24.656-10.199-9.3281 0-18.074 3.6367-24.656 10.219-12.184 12.184-13.711 35.109-3.2734 49l27.855 40.234 8.4727-11.074c0.61719-0.80078 0.45312-1.9453-0.34375-2.5469-0.80078-0.59375-1.9453-0.46875-2.5469 0.33203z"/>
 </g>
</svg>
