<svg version="1" xmlns="http://www.w3.org/2000/svg" width="933.333" height="933.333" viewBox="0 0 700.000000 700.000000"><path d="M.9 114c-.8.5-.4 59.9.5 74 .5 7 1.7 22.6 2.1 26.5.1 1.6.6 6.1.9 10 .4 3.8 1.1 10.1 1.6 14 .5 3.8 1.2 9.2 1.5 12 .8 6.5 1.5 11.4 2 14.5.3 1.4.8 4.3 1.1 6.5.6 3.9 4.3 23 4.8 25 .2.5.6 2.8 1 5s2.4 10.3 4.3 18c1.9 7.7 3.7 14.9 3.9 16 .2 1.1 1.3 4.7 2.4 8 1.1 3.3 3.6 10.9 5.5 16.8 7.2 21.9 16.5 43 27.2 61.5 5.2 9 14.9 24.1 16.2 25.2.3.3 1.9 2.3 3.6 4.5C90.8 467 112.7 489.7 126 500c2.5 1.9 5.1 4.1 5.9 4.8 1.9 1.8 22.8 16.3 26.2 18.2 30.9 16.9 44.5 23.1 69.1 31.4 15 5.1 46.4 13.7 54.9 15 2 .3 4.2.8 5 1 .8.3 3 .7 4.9 1 1.9.3 4.6.8 6 1.1 3.7.8 40.6 6.2 47.5 7 3.3.3 7.4.8 9 1 9.2 1.1 12.8 1.5 20 2 4.4.3 9.4.8 11 1 4.7.6 26.4 2.1 44.5 3.1 6.3.3 13.6.7 16.3.9l4.7.3.1-24.2c.5-192.5.5-196.4-1.9-207.6-14.2-65.5-54.8-122.9-115.7-163.5-31.2-20.7-72.8-39.6-113-51.4-22.9-6.6-59.5-14.5-82-17.6-5.7-.8-11.8-1.7-13.5-2-.8-.2-4.4-.6-8-1-3.6-.4-7.2-.8-8-1-.8-.2-4.9-.6-9-1-4.1-.3-8.8-.8-10.5-1-2.7-.3-10.9-1-27.5-2.1-20.6-1.3-59.7-2.2-61.1-1.4zM690.8 241.5c-.2.1-7.3.5-15.9.8-8.5.4-16.2.8-17 1.1-.8.3-4.6.7-8.5 1.1-3.9.3-8 .7-9 .9-1.1.2-3.9.7-6.4 1-2.5.4-7.9 1.4-12 2.1-4.1.8-8.6 1.6-10 1.9-5.8 1-27.8 7.4-29.5 8.6-.5.3-3.2 1.5-6 2.5-7.5 2.7-23.1 10.7-31.3 15.9-22.9 14.8-40.7 35.8-49.2 57.8-6.6 17-6.3 14.4-6.4 71.5-.2 56-.3 53.9 4.7 52.9 1.2-.3 7.4-.8 13.7-1.1 6.3-.3 12.9-.7 14.5-.9 1.7-.2 5.9-.7 9.5-1.1 12.3-1.2 15.5-1.6 21.5-2.5 6.1-1 8.9-1.5 13.5-2.5 1.4-.3 3.4-.7 4.5-.9 12.5-2.5 29.7-8.2 41.2-13.6 27.5-13.1 50.2-34.9 63.5-61.3 5.5-11 10.9-26.5 14.6-41.7 2.7-11.2 3.5-15.5 4.7-24 .2-1.4.6-4.5 1-7s.8-5.6 1-7c1.1-7.1 1.8-22.3 1.9-37.5l.1-16.9-4.2-.2c-2.3-.1-4.4 0-4.5.1z"/></svg>