<?xml version="1.0" standalone="no"?>
<!DOCTYPE svg PUBLIC "-//W3C//DTD SVG 20010904//EN"
 "http://www.w3.org/TR/2001/REC-SVG-20010904/DTD/svg10.dtd">
<svg version="1.0" xmlns="http://www.w3.org/2000/svg"
 width="760.000000pt" height="760.000000pt" viewBox="0 0 760.000000 760.000000"
 preserveAspectRatio="xMidYMid meet">
<metadata>
Created by potrace 1.11, written by Peter Selinger 2001-2013
</metadata>
<g transform="translate(0.000000,760.000000) scale(0.100000,-0.100000)"
fill="#000000" stroke="none">
<path d="M5 6183 c2 -164 7 -316 9 -338 4 -36 8 -79 22 -245 2 -25 5 -56 8
-70 2 -14 7 -49 10 -79 4 -30 9 -64 11 -75 2 -12 7 -39 10 -61 10 -81 27 -173
41 -235 3 -14 8 -38 11 -55 2 -16 7 -37 10 -45 3 -8 7 -26 9 -40 3 -19 50
-190 88 -315 49 -166 175 -452 242 -550 14 -21 30 -49 35 -62 5 -13 13 -23 19
-23 5 0 10 -5 10 -11 0 -10 84 -126 140 -194 39 -47 261 -267 298 -295 19 -14
55 -42 82 -62 26 -21 52 -38 58 -38 6 0 12 -3 14 -7 3 -8 33 -28 123 -85 66
-41 287 -148 307 -148 10 0 18 -4 18 -10 0 -5 6 -10 14 -10 7 0 35 -9 62 -19
50 -20 87 -33 91 -32 2 0 23 -8 48 -19 25 -11 45 -17 45 -15 0 3 12 0 27 -6
44 -16 280 -76 338 -84 17 -3 39 -7 50 -9 43 -9 192 -35 228 -40 70 -11 155
-21 242 -30 33 -4 74 -9 90 -11 28 -3 120 -12 230 -20 128 -10 278 -18 355
-19 l85 -1 3 840 c2 570 0 858 -7 895 -6 30 -13 66 -15 80 -18 101 -97 314
-166 445 -93 177 -268 408 -401 529 -30 27 -70 63 -89 81 -19 17 -62 51 -95
76 -33 24 -62 46 -65 50 -7 7 -152 103 -165 108 -5 2 -21 12 -35 21 -96 67
-504 247 -650 287 -30 8 -59 18 -65 21 -5 4 -19 8 -30 10 -26 5 -37 8 -55 15
-15 6 -139 36 -175 43 -28 4 -64 12 -83 18 -19 6 -58 13 -112 22 -19 3 -42 7
-50 9 -8 3 -33 7 -55 11 -22 3 -44 7 -50 8 -17 4 -99 16 -135 20 -36 4 -107
13 -170 22 -42 6 -85 10 -205 19 -49 4 -110 9 -135 11 -25 2 -143 6 -263 9
l-217 6 5 -298z"/>
<path d="M5207 5474 c-1 -1 -40 -5 -87 -8 -71 -4 -162 -16 -310 -41 -68 -11
-182 -42 -270 -72 -72 -24 -252 -106 -274 -124 -6 -5 -35 -25 -64 -44 -153
-103 -281 -251 -353 -410 -60 -134 -64 -171 -64 -611 l1 -399 34 2 c92 4 239
14 275 18 22 3 58 7 80 9 22 3 58 7 80 11 22 3 54 8 70 10 17 2 31 4 33 6 2 2
2 2 57 14 22 4 45 9 50 10 6 2 30 8 55 15 25 7 50 13 55 14 6 2 21 7 35 13 14
6 56 23 93 38 228 92 434 289 541 517 33 71 89 228 100 280 3 12 7 33 10 46
11 41 16 66 21 102 3 20 8 47 10 60 3 14 8 45 11 70 3 25 7 61 9 80 2 19 7 95
10 169 3 74 8 138 11 142 2 4 0 10 -5 14 -7 3 -7 15 -1 30 14 37 -5 44 -113
42 -54 -1 -99 -3 -100 -3z"/>
<path d="M4553 3519 c-10 -4 -21 -5 -24 -3 -4 2 -31 -1 -60 -6 -50 -9 -67 -13
-118 -24 -42 -10 -157 -51 -171 -61 -8 -7 -24 -15 -34 -19 -68 -24 -186 -123
-265 -221 -28 -36 -88 -160 -95 -195 -2 -14 -10 -49 -16 -78 -7 -30 -10 -67
-8 -83 3 -16 1 -29 -4 -29 -5 0 -7 -3 -4 -8 2 -4 7 -34 10 -67 7 -66 19 -112
44 -165 9 -19 16 -37 17 -40 0 -3 15 -27 34 -55 52 -77 145 -163 250 -230 21
-14 104 -59 111 -60 3 -1 28 -11 55 -24 66 -30 77 -35 165 -66 92 -33 133 -50
185 -77 45 -24 108 -68 113 -80 2 -5 10 -15 18 -23 20 -20 25 -102 9 -141 -35
-84 -137 -126 -305 -126 -113 -1 -216 13 -350 47 -11 3 -29 7 -40 9 -16 4
-165 63 -205 82 -6 2 -18 -30 -29 -78 -10 -46 -22 -101 -27 -123 -5 -22 -12
-51 -15 -65 -3 -14 -9 -41 -14 -60 -5 -19 -12 -50 -15 -69 -3 -19 -8 -38 -11
-42 -3 -5 -7 -24 -9 -43 l-5 -35 82 -31 c78 -30 197 -64 263 -76 17 -2 37 -7
45 -9 93 -26 446 -26 578 -1 127 24 321 89 342 115 3 3 17 12 31 19 134 69
271 247 314 408 19 71 26 234 13 301 -5 26 -11 59 -14 72 -3 14 -8 29 -12 35
-3 6 -7 16 -8 21 -4 28 -84 147 -132 198 -49 50 -126 110 -187 143 -110 60
-142 74 -375 165 -138 54 -190 80 -224 111 -11 10 -23 18 -26 18 -14 0 -38 69
-36 101 8 112 120 168 321 164 115 -3 165 -9 250 -30 87 -22 84 -21 158 -49
79 -30 73 -29 75 -13 0 6 5 28 11 47 37 132 61 223 65 242 2 13 12 50 21 83
33 115 34 109 -32 134 -32 13 -68 27 -79 31 -35 14 -222 51 -283 57 -89 8
-328 9 -348 2z"/>
<path d="M5615 3478 c-7 -18 1 -1444 8 -1493 15 -97 20 -124 38 -198 61 -242
182 -420 364 -535 59 -37 188 -87 252 -98 15 -2 34 -7 41 -9 53 -19 361 -27
467 -12 112 15 212 42 303 83 62 28 156 86 189 118 11 12 42 41 67 65 25 24
46 48 46 52 0 4 6 14 13 21 61 61 148 278 171 428 3 19 9 46 13 60 3 14 8 364
10 778 l4 752 -313 -2 -313 -3 -1 -710 c-2 -778 -2 -777 -40 -904 -10 -31 -18
-59 -18 -63 -3 -22 -85 -119 -122 -142 -41 -26 -52 -30 -124 -45 -103 -21
-225 14 -297 86 -37 37 -90 130 -98 172 -2 12 -6 25 -9 29 -5 8 -12 56 -22
142 -3 30 -7 366 -8 745 l-1 690 -308 3 c-241 2 -309 0 -312 -10z"/>
</g>
</svg>
