<?xml version="1.0" encoding="UTF-8"?>
<svg width="760px" height="237px" viewBox="0 0 760 237" version="1.1" xmlns="http://www.w3.org/2000/svg" xmlns:xlink="http://www.w3.org/1999/xlink">
    <!-- Generator: Sketch 51.1 (57501) - http://www.bohemiancoding.com/sketch -->
    <title>Logo</title>
    <desc>Created with Sketch.</desc>
    <defs></defs>
    <g id="Freshers-Week-2018" stroke="none" stroke-width="1" fill="none" fill-rule="evenodd">
        <g id="Freshers-Homepage" transform="translate(-340.000000, -184.000000)">
            <g id="Logo" transform="translate(328.000000, 184.000000)">
                <g id="Sussex" transform="translate(13.000000, 0.000000)" fill="#44C1C3" fill-rule="nonzero">
                    <path d="M37.5206825,16.7382147 L23.9761591,16.7382147 C23.742684,13.4994797 21.7185627,11.7252107 18.9941444,11.7252107 C16.269726,11.7252107 14.5569049,13.11324 14.5569049,15.6586316 C14.5569049,18.8209298 17.2035552,19.9004987 23.1972527,21.7525469 C35.1853323,25.5317518 39,30.9309812 39,39.1076117 C39,49.9825215 30.6702678,56 20.0836664,56 C6.85041472,56 0.311300159,48.4402761 0,38.0280286 L13.5445376,38.0280286 C13.8564938,42.1156797 15.9577128,44.3526251 20.2393165,44.3526251 C23.4307278,44.3526251 25.4547493,42.8103656 25.4547493,40.3414249 C25.4547493,37.4875729 22.9637348,35.7911115 17.2035124,34.0168285 C6.92821123,30.9309812 1.01165421,26.1486442 1.01165421,16.8923883 C1.01165421,6.78861533 8.17336909,0 19.3832268,0 C30.0476817,4.23942239e-05 36.8981107,5.55350202 37.5206825,16.7382147 Z" id="Shape"></path>
                    <path d="M89.9999434,33.0123459 C89.9999434,47.2824017 82.0497657,56 67.538556,56 C53.0273462,56 45,47.2824017 45,33.0123459 L45,1 L58.3531027,1 L58.3531027,33.0123459 C58.3531027,39.4150978 61.0545935,43.5807728 67.538556,43.5807728 C74.0225184,43.5807728 76.6468973,39.4150978 76.6468973,33.0123459 L76.6468973,1 L90,1 L89.9999434,33.0123459 Z" id="Shape"></path>
                    <path d="M134.520682,16.7382147 L120.976159,16.7382147 C120.742684,13.4994797 118.718563,11.7252107 115.994144,11.7252107 C113.269726,11.7252107 111.556905,13.11324 111.556905,15.6586316 C111.556905,18.8209298 114.203555,19.9004987 120.197253,21.7525469 C132.185332,25.5317518 136,30.9309812 136,39.1076117 C136,49.9825215 127.670253,56 117.083666,56 C103.850415,56 97.3112859,48.4402761 97,38.0280286 L110.544538,38.0280286 C110.856494,42.1156797 112.957713,44.3526251 117.239316,44.3526251 C120.430714,44.3526251 122.454749,42.8103656 122.454749,40.3414249 C122.454749,37.4875729 119.963735,35.7911115 114.203512,34.0168285 C103.928211,30.9309812 98.0116542,26.1486442 98.0116542,16.8923883 C98.0116542,6.78861533 105.173369,0 116.383227,0 C127.047739,4.23942239e-05 133.898111,5.55350202 134.520682,16.7382147 Z" id="Shape"></path>
                    <path d="M177.522011,16.7382147 L163.976566,16.7382147 C163.742416,13.4994797 161.71893,11.7252107 158.994478,11.7252107 C156.270026,11.7252107 154.556476,13.11324 154.556476,15.6586316 C154.556476,18.8209298 157.203843,19.9004987 163.19833,21.7525469 C175.185936,25.5317518 179,30.9309812 179,39.1076117 C179,49.9825215 170.670792,56 160.084019,56 C146.849865,56 140.311291,48.4402761 140,38.0280286 L153.545446,38.0280286 C153.856737,42.1156797 155.958663,44.3526251 160.239657,44.3526251 C163.431125,44.3526251 165.455909,42.8103656 165.455909,40.3414249 C165.455909,37.4875729 162.964181,35.7911115 157.203843,34.0168285 C146.928361,30.9309812 141.0117,26.1486442 141.0117,16.8923883 C141.0117,6.78861533 148.173555,0 159.382925,0 C170.048195,4.23942239e-05 176.898074,5.55350202 177.522011,16.7382147 Z" id="Shape"></path>
                    <polygon id="Shape" points="218 13.4199514 199.275521 13.4199514 199.275521 21.1348226 215.159415 21.1348226 215.159415 33.554774 199.275521 33.554774 199.275521 42.5800345 218 42.5800345 218 55 186 55 186 1 218 1"></polygon>
                    <polygon id="Shape" points="258.097292 27.7686276 275 55 259.620893 55 248.962256 37.4886553 238.379051 55 223 55 239.901313 27.7686276 223.304424 1 238.68349 1 248.962228 18.0485999 259.316413 1 274.695464 1"></polygon>
                </g>
                <g id="Week-2018" transform="translate(403.000000, 183.000000)" fill="#44C1C3" fill-rule="nonzero">
                    <polygon id="Shape" points="57.868183 53 44.0659085 53 37.1281468 27.816921 36.4633895 24.1772655 35.8730462 27.816921 28.9341055 53 15.131817 53 0 1 13.433952 1 21.5536214 30.6402982 22.2171155 34.4284796 22.8087219 30.6402982 30.5587917 1 42.4424855 1 50.1925553 30.6402982 50.7084565 34.4284796 51.4476558 30.6402982 59.566048 1 73 1"></polygon>
                    <polygon id="Shape" points="109.999986 12.9599617 91.8605719 12.9599617 91.8605719 20.389084 107.248123 20.389084 107.248123 32.3490458 91.8605719 32.3490458 91.8605719 41.0400383 109.999915 41.0400383 109.999915 53 79 53 79 1 110 1"></polygon>
                    <polygon id="Shape" points="149 12.9599617 130.860657 12.9599617 130.860657 20.389084 146.24818 20.389084 146.24818 32.3490458 130.860657 32.3490458 130.860657 41.0400383 149 41.0400383 149 53 118 53 118 1 149 1"></polygon>
                    <polygon id="Shape" points="185.180422 24.5492513 203 53 187.715877 53 176.308895 34.8740716 169.89766 43.4914438 169.89766 53 157 53 157 1 169.89766 1 169.89766 25.0684635 185.180422 1 200.762601 1"></polygon>
                    <path d="M254,15.6109107 C254,22.0767774 250.841079,26.5368478 247.306916,30.6259948 L238.208028,41.0323876 L253.623442,41.0323876 L253.623442,53 L220.159322,53 L220.159322,43.7089217 L235.650565,26.3145312 C238.884014,22.7462148 240.914561,20.2195738 240.914561,16.2790478 C240.914561,13.7524067 239.711659,11.9676124 237.305855,11.9676124 C234.447664,11.9676124 232.868203,13.6037857 233.018575,17.3943904 L220.008965,17.3943904 C219.708236,6.83937672 227.002764,0 237.456227,0 C248.43529,2.82683703e-05 254,6.39352798 254,15.6109107 Z" id="Shape"></path>
                    <path d="M296,26.9256366 C296,43.8096103 289.224069,54 276.999993,54 C264.774642,54 258,43.8096103 258,26.9256366 C258,10.1153758 264.774684,0 276.999993,0 C289.224069,2.82858167e-05 296,10.1153758 296,26.9256366 Z M271,26.9257603 C271,36.6537835 272.928555,42 277.000618,42 C281.071404,42 283,36.6537835 283,26.9257603 C283,17.2726263 281.071445,12 277.000618,12 C272.928596,12.0000282 271,17.2726545 271,26.9257603 Z" id="Shape"></path>
                    <path d="M325,53 L312.064688,53 L312.064688,19.7949661 L301,19.7949661 L301,9.02325434 C309.448028,9.02325434 314.232956,6.86891481 315.653736,1 L325,1 L325,53 Z" id="Shape"></path>
                    <path d="M367.635256,15.9916693 C367.641424,20.0390712 365.7891,23.8700182 362.600493,26.4044846 C366.7155,28.6780039 369.186334,33.0508961 368.989002,37.7108912 C368.989002,47.1564022 360.871716,54 350.500341,54 C340.128966,54 332.01168,47.1564022 332.01168,37.7108912 C331.809454,33.0692991 334.246031,28.7052662 338.324405,26.4044846 C335.173598,23.8477959 333.352079,20.0240135 333.364097,15.9916693 C333.364097,7.28974995 340.128937,0 350.500312,0 C360.871688,0 367.635256,7.28969338 367.635256,15.9916693 Z M345.007882,37.1138971 C345.007882,40.2034797 347.220932,42 350.502041,42 C353.783151,42 355.996201,40.2034797 355.996201,37.1138971 C356.052122,35.73268 355.488623,34.3929868 354.443493,33.422402 C353.398363,32.4518173 351.967952,31.9398193 350.502027,32.0116029 C349.029315,31.9155227 347.583699,32.419593 346.53263,33.3956873 C345.481561,34.3717816 344.926263,35.7258981 345.007882,37.1138425 L345.007882,37.1138971 Z M346.009762,16.5733571 C345.955312,18.1371059 346.799038,19.6048132 348.210731,20.4020628 C349.622425,21.1993124 351.377575,21.1993124 352.789269,20.4020628 C354.200962,19.6048132 355.044688,18.1371059 354.990238,16.5733571 C355.100526,14.9762461 354.269628,13.4533293 352.834857,12.6228554 C351.400086,11.7923815 349.599914,11.7923815 348.165143,12.6228554 C346.730372,13.4533293 345.899474,14.9762461 346.009762,16.5733571 Z" id="Shape"></path>
                </g>
                <g id="Freshers" transform="translate(0.000000, 71.000000)">
                    <g id="Final-Freshers-styling--01" transform="translate(695.000000, 0.000000)"></g>
                    <rect id="Rectangle-path" fill="#44C1C3" fill-rule="nonzero" x="503" y="1" width="30" height="77"></rect>
                    <rect id="Rectangle-path" fill="#BB1F66" fill-rule="nonzero" x="503" y="78" width="30" height="19"></rect>
                    <polygon id="Shape" fill="#BB1F66" fill-rule="nonzero" points="536 1 536 27 536.014 1"></polygon>
                    <polygon id="Shape" fill="#BB1F66" fill-rule="nonzero" points="536 27 536 27 579 27 579 1"></polygon>
                    <polygon id="Shape" fill="#E46B3D" fill-rule="nonzero" points="536 27.117 536 27.117 536 27"></polygon>
                    <polygon id="Shape" fill="#E46B3D" fill-rule="nonzero" points="536.019808 1 536 26.8363636 536 27 579 1"></polygon>
                    <polygon id="Shape" fill="#BB1F66" fill-rule="nonzero" points="536 36 536 62 536.014 36"></polygon>
                    <polygon id="Shape" fill="#BB1F66" fill-rule="nonzero" points="536 61.9986015 536 62 579 62 579 36"></polygon>
                    <polygon id="Shape" fill="#E46B3D" fill-rule="nonzero" points="536 62.118 536 62.117 536 62"></polygon>
                    <polygon id="Shape" fill="#E46B3D" fill-rule="nonzero" points="536.019808 36 536 61.8363636 536 62 579 36"></polygon>
                    <polygon id="Shape" fill="#BB1F66" fill-rule="nonzero" points="536 71 536 97 536.014 71"></polygon>
                    <polygon id="Shape" fill="#BB1F66" fill-rule="nonzero" points="536 97 536 97 579 97 579 71"></polygon>
                    <polygon id="Shape" fill="#E46B3D" fill-rule="nonzero" points="536 98.118 536 98.118 536 98"></polygon>
                    <polygon id="Shape" fill="#E46B3D" fill-rule="nonzero" points="536.019808 71 536 96.8349739 536 97 579 71"></polygon>
                    <rect id="Rectangle-path" x="491" y="1" width="100" height="97"></rect>
                    <rect id="Rectangle-path" fill="#44C1C3" fill-rule="nonzero" x="213" y="1" width="30" height="77"></rect>
                    <rect id="Rectangle-path" fill="#BB1F66" fill-rule="nonzero" x="213" y="78" width="30" height="19"></rect>
                    <polygon id="Shape" fill="#BB1F66" fill-rule="nonzero" points="245 1 245 27 245.014 1"></polygon>
                    <polygon id="Shape" fill="#BB1F66" fill-rule="nonzero" points="245 27 245 27 288 27 288 1"></polygon>
                    <polygon id="Shape" fill="#E46B3D" fill-rule="nonzero" points="245 27.117 245 27.117 245 27"></polygon>
                    <polygon id="Shape" fill="#E46B3D" fill-rule="nonzero" points="245.019808 1 245 26.8363636 245 27 288 1"></polygon>
                    <polygon id="Shape" fill="#BB1F66" fill-rule="nonzero" points="245 36 245 62 245.014 36"></polygon>
                    <polygon id="Shape" fill="#BB1F66" fill-rule="nonzero" points="245 61.9986015 245 62 288 62 288 36"></polygon>
                    <polygon id="Shape" fill="#E46B3D" fill-rule="nonzero" points="245 62.118 245 62.117 245 62"></polygon>
                    <polygon id="Shape" fill="#E46B3D" fill-rule="nonzero" points="245.019808 36 245 61.8363636 245 62 288 36"></polygon>
                    <polygon id="Shape" fill="#BB1F66" fill-rule="nonzero" points="245 71 245 97 245.014 71"></polygon>
                    <polygon id="Shape" fill="#BB1F66" fill-rule="nonzero" points="245 97 245 97 288 97 288 71"></polygon>
                    <polygon id="Shape" fill="#E46B3D" fill-rule="nonzero" points="245 98.118 245 98.118 245 98"></polygon>
                    <polygon id="Shape" fill="#E46B3D" fill-rule="nonzero" points="245.019808 71 245 96.8349739 245 97 288 71"></polygon>
                    <rect id="Rectangle-path" x="200" y="1" width="100" height="97"></rect>
                    <rect id="Rectangle-path" fill="#E46B3D" fill-rule="nonzero" x="12" y="1" width="30" height="77"></rect>
                    <rect id="Rectangle-path" fill="#BB1F66" fill-rule="nonzero" x="12" y="78" width="30" height="19"></rect>
                    <polygon id="Shape" fill="#BB1F66" fill-rule="nonzero" points="45 1 45 27 45.014 1"></polygon>
                    <polygon id="Shape" fill="#4751A3" fill-rule="nonzero" points="45 27 45 27 88 27 88 1"></polygon>
                    <polygon id="Shape" fill="#E46B3D" fill-rule="nonzero" points="45 27.117 45 27.117 45 27"></polygon>
                    <polygon id="Shape" fill="#44C1C3" fill-rule="nonzero" points="45.0198085 1 45 26.8363636 45 27 88 1"></polygon>
                    <polygon id="Shape" fill="#BB1F66" fill-rule="nonzero" points="45 36 45 62 45.014 36"></polygon>
                    <polygon id="Shape" fill="#4751A3" fill-rule="nonzero" points="45 61.9986015 45 62 88 62 88 36"></polygon>
                    <polygon id="Shape" fill="#E46B3D" fill-rule="nonzero" points="45 62.118 45 62.117 45 62"></polygon>
                    <polygon id="Shape" fill="#44C1C3" fill-rule="nonzero" points="45.0198085 36 45 61.8363636 45 62 88 36"></polygon>
                    <rect id="Rectangle-path" x="0" y="1" width="100" height="97"></rect>
                    <polygon id="Shape" fill="#BB1F66" fill-rule="nonzero" points="420 36 420 62 420.014 36"></polygon>
                    <polygon id="Shape" fill="#E46B3D" fill-rule="nonzero" points="420 62.118 420 62.117 420 62"></polygon>
                    <polygon id="Shape" fill="#E46B3D" fill-rule="nonzero" points="449 1 449 36.3056324 449 44.3949983 449 44.3949983 449 62.6943676 449 98 479 98 479 1"></polygon>
                    <polygon id="Shape" fill="#4751A3" fill-rule="nonzero" points="433 36.3056324 433 1 403 1 403 98 433 98 433 62.6943676 433 54.6050017"></polygon>
                    <polygon id="Shape" fill="#BB1F66" fill-rule="nonzero" points="433 62 450 62 450 44 433 54.0429724"></polygon>
                    <polygon id="Shape" fill="#44C1C3" fill-rule="nonzero" points="433 36 433 54 450 43.9570276 450 36"></polygon>
                    <rect id="Rectangle-path" fill="#E46B3D" fill-rule="nonzero" x="403" y="78" width="30" height="20"></rect>
                    <rect id="Rectangle-path" fill="#BB1F66" fill-rule="nonzero" x="449" y="78" width="30" height="20"></rect>
                    <rect id="Rectangle-path" x="391" y="1" width="100" height="97"></rect>
                    <rect id="Rectangle-path" fill="#4751A3" fill-rule="nonzero" x="112" y="1" width="30" height="77"></rect>
                    <rect id="Rectangle-path" fill="#E46B3D" fill-rule="nonzero" x="112" y="78" width="30" height="19"></rect>
                    <path d="M168.892866,71.5102909 C180.413227,64.6032527 188,52.8460486 188,39.4999153 C188,18.2369617 168.748073,1 145,1 L145,78 L145,39.1035685 L168.892866,71.5102909 Z" id="Shape" fill="#BB1F66" fill-rule="nonzero"></path>
                    <polygon id="Shape" fill="#44C1C3" fill-rule="nonzero" points="145 39 145 77.6816345 145 96.9719353 188 97 168.89345 71.2267438"></polygon>
                    <rect id="Rectangle-path" x="100" y="1" width="100" height="97"></rect>
                    <rect id="Rectangle-path" fill="#4751A3" fill-rule="nonzero" x="603" y="1" width="30" height="77"></rect>
                    <rect id="Rectangle-path" fill="#E46B3D" fill-rule="nonzero" x="603" y="78" width="30" height="19"></rect>
                    <path d="M679,39.7673055 C679,18.3566761 659.748073,1 636,1 L636,39.3682059 L659.892866,72 C671.413227,65.0449626 679,53.2061306 679,39.7673055 Z" id="Shape" fill="#BB1F66" fill-rule="nonzero"></path>
                    <polygon id="Shape" fill="#44C1C3" fill-rule="nonzero" points="636 39 636 77.6816345 636 96.9719353 679 97 659.89345 71.2267438"></polygon>
                    <rect id="Rectangle-path" x="591" y="1" width="100" height="97"></rect>
                    <path d="M351.571104,39 L383,39 C383.011709,25.4278144 375.771517,12.8815835 364.009466,6.09210721 C352.247415,-0.697369071 337.752585,-0.697369071 325.990534,6.09210721 C314.228483,12.8815835 306.988291,25.4278144 307,39 L351.571104,39 Z" id="Shape" fill="#BB1F66" fill-rule="nonzero"></path>
                    <polygon id="Shape" fill="#44C1C3" fill-rule="nonzero" points="383 59.992823 351.570365 39 336.686218 39 307.039623 39 307 39.0086124 338.42822 60 382.958962 60"></polygon>
                    <path d="M338.42888,60 L307,60 C307,80.9868205 324.01318,98 345,98 C365.98682,98 383,80.9868205 383,60 L338.42888,60 Z" id="Shape" fill="#E46B3D" fill-rule="nonzero"></path>
                    <rect id="Rectangle-path" x="295" y="1" width="100" height="97"></rect>
                    <path d="M727.428894,60 L696,60 C696,80.9868205 713.01318,98 734,98 C754.98682,98 772,80.9868205 772,60 L727.428894,60 Z" id="Shape" fill="#E46B3D" fill-rule="nonzero"></path>
                    <rect id="Rectangle-path" x="684" y="1" width="100" height="97"></rect>
                    <polygon id="Shape" fill="#44C1C3" fill-rule="nonzero" points="725.686218 39 696.039623 39 696 39.0086124 727.42822 60 771.958962 60 772 59.992823 740.57178 39"></polygon>
                    <path d="M740.571458,39 L772,39 C772.011709,25.4278144 764.771517,12.8815835 753.009466,6.09210721 C741.247415,-0.697369071 726.752585,-0.697369071 714.990534,6.09210721 C703.228483,12.8815835 695.988291,25.4278144 696,39 L740.571458,39 Z" id="Shape" fill="#BB1F66" fill-rule="nonzero"></path>
                </g>
            </g>
        </g>
    </g>
</svg>