<svg xmlns="http://www.w3.org/2000/svg" viewBox="0 0 639 247.5"><path fill="#35509E" stroke="#E9576D" stroke-miterlimit="10" stroke-width="9.5" d="M599.7 238.3L11.5 212.4 52.3 98.5l576.8-37z"/><path fill="#E9576D" d="M123 146c0 7-3.5 12.8-9.6 16l12.2 23.6H109l-10.5-20.8h-2.7v20.8H81.2v-59.3H101c13.5 0 22 8 22 19.7zm-27.2-6v12h5.3c4.3 0 7-1.9 7-6 0-4.3-2.7-6-7-6h-5.3zm74.8 0H150v8.4h17.5v13.7H150v9.9h20.6v13.6h-35.3v-59.3h35.3V140z"/><path fill="#FFF" d="M217.7 140h-20.3v9.2h17.2v13.6h-17.2v22.8h-14.6v-59.3h35V140zm52.3 6c0 7-3.5 12.8-9.6 16l12.2 23.6h-16.7l-10.5-20.8h-2.6v20.8h-14.6v-59.3H248c13.4 0 22 8 22 19.7zm-27.2-6v12h5.3c4.3 0 7-1.9 7-6 0-4.3-2.7-6-7-6h-5.3zm74.8 0H297v8.4h17.5v13.7H297v9.9h20.6v13.6h-35.3v-59.3h35.3V140zm50.3 3.6H353c-.2-3.6-2.4-5.5-5.4-5.5-3 0-4.8 1.5-4.8 4.3 0 3.5 2.9 4.7 9.4 6.7 13 4.2 17.2 10 17.2 19 0 12-9 18.6-20.6 18.6-14.4 0-21.5-8.3-21.9-19.7h14.8c.3 4.5 2.6 7 7.3 7 3.4 0 5.6-1.8 5.6-4.5 0-3.1-2.7-5-9-7-11.1-3.3-17.6-8.6-17.6-18.7 0-11.1 7.8-18.6 20-18.6 11.6 0 19 6.1 19.8 18.4zm62.9 42h-14.7v-23.9h-20.9v24h-14.6v-59.4h14.6v21.8h21v-21.8h14.6v59.3zm49.3-45.6h-20.7v8.4H477v13.7h-17.6v9.9h20.7v13.6h-35.3v-59.3H480V140zm53.9 6c0 7-3.5 12.8-9.6 16l12.2 23.6H520l-10.5-20.8H507v20.8h-14.7v-59.3h20c13.4 0 21.9 8 21.9 19.7zm-27.1-6v12h5.2c4.4 0 7-1.9 7-6 0-4.3-2.6-6-7-6H507zm77.6 3.6h-14.8c-.2-3.6-2.4-5.5-5.4-5.5-3 0-4.8 1.5-4.8 4.3 0 3.5 2.9 4.7 9.4 6.7 13 4.2 17.2 10 17.2 19 0 12-9 18.6-20.6 18.6-14.4 0-21.5-8.3-21.9-19.7h14.8c.3 4.5 2.6 7 7.3 7 3.4 0 5.7-1.8 5.7-4.5 0-3.1-2.8-5-9-7-11.2-3.3-17.7-8.6-17.7-18.7 0-11.1 7.8-18.6 20-18.6 11.6 0 19.1 6.1 19.8 18.4zm-66.6-48.1c0 3.5-1.7 6-3.7 8.3l-5 5.7h8.5v6.6h-18.2V111l8.4-9.6c1.8-2 2.9-3.4 2.9-5.6 0-1.3-.7-2.3-2-2.3-1.6 0-2.4.9-2.3 3h-7.1c-.2-5.9 3.8-9.6 9.5-9.6 6 0 9 3.5 9 8.6zm24.9 6.2c0 9.3-3.7 15-10.5 15s-10.6-5.7-10.6-15S525.5 87 532.3 87s10.5 5.5 10.5 14.8zm-14 0c0 5.4 1.1 8.3 3.5 8.3 2.3 0 3.4-3 3.4-8.3 0-5.3-1.1-8.2-3.4-8.2-2.4 0-3.5 2.9-3.5 8.2zm31.3 14.3h-7V97.9H547v-6c4.6 0 7.3-1.2 8-4.4h5.1v28.7zM585 95.7a7 7 0 0 1-2.7 5.7c1.8 1 3.5 3 3.5 6.2 0 5.2-4.4 9-10 9-5.7 0-10.1-3.8-10.1-9a7 7 0 0 1 3.4-6.2c-1.3-1-2.7-3-2.7-5.7 0-4.8 3.7-8.8 9.3-8.8 5.7 0 9.4 4 9.4 8.8zm-12.2 11.6c0 1.8 1.2 2.8 3 2.8s2.9-1 2.9-2.8c0-1.8-1.3-2.9-3-2.9s-2.9 1.1-2.9 3zm.5-11.3c0 1.4 1 2.5 2.5 2.5s2.4-1 2.4-2.5-1-2.6-2.4-2.6c-1.5 0-2.5 1-2.5 2.6z"/><path fill="#FFF" fill-rule="evenodd" d="M148.3 46v16c0 9.4 4.2 13.9 12.3 13.9 8.2 0 12.7-4.6 12.7-13.7V46h-7.9v16.6c0 4.7-1.5 7-4.6 7-3.1 0-4.6-2.5-4.6-7V46h-8zm-23.6 28c1.6.9 5 1.9 8.6 1.9 8.6 0 12.5-4.4 12.5-9.5 0-4-2.4-7-7.6-8.8-3.7-1.4-5.3-2-5.3-3.5 0-1.3 1.3-2.2 3.7-2.2 3 0 5.1.8 6.4 1.4l1.7-6.3a19 19 0 0 0-8-1.5c-7.4 0-11.8 4-11.8 9.2 0 4.4 3.3 7.1 8.3 8.8 3.3 1.2 4.6 2 4.6 3.5 0 1.4-1.3 2.4-4 2.4-3 0-5.9-1-7.7-1.9l-1.4 6.5zm21.1-53.2s.5 9.6-3.2 15c-3.8 5.4-9.8 6.4-17.3 6.7v-9.8s.2-6.7 8.7-10c0 0 4-1.9 11.8-1.9zM77.6 8.2s-1 20.4 7 32c8 11.4 20.9 13.5 36.9 14.2V33.5S121 19.2 103 12.2c0 0-8.7-4-25.3-4z" clip-rule="evenodd"/></svg>