<?xml version="1.0" encoding="UTF-8"?>
<svg width="253px" height="676px" viewBox="0 0 253 676" version="1.1" xmlns="http://www.w3.org/2000/svg" xmlns:xlink="http://www.w3.org/1999/xlink">
    <!-- Generator: Sketch 50.2 (55047) - http://www.bohemiancoding.com/sketch -->
    <title>Group Copy 4</title>
    <desc>Created with Sketch.</desc>
    <defs></defs>
    <g id="Freshers-Week-2018" stroke="none" stroke-width="1" fill="none" fill-rule="evenodd" opacity="0.6">
        <g id="Freshers-Homepage" fill-rule="nonzero">
            <g id="Group-Copy-4" transform="translate(126.000000, 337.000000) scale(-1, -1) rotate(90.000000) translate(-126.000000, -337.000000) translate(-213.000000, 210.000000)">
                <rect id="Rectangle-path" fill="#BB1F66" transform="translate(634.500000, 21.000000) rotate(-180.000000) translate(-634.500000, -21.000000) " x="592" y="0" width="85" height="42"></rect>
                <rect id="Rectangle-path" fill="#4751A3" transform="translate(613.000000, 63.000000) rotate(-180.000000) translate(-613.000000, -63.000000) " x="592" y="42" width="42" height="42"></rect>
                <circle id="Oval" fill="#E46B3D" cx="571" cy="63" r="21"></circle>
                <circle id="Oval" fill="#E46B3D" cx="487" cy="105" r="21"></circle>
                <circle id="Oval" fill="#E46B3D" cx="107" cy="21" r="21"></circle>
                <circle id="Oval" fill="#BB1F66" cx="21" cy="21" r="21"></circle>
                <polygon id="Shape" fill="#4751A3" points="339 42 339 0 297 42"></polygon>
                <polygon id="Shape" fill="#44C1C3" points="424 84 424 42 382 84"></polygon>
                <polygon id="Shape" fill="#44C1C3" points="592 0 550 0 550 42"></polygon>
                <polygon id="Shape" fill="#44C1C3" points="85 0 43 0 43 42"></polygon>
                <polygon id="Shape" fill="#E46B3D" points="677 84 635 84 635 126"></polygon>
                <rect id="Rectangle-path" fill="#BB1F66" transform="translate(529.500000, 84.000000) rotate(90.000000) translate(-529.500000, -84.000000) " x="487" y="63" width="85" height="42"></rect>
                <rect id="Rectangle-path" fill="#BB1F66" transform="translate(656.500000, 169.000000) rotate(90.000000) translate(-656.500000, -169.000000) " x="614" y="148" width="85" height="42"></rect>
                <rect id="Rectangle-path" fill="#BB1F66" transform="translate(360.500000, 84.000000) rotate(90.000000) translate(-360.500000, -84.000000) " x="318" y="63" width="85" height="42"></rect>
                <rect id="Rectangle-path" fill="#E46B3D" transform="translate(318.500000, 84.000000) rotate(90.000000) translate(-318.500000, -84.000000) " x="276" y="63" width="85" height="42"></rect>
                <path d="M466.5,0 C443.027898,-1.42034288e-15 424,18.8040405 424,42 L509,42 C509,18.8040405 489.972102,1.42034288e-15 466.5,0 Z" id="Shape" fill="#E46B3D"></path>
                <path d="M592.5,126 C615.972102,126 635,107.195959 635,84 L550,84 C550,107.195959 569.027898,126 592.5,126 Z" id="Shape" fill="#44C1C3"></path>
                <rect id="Rectangle-path" fill="#44C1C3" transform="translate(466.500000, 148.000000) rotate(-180.000000) translate(-466.500000, -148.000000) " x="424" y="127" width="85" height="42"></rect>
                <rect id="Rectangle-path" fill="#44C1C3" transform="translate(634.500000, 233.000000) rotate(-180.000000) translate(-634.500000, -233.000000) " x="592" y="212" width="85" height="42"></rect>
                <rect id="Rectangle-path" fill="#44C1C3" transform="translate(212.500000, 63.000000) rotate(-180.000000) translate(-212.500000, -63.000000) " x="170" y="42" width="85" height="42"></rect>
                <polygon id="Shape" fill="#4751A3" points="467 126 467 42 382 126"></polygon>
                <polygon id="Shape" fill="#BB1F66" points="170 84 170 0 85 84"></polygon>
                <polygon id="Shape" fill="#4751A3" points="298 0 213 0 298 84"></polygon>
                <rect id="Rectangle-path" fill="#BB1F66" transform="translate(403.000000, 21.000000) rotate(-180.000000) translate(-403.000000, -21.000000) " x="382" y="0" width="42" height="42"></rect>
                <rect id="Rectangle-path" fill="#4751A3" transform="translate(64.000000, 63.000000) rotate(-180.000000) translate(-64.000000, -63.000000) " x="43" y="42" width="42" height="42"></rect>
                <ellipse id="Oval" fill="#E46B3D" cx="592.5" cy="169" rx="42.5" ry="42"></ellipse>
            </g>
        </g>
    </g>
</svg>