<?xml version="1.0" encoding="UTF-8"?>
<svg width="360px" height="300px" viewBox="0 0 360 300" version="1.1" xmlns="http://www.w3.org/2000/svg" xmlns:xlink="http://www.w3.org/1999/xlink">
    <!-- Generator: Sketch 56.3 (81716) - https://sketch.com -->
    <title>banner-left</title>
    <desc>Created with Sketch.</desc>
    <g id="banner-left" stroke="none" stroke-width="1" fill="none" fill-rule="evenodd">
        <g id="Pattern" transform="translate(-8.000000, -1.000000)" fill-rule="nonzero">
            <path d="M324.87,274.81 C321.172877,270.413507 316.723667,266.709218 311.73,263.87 C307.519579,261.667771 303.023097,260.062365 298.37,259.1 C287.63,256.53 276.32,255.29 265.45,253.01 C256.33,251.11 246.45,248.4 240.83,242.82 C225.51,227.68 251.24,212.98 264.39,202.66 C272.86,196.01 278.16,188.26 278.45,179.31 C278.73,170.56 274.29,161.73 265.69,155.23 C243.36,138.35 206.36,145.36 177.69,147.23 C162.58,148.23 146.26,148.23 132.51,143.23 C123.24,139.85 116.92,133.91 118.94,126.49 C120.96,119.07 129.39,112.73 137.94,108.17 C150.27,101.57 163.69,96.4 177.74,91.74 C206.62,82.16 237.33,73.33 255.74,54.26 C264.07,45.64 268.44,35.77 267.23,25.39 C266.23,16.6 261.86,8.16 256.74,0.07 L6.42,0.07 L6.42,298.32 L332.89,298.32 C333.207427,289.762454 330.35114,281.389472 324.87,274.81 Z" id="Path" fill="#1F1C34"></path>
            <path d="M6.42,133.08 C6.42,133.08 61.53,127.17 81.02,150.08 C100.51,172.99 95.22,182.62 123.62,182.62 C152.02,182.62 219.4,181.14 219.13,199.62 C218.86,218.1 214.87,235.85 240.53,236.62 C266.19,237.39 301.34,237.36 310.92,252.15 C320.5,266.94 327.74,285.41 343.47,289.86 C352.639977,292.323309 360.340758,298.549318 364.67,307 L7.74,304.31 L6.42,133.08 Z" id="Path" fill="#0869AB"></path>
            <path d="M154.61,319.45 C146.42,320.98 137.94,321.21 129.61,321.61 C112.37,322.45 95.09,322.61 77.83,322.94 L25.41,324.06 C19.04,324.19 10.62,325.86 5.06,321.06 C1.43,317.93 -0.11,311.35 2.67,307.06 C1.52384275,297.992262 0.966009214,288.859825 0.998535749,279.72 C1.02541547,268.965739 1.86111441,258.228679 3.5,247.6 C4.25,242.73 4.91,237.45 6.5,232.84 C7.63,229.56 10.24,226.36 13.5,226.98 C16.5,227.55 17.84,231.04 18.5,234.18 C19.57,239.25 20.21,244.52 20.86,249.69 C21.86,257.6 22.52,265.56 22.92,273.55 C24.1975319,266.376006 25.8464149,259.273125 27.86,252.27 C30.3828425,243.332363 33.8910362,234.702743 38.32,226.54 C40.3966656,222.789676 42.7603862,219.205647 45.39,215.82 C47.61,212.97 50.68,208.35 54.25,208.35 C61.88,208.35 58.39,223.99 57.82,228.71 C56.6866667,238.09 55.56,247.47 54.44,256.85 C58.522633,247.84271 63.4302336,239.232649 69.1,231.13 C75.1332298,222.504458 82.1059914,214.575834 89.89,207.49 C93.26,204.44 97.24,200.74 101.74,201.93 C105.51,202.93 107.23,206.93 106.81,211.37 C106.29,216.86 103.57,222.2 101.57,227.07 C99.19,232.863333 96.6633333,238.556667 93.99,244.15 C90.8633333,250.69 87.53,257.09 83.99,263.35 C87.84,258.79 91.78,254.35 95.99,250.21 C102.48,243.74 109.54,238 117.29,233.95 C121.59,231.71 133.2,225.29 135.81,233.74 C137.14,238.04 134.08,242.16 131.81,244.95 C128.33,249.15 124.78,253.26 121.16,257.28 C116.413333,262.613333 111.56,267.773333 106.6,272.76 C111.418406,269.7335 116.429036,267.024419 121.6,264.65 C128.79,261.43 136.4,259.19 144.1,259.18 C148.3,259.18 157.73,259.25 157.47,266.87 C157.36,270.24 154.8,272.59 152.6,274.17 C149.19,276.63 145.6,278.87 142.11,281.06 C136.383333,284.6 130.546667,287.873333 124.6,290.88 C131.525391,290.843997 138.4121,291.914137 145,294.05 C149.067198,295.345863 152.99365,297.047772 156.72,299.13 C159.87,300.93 163,303.56 163.94,307.84 C165.43,315.12 159.57,318.53 154.61,319.45 Z" id="Path" fill="#1F1C34"></path>
        </g>
    </g>
</svg>