<?xml version="1.0" encoding="UTF-8"?>
<svg width="435px" height="300px" viewBox="0 0 435 300" version="1.1" xmlns="http://www.w3.org/2000/svg" xmlns:xlink="http://www.w3.org/1999/xlink">
    <!-- Generator: Sketch 56.3 (81716) - https://sketch.com -->
    <title>banner-right</title>
    <desc>Created with Sketch.</desc>
    <g id="banner-right" stroke="none" stroke-width="1" fill="none" fill-rule="evenodd">
        <g id="Pattern" transform="translate(-1.000000, -1.000000)" fill-rule="nonzero">
            <path d="M438.83,104.45 L438.75,104.45 L438.75,0 L327.85,0 C331.85,0 334.42,20.05 334.44,21.84 C334.75,59.84 273.69,61.92 235.51,76.33 C193.38,92.23 118.87,154 178,183.11 C192.71,190.35 213.68,192.73 222.74,203.39 C235.59,218.49 216.74,235.87 220.74,251.75 C225,269 256.06,277.24 279,280.44 C301.6,283.6 324.91,283.22 347.95,284.14 C380.42,285.45 415.19,290.87 438.85,306.97 L438.83,104.45 Z" id="Path" fill="#F4A29E"></path>
            <path d="M438.83,221.37 L438.56,258.74 L438.47,271.74 L438.42,279.55 L438.36,287.33 L438.3,296.74 L438.3,303.41 L438,303.41 L429.68,303.48 L428.37,303.48 L422.16,303.48 L420.65,303.48 L417.38,303.48 L413.49,303.48 L402.77,303.56 L398.41,303.56 L392.27,303.56 L391.16,303.56 L387.33,303.56 L382.57,303.56 L374.96,303.62 L369.25,303.62 L358.42,303.71 L353.31,303.71 L342.31,303.8 L338.64,303.8 L337.35,303.8 L332.67,303.8 L300.67,304.06 L300.2,304.06 L268.82,304.31 L264.13,304.31 L260.54,304.31 L258.45,304.31 L232.04,304.53 L209.46,304.71 L183.99,304.92 L183.99,304.92 L0.12,307 C5.15008242,296.005903 14.5943881,287.651325 26.12,284 C45.44,278 54.33,253.27 66.12,233.44 C69.28,228.12 74.7,224.23 81.55,221.36 L81.7,221.3 L82.37,221.01 L82.37,221.01 C89.05,218.34 97.03,216.59 105.55,215.42 C120.85,213.33 137.91,213.08 152.49,212.63 C178.92,211.79 179.73,194.9 179.11,174.85 L179,171.4 C178.91,168.66 178.81,165.87 178.77,163.07 C178.48,141.42 241.57,140.2 280.77,140.23 C286.44,140.23 291.61,140.23 296.02,140.23 C330.88,140.23 324.38,127.35 348.3,96.61 C354.3,88.89 363.09,83.61 372.86,80.03 C397.09,71.15 427.45,72.75 436.92,73.53 L438.83,221.37 Z" id="Path" fill="#EC6760"></path>
        </g>
    </g>
</svg>