<svg id="Layer_1" data-name="Layer 1" xmlns="http://www.w3.org/2000/svg" viewBox="0 0 1000 3000"><defs><style>.cls-1{fill:#eb6760;}.cls-2{fill:#1f1c34;}</style></defs><title>Website frames left</title><path class="cls-1" d="M0,58.52c.14,34.57,75.24,85.62,96,111,43.55,53.17,63.41,111.14,58,180.42C149,414,128.35,476,123,540c-7.56,89.58,15.31,178,47.58,260.88,23.3,59.83,59.24,117.6,64.59,182.91,5.53,67.43-35.21,111.19-56.78,171.09-15.48,43-13.32,90.73-2.1,135,17.55,69.25,70.57,133.77,60.5,207.91-9.5,69.84-63.27,126.4-104.44,180C98.13,1722.2,3.74,1802.05,0,1861.79Z"/><path class="cls-2" d="M0,1140.47S40.12,1180.1,91.65,1299c23.44,54.1,35.8,109.91,36.43,168.81,1.15,105.58-45.78,191.26-6.32,298.13,13.57,36.75,33.61,70.74,49,106.78,58.86,138.11-53.61,244-35.05,379.71,12.73,93,65.79,167.2,62.19,264.37-2.84,76.61-18.51,178.52-78.86,232.76C83.72,2781.27,0,2904.14,0,2904.14Z"/></svg>