<?xml version="1.0" encoding="UTF-8"?>
<svg width="207px" height="1496px" viewBox="0 0 207 1496" version="1.1" xmlns="http://www.w3.org/2000/svg" xmlns:xlink="http://www.w3.org/1999/xlink">
    <!-- Generator: Sketch 56.3 (81716) - https://sketch.com -->
    <title>Artboard</title>
    <desc>Created with Sketch.</desc>
    <g id="Artboard" stroke="none" stroke-width="1" fill="none" fill-rule="evenodd">
        <g id="socialsquiggle" transform="translate(102.000000, 285.500000) rotate(90.000000) translate(-102.000000, -285.500000) translate(-184.000000, 180.000000)" fill-rule="nonzero">
            <path d="M0,1.31378956 C0,1.31378956 87.9343576,-5.80318221 119.031292,21.7756339 C150.128226,49.35445 141.674467,60.9202019 186.993112,60.9202019 C232.311757,60.9202019 339.793444,59.1410813 339.363343,81.3835141 C338.933242,103.625947 332.577143,124.975884 373.516979,125.865933 C414.456814,126.755983 470.526026,126.755983 485.80464,144.548657 C501.083254,162.341331 512.63922,184.558809 537.746056,189.921615 C562.852893,195.284421 571.568431,210.527805 571.568431,210.527805 L2.11674251,207.323333 L0,1.31378956 Z" id="Path_729" fill="#ED5551"></path>
            <path d="M2.84217094e-14,22.4145252 C2.84217094e-14,22.4145252 28.3421352,27.3291257 37.4187819,57.8442737 C46.4954286,88.3594217 34.9003182,124.96155 50.9031069,137.236308 C66.9058956,149.511066 95.8767904,159.637766 140.926806,158.770713 C153.410009,158.530464 166.131015,159.764985 178.141547,163.480294 C190.60322,167.335056 202.383288,173.233653 214.116873,179.023134 C222.576503,183.196435 231.138399,187.341355 240.243425,189.517304 C256.772708,193.465033 274.413208,190.593779 289.81317,183.118145 C307.376849,174.59148 322.04285,161.781909 341.567182,157.803843 C353.611476,155.348989 366.113762,156.158303 377.941783,159.461615 C391.1702,163.157352 404.842908,169.814864 413.575572,181.346854 C420.168496,190.053584 426.217311,200.087316 429.788274,210.659774 L2.84217094e-14,210.659774 L2.84217094e-14,22.4145252 Z" id="Path_760" fill="#031327"></path>
        </g>
        <g id="socialsquiggle" transform="translate(93.000000, 1210.000000) scale(1, -1) rotate(90.000000) translate(-93.000000, -1210.000000) translate(-193.000000, 1096.000000)" fill-rule="nonzero">
            <path d="M1.13686838e-13,1.2859846 C1.13686838e-13,1.2859846 87.9343576,-5.83098717 119.031292,21.7478289 C150.128226,49.326645 141.674467,60.8923969 186.993112,60.8923969 C232.311757,60.8923969 308.669087,39.5246721 327.736984,57.4751052 C346.804881,75.4255383 351.583897,110.309285 392.523733,111.199335 C433.463569,112.089385 462.452682,84.6388666 477.731296,102.431541 C493.00991,120.224215 512.63922,184.531004 537.746056,189.89381 C562.852893,195.256616 571.568431,210.5 571.568431,210.5 L2.11674251,207.295528 L1.13686838e-13,1.2859846 Z" id="Path_729" fill="#ED5551"></path>
            <path d="M1.13686838e-13,21.4145252 C1.13686838e-13,21.4145252 28.3421352,26.3291257 37.4187819,56.8442737 C46.4954286,87.3594217 25.6816114,76.8120906 50.9031069,136.236308 C76.1246024,195.660525 95.8767904,158.637766 140.926806,157.770713 C153.410009,157.530464 165.171965,170.251168 178.141547,162.480294 C191.111129,154.709421 201.921165,154.245645 213.65475,160.035127 C222.11438,164.208427 231.138399,186.341355 240.243425,188.517304 C256.772708,192.465033 274.413208,189.593779 289.81317,182.118145 C307.376849,173.59148 322.04285,160.781909 341.567182,156.803843 C353.611476,154.348989 366.113762,155.158303 377.941783,158.461615 C391.1702,162.157352 418.727159,168.425773 413.575572,180.346854 C408.964282,191.017657 478.555442,217.388782 482.126405,227.96124 L1.13686838e-13,209.659774 L1.13686838e-13,21.4145252 Z" id="Path_760" fill="#031327"></path>
        </g>
        <path d="M-87.0982064,898 C-34.5517589,898 117.245353,825.468622 78.8475256,753.028001 C40.449698,680.58738 36.2502134,658 -16.2962341,658 C-68.8426816,658 -111.439994,700.545485 -111.439994,753.028001 C-111.439994,805.510517 -139.644654,898 -87.0982064,898 Z" id="Oval" fill="#C3E2F0"></path>
    </g>
</svg>