<svg id="Layer_1" data-name="Layer 1" xmlns="http://www.w3.org/2000/svg" viewBox="0 0 1000 3000"><defs><style>.cls-1{fill:#086aac;}.cls-2{fill:#fed107;}</style></defs><title>Website frames right</title><path class="cls-1" d="M1000,1774.66s-40.12-37.5-91.65-150c-23.44-51.18-35.8-104-36.43-159.7-1.15-99.9,45.78-181,6.32-282.07-13.57-34.77-33.61-66.93-49-101C770.42,951.2,882.89,851,864.33,722.63c-12.73-88-65.79-158.19-62.19-250.13C805,400,820.65,303.6,881,252.29c35.28-30,119-146.24,119-146.24Z"/><path class="cls-2" d="M1000,2889c-.14-32.71-75.24-81-96-105-43.55-50.3-63.41-105.14-58-170.69,5-60.58,25.65-119.26,31-179.81,7.56-84.76-15.31-168.43-47.58-246.83-23.3-56.6-59.24-111.26-64.59-173-5.53-63.79,35.21-105.19,56.78-161.86,15.48-40.67,13.32-85.85,2.1-127.74-17.55-65.52-70.57-126.56-60.5-196.71,9.5-66.07,63.27-119.59,104.44-170.25,34.17-42,128.56-117.6,132.3-174.12Z"/></svg>