<?xml version="1.0" encoding="UTF-8"?>
<svg width="207px" height="1496px" viewBox="0 0 207 1496" version="1.1" xmlns="http://www.w3.org/2000/svg" xmlns:xlink="http://www.w3.org/1999/xlink">
    <!-- Generator: Sketch 56.3 (81716) - https://sketch.com -->
    <title>Artboard Copy 2</title>
    <desc>Created with Sketch.</desc>
    <g id="Artboard-Copy-2" stroke="none" stroke-width="1" fill="none" fill-rule="evenodd">
        <g id="socialsquiggle" transform="translate(207.054239, 610.369036) scale(-1, 1) rotate(78.000000) translate(-207.054239, -610.369036) translate(-261.945761, 464.369036)" fill="#FAD00F" fill-rule="nonzero">
            <path d="M2.06210915,117.081953 C-16.6069836,104.601747 212.415714,-32.9475452 259.041929,8.41304174 C305.668144,49.7736287 292.992721,67.1190537 360.942728,67.1190537 C428.892735,67.1190537 590.048951,64.4508655 589.404065,97.8083553 C588.759179,131.165845 579.228952,163.184838 640.613446,164.519666 C701.997941,165.854494 786.067164,165.854494 808.975659,192.538578 C831.884154,219.222662 849.210972,252.542726 886.855737,260.58545 C924.500501,268.628174 937.568431,291.489029 937.568431,291.489029 L83.7422389,286.683208 L2.06210915,117.081953 Z" id="Path_729"></path>
        </g>
        <path d="M235.297283,1555.52941 C328.026308,1555.52941 595.903564,1427.53286 528.142692,1299.69647 C460.38182,1171.86008 452.970965,1132 360.24194,1132 C267.512915,1132 192.341188,1207.08027 192.341188,1299.69647 C192.341188,1392.31268 142.568258,1555.52941 235.297283,1555.52941 Z" id="Oval" fill="#ED5551" transform="translate(359.000000, 1343.764706) rotate(73.000000) translate(-359.000000, -1343.764706) "></path>
    </g>
</svg>