<svg xmlns="http://www.w3.org/2000/svg" width="140" height="116" viewBox="0 0 140 116">
  <path fill="#FFF" d="M257.134233,346.858744 L245,346.858744 L245,367.420934 L250.082863,367.420934 L250.082863,359.519179 L256.047147,359.519179 L256.047147,354.789875 L250.082863,354.789875 L250.082863,351.588048 L257.134233,351.588048 L257.134233,346.858744 Z M267.658735,346.858744 C272.330268,346.858744 275.268339,349.619953 275.268339,353.673642 C275.268339,356.11173 274.034349,358.1092 271.918938,359.225433 L276.14976,367.420934 L270.391141,367.420934 L266.747933,360.194793 L265.837131,360.194793 L265.837131,367.420934 L260.754268,367.420934 L260.754268,346.858744 L267.658735,346.858744 Z M267.658735,351.588048 L265.837131,351.588048 L265.837131,355.759235 L267.658735,355.759235 C269.157151,355.759235 270.067953,355.112995 270.067953,353.673642 C270.067953,352.204914 269.157151,351.588048 267.658735,351.588048 Z M291.786506,346.858744 L279.53475,346.858744 L279.53475,367.420934 L291.786506,367.420934 L291.786506,362.691631 L284.617613,362.691631 L284.617613,359.254808 L290.69942,359.254808 L290.69942,354.525504 L284.617613,354.525504 L284.617613,351.588048 L291.786506,351.588048 L291.786506,346.858744 Z M302.369768,346.476875 C298.138946,346.476875 295.43592,349.061836 295.43592,352.909903 C295.43592,356.43485 297.668854,358.256073 301.547108,359.431055 C303.721281,360.10667 304.661463,360.75291 304.661463,361.839769 C304.661463,362.779754 303.897565,363.367246 302.692956,363.367246 C301.077017,363.367246 300.283738,362.515383 300.166215,360.958532 L295.053971,360.958532 C295.171494,364.924097 297.639474,367.802804 302.634194,367.802804 C306.629971,367.802804 309.773707,365.511588 309.773707,361.369776 C309.773707,358.256073 308.334052,356.199854 303.809423,354.7605 C301.547108,354.055511 300.548164,353.644267 300.548164,352.43991 C300.548164,351.47055 301.19454,350.941808 302.222865,350.941808 C303.251189,350.941808 304.015088,351.617423 304.10323,352.851154 L309.215474,352.851154 C308.980428,348.591843 306.394925,346.476875 302.369768,346.476875 Z M331.051549,346.858744 L325.968686,346.858744 L325.968686,354.408006 L318.711651,354.408006 L318.711651,346.858744 L313.628788,346.858744 L313.628788,367.420934 L318.711651,367.420934 L318.711651,359.137309 L325.968686,359.137309 L325.968686,367.420934 L331.051549,367.420934 L331.051549,346.858744 Z M348.15733,346.858744 L335.905574,346.858744 L335.905574,367.420934 L348.15733,367.420934 L348.15733,362.691631 L340.988436,362.691631 L340.988436,359.254808 L347.070243,359.254808 L347.070243,354.525504 L340.988436,354.525504 L340.988436,351.588048 L348.15733,351.588048 L348.15733,346.858744 Z M359.269445,346.858744 C363.940978,346.858744 366.879049,349.619953 366.879049,353.673642 C366.879049,356.11173 365.645059,358.1092 363.529648,359.225433 L367.76047,367.420934 L362.001851,367.420934 L358.358643,360.194793 L357.447841,360.194793 L357.447841,367.420934 L352.364978,367.420934 L352.364978,346.858744 L359.269445,346.858744 Z M359.269445,351.588048 L357.447841,351.588048 L357.447841,355.759235 L359.269445,355.759235 C360.767861,355.759235 361.678663,355.112995 361.678663,353.673642 C361.678663,352.204914 360.767861,351.588048 359.269445,351.588048 Z M377.521073,346.476875 C373.290251,346.476875 370.587226,349.061836 370.587226,352.909903 C370.587226,356.43485 372.82016,358.256073 376.698414,359.431055 C378.872586,360.10667 379.812769,360.75291 379.812769,361.839769 C379.812769,362.779754 379.04887,363.367246 377.844261,363.367246 C376.228322,363.367246 375.435043,362.515383 375.31752,360.958532 L370.205277,360.958532 C370.322799,364.924097 372.790779,367.802804 377.7855,367.802804 C381.781276,367.802804 384.925012,365.511588 384.925012,361.369776 C384.925012,358.256073 383.485358,356.199854 378.960728,354.7605 C376.698414,354.055511 375.699469,353.644267 375.699469,352.43991 C375.699469,351.47055 376.345845,350.941808 377.37417,350.941808 C378.402495,350.941808 379.166393,351.617423 379.254535,352.851154 L384.366779,352.851154 C384.131733,348.591843 381.546231,346.476875 377.521073,346.476875 Z M301.849399,373.466688 L296.50211,373.466688 L293.270232,385.187136 L292.976425,386.685238 L292.77076,385.187136 L289.685785,373.466688 L284.955491,373.466688 L281.870516,385.187136 L281.63547,386.685238 L281.371044,385.187136 L278.139166,373.466688 L272.791877,373.466688 L278.814922,394.028878 L284.309115,394.028878 L287.070902,384.070903 L287.305947,382.631549 L287.570374,384.070903 L290.332161,394.028878 L295.826353,394.028878 L301.849399,373.466688 Z M317.398001,373.466688 L305.146245,373.466688 L305.146245,394.028878 L317.398001,394.028878 L317.398001,389.299574 L310.229108,389.299574 L310.229108,385.862751 L316.310915,385.862751 L316.310915,381.133447 L310.229108,381.133447 L310.229108,378.195991 L317.398001,378.195991 L317.398001,373.466688 Z M333.857407,373.466688 L321.60565,373.466688 L321.60565,394.028878 L333.857407,394.028878 L333.857407,389.299574 L326.688513,389.299574 L326.688513,385.862751 L332.77032,385.862751 L332.77032,381.133447 L326.688513,381.133447 L326.688513,378.195991 L333.857407,378.195991 L333.857407,373.466688 Z M355.311533,373.466688 L349.170964,373.466688 L343.147919,382.984044 L343.147919,373.466688 L338.065056,373.466688 L338.065056,394.028878 L343.147919,394.028878 L343.147919,390.268934 L345.67466,386.861486 L350.169908,394.028878 L356.192954,394.028878 L349.170964,382.778422 L355.311533,373.466688 Z M290.758181,399.692762 C286.674262,399.692762 283.824333,402.395221 283.941856,406.566408 L289.024719,406.566408 C288.965958,405.068306 289.582953,404.422065 290.69942,404.422065 C291.639602,404.422065 292.109694,405.127055 292.109694,406.12579 C292.109694,407.682641 291.316414,408.681376 290.053044,410.091355 L284.000618,416.965001 L284.000618,420.636821 L297.075034,420.636821 L297.075034,415.907517 L291.051988,415.907517 L294.607054,411.795079 C295.987947,410.179479 297.221937,408.417005 297.221937,405.861419 C297.221937,402.218974 295.047765,399.692762 290.758181,399.692762 Z M307.540773,399.692762 C312.417971,399.692762 315.120996,403.687701 315.120996,410.326351 C315.120996,416.994376 312.417971,421.01869 307.540773,421.01869 C302.663575,421.01869 299.96055,416.994376 299.96055,410.326351 C299.96055,403.687701 302.663575,399.692762 307.540773,399.692762 Z M307.540773,404.422065 C305.866073,404.422065 305.072793,406.507659 305.072793,410.326351 C305.072793,414.174418 305.866073,416.289387 307.540773,416.289387 C309.215474,416.289387 310.008753,414.174418 310.008753,410.326351 C310.008753,406.507659 309.215474,404.422065 307.540773,404.422065 Z M327.555244,400.074631 L323.882656,400.074631 C323.324422,402.395221 321.444057,403.247083 318.124036,403.247083 L318.124036,407.506394 L322.472381,407.506394 L322.472381,420.636821 L327.555244,420.636821 L327.555244,400.074631 Z M344.572883,400.074631 L331.439706,400.074631 L331.439706,404.803935 L338.814264,404.803935 L332.115462,420.636821 L337.639036,420.636821 L344.572883,404.157694 L344.572883,400.074631 Z M284.442404,305 C291.529898,305 295.256701,306.717303 295.256701,306.717303 C303.007074,309.717461 303.258615,315.846989 303.258615,315.846989 L303.235787,324.785767 C296.376789,324.472766 290.844192,323.595239 287.414801,318.671555 C283.985194,313.747655 284.442404,305 284.442404,305 Z M313.662653,310.404296 C313.662653,310.404296 313.876935,314.504813 312.269489,316.812959 C310.662043,319.120888 308.068464,319.532256 304.853786,319.678942 L304.842803,315.488903 C304.842803,315.488903 304.960604,312.615585 308.59351,311.209558 C308.59351,311.209558 310.340726,310.404296 313.662653,310.404296 Z M304.591908,333.181808 L305.226359,330.396933 C305.991102,330.78975 307.241266,331.181918 308.49143,331.181918 C309.648344,331.181918 310.208064,330.78975 310.208064,330.154255 C310.208064,329.537311 309.648344,329.182245 308.230199,328.696455 C306.103304,327.949006 304.703895,326.77142 304.703895,324.902469 C304.703895,322.678884 306.569558,320.959207 309.74181,320.959207 C311.252991,320.959207 312.316223,321.239852 313.155695,321.61347 L312.446946,324.304508 C311.905747,324.061829 310.972807,323.706332 309.704337,323.706332 C308.678147,323.706332 308.118427,324.080381 308.118427,324.640807 C308.118427,325.276302 308.789704,325.53818 310.37583,326.135925 C312.633663,326.958228 313.659422,328.173132 313.659422,329.929696 C313.659422,332.097843 311.96174,333.966577 308.286192,333.966577 C306.775012,333.966577 305.300873,333.555425 304.591908,333.181808 Z M314.704348,321.164999 L318.081408,321.164999 L318.081408,328.304072 C318.081408,330.210124 318.734594,331.294306 320.059058,331.294306 C321.402473,331.294306 322.05566,330.303745 322.05566,328.304072 L322.05566,321.164999 L325.432719,321.164999 L325.432719,328.117263 C325.432719,332.004222 323.492326,333.966577 319.965807,333.966577 C316.514449,333.966577 314.704348,332.078859 314.704348,328.023426 L314.704348,321.164999 Z" transform="translate(-245 -305)"/>
</svg>
