<svg xmlns="http://www.w3.org/2000/svg" width="427" height="93" viewBox="0 0 427 93">
  <g fill="#FFF" fill-rule="evenodd">
    <path d="M19.032,1.2 L0.86,1.2 L0.86,32 L8.472,32 L8.472,20.164 L17.404,20.164 L17.404,13.08 L8.472,13.08 L8.472,8.284 L19.032,8.284 L19.032,1.2 Z M33.244,1.2 C40.24,1.2 44.64,5.336 44.64,11.408 C44.64,15.06 42.792,18.052 39.624,19.724 L45.96,32 L37.336,32 L31.88,21.176 L30.516,21.176 L30.516,32 L22.904,32 L22.904,1.2 L33.244,1.2 Z M33.244,8.284 L30.516,8.284 L30.516,14.532 L33.244,14.532 C35.488,14.532 36.852,13.564 36.852,11.408 C36.852,9.208 35.488,8.284 33.244,8.284 Z M67.828,1.2 L49.48,1.2 L49.48,32 L67.828,32 L67.828,24.916 L57.092,24.916 L57.092,19.768 L66.2,19.768 L66.2,12.684 L57.092,12.684 L57.092,8.284 L67.828,8.284 L67.828,1.2 Z M82.128,0.628 C75.792,0.628 71.744,4.5 71.744,10.264 C71.744,15.544 75.088,18.272 80.896,20.032 C84.152,21.044 85.56,22.012 85.56,23.64 C85.56,25.048 84.416,25.928 82.612,25.928 C80.192,25.928 79.004,24.652 78.828,22.32 L71.172,22.32 C71.348,28.26 75.044,32.572 82.524,32.572 C88.508,32.572 93.216,29.14 93.216,22.936 C93.216,18.272 91.06,15.192 84.284,13.036 C80.896,11.98 79.4,11.364 79.4,9.56 C79.4,8.108 80.368,7.316 81.908,7.316 C83.448,7.316 84.592,8.328 84.724,10.176 L92.38,10.176 C92.028,3.796 88.156,0.628 82.128,0.628 Z M123.532,1.2 L115.92,1.2 L115.92,12.508 L105.052,12.508 L105.052,1.2 L97.44,1.2 L97.44,32 L105.052,32 L105.052,19.592 L115.92,19.592 L115.92,32 L123.532,32 L123.532,1.2 Z M147.6,1.2 L129.252,1.2 L129.252,32 L147.6,32 L147.6,24.916 L136.864,24.916 L136.864,19.768 L145.972,19.768 L145.972,12.684 L136.864,12.684 L136.864,8.284 L147.6,8.284 L147.6,1.2 Z M162.692,1.2 C169.688,1.2 174.088,5.336 174.088,11.408 C174.088,15.06 172.24,18.052 169.072,19.724 L175.408,32 L166.784,32 L161.328,21.176 L159.964,21.176 L159.964,32 L152.352,32 L152.352,1.2 L162.692,1.2 Z M162.692,8.284 L159.964,8.284 L159.964,14.532 L162.692,14.532 C164.936,14.532 166.3,13.564 166.3,11.408 C166.3,9.208 164.936,8.284 162.692,8.284 Z M188.476,0.628 C182.14,0.628 178.092,4.5 178.092,10.264 C178.092,15.544 181.436,18.272 187.244,20.032 C190.5,21.044 191.908,22.012 191.908,23.64 C191.908,25.048 190.764,25.928 188.96,25.928 C186.54,25.928 185.352,24.652 185.176,22.32 L177.52,22.32 C177.696,28.26 181.392,32.572 188.872,32.572 C194.856,32.572 199.564,29.14 199.564,22.936 C199.564,18.272 197.408,15.192 190.632,13.036 C187.244,11.98 185.748,11.364 185.748,9.56 C185.748,8.108 186.716,7.316 188.256,7.316 C189.796,7.316 190.94,8.328 191.072,10.176 L198.728,10.176 C198.376,3.796 194.504,0.628 188.476,0.628 Z M253.332,1.2 L245.324,1.2 L240.484,18.756 L240.044,21 L239.736,18.756 L235.116,1.2 L228.032,1.2 L223.412,18.756 L223.06,21 L222.664,18.756 L217.824,1.2 L209.816,1.2 L218.836,32 L227.064,32 L231.2,17.084 L231.552,14.928 L231.948,17.084 L236.084,32 L244.312,32 L253.332,1.2 Z M275.068,1.2 L256.72,1.2 L256.72,32 L275.068,32 L275.068,24.916 L264.332,24.916 L264.332,19.768 L273.44,19.768 L273.44,12.684 L264.332,12.684 L264.332,8.284 L275.068,8.284 L275.068,1.2 Z M298.168,1.2 L279.82,1.2 L279.82,32 L298.168,32 L298.168,24.916 L287.432,24.916 L287.432,19.768 L296.54,19.768 L296.54,12.684 L287.432,12.684 L287.432,8.284 L298.168,8.284 L298.168,1.2 Z M328.748,1.2 L319.552,1.2 L310.532,15.456 L310.532,1.2 L302.92,1.2 L302.92,32 L310.532,32 L310.532,26.368 L314.316,21.264 L321.048,32 L330.068,32 L319.552,15.148 L328.748,1.2 Z M350.352,0.628 C344.236,0.628 339.968,4.676 340.144,10.924 L347.756,10.924 C347.668,8.68 348.592,7.712 350.264,7.712 C351.672,7.712 352.376,8.768 352.376,10.264 C352.376,12.596 351.188,14.092 349.296,16.204 L340.232,26.5 L340.232,32 L359.812,32 L359.812,24.916 L350.792,24.916 L356.116,18.756 C358.184,16.336 360.032,13.696 360.032,9.868 C360.032,4.412 356.776,0.628 350.352,0.628 Z M373.936,0.628 C381.24,0.628 385.288,6.612 385.288,16.556 C385.288,26.544 381.24,32.572 373.936,32.572 C366.632,32.572 362.584,26.544 362.584,16.556 C362.584,6.612 366.632,0.628 373.936,0.628 Z M373.936,7.712 C371.428,7.712 370.24,10.836 370.24,16.556 C370.24,22.32 371.428,25.488 373.936,25.488 C376.444,25.488 377.632,22.32 377.632,16.556 C377.632,10.836 376.444,7.712 373.936,7.712 Z M402.36,1.2 L396.86,1.2 C396.024,4.676 393.208,5.952 388.236,5.952 L388.236,12.332 L394.748,12.332 L394.748,32 L402.36,32 L402.36,1.2 Z M426.296,1.2 L406.628,1.2 L406.628,8.284 L417.672,8.284 L407.64,32 L415.912,32 L426.296,7.316 L426.296,1.2 Z" transform="translate(0 60)"/>
    <path fill-rule="nonzero" d="M183.03,0 C193.575,0 199.12,2.55 199.12,2.55 C210.652,7.007 211.026,16.112 211.026,16.112 L210.992,29.39 C200.787,28.925 192.555,27.621 187.452,20.308 C182.35,12.994 183.03,0 183.03,0 Z M226.505,8.028 C226.505,8.028 226.825,14.118 224.433,17.547 C222.041,20.975 218.183,21.587 213.399,21.804 L213.383,15.58 C213.383,15.58 213.558,11.312 218.963,9.224 C218.963,9.224 221.563,8.028 226.505,8.028 L226.505,8.028 Z M213.01,41.86 L213.953,37.724 C215.091,38.307 216.951,38.89 218.811,38.89 C220.533,38.89 221.365,38.307 221.365,37.363 C221.365,36.447 220.533,35.919 218.423,35.198 C215.258,34.088 213.176,32.338 213.176,29.562 C213.176,26.259 215.952,23.705 220.672,23.705 C222.92,23.705 224.502,24.122 225.752,24.677 L224.697,28.674 C223.416472,28.0874989 222.024451,27.7842627 220.616,27.785 C219.089,27.785 218.256,28.341 218.256,29.173 C218.256,30.117 219.256,30.506 221.616,31.394 C224.974,32.616 226.501,34.42 226.501,37.03 C226.501,40.25 223.975,43.026 218.506,43.026 C216.258,43.026 214.064,42.416 213.01,41.86 L213.01,41.86 Z M228.055,24.01 L233.08,24.01 L233.08,34.615 C233.08,37.446 234.052,39.057 236.022,39.057 C238.022,39.057 238.992,37.585 238.992,34.615 L238.992,24.012 L244.017,24.012 L244.017,34.338 C244.017,40.112 241.13,43.027 235.884,43.027 C230.748,43.027 228.055,40.223 228.055,34.199 L228.055,24.012 L228.055,24.01 Z"/>
  </g>
</svg>
